<svg width="1280" height="311" viewBox="0 0 1280 311" version="1.1" xmlns="http://www.w3.org/2000/svg" xmlns:xlink="http://www.w3.org/1999/xlink">
<title>08 Footer_bg</title>
<desc>Created using Figma</desc>
<g id="Canvas" transform="translate(-894 -6553)">
<g id="08 Footer_bg">
<g id="Rectangle 8">
<use xlink:href="#path0_fill" transform="translate(894 6554)" fill="#161C31"/>
</g>
<g id="Mask Group" opacity="0.4">
<mask id="mask0_alpha" mask-type="alpha">
<g id="Rectangle">
<use xlink:href="#path1_fill" transform="matrix(-1 0 -0 1 2174 6553)" fill="#C4C4C4"/>
<mask id="mask1_outline_ins">
<use xlink:href="#path1_fill" fill="white" transform="matrix(-1 0 -0 1 2174 6553)"/>
</mask>
<g mask="url(#mask1_outline_ins)">
<use xlink:href="#path2_stroke_2x" transform="matrix(-1 0 -0 1 2174 6553)" fill="#384B73"/>
</g>
</g>
</mask>
<g id="Group 12.2" opacity="0.8" mask="url(#mask0_alpha)">
<g id="Ellipse 3">
<mask id="mask2_outline_ins">
<use xlink:href="#path3_fill" fill="white" transform="matrix(-1 0 0 -1 2124 6566)"/>
</mask>
<g mask="url(#mask2_outline_ins)">
<use xlink:href="#path4_stroke_2x" transform="matrix(-1 0 0 -1 2124 6566)" fill="#384B73"/>
</g>
</g>
<g id="Ellipse 3.1">
<mask id="mask3_outline_ins">
<use xlink:href="#path5_fill" fill="white" transform="matrix(-1 0 0 -1 2120.68 6562.68)"/>
</mask>
<g mask="url(#mask3_outline_ins)">
<use xlink:href="#path6_stroke_2x" transform="matrix(-1 0 0 -1 2120.68 6562.68)" fill="#384B73"/>
</g>
</g>
<g id="Ellipse 3.2">
<mask id="mask4_outline_ins">
<use xlink:href="#path7_fill" fill="white" transform="matrix(-1 0 0 -1 2117.36 6559.36)"/>
</mask>
<g mask="url(#mask4_outline_ins)">
<use xlink:href="#path8_stroke_2x" transform="matrix(-1 0 0 -1 2117.36 6559.36)" fill="#384B73"/>
</g>
</g>
<g id="Ellipse 3.3">
<mask id="mask5_outline_ins">
<use xlink:href="#path9_fill" fill="white" transform="matrix(-1 0 0 -1 2114.04 6556.04)"/>
</mask>
<g mask="url(#mask5_outline_ins)">
<use xlink:href="#path10_stroke_2x" transform="matrix(-1 0 0 -1 2114.04 6556.04)" fill="#384B73"/>
</g>
</g>
</g>
<g id="Group" style="mix-blend-mode:screen" opacity="0.3" mask="url(#mask0_alpha)">
<g id="Vector">
<use xlink:href="#path11_fill" transform="matrix(-1 0 0 -1 1849 7213)" fill="#895E71"/>
<use xlink:href="#path12_stroke" transform="matrix(-1 0 0 -1 1849 7213)" fill="#384B73"/>
</g>
<g id="Vector">
<use xlink:href="#path13_fill" transform="matrix(-1 0 0 -1 1181 7119)" fill="#67FAD6"/>
<use xlink:href="#path14_stroke" transform="matrix(-1 0 0 -1 1181 7119)" fill="#384B73"/>
</g>
<g id="Vector">
<use xlink:href="#path15_fill" transform="matrix(-1 0 0 -1 1694 6565)" fill="#895E71"/>
<use xlink:href="#path16_stroke" transform="matrix(-1 0 0 -1 1694 6565)" fill="#384B73"/>
</g>
<g id="Vector">
<use xlink:href="#path17_fill" transform="matrix(-1 0 0 -1 1678 6870)" fill="#324E71"/>
<use xlink:href="#path18_stroke" transform="matrix(-1 0 0 -1 1678 6870)" fill="#384B73"/>
</g>
<g id="Vector">
<use xlink:href="#path13_fill" transform="matrix(-1 0 0 -1 1494 7018)" fill="#FABC67"/>
<use xlink:href="#path14_stroke" transform="matrix(-1 0 0 -1 1494 7018)" fill="#384B73"/>
</g>
<g id="Vector">
<use xlink:href="#path19_fill" transform="matrix(-1 0 0 -1 2104 7054)" fill="#324E71"/>
<use xlink:href="#path20_stroke" transform="matrix(-1 0 0 -1 2104 7054)" fill="#384B73"/>
</g>
<g id="Vector">
<use xlink:href="#path21_fill" transform="matrix(-1 0 0 -1 2005 6626)" fill="#375A78"/>
<use xlink:href="#path22_stroke" transform="matrix(-1 0 0 -1 2005 6626)" fill="#384B73"/>
</g>
</g>
<g id="Vector 2.7" mask="url(#mask0_alpha)">
<use xlink:href="#path23_stroke" transform="matrix(-1 0 0 -1 1294 7154)" fill="#384B73"/>
</g>
<g id="Vector 2.6" mask="url(#mask0_alpha)">
<use xlink:href="#path23_stroke" transform="matrix(-1 0 0 -1 1741 6842)" fill="#384B73"/>
</g>
</g>
</g>
</g>
<defs>
<path id="path0_fill" d="M 0 0L 1280 0L 1280 310L 0 310L 0 0Z"/>
<path id="path1_fill" d="M 0 0L 1280 0L 1280 311L 0 311L 0 0Z"/>
<path id="path2_stroke_2x" d="M 0 0L 0 -1L -1 -1L -1 0L 0 0ZM 1280 0L 1281 0L 1281 -1L 1280 -1L 1280 0ZM 1280 311L 1280 312L 1281 312L 1281 311L 1280 311ZM 0 311L -1 311L -1 312L 0 312L 0 311ZM 0 1L 1280 1L 1280 -1L 0 -1L 0 1ZM 1279 0L 1279 311L 1281 311L 1281 0L 1279 0ZM 1280 310L 0 310L 0 312L 1280 312L 1280 310ZM 1 311L 1 0L -1 0L -1 311L 1 311Z"/>
<path id="path3_fill" d="M 78 39C 78 60.5391 60.5391 78 39 78C 17.4609 78 0 60.5391 0 39C 0 17.4609 17.4609 0 39 0C 60.5391 0 78 17.4609 78 39Z"/>
<path id="path4_stroke_2x" d="M 77 39C 77 59.9868 59.9868 77 39 77L 39 79C 61.0914 79 79 61.0914 79 39L 77 39ZM 39 77C 18.0132 77 1 59.9868 1 39L -1 39C -1 61.0914 16.9086 79 39 79L 39 77ZM 1 39C 1 18.0132 18.0132 1 39 1L 39 -1C 16.9086 -1 -1 16.9086 -1 39L 1 39ZM 39 1C 59.9868 1 77 18.0132 77 39L 79 39C 79 16.9086 61.0914 -1 39 -1L 39 1Z"/>
<path id="path5_fill" d="M 71.3617 35.6809C 71.3617 55.3868 55.3868 71.3617 35.6809 71.3617C 15.9749 71.3617 0 55.3868 0 35.6809C 0 15.9749 15.9749 0 35.6809 0C 55.3868 0 71.3617 15.9749 71.3617 35.6809Z"/>
<path id="path6_stroke_2x" d="M 70.3617 35.6809C 70.3617 54.8346 54.8346 70.3617 35.6809 70.3617L 35.6809 72.3617C 55.9391 72.3617 72.3617 55.9391 72.3617 35.6809L 70.3617 35.6809ZM 35.6809 70.3617C 16.5271 70.3617 1 54.8346 1 35.6809L -1 35.6809C -1 55.9391 15.4226 72.3617 35.6809 72.3617L 35.6809 70.3617ZM 1 35.6809C 1 16.5271 16.5271 1 35.6809 1L 35.6809 -1C 15.4226 -1 -1 15.4226 -1 35.6809L 1 35.6809ZM 35.6809 1C 54.8346 1 70.3617 16.5271 70.3617 35.6809L 72.3617 35.6809C 72.3617 15.4226 55.9391 -1 35.6809 -1L 35.6809 1Z"/>
<path id="path7_fill" d="M 64.7234 32.3617C 64.7234 50.2346 50.2346 64.7234 32.3617 64.7234C 14.4888 64.7234 0 50.2346 0 32.3617C 0 14.4888 14.4888 0 32.3617 0C 50.2346 0 64.7234 14.4888 64.7234 32.3617Z"/>
<path id="path8_stroke_2x" d="M 63.7234 32.3617C 63.7234 49.6823 49.6823 63.7234 32.3617 63.7234L 32.3617 65.7234C 50.7869 65.7234 65.7234 50.7869 65.7234 32.3617L 63.7234 32.3617ZM 32.3617 63.7234C 15.0411 63.7234 1 49.6823 1 32.3617L -1 32.3617C -1 50.7869 13.9365 65.7234 32.3617 65.7234L 32.3617 63.7234ZM 1 32.3617C 1 15.0411 15.0411 1 32.3617 1L 32.3617 -1C 13.9365 -1 -1 13.9365 -1 32.3617L 1 32.3617ZM 32.3617 1C 49.6823 1 63.7234 15.0411 63.7234 32.3617L 65.7234 32.3617C 65.7234 13.9365 50.7869 -1 32.3617 -1L 32.3617 1Z"/>
<path id="path9_fill" d="M 58.0851 29.0426C 58.0851 45.0823 45.0823 58.0851 29.0426 58.0851C 13.0028 58.0851 0 45.0823 0 29.0426C 0 13.0028 13.0028 0 29.0426 0C 45.0823 0 58.0851 13.0028 58.0851 29.0426Z"/>
<path id="path10_stroke_2x" d="M 57.0851 29.0426C 57.0851 44.53 44.53 57.0851 29.0426 57.0851L 29.0426 59.0851C 45.6346 59.0851 59.0851 45.6346 59.0851 29.0426L 57.0851 29.0426ZM 29.0426 57.0851C 13.5551 57.0851 1 44.53 1 29.0426L -1 29.0426C -1 45.6346 12.4505 59.0851 29.0426 59.0851L 29.0426 57.0851ZM 1 29.0426C 1 13.5551 13.5551 1 29.0426 1L 29.0426 -1C 12.4505 -1 -1 12.4505 -1 29.0426L 1 29.0426ZM 29.0426 1C 44.53 1 57.0851 13.5551 57.0851 29.0426L 59.0851 29.0426C 59.0851 12.4505 45.6346 -1 29.0426 -1L 29.0426 1Z"/>
<path id="path11_fill" d="M 0 369L 246.811 0L 298.054 0L 52.9956 369L 0 369Z"/>
<path id="path12_stroke" d="M 246.811 0L 246.811 -0.5L 246.544 -0.5L 246.395 -0.277982L 246.811 0ZM 0 369L -0.415603 368.722L -0.935967 369.5L 0 369.5L 0 369ZM 52.9956 369L 52.9956 369.5L 53.2638 369.5L 53.4121 369.277L 52.9956 369ZM 298.054 0L 298.471 0.276614L 298.987 -0.5L 298.054 -0.5L 298.054 0ZM 246.395 -0.277982L -0.415603 368.722L 0.415603 369.278L 247.226 0.277982L 246.395 -0.277982ZM 0 369.5L 52.9956 369.5L 52.9956 368.5L 0 368.5L 0 369.5ZM 53.4121 369.277L 298.471 0.276614L 297.638 -0.276614L 52.5791 368.723L 53.4121 369.277ZM 298.054 -0.5L 246.811 -0.5L 246.811 0.5L 298.054 0.5L 298.054 -0.5Z"/>
<path id="path13_fill" d="M 0 331L 220.507 0L 253 0L 33.6037 331L 0 331Z"/>
<path id="path14_stroke" d="M 220.507 0L 220.507 -0.5L 220.239 -0.5L 220.091 -0.277211L 220.507 0ZM 0 331L -0.416118 330.723L -0.933884 331.5L 0 331.5L 0 331ZM 33.6037 331L 33.6037 331.5L 33.8722 331.5L 34.0205 331.276L 33.6037 331ZM 253 0L 253.417 0.276242L 253.931 -0.5L 253 -0.5L 253 0ZM 220.091 -0.277211L -0.416118 330.723L 0.416118 331.277L 220.923 0.277211L 220.091 -0.277211ZM 0 331.5L 33.6037 331.5L 33.6037 330.5L 0 330.5L 0 331.5ZM 34.0205 331.276L 253.417 0.276242L 252.583 -0.276242L 33.187 330.724L 34.0205 331.276ZM 253 -0.5L 220.507 -0.5L 220.507 0.5L 253 0.5L 253 -0.5Z"/>
<path id="path15_fill" d="M 0 122.5L 81.2563 0L 132.5 0L 52.9956 122.5L 0 122.5Z"/>
<path id="path16_stroke" d="M 81.2563 0L 81.2563 -0.5L 80.988 -0.5L 80.8396 -0.276383L 81.2563 0ZM 0 122.5L -0.416668 122.224L -0.931656 123L 0 123L 0 122.5ZM 52.9956 122.5L 52.9956 123L 53.2672 123L 53.415 122.772L 52.9956 122.5ZM 132.5 0L 132.919 0.272204L 133.421 -0.5L 132.5 -0.5L 132.5 0ZM 80.8396 -0.276383L -0.416668 122.224L 0.416668 122.776L 81.673 0.276383L 80.8396 -0.276383ZM 0 123L 52.9956 123L 52.9956 122L 0 122L 0 123ZM 53.415 122.772L 132.919 0.272204L 132.081 -0.272204L 52.5762 122.228L 53.415 122.772ZM 132.5 -0.5L 81.2563 -0.5L 81.2563 0.5L 132.5 0.5L 132.5 -0.5Z"/>
<path id="path17_fill" d="M 0 170.5L 117.142 0L 234.142 0L 121 170.5L 0 170.5Z"/>
<path id="path18_stroke" d="M 117.142 0L 117.142 -0.5L 116.878 -0.5L 116.729 -0.283138L 117.142 0ZM 0 170.5L -0.412108 170.217L -0.950161 171L 0 171L 0 170.5ZM 121 170.5L 121 171L 121.268 171L 121.417 170.776L 121 170.5ZM 234.142 0L 234.558 0.276461L 235.073 -0.5L 234.142 -0.5L 234.142 0ZM 116.729 -0.283138L -0.412108 170.217L 0.412108 170.783L 117.554 0.283138L 116.729 -0.283138ZM 0 171L 121 171L 121 170L 0 170L 0 171ZM 121.417 170.776L 234.558 0.276461L 233.725 -0.276461L 120.583 170.224L 121.417 170.776ZM 234.142 -0.5L 117.142 -0.5L 117.142 0.5L 234.142 0.5L 234.142 -0.5Z"/>
<path id="path19_fill" d="M 0 428L 286.5 0L 403.5 0L 121 428L 0 428Z"/>
<path id="path20_stroke" d="M 286.5 0L 286.5 -0.5L 286.233 -0.5L 286.085 -0.278134L 286.5 0ZM 0 428L -0.415502 427.722L -0.936379 428.5L 0 428.5L 0 428ZM 121 428L 121 428.5L 121.269 428.5L 121.417 428.275L 121 428ZM 403.5 0L 403.917 0.275435L 404.429 -0.5L 403.5 -0.5L 403.5 0ZM 286.085 -0.278134L -0.415502 427.722L 0.415502 428.278L 286.915 0.278134L 286.085 -0.278134ZM 0 428.5L 121 428.5L 121 427.5L 0 427.5L 0 428.5ZM 121.417 428.275L 403.917 0.275435L 403.083 -0.275435L 120.583 427.725L 121.417 428.275ZM 403.5 -0.5L 286.5 -0.5L 286.5 0.5L 403.5 0.5L 403.5 -0.5Z"/>
<path id="path21_fill" d="M 0 106.5L 70.5 0L 102.993 0L 33.6037 106.5L 0 106.5Z"/>
<path id="path22_stroke" d="M 70.5 0L 70.5 -0.5L 70.2314 -0.5L 70.0831 -0.275993L 70.5 0ZM 0 106.5L -0.416926 106.224L -0.930612 107L 0 107L 0 106.5ZM 33.6037 106.5L 33.6037 107L 33.8747 107L 34.0227 106.773L 33.6037 106.5ZM 102.993 0L 103.412 0.272948L 103.915 -0.5L 102.993 -0.5L 102.993 0ZM 70.0831 -0.275993L -0.416926 106.224L 0.416926 106.776L 70.9169 0.275993L 70.0831 -0.275993ZM 0 107L 33.6037 107L 33.6037 106L 0 106L 0 107ZM 34.0227 106.773L 103.412 0.272948L 102.574 -0.272948L 33.1848 106.227L 34.0227 106.773ZM 102.993 -0.5L 70.5 -0.5L 70.5 0.5L 102.993 0.5L 102.993 -0.5Z"/>
<path id="path23_stroke" d="M 224.584 -0.277066L -0.416214 337.723L 0.416214 338.277L 225.416 0.277066L 224.584 -0.277066Z"/>
</defs>
</svg>
