<svg width="100" height="107" viewBox="0 0 100 107" version="1.1" xmlns="http://www.w3.org/2000/svg" xmlns:xlink="http://www.w3.org/1999/xlink">
<title>Footer_logo</title>
<desc>Created using Figma</desc>
<g id="Canvas" transform="translate(-2043 -6677)">
<g id="Footer_logo">
<g id="Header_logo">
<g id="Group">
<g id="Group" filter="url(#filter0_d)">
<g id="Subtract">
<use xlink:href="#path0_fill" transform="translate(2053 6682)" fill="#3B527B"/>
</g>
</g>
</g>
</g>
</g>
</g>
<defs>
<filter id="filter0_d" filterUnits="userSpaceOnUse" x="2043" y="6677" width="100" height="107" color-interpolation-filters="sRGB">
<feFlood flood-opacity="0" result="BackgroundImageFix"/>
<feColorMatrix in="SourceAlpha" type="matrix" values="0 0 0 0 0 0 0 0 0 0 0 0 0 0 0 0 0 0 255 0"/>
<feOffset dx="0" dy="5"/>
<feGaussianBlur stdDeviation="5"/>
<feColorMatrix type="matrix" values="0 0 0 0 0 0 0 0 0 0 0 0 0 0 0 0 0 0 0.25 0"/>
<feBlend mode="normal" in2="BackgroundImageFix" result="effect1_dropShadow"/>
<feBlend mode="normal" in="SourceGraphic" in2="effect1_dropShadow" result="shape"/>
</filter>
<path id="path0_fill" fill-rule="evenodd" d="M 63.4698 22.9062C 63.4698 22.0986 63.6156 21.3647 63.98 20.7036C 62.3768 19.4556 60.6279 18.2812 58.879 17.3999C 54.7255 15.271 50.1346 14.1694 45.1794 14.1694C 42.7019 14.1694 40.37 14.4634 38.1111 14.9771C 35.7792 15.4912 33.5931 16.3721 31.4799 17.3999C 29.3667 18.5015 27.3992 19.8228 25.5774 21.3647C 23.7556 22.9062 22.1525 24.6685 20.6951 26.5771C 20.1851 27.2378 19.9664 28.0454 20.1122 28.853C 20.1851 29.5874 20.6222 30.3213 21.2781 30.8354C 21.934 31.3496 22.7355 31.5698 23.537 31.4229C 24.2657 31.3496 24.9945 30.9087 25.5045 30.248C 26.6704 28.7065 27.9822 27.3115 29.4396 26.0635C 30.897 24.8154 32.5001 23.7871 34.176 22.9062C 37.6738 21.1445 41.3903 20.2632 45.1794 20.2632C 48.8959 20.2632 52.6851 21.0708 56.11 22.833C 57.786 23.7139 59.3892 24.7417 60.8466 25.9897C 62.2311 27.2378 63.5427 28.6328 64.7086 30.1748C 65.656 31.4961 66.0204 32.9644 65.8018 34.4331C 65.5831 35.9014 64.7815 37.2227 63.5427 38.1772C 62.2311 39.1318 60.7737 39.4985 59.3163 39.2783C 57.8589 39.0581 56.5472 38.2505 55.5999 37.0024C 54.9441 36.1216 54.2882 35.3872 53.4867 34.7266C 52.6851 34.0659 51.8835 33.4785 50.9362 33.0381C 50.0618 32.5977 49.1145 32.2305 48.0942 32.0103C 47.0741 31.79 46.054 31.6431 45.0337 31.6431C 43.212 31.6431 41.536 32.0103 40.0057 32.6709C 38.4026 33.3315 37.0181 34.2861 35.7792 35.5342C 34.5404 36.709 33.5931 38.1772 32.9373 39.7925C 32.8196 39.9702 32.7494 40.1958 32.6884 40.3921L 32.6458 40.5264C 33.1559 40.7471 33.5931 41.1138 33.9575 41.481C 34.8319 42.3618 35.342 43.5366 35.342 44.8584C 35.342 46.1797 34.8319 47.3545 33.9575 48.2354C 33.5931 48.6025 33.1559 48.9697 32.6458 49.1899C 32.6821 49.2998 32.7368 49.4287 32.7915 49.5566L 32.7975 49.5708C 32.8502 49.6948 32.9022 49.8174 32.9373 49.9238C 33.5931 51.5391 34.5404 52.9341 35.7792 54.1821C 36.9452 55.4302 38.4026 56.3848 40.0057 57.0454C 41.536 57.7065 43.2848 58.0732 45.0337 58.0732C 46.1268 58.0732 47.147 57.9268 48.0942 57.7065C 49.1145 57.4858 50.0618 57.1191 50.9362 56.6787C 51.8835 56.2378 52.6851 55.6504 53.4867 54.9897C 54.2882 54.3291 55.017 53.5215 55.5999 52.7139C 56.5472 51.3926 57.8589 50.6582 59.3163 50.438C 60.7737 50.291 62.304 50.585 63.5427 51.5391C 64.8544 52.4937 65.5831 53.8154 65.8018 55.2837C 65.9475 56.752 65.656 58.2935 64.7086 59.542C 64.6356 59.6152 64.5809 59.707 64.5262 59.7988C 64.4717 59.8906 64.4171 59.9824 64.3444 60.0557C 64.8544 60.79 65.073 61.6709 65.073 62.5518C 65.073 63.8735 64.5629 65.0483 63.6885 65.9292C 62.8141 66.8101 61.6481 67.3242 60.3364 67.3242C 59.1705 67.3242 58.1504 66.8833 57.3488 66.2227C 57.1301 66.333 56.9297 66.4429 56.7294 66.5527C 56.5291 66.6631 56.3286 66.7734 56.11 66.8833C 52.7579 68.5723 49.0416 69.4531 45.1066 69.4531C 43.212 69.4531 41.3174 69.2329 39.4956 68.7925C 37.601 68.3521 35.8521 67.7646 34.176 66.8833C 32.5001 66.0024 30.897 64.9746 29.4396 63.7266C 27.9093 62.4785 26.6704 61.0835 25.5045 59.542C 25.0673 58.8809 24.3386 58.5142 23.537 58.3672C 22.7355 58.2935 21.934 58.4404 21.2781 58.9546C 20.6222 59.395 20.2579 60.1289 20.1122 60.9365C 20.0393 61.7441 20.1851 62.5518 20.6951 63.2129C 20.7997 63.3442 20.895 63.4761 20.9877 63.6045L 20.9946 63.6143C 21.1573 63.8398 21.3125 64.0552 21.4967 64.2407C 22.1525 63.8735 22.9541 63.6533 23.7556 63.6533C 25.0673 63.6533 26.2333 64.167 27.1077 65.0483C 27.9822 65.9292 28.4922 67.104 28.4922 68.4253C 28.4922 69.0859 28.3464 69.7471 28.0551 70.334C 29.1481 71.0684 30.314 71.8027 31.5527 72.3896C 33.5931 73.4175 35.8521 74.2251 38.184 74.8125C 40.4429 75.3267 42.7748 75.6201 45.1794 75.6201C 49.9889 75.6201 54.6526 74.4458 58.879 72.2432C 63.1055 70.0405 66.8219 66.957 69.6638 63.0659C 70.6111 61.7441 71.9229 61.0103 73.3802 60.79C 74.8376 60.6431 76.3679 60.9365 77.6067 61.8911C 78.9183 62.8457 79.6471 64.167 79.8656 65.6353C 80.0114 67.104 79.7198 68.6455 78.7726 69.8936C 78.5902 70.1138 78.4261 70.3345 78.2621 70.5552C 78.0983 70.7754 77.9344 70.9951 77.7524 71.2153C 78.1896 71.9492 78.4082 72.8306 78.4082 73.7114C 78.4082 75.0327 77.8982 76.2075 77.0237 77.0884C 76.1493 77.9697 74.9834 78.4834 73.6716 78.4834C 72.7244 78.4834 71.9229 78.1899 71.1941 77.7495C 68.9352 79.585 66.4575 81.1265 63.9071 82.4482C 61.0652 83.9165 57.9318 85.0913 54.7983 85.8252C 51.6649 86.6328 48.4586 87 45.1794 87C 39.5685 87 34.176 85.8989 29.2209 83.8433C 24.12 81.6406 19.5292 78.5571 15.6671 74.666C 11.8049 70.7749 8.67151 66.1494 6.55835 61.0103C 5.10095 57.3394 4.08069 53.5215 3.64355 49.4834C 2.76904 49.2632 1.96753 48.8228 1.38452 48.2354C 0.510132 47.3545 0 46.1797 0 44.8584C 0 43.6104 0.510132 42.4355 1.38452 41.5542C 2.04041 40.9673 2.76904 40.5264 3.64355 40.3062C 4.08069 36.2686 5.10095 32.3774 6.55835 28.7798C 8.67151 23.6406 11.7321 19.0151 15.5942 15.124C 19.4563 11.2329 24.0471 8.07617 29.1481 5.94678C 31.2612 5.13916 33.3745 4.40527 35.5607 3.89111C 35.7063 2.93652 36.2164 2.05566 36.7994 1.39502C 37.6738 0.51416 38.8397 0 40.1515 0C 41.4631 0 42.629 0.51416 43.6492 1.39502C 44.0135 1.76221 44.3779 2.27588 44.5966 2.79004L 45.3252 2.79004C 48.6044 2.79004 51.8107 3.23047 54.9441 3.96436C 58.0775 4.77197 61.1381 5.87354 64.0529 7.3418C 66.8948 8.81006 69.6638 10.5723 72.1414 12.7012C 74.619 14.7568 76.8779 17.1797 78.8455 19.8228C 79.7927 21.1445 80.1571 22.6128 79.9385 24.0811C 79.7198 25.5493 78.9183 26.8711 77.6796 27.8252C 76.3679 28.7798 74.9105 29.147 73.4531 28.9268C 72.2142 28.7065 71.0483 28.1924 70.174 27.2378C 69.5909 27.5317 68.9352 27.6787 68.2064 27.6787C 66.8948 27.6787 65.7289 27.1646 64.8544 26.2837C 63.98 25.4023 63.4698 24.228 63.4698 22.9062ZM 68.0607 18.1343C 69.3723 18.1343 70.5382 18.6479 71.4127 19.5293C 72.2871 20.4102 72.7972 21.585 72.943 22.9062C 72.943 23.8608 72.6515 24.7417 72.2142 25.4761C 72.7244 25.9165 73.3074 26.21 73.8903 26.2837C 74.6919 26.3569 75.4934 26.21 76.1493 25.6963C 76.8051 25.2559 77.1694 24.5215 77.3152 23.7139C 77.3881 22.9062 77.2423 22.0986 76.7322 21.438C 74.8376 18.9419 72.7972 16.7393 70.4655 14.7568C 68.1335 12.7749 65.5831 11.0859 62.887 9.69092C 60.1178 8.29639 57.2759 7.26855 54.2882 6.53418C 51.3734 5.7998 48.3129 5.43311 45.2523 5.43311L 44.8879 5.43311C 44.7422 6.46094 44.3051 7.3418 43.5763 8.07617C 42.7019 8.95703 41.536 9.4707 40.2244 9.4707C 38.9126 9.4707 37.7467 8.95703 36.8723 8.07617C 36.4351 7.63525 36.0707 7.12158 35.8521 6.53418C 33.8846 6.97461 31.99 7.63525 30.1682 8.36963C 25.4316 10.3521 21.1323 13.2886 17.4888 16.9595C 13.8453 20.6304 10.9305 24.9619 8.59863 29.8076C 7.21411 33.1846 6.33972 36.709 5.90247 40.4531C 6.55835 40.6733 7.14124 41.0405 7.65137 41.5542C 8.52576 42.4355 9.03589 43.6104 9.03589 44.9316C 9.03589 46.2529 8.52576 47.4277 7.65137 48.3091C 7.21411 48.7495 6.55835 49.1899 5.90247 49.4102C 6.26685 53.1543 7.21411 56.752 8.59863 60.0557C 10.5662 64.8276 13.481 69.1597 17.1245 72.8306C 20.6951 76.5015 24.9945 79.438 29.8038 81.4204C 34.4675 83.4023 39.4956 84.4302 44.8151 84.4302C 47.8756 84.4302 50.9362 84.0635 53.8511 83.3291C 56.8387 82.5947 59.7535 81.5669 62.4497 80.1724C 64.8544 78.9238 67.0405 77.5293 69.1537 75.8403C 68.8623 75.2529 68.7166 74.519 68.7166 73.7847C 68.7166 72.4634 69.2266 71.2886 70.1011 70.4077C 70.9755 69.5264 72.1414 69.0127 73.4531 69.0127C 74.1818 69.0127 74.8376 69.2329 75.4934 69.5264L 76.3679 68.4253C 76.8779 67.7646 77.0966 66.957 76.9508 66.1494C 76.8779 65.415 76.4408 64.6812 75.7849 64.167C 75.129 63.6533 74.3275 63.4331 73.526 63.5796C 72.7972 63.6533 72.0685 64.0938 71.5585 64.7544C 68.425 68.9395 64.4172 72.3164 59.8264 74.666C 55.3085 77.0151 50.2075 78.2632 45.0337 78.2632C 42.4104 78.2632 39.86 77.9697 37.3823 77.3823C 34.9048 76.7949 32.4272 75.9141 30.1682 74.7393C 28.7837 74.0049 27.472 73.1973 26.1604 72.3164C 25.4316 72.8306 24.5573 73.124 23.6099 73.124C 22.2982 73.124 21.1323 72.6104 20.2579 71.729C 19.3834 70.8481 18.8734 69.6733 18.8734 68.3521C 18.8734 67.5444 19.0919 66.7368 19.4563 66.0762L 19.452 66.0713L 19.4454 66.0635L 19.4402 66.0571L 19.4343 66.0503L 19.428 66.0425L 19.4229 66.0361C 19.0696 65.6079 18.7188 65.1821 18.4362 64.7544C 17.4888 63.4331 17.1245 61.9644 17.3431 60.4961C 17.5616 59.0278 18.3633 57.7065 19.6021 56.752C 20.9137 55.7974 22.3711 55.4302 23.8285 55.6504C 25.2859 55.8711 26.5975 56.6787 27.5449 57.9268C 28.5651 59.3213 29.731 60.5698 31.0427 61.6709C 32.2815 62.772 33.7389 63.6533 35.2692 64.4609C 36.7994 65.1948 38.3297 65.7822 40.0057 66.1494C 41.6089 66.5166 43.2848 66.7368 45.0337 66.7368C 48.5315 66.7368 51.8835 65.9292 54.8712 64.4609C 55.0953 64.3706 55.2917 64.2524 55.4777 64.1406C 55.594 64.0708 55.7063 64.0034 55.8185 63.9468C 55.6727 63.5063 55.5999 62.9922 55.5999 62.4785C 55.5999 61.1567 56.11 59.9824 56.9844 59.1011C 57.8589 58.2202 59.0248 57.7065 60.3364 57.7065C 61.0652 57.7065 61.7209 57.9268 62.3768 58.2202L 62.5955 57.9268C 63.1055 57.2656 63.3241 56.458 63.1783 55.6504C 63.1055 54.9165 62.6683 54.1821 62.0125 53.6685C 61.3567 53.1543 60.5551 52.9341 59.7535 53.0811C 59.0248 53.228 58.2961 53.5947 57.786 54.1089C 57.0573 55.1367 56.2557 56.0176 55.3085 56.8252C 54.3611 57.6328 53.3409 58.3672 52.2479 58.8809C 51.1548 59.395 49.9889 59.8354 48.823 60.1289C 47.6571 60.4229 46.4182 60.5698 45.1794 60.5698C 43.0663 60.5698 41.0259 60.2026 39.2041 59.395C 37.2366 58.5874 35.5607 57.4126 34.1033 55.9443C 32.6458 54.4761 31.4799 52.7139 30.6783 50.8052C 30.4597 50.3647 30.314 49.9238 30.1682 49.4834C 29.1481 49.3369 28.2007 48.896 27.472 48.1621C 26.5975 47.2812 26.0875 46.1064 26.0875 44.7847C 26.0875 43.4634 26.5975 42.2886 27.472 41.4077C 28.2007 40.7471 29.1481 40.2329 30.1682 40.0859C 30.2411 39.8657 30.3322 39.6455 30.4233 39.4253C 30.5144 39.2051 30.6055 38.9849 30.6783 38.7646C 31.4799 36.7822 32.6458 35.0938 34.1033 33.6255C 35.5607 32.1567 37.3094 30.9824 39.2041 30.1748C 41.0259 29.4404 43.0663 29 45.1794 29C 46.4182 29 47.6571 29.147 48.823 29.4404C 49.9889 29.7344 51.1548 30.1748 52.2479 30.6885C 53.3409 31.2759 54.3611 31.9365 55.3085 32.7441C 56.1829 33.5518 57.0573 34.4331 57.786 35.4609C 58.2233 36.1216 58.9519 36.4888 59.7535 36.6353C 60.5551 36.709 61.3567 36.562 62.0125 36.0483C 62.6683 35.6074 63.0326 34.8735 63.1783 34.0659C 63.2512 33.2583 63.1055 32.4507 62.5955 31.79C 61.5752 30.395 60.4093 29.147 59.0977 28.0454C 57.786 26.9443 56.4015 25.9897 54.8712 25.2559C 51.8107 23.6406 48.4586 22.9062 45.1066 22.9062C 41.7545 22.9062 38.4026 23.7139 35.342 25.2559C 33.8118 25.9897 32.4272 26.9443 31.1156 28.0454C 29.8038 29.147 28.6379 30.395 27.6178 31.79C 26.6704 33.1113 25.3588 33.8457 23.9014 34.0659C 22.444 34.2129 20.9137 33.9189 19.6749 32.9644C 18.3633 32.0103 17.6345 30.6885 17.416 29.2202C 17.2703 27.752 17.5616 26.21 18.509 24.9619C 20.0393 22.9062 21.8611 20.9976 23.8285 19.3091C 25.796 17.6201 27.9093 16.2251 30.2411 15.0508C 32.5001 13.876 34.9048 12.9951 37.4552 12.4077C 39.9329 11.8203 42.4833 11.5264 45.1066 11.5264C 50.4261 11.5264 55.4541 12.7749 59.972 15.0508C 62.0125 16.0786 63.9071 17.3267 65.7289 18.7949C 66.3846 18.3545 67.1863 18.1343 68.0607 18.1343ZM 40.3416 7.06055C 41.701 7.06055 42.8031 5.96338 42.8031 4.60986C 42.8031 3.25635 41.701 2.15918 40.3416 2.15918C 38.9821 2.15918 37.88 3.25635 37.88 4.60986C 37.88 5.96338 38.9821 7.06055 40.3416 7.06055ZM 70.6564 23.0161C 70.6564 24.3696 69.5543 25.4668 68.1948 25.4668C 66.8353 25.4668 65.7333 24.3696 65.7333 23.0161C 65.7333 21.6626 66.8353 20.5654 68.1948 20.5654C 69.5543 20.5654 70.6564 21.6626 70.6564 23.0161ZM 30.7318 47.1758C 32.0913 47.1758 33.1934 46.0786 33.1934 44.7251C 33.1934 43.3716 32.0913 42.2744 30.7318 42.2744C 29.3723 42.2744 28.2703 43.3716 28.2703 44.7251C 28.2703 46.0786 29.3723 47.1758 30.7318 47.1758ZM 62.8087 62.5254C 62.8087 63.8789 61.7067 64.9761 60.3472 64.9761C 58.9877 64.9761 57.8856 63.8789 57.8856 62.5254C 57.8856 61.1719 58.9877 60.0747 60.3472 60.0747C 61.7067 60.0747 62.8087 61.1719 62.8087 62.5254ZM 73.5297 76.27C 74.8892 76.27 75.9912 75.1729 75.9912 73.8193C 75.9912 72.4658 74.8892 71.3687 73.5297 71.3687C 72.1702 71.3687 71.0681 72.4658 71.0681 73.8193C 71.0681 75.1729 72.1702 76.27 73.5297 76.27ZM 6.88708 44.9229C 6.88708 46.2764 5.78503 47.3735 4.42554 47.3735C 3.06604 47.3735 1.96399 46.2764 1.96399 44.9229C 1.96399 43.5693 3.06604 42.4722 4.42554 42.4722C 5.78503 42.4722 6.88708 43.5693 6.88708 44.9229ZM 23.6166 70.918C 24.9761 70.918 26.0781 69.8208 26.0781 68.4673C 26.0781 67.1138 24.9761 66.0166 23.6166 66.0166C 22.2571 66.0166 21.155 67.1138 21.155 68.4673C 21.155 69.8208 22.2571 70.918 23.6166 70.918Z"/>
</defs>
</svg>
