<svg width="100" height="107" viewBox="0 0 100 107" version="1.1" xmlns="http://www.w3.org/2000/svg" xmlns:xlink="http://www.w3.org/1999/xlink">
<title>Header_logo</title>
<desc>Created using Figma</desc>
<g id="Canvas" transform="translate(-928 348)">
<g id="Header_logo">
<g id="Group">
<g id="Group" filter="url(#filter0_d)">
<g id="Subtract">
<use xlink:href="#path0_fill" transform="translate(938 -343)" fill="#67FAD6"/>
</g>
</g>
</g>
</g>
</g>
<defs>
<filter id="filter0_d" filterUnits="userSpaceOnUse" x="928" y="-348" width="100" height="107" color-interpolation-filters="sRGB">
<feFlood flood-opacity="0" result="BackgroundImageFix"/>
<feColorMatrix in="SourceAlpha" type="matrix" values="0 0 0 0 0 0 0 0 0 0 0 0 0 0 0 0 0 0 255 0"/>
<feOffset dx="0" dy="5"/>
<feGaussianBlur stdDeviation="5"/>
<feColorMatrix type="matrix" values="0 0 0 0 0 0 0 0 0 0 0 0 0 0 0 0 0 0 0.25 0"/>
<feBlend mode="normal" in2="BackgroundImageFix" result="effect1_dropShadow"/>
<feBlend mode="normal" in="SourceGraphic" in2="effect1_dropShadow" result="shape"/>
</filter>
<path id="path0_fill" fill-rule="evenodd" d="M 63.4698 22.9063C 63.4698 22.0987 63.6156 21.3646 63.98 20.7038C 62.3768 19.4557 60.6279 18.281 58.879 17.4C 54.7255 15.2709 50.1346 14.1696 45.1794 14.1696C 42.7019 14.1696 40.3701 14.4633 38.1111 14.9772C 35.7792 15.4911 33.5931 16.3722 31.4799 17.4C 29.3666 18.5013 27.3992 19.8228 25.5774 21.3646C 23.7557 22.9063 22.1525 24.6684 20.6951 26.5772C 20.185 27.238 19.9664 28.0456 20.1122 28.8531C 20.185 29.5873 20.6223 30.3215 21.2781 30.8354C 21.9339 31.3494 22.7355 31.5696 23.537 31.4228C 24.2657 31.3494 24.9944 30.9089 25.5045 30.2481C 26.6705 28.7063 27.9821 27.3114 29.4395 26.0633C 30.8969 24.8152 32.5001 23.7874 34.1761 22.9063C 37.6738 21.1443 41.3902 20.2633 45.1794 20.2633C 48.8959 20.2633 52.6851 21.0709 56.11 22.8329C 57.786 23.7139 59.3892 24.7418 60.8466 25.9899C 62.2311 27.238 63.5427 28.6329 64.7087 30.1747C 65.6559 31.4962 66.0203 32.9646 65.8017 34.4329C 65.5831 35.9013 64.7816 37.2228 63.5427 38.1772C 62.2311 39.1317 60.7737 39.4987 59.3163 39.2785C 57.8589 39.0582 56.5472 38.2506 55.5999 37.0025C 54.9441 36.1215 54.2882 35.3873 53.4866 34.7266C 52.6851 34.0658 51.8835 33.4785 50.9362 33.038C 50.0618 32.5975 49.1144 32.2304 48.0943 32.0101C 47.0741 31.7899 46.0539 31.643 45.0338 31.643C 43.212 31.643 41.5359 32.0101 40.0057 32.6709C 38.4025 33.3316 37.018 34.2861 35.7792 35.5342C 34.5404 36.7089 33.5931 38.1772 32.9373 39.7924C 32.8196 39.9702 32.7495 40.196 32.6884 40.3922C 32.6739 40.439 32.6599 40.4842 32.6458 40.5266C 33.1559 40.7468 33.5931 41.1139 33.9575 41.481C 34.8319 42.362 35.342 43.5367 35.342 44.8582C 35.342 46.1797 34.8319 47.3544 33.9575 48.2354C 33.5931 48.6025 33.1559 48.9696 32.6458 49.1899C 32.6819 49.2988 32.7358 49.4257 32.7898 49.5528L 32.7906 49.5547L 32.7916 49.5569L 32.7925 49.5592L 32.7933 49.5611C 32.8474 49.6882 32.9012 49.8151 32.9373 49.924C 33.5931 51.5392 34.5404 52.9342 35.7792 54.1823C 36.9451 55.4304 38.4025 56.3848 40.0057 57.0456C 41.5359 57.7063 43.2849 58.0734 45.0338 58.0734C 46.1268 58.0734 47.147 57.9266 48.0943 57.7063C 49.1144 57.4861 50.0618 57.119 50.9362 56.6785C 51.8835 56.238 52.6851 55.6506 53.4866 54.9899C 54.2882 54.3291 55.0169 53.5215 55.5999 52.7139C 56.5472 51.3924 57.8589 50.6582 59.3163 50.438C 60.7737 50.2911 62.304 50.5848 63.5427 51.5392C 64.8544 52.4937 65.5831 53.8152 65.8017 55.2835C 65.9474 56.7519 65.6559 58.2937 64.7087 59.5418C 64.6361 59.6148 64.5817 59.7061 64.5273 59.7974L 64.5269 59.798L 64.5265 59.7987L 64.5261 59.7995L 64.5257 59.8C 64.4713 59.8914 64.4169 59.9827 64.3443 60.0557C 64.8544 60.7899 65.073 61.6709 65.073 62.5519C 65.073 63.8734 64.5629 65.0481 63.6885 65.9291C 62.814 66.8101 61.6481 67.324 60.3364 67.324C 59.1705 67.324 58.1503 66.8835 57.3488 66.2228C 57.1301 66.3329 56.9297 66.443 56.7294 66.5532C 56.529 66.6633 56.3286 66.7734 56.11 66.8835C 52.7579 68.5721 49.0416 69.4532 45.1066 69.4532C 43.212 69.4532 41.3174 69.2329 39.4956 68.7924C 37.601 68.3519 35.8521 67.7646 34.1761 66.8835C 32.5001 66.0025 30.8969 64.9747 29.4395 63.7266C 27.9092 62.4785 26.6705 61.0836 25.5045 59.5418C 25.0673 58.881 24.3386 58.5139 23.537 58.3671C 22.7355 58.2937 21.9339 58.4405 21.2781 58.9544C 20.6223 59.3949 20.2579 60.1291 20.1122 60.9367C 20.0393 61.7443 20.185 62.5519 20.6951 63.2126C 20.7985 63.3428 20.8925 63.473 20.9843 63.5999L 20.9863 63.6027L 20.9877 63.6047L 20.988 63.6051L 20.989 63.6065L 20.9912 63.6095L 20.9935 63.6127C 21.1566 63.839 21.3121 64.0545 21.4967 64.2405C 22.1525 63.8734 22.9541 63.6532 23.7557 63.6532C 25.0673 63.6532 26.2332 64.1671 27.1077 65.0481C 27.9821 65.9291 28.4922 67.1038 28.4922 68.4253C 28.4922 69.0861 28.3465 69.7468 28.055 70.3342C 29.1481 71.0684 30.314 71.8025 31.5527 72.3899C 33.5931 73.4177 35.8521 74.2253 38.184 74.8127C 40.4429 75.3266 42.7748 75.6202 45.1794 75.6202C 49.9889 75.6202 54.6526 74.4456 58.879 72.243C 63.1055 70.0405 66.8219 66.957 69.6638 63.0658C 70.6111 61.7443 71.9228 61.0101 73.3802 60.7899C 74.8376 60.643 76.3679 60.9367 77.6067 61.8911C 78.9183 62.8456 79.647 64.1671 79.8657 65.6354C 80.0114 67.1038 79.7199 68.6456 78.7726 69.8937C 78.5905 70.1138 78.4266 70.334 78.2627 70.5541C 78.0987 70.7745 77.9346 70.9948 77.7524 71.2152C 78.1896 71.9494 78.4083 72.8304 78.4083 73.7114C 78.4083 75.0329 77.8981 76.2076 77.0237 77.0886C 76.1493 77.9696 74.9833 78.4836 73.6717 78.4836C 72.7244 78.4836 71.9228 78.1899 71.1941 77.7494C 68.9351 79.5848 66.4575 81.1266 63.9071 82.4481C 61.0651 83.9165 57.9318 85.0911 54.7983 85.8253C 51.6649 86.6329 48.4586 87 45.1794 87C 39.5685 87 34.1761 85.8987 29.2209 83.843C 24.12 81.6405 19.5292 78.557 15.6671 74.6658C 11.8049 70.7747 8.67157 66.1494 6.55829 61.0101C 5.10089 57.3392 4.08075 53.5215 3.64349 49.4836C 2.76904 49.2633 1.96747 48.8228 1.38452 48.2354C 0.510071 47.3544 0 46.1797 0 44.8582C 0 43.6101 0.510071 42.4355 1.38452 41.5544C 2.04034 40.9671 2.76904 40.5266 3.64349 40.3063C 4.08075 36.2684 5.10089 32.3772 6.55829 28.7798C 8.67157 23.6405 11.7321 19.0152 15.5942 15.1241C 19.4563 11.2329 24.0471 8.07596 29.1481 5.94684C 31.2613 5.13925 33.3745 4.40506 35.5606 3.89114C 35.7064 2.93671 36.2164 2.05569 36.7994 1.39493C 37.6738 0.513916 38.8398 0 40.1514 0C 41.4631 0 42.629 0.513916 43.6492 1.39493C 44.0135 1.76202 44.3779 2.27594 44.5965 2.78989L 45.3252 2.78989C 48.6044 2.78989 51.8107 3.23038 54.9441 3.96457C 58.0775 4.77216 61.138 5.87341 64.0529 7.34177C 66.8948 8.81012 69.6638 10.5721 72.1414 12.7013C 74.619 14.757 76.878 17.1797 78.8455 19.8228C 79.7928 21.1443 80.1571 22.6127 79.9385 24.081C 79.7199 25.5494 78.9183 26.8709 77.6795 27.8253C 76.3679 28.7798 74.9105 29.1469 73.4531 28.9266C 72.2143 28.7063 71.0483 28.1924 70.1739 27.238C 69.5909 27.5316 68.9351 27.6785 68.2064 27.6785C 66.8948 27.6785 65.7288 27.1646 64.8544 26.2835C 63.98 25.4025 63.4698 24.2278 63.4698 22.9063ZM 68.0607 18.1342C 69.3724 18.1342 70.5383 18.6481 71.4127 19.5291C 72.2872 20.4101 72.7972 21.5848 72.943 22.9063C 72.943 23.8607 72.6515 24.7418 72.2143 25.476C 72.7244 25.9164 73.3073 26.2101 73.8903 26.2835C 74.6919 26.357 75.4935 26.2101 76.1493 25.6962C 76.8051 25.2557 77.1694 24.5215 77.3152 23.7139C 77.3881 22.9063 77.2423 22.0987 76.7322 21.438C 74.8376 18.9418 72.7972 16.7392 70.4654 14.757C 68.1335 12.7747 65.5831 11.0861 62.8869 9.69113C 60.1179 8.2962 57.2759 7.26834 54.2882 6.53418C 51.3734 5.79999 48.3129 5.43292 45.2523 5.43292L 44.888 5.43292C 44.7422 6.46075 44.3051 7.34177 43.5764 8.07596C 42.7019 8.95697 41.5359 9.47089 40.2243 9.47089C 38.9127 9.47089 37.7467 8.95697 36.8723 8.07596C 36.4351 7.63544 36.0707 7.12152 35.8521 6.53418C 33.8846 6.97467 31.99 7.63544 30.1682 8.36963C 25.4316 10.3519 21.1323 13.2886 17.4888 16.9595C 13.8453 20.6304 10.9305 24.962 8.59869 29.8076C 7.21411 33.1848 6.33972 36.7089 5.90247 40.4532C 6.55829 40.6734 7.1413 41.0405 7.65137 41.5544C 8.52582 42.4355 9.03589 43.6101 9.03589 44.9316C 9.03589 46.2532 8.52582 47.4279 7.65137 48.3089C 7.21411 48.7494 6.55829 49.1899 5.90247 49.4101C 6.26685 53.1544 7.21411 56.7519 8.59869 60.0557C 10.5662 64.8279 13.481 69.1595 17.1245 72.8304C 20.6951 76.5013 24.9944 79.438 29.8039 81.4203C 34.4676 83.4025 39.4956 84.4304 44.8151 84.4304C 47.8757 84.4304 50.9362 84.0633 53.851 83.3291C 56.8387 82.5949 59.7535 81.5671 62.4497 80.1721C 64.8544 78.924 67.0405 77.5291 69.1537 75.8405C 68.8622 75.2532 68.7165 74.519 68.7165 73.7848C 68.7165 72.4633 69.2266 71.2886 70.1011 70.4076C 70.9755 69.5266 72.1414 69.0127 73.4531 69.0127C 74.1818 69.0127 74.8376 69.2329 75.4934 69.5266L 76.3679 68.4253C 76.878 67.7646 77.0966 66.957 76.9509 66.1494C 76.878 65.4152 76.4407 64.681 75.7849 64.1671C 75.1291 63.6532 74.3275 63.4329 73.5259 63.5797C 72.7972 63.6532 72.0685 64.0937 71.5585 64.7544C 68.425 68.9392 64.4172 72.3165 59.8264 74.6658C 55.3084 77.0152 50.2075 78.2633 45.0338 78.2633C 42.4104 78.2633 39.8599 77.9696 37.3824 77.3823C 34.9048 76.7949 32.4272 75.9139 30.1682 74.7393C 28.7837 74.0051 27.472 73.1975 26.1604 72.3165C 25.4316 72.8304 24.5573 73.1241 23.6099 73.1241C 22.2983 73.1241 21.1323 72.6101 20.2579 71.7291C 19.3834 70.8481 18.8734 69.6734 18.8734 68.3519C 18.8734 67.5443 19.092 66.7367 19.4563 66.076L 19.455 66.0744L 19.4547 66.0739L 19.4543 66.0735L 19.4539 66.073L 19.4536 66.0726L 19.4532 66.0721L 19.4528 66.0717C 19.0897 65.6326 18.7265 65.1935 18.4362 64.7544C 17.4888 63.4329 17.1245 61.9646 17.3431 60.4962C 17.5617 59.0279 18.3633 57.7063 19.6021 56.7519C 20.9137 55.7975 22.3712 55.4304 23.8286 55.6506C 25.2859 55.8709 26.5976 56.6785 27.5449 57.9266C 28.5651 59.3215 29.731 60.5696 31.0427 61.6709C 32.2814 62.7722 33.7389 63.6532 35.2692 64.4608C 36.7994 65.1949 38.3297 65.7823 40.0057 66.1494C 41.6088 66.5164 43.2849 66.7367 45.0338 66.7367C 48.5315 66.7367 51.8835 65.9291 54.8712 64.4608C 55.0952 64.3705 55.2917 64.2524 55.4775 64.1408L 55.4784 64.1403C 55.5945 64.0705 55.7065 64.0032 55.8185 63.9468C 55.6728 63.5063 55.5999 62.9924 55.5999 62.4785C 55.5999 61.157 56.11 59.9823 56.9844 59.1013C 57.8589 58.2202 59.0248 57.7063 60.3364 57.7063C 61.0652 57.7063 61.721 57.9266 62.3768 58.2202L 62.5954 57.9266C 63.1055 57.2658 63.3242 56.4582 63.1784 55.6506C 63.1055 54.9164 62.6683 54.1823 62.0125 53.6684C 61.3566 53.1544 60.5551 52.9342 59.7535 53.081C 59.0248 53.2278 58.2961 53.5949 57.786 54.1089C 57.0573 55.1367 56.2557 56.0177 55.3084 56.8253C 54.3611 57.6329 53.3409 58.3671 52.2479 58.881C 51.1548 59.3949 49.9889 59.8354 48.823 60.1291C 47.657 60.4228 46.4183 60.5696 45.1794 60.5696C 43.0662 60.5696 41.0259 60.2025 39.2041 59.3949C 37.2366 58.5873 35.5606 57.4127 34.1032 55.9443C 32.6458 54.476 31.4799 52.7139 30.6783 50.8051C 30.4597 50.3646 30.314 49.924 30.1682 49.4836C 29.1481 49.3367 28.2007 48.8962 27.472 48.162C 26.5976 47.281 26.0875 46.1063 26.0875 44.7848C 26.0875 43.4633 26.5976 42.2886 27.472 41.4076C 28.2007 40.7468 29.1481 40.2329 30.1682 40.0861C 30.2408 39.8665 30.3316 39.647 30.4224 39.4275L 30.4233 39.4253C 30.5144 39.205 30.6055 38.9848 30.6783 38.7646C 31.4799 36.7823 32.6458 35.0937 34.1032 33.6253C 35.5606 32.157 37.3095 30.9823 39.2041 30.1747C 41.0259 29.4405 43.0662 29 45.1794 29C 46.4183 29 47.657 29.1468 48.823 29.4405C 49.9889 29.7342 51.1548 30.1747 52.2479 30.6886C 53.3409 31.2759 54.3611 31.9367 55.3084 32.7443C 56.1829 33.5519 57.0573 34.4329 57.786 35.4608C 58.2232 36.1215 58.9519 36.4886 59.7535 36.6354C 60.5551 36.7089 61.3566 36.562 62.0125 36.0481C 62.6683 35.6076 63.0327 34.8734 63.1784 34.0658C 63.2513 33.2582 63.1055 32.4506 62.5954 31.7899C 61.5753 30.3949 60.4093 29.1469 59.0977 28.0456C 57.786 26.9443 56.4015 25.9899 54.8712 25.2557C 51.8107 23.6405 48.4586 22.9063 45.1066 22.9063C 41.7546 22.9063 38.4025 23.7139 35.342 25.2557C 33.8117 25.9899 32.4272 26.9443 31.1155 28.0456C 29.8039 29.1469 28.6379 30.3949 27.6178 31.7899C 26.6705 33.1114 25.3588 33.8456 23.9014 34.0658C 22.444 34.2126 20.9137 33.919 19.6749 32.9646C 18.3633 32.0101 17.6346 30.6886 17.416 29.2202C 17.2702 27.7519 17.5617 26.2101 18.509 24.962C 20.0393 22.9063 21.861 20.9975 23.8286 19.3089C 25.796 17.6202 27.9092 16.2253 30.2411 15.0506C 32.5001 13.8759 34.9048 12.9949 37.4553 12.4076C 39.9328 11.8203 42.4833 11.5266 45.1066 11.5266C 50.4261 11.5266 55.4542 12.7747 59.9721 15.0506C 62.0125 16.0785 63.9071 17.3266 65.7288 18.795C 66.3846 18.3544 67.1862 18.1342 68.0607 18.1342ZM 40.3415 7.06073C 41.7009 7.06073 42.803 5.96353 42.803 4.61005C 42.803 3.25656 41.7009 2.15933 40.3415 2.15933C 38.982 2.15933 37.8799 3.25656 37.8799 4.61005C 37.8799 5.96353 38.982 7.06073 40.3415 7.06073ZM 70.6564 23.0164C 70.6564 24.3698 69.5543 25.467 68.1948 25.467C 66.8353 25.467 65.7333 24.3698 65.7333 23.0164C 65.7333 21.6629 66.8353 20.5656 68.1948 20.5656C 69.5543 20.5656 70.6564 21.6629 70.6564 23.0164ZM 30.7318 47.1761C 32.0912 47.1761 33.1934 46.0789 33.1934 44.7254C 33.1934 43.3719 32.0912 42.2747 30.7318 42.2747C 29.3723 42.2747 28.2703 43.3719 28.2703 44.7254C 28.2703 46.0789 29.3723 47.1761 30.7318 47.1761ZM 62.8088 62.5256C 62.8088 63.8791 61.7067 64.9763 60.3472 64.9763C 58.9877 64.9763 57.8857 63.8791 57.8857 62.5256C 57.8857 61.1721 58.9877 60.0749 60.3472 60.0749C 61.7067 60.0749 62.8088 61.1721 62.8088 62.5256ZM 73.5296 76.2701C 74.889 76.2701 75.9911 75.1729 75.9911 73.8194C 75.9911 72.4659 74.889 71.3687 73.5296 71.3687C 72.1701 71.3687 71.0681 72.4659 71.0681 73.8194C 71.0681 75.1729 72.1701 76.2701 73.5296 76.2701ZM 6.88708 44.9228C 6.88708 46.2763 5.78497 47.3735 4.42554 47.3735C 3.06604 47.3735 1.96399 46.2763 1.96399 44.9228C 1.96399 43.5693 3.06604 42.4721 4.42554 42.4721C 5.78497 42.4721 6.88708 43.5693 6.88708 44.9228ZM 23.6166 70.9181C 24.976 70.9181 26.0781 69.8209 26.0781 68.4674C 26.0781 67.114 24.976 66.0167 23.6166 66.0167C 22.2571 66.0167 21.155 67.114 21.155 68.4674C 21.155 69.8209 22.2571 70.9181 23.6166 70.9181Z"/>
</defs>
</svg>
