<svg width="25" height="25" viewBox="0 0 25 25" version="1.1" xmlns="http://www.w3.org/2000/svg" xmlns:xlink="http://www.w3.org/1999/xlink">
<title>icon telegr</title>
<desc>Created using Figma</desc>
<g id="Canvas" transform="translate(-1917 490)">
<g id="icon telegr">
<g id="Group">
<g id="Vector">
<use xlink:href="#path0_fill" transform="translate(1917.44 -489.558)" fill="#0088CC"/>
</g>
</g>
</g>
</g>
<defs>
<path id="path0_fill" d="M 16.0771 8.49231L 10.7181 13.4769C 10.5333 13.6615 10.4101 13.9077 10.3485 14.1538L 10.1637 15.5077C 10.1637 15.6923 9.85571 15.6923 9.85571 15.5077L 9.17813 13.0462C 9.11653 12.7385 9.23972 12.4923 9.48612 12.3077L 15.9539 8.30769C 16.0771 8.24615 16.2003 8.43077 16.0771 8.49231ZM 24.0233 12C 24.0233 18.6462 18.6642 24 12.0116 24C 5.35904 24 0 18.6462 0 12C 0 5.35385 5.35904 0 12.0116 0C 18.6642 0 24.0233 5.35385 24.0233 12ZM 18.6642 5.78462L 5.05105 11.0154C 4.74306 11.1385 4.74306 11.6308 5.05105 11.7538L 8.37735 12.9846L 9.67091 17.1077C 9.73251 17.3538 10.1021 17.4769 10.2869 17.2923L 12.1348 15.8154C 12.3196 15.6308 12.6276 15.6308 12.8124 15.8154L 16.1387 18.2154C 16.3851 18.4 16.6931 18.2769 16.7547 17.9692L 19.2186 6.21538C 19.2802 5.90769 18.9722 5.66154 18.6642 5.78462Z"/>
</defs>
</svg>
