<svg width="25" height="24" viewBox="0 0 25 24" version="1.1" xmlns="http://www.w3.org/2000/svg" xmlns:xlink="http://www.w3.org/1999/xlink">
<title>icon twi</title>
<desc>Created using Figma</desc>
<g id="Canvas" transform="translate(-1871 490)">
<g id="icon twi">
<g id="Group">
<g id="Vector">
<use xlink:href="#path0_fill" transform="translate(1871.28 -490)" fill="#55ACEE"/>
</g>
</g>
</g>
</g>
<defs>
<path id="path0_fill" d="M 12.0116 0C 5.37204 0 0 5.36683 0 12C 0 18.6332 5.37204 24 12.0116 24C 18.6512 24 24.0233 18.6332 24.0233 12C 23.9629 5.36683 18.5909 0 12.0116 0ZM 17.3233 9.22613C 17.3233 9.34673 17.3233 9.46734 17.3233 9.58794C 17.3233 13.206 14.5468 17.4271 9.47652 17.4271C 7.90716 17.4271 6.45852 16.9447 5.25132 16.1608C 5.49276 16.1608 5.67384 16.2211 5.91528 16.2211C 7.18284 16.2211 8.39004 15.799 9.3558 15.0151C 8.1486 15.0151 7.12248 14.1709 6.76032 13.0854C 6.9414 13.1457 7.12248 13.1457 7.30356 13.1457C 7.545 13.1457 7.78644 13.0854 8.02788 13.0251C 6.76032 12.7839 5.79456 11.6382 5.79456 10.3116C 5.79456 10.3116 5.79456 10.3116 5.79456 10.2513C 6.15672 10.4322 6.57924 10.5528 7.06212 10.6131C 6.3378 10.1307 5.85492 9.28643 5.85492 8.32161C 5.85492 7.8392 5.97564 7.35678 6.21708 6.93467C 7.60536 8.62312 9.59724 9.70854 11.8909 9.82915C 11.8306 9.64824 11.8306 9.40704 11.8306 9.22613C 11.8306 7.71859 13.0378 6.45226 14.6071 6.45226C 15.3918 6.45226 16.1161 6.81407 16.599 7.29648C 17.2026 7.17588 17.8062 6.93467 18.3494 6.63317C 18.1684 7.29648 17.6855 7.8392 17.1422 8.1407C 17.6855 8.0804 18.2287 7.8995 18.7116 7.71859C 18.3494 8.38191 17.8666 8.86432 17.3233 9.22613Z"/>
</defs>
</svg>
