<svg width="26" height="25" viewBox="0 0 26 25" version="1.1" xmlns="http://www.w3.org/2000/svg" xmlns:xlink="http://www.w3.org/1999/xlink">
<title>githab icon</title>
<desc>Created using Figma</desc>
<g id="Canvas" transform="translate(-1962 490)">
<g id="githab icon">
<g id="Group">
<g id="Vector">
<use xlink:href="#path0_fill" transform="translate(1962.72 -489.083)" fill="#6E5494"/>
</g>
</g>
</g>
</g>
<defs>
<path id="path0_fill" d="M 22.9278 6.10395C 21.857 4.21613 20.3452 2.70588 18.4556 1.63611C 16.5659 0.566346 14.4873 0 12.2827 0C 10.0781 0 7.99952 0.566346 6.10987 1.63611C 4.22022 2.70588 2.7085 4.21613 1.6377 6.10395C 0.566895 7.99177 0 10.0684 0 12.2708C 0 14.9138 0.755861 17.3679 2.33057 19.5075C 3.90528 21.647 5.92091 23.0943 8.37745 23.9124C 8.6924 23.9753 8.88136 23.9124 9.00734 23.7865C 9.13332 23.6607 9.1963 23.4719 9.1963 23.2831C 9.1963 23.2202 9.1963 22.9685 9.1963 22.4021C 9.1963 21.8358 9.1963 21.3953 9.1963 20.9548L 8.81837 21.0177C 8.56642 21.0807 8.31447 21.0807 7.93654 21.0807C 7.55861 21.0807 7.18068 21.0177 6.80275 20.9548C 6.42481 20.8919 6.04688 20.7031 5.73194 20.4514C 5.417 20.1997 5.16505 19.885 5.03907 19.4445L 4.85011 19.067C 4.72413 18.8153 4.59815 18.5636 4.3462 18.2489C 4.09424 17.9343 3.90528 17.7455 3.65333 17.6197L 3.52735 17.5567C 3.46436 17.4938 3.40137 17.4309 3.33838 17.3679C 3.2754 17.305 3.21241 17.2421 3.21241 17.1162C 3.14942 17.0533 3.21241 16.9904 3.2754 16.9275C 3.33838 16.8645 3.52735 16.8645 3.71631 16.8645L 4.03126 16.9275C 4.22022 16.9904 4.53516 17.1162 4.85011 17.305C 5.16505 17.4938 5.417 17.8084 5.60597 18.1231C 5.85792 18.5636 6.17286 18.8782 6.4878 19.1299C 6.86573 19.3816 7.18068 19.4445 7.55861 19.4445C 7.93654 19.4445 8.18849 19.4445 8.44044 19.3816C 8.6924 19.3187 8.94435 19.2558 9.13332 19.1299C 9.25929 18.4377 9.51125 17.8714 9.88918 17.4938C 9.25929 17.4309 8.75539 17.305 8.25148 17.1792C 7.74757 17.0533 7.24366 16.8645 6.73976 16.5499C 6.23585 16.2353 5.79493 15.9206 5.47999 15.4801C 5.16505 15.0396 4.85011 14.4733 4.66114 13.7811C 4.47218 13.0889 4.3462 12.2708 4.3462 11.3898C 4.3462 10.1313 4.78712 8.99861 5.60597 8.11763C 5.29102 7.3625 5.35401 6.29273 5.79493 5.09711C 6.10987 4.97126 6.55079 5.09711 7.18068 5.2859C 7.81056 5.53761 8.25148 5.72639 8.50343 5.91517C 8.75538 6.10395 9.00734 6.22981 9.1963 6.35566C 10.2041 6.10395 11.2119 5.91517 12.2827 5.91517C 13.3535 5.91517 14.3614 6.04102 15.3692 6.35566L 15.999 5.9781C 16.44 5.72639 16.8809 5.47468 17.4478 5.2859C 18.0147 5.09711 18.4556 5.03419 18.7705 5.09711C 19.2744 6.29273 19.2744 7.3625 18.8965 8.36934C 19.7154 9.25032 20.1563 10.383 20.1563 11.6416C 20.1563 12.5225 20.0303 13.3406 19.8413 14.0328C 19.6524 14.725 19.3374 15.2913 19.0225 15.7318C 18.6446 16.1723 18.2666 16.487 17.6997 16.8016C 17.1958 17.1162 16.6919 17.305 16.188 17.4309C 15.6841 17.5567 15.1172 17.6197 14.4873 17.6826C 15.0542 18.186 15.3062 18.9411 15.3062 19.948L 15.3062 23.346C 15.3062 23.5348 15.3692 23.7236 15.4951 23.8495C 15.6211 23.9753 15.8101 24.0382 16.125 23.9753C 18.5816 23.1573 20.5972 21.647 22.1719 19.5704C 23.7466 17.4309 24.5025 15.0396 24.5025 12.3338C 24.5655 10.0684 23.9986 7.99177 22.9278 6.10395Z"/>
</defs>
</svg>
