<svg width="1280" height="722" viewBox="0 0 1280 722" version="1.1" xmlns="http://www.w3.org/2000/svg" xmlns:xlink="http://www.w3.org/1999/xlink">
<title>04 Key_features_bg</title>
<desc>Created using Figma</desc>
<g id="Canvas" transform="translate(-894 -2835)">
<g id="04 Key_features_bg">
<g id="Rectangle 8">
<use xlink:href="#path0_fill" transform="translate(894 2835)" fill="#334267"/>
</g>
<g id="Group 2" opacity="0.6">
<mask id="mask0_alpha" mask-type="alpha">
<g id="Rectangle">
<use xlink:href="#path1_fill" transform="matrix(-1 0 -0 1 2174 2833)" fill="#C4C4C4"/>
</g>
</mask>
<g id="Group" style="mix-blend-mode:screen" opacity="0.4" mask="url(#mask0_alpha)">
<g id="Vector" opacity="0.5">
<use xlink:href="#path2_fill" transform="matrix(-1 0 0 -1 2129.49 3380.92)" fill="#5A92C9"/>
</g>
<g id="Vector" opacity="0.5">
<use xlink:href="#path3_fill" transform="matrix(-1 0 0 -1 2116.62 3115.16)" fill="#5A92C9"/>
</g>
<g id="Vector" opacity="0.5">
<use xlink:href="#path4_fill" transform="matrix(-1 0 0 -1 1800.68 3473.27)" fill="#5A92C9"/>
</g>
<g id="Vector" opacity="0.5">
<use xlink:href="#path5_fill" transform="matrix(-1 0 0 -1 1556.53 3511.54)" fill="#5A92C9"/>
</g>
<g id="Vector" opacity="0.5">
<use xlink:href="#path6_fill" transform="matrix(-1 0 0 -1 2139.33 3577.17)" fill="#5A92C9"/>
</g>
<g id="Vector">
<use xlink:href="#path7_fill" transform="matrix(-1 0 0 -1 1411.65 3322.7)" fill="#43678A"/>
</g>
<g id="Vector" opacity="0.5">
<use xlink:href="#path8_fill" transform="matrix(-1 0 0 -1 1201.42 3498.43)" fill="#5A92C9"/>
</g>
<g id="Vector">
<use xlink:href="#path9_fill" transform="matrix(-1 0 0 -1 1121.73 3823)" fill="#375A78"/>
</g>
<g id="Vector" opacity="0.8">
<use xlink:href="#path10_fill" transform="matrix(-1 0 0 -1 1819.4 3082.65)" fill="#5A92C9"/>
</g>
<g id="Vector" opacity="0.5">
<use xlink:href="#path11_fill" transform="matrix(-1 0 0 -1 1951.5 2928.5)" fill="#5A92C9"/>
</g>
</g>
</g>
</g>
</g>
<defs>
<path id="path0_fill" d="M 0 0L 1280 0L 1280 722L 0 722L 0 0Z"/>
<path id="path1_fill" d="M 0 0L 1280 0L 1280 724L 0 724L 0 0Z"/>
<path id="path2_fill" d="M 0 112.921L 75.5582 0L 122.493 0L 48.5399 112.921L 0 112.921Z"/>
<path id="path3_fill" d="M 0 112.156L 74.4245 0L 167.618 0L 94.798 112.156L 0 112.156Z"/>
<path id="path4_fill" d="M 0 192.268L 129.642 0L 276.677 0L 150.211 192.268L 0 192.268Z"/>
<path id="path5_fill" d="M 0 140.539L 93.8595 0L 141.533 0L 48.6188 140.539L 0 140.539Z"/>
<path id="path6_fill" d="M 0 245.371L 166.758 0L 417.661 0L 254.521 245.371L 0 245.371Z"/>
<path id="path7_fill" d="M 0 73.7028L 49.889 0L 79.65 0L 30.7784 73.7028L 0 73.7028Z"/>
<path id="path8_fill" d="M 0 173.041L 115.032 0L 159.371 0L 44.9178 173.041L 0 173.041Z"/>
<path id="path9_fill" d="M 0 303.051L 201.968 0L 231.729 0L 30.7784 303.051L 0 303.051Z"/>
<path id="path10_fill" d="M 0 39.6494L 26.6394 0L 56.4004 0L 30.7784 39.6494L 0 39.6494Z"/>
<path id="path11_fill" d="M 0 66.9956L 44.3668 0L 74.1277 0L 30.7784 66.9956L 0 66.9956Z"/>
</defs>
</svg>
