<svg width="1280" height="724" viewBox="0 0 1280 724" version="1.1" xmlns="http://www.w3.org/2000/svg" xmlns:xlink="http://www.w3.org/1999/xlink">
<title>04 Key_features_bg</title>
<desc>Created using Figma</desc>
<g id="Canvas" transform="translate(-894 -2833)">
<g id="04 Key_features_bg">
<g id="Rectangle 8">
<use xlink:href="#path0_fill" transform="translate(894 2833)" fill="#334267"/>
</g>
<g id="Group 2" opacity="0.6">
<mask id="mask0_alpha" mask-type="alpha">
<g id="Rectangle">
<use xlink:href="#path1_fill" transform="matrix(-1 0 -0 1 2174 2833)" fill="#C4C4C4"/>
</g>
</mask>
<g id="Group 12.2" opacity="0.8" mask="url(#mask0_alpha)">
<g id="Ellipse 3">
<mask id="mask1_outline_ins">
<use xlink:href="#path2_fill" fill="white" transform="matrix(-1 0 0 -1 2124 2843)"/>
</mask>
<g mask="url(#mask1_outline_ins)">
<use xlink:href="#path3_stroke_2x" transform="matrix(-1 0 0 -1 2124 2843)" fill="#334267"/>
</g>
</g>
<g id="Ellipse 3.1">
<mask id="mask2_outline_ins">
<use xlink:href="#path4_fill" fill="white" transform="matrix(-1 0 0 -1 2120.68 2839.68)"/>
</mask>
<g mask="url(#mask2_outline_ins)">
<use xlink:href="#path5_stroke_2x" transform="matrix(-1 0 0 -1 2120.68 2839.68)" fill="#334267"/>
</g>
</g>
<g id="Ellipse 3.2">
<mask id="mask3_outline_ins">
<use xlink:href="#path6_fill" fill="white" transform="matrix(-1 0 0 -1 2117.36 2836.36)"/>
</mask>
<g mask="url(#mask3_outline_ins)">
<use xlink:href="#path7_stroke_2x" transform="matrix(-1 0 0 -1 2117.36 2836.36)" fill="#334267"/>
</g>
</g>
<g id="Ellipse 3.3">
<mask id="mask4_outline_ins">
<use xlink:href="#path8_fill" fill="white" transform="matrix(-1 0 0 -1 2114.04 2833.04)"/>
</mask>
<g mask="url(#mask4_outline_ins)">
<use xlink:href="#path9_stroke_2x" transform="matrix(-1 0 0 -1 2114.04 2833.04)" fill="#334267"/>
</g>
</g>
</g>
<g id="Group" style="mix-blend-mode:screen" opacity="0.4" mask="url(#mask0_alpha)">
<g id="Vector" opacity="0.5">
<use xlink:href="#path10_fill" transform="matrix(-1 0 0 -1 2129.49 3380.92)" fill="#5A92C9"/>
</g>
<g id="Vector" opacity="0.5">
<use xlink:href="#path11_fill" transform="matrix(-1 0 0 -1 2116.62 3115.16)" fill="#5A92C9"/>
</g>
<g id="Vector" opacity="0.5">
<use xlink:href="#path12_fill" transform="matrix(-1 0 0 -1 1800.68 3473.27)" fill="#5A92C9"/>
</g>
<g id="Vector" opacity="0.5">
<use xlink:href="#path13_fill" transform="matrix(-1 0 0 -1 1556.53 3511.54)" fill="#5A92C9"/>
</g>
<g id="Vector" opacity="0.5">
<use xlink:href="#path14_fill" transform="matrix(-1 0 0 -1 2139.33 3577.17)" fill="#5A92C9"/>
</g>
<g id="Vector">
<use xlink:href="#path15_fill" transform="matrix(-1 0 0 -1 1411.65 3322.7)" fill="#43678A"/>
</g>
<g id="Vector" opacity="0.5">
<use xlink:href="#path16_fill" transform="matrix(-1 0 0 -1 1201.42 3498.43)" fill="#5A92C9"/>
</g>
<g id="Vector">
<use xlink:href="#path17_fill" transform="matrix(-1 0 0 -1 1121.73 3823)" fill="#375A78"/>
</g>
<g id="Vector" opacity="0.8">
<use xlink:href="#path18_fill" transform="matrix(-1 0 0 -1 1819.4 3082.65)" fill="#5A92C9"/>
</g>
<g id="Vector" opacity="0.5">
<use xlink:href="#path19_fill" transform="matrix(-1 0 0 -1 1951.5 2928.5)" fill="#5A92C9"/>
</g>
</g>
</g>
</g>
</g>
<defs>
<path id="path0_fill" d="M 0 0L 1280 0L 1280 722L 0 722L 0 0Z"/>
<path id="path1_fill" d="M 0 0L 1280 0L 1280 724L 0 724L 0 0Z"/>
<path id="path2_fill" d="M 78 39C 78 60.5391 60.5391 78 39 78C 17.4609 78 0 60.5391 0 39C 0 17.4609 17.4609 0 39 0C 60.5391 0 78 17.4609 78 39Z"/>
<path id="path3_stroke_2x" d="M 77 39C 77 59.9868 59.9868 77 39 77L 39 79C 61.0914 79 79 61.0914 79 39L 77 39ZM 39 77C 18.0132 77 1 59.9868 1 39L -1 39C -1 61.0914 16.9086 79 39 79L 39 77ZM 1 39C 1 18.0132 18.0132 1 39 1L 39 -1C 16.9086 -1 -1 16.9086 -1 39L 1 39ZM 39 1C 59.9868 1 77 18.0132 77 39L 79 39C 79 16.9086 61.0914 -1 39 -1L 39 1Z"/>
<path id="path4_fill" d="M 71.3617 35.6809C 71.3617 55.3868 55.3868 71.3617 35.6809 71.3617C 15.9749 71.3617 0 55.3868 0 35.6809C 0 15.9749 15.9749 0 35.6809 0C 55.3868 0 71.3617 15.9749 71.3617 35.6809Z"/>
<path id="path5_stroke_2x" d="M 70.3617 35.6809C 70.3617 54.8346 54.8346 70.3617 35.6809 70.3617L 35.6809 72.3617C 55.9391 72.3617 72.3617 55.9391 72.3617 35.6809L 70.3617 35.6809ZM 35.6809 70.3617C 16.5271 70.3617 1 54.8346 1 35.6809L -1 35.6809C -1 55.9391 15.4226 72.3617 35.6809 72.3617L 35.6809 70.3617ZM 1 35.6809C 1 16.5271 16.5271 1 35.6809 1L 35.6809 -1C 15.4226 -1 -1 15.4226 -1 35.6809L 1 35.6809ZM 35.6809 1C 54.8346 1 70.3617 16.5271 70.3617 35.6809L 72.3617 35.6809C 72.3617 15.4226 55.9391 -1 35.6809 -1L 35.6809 1Z"/>
<path id="path6_fill" d="M 64.7234 32.3617C 64.7234 50.2346 50.2346 64.7234 32.3617 64.7234C 14.4888 64.7234 0 50.2346 0 32.3617C 0 14.4888 14.4888 0 32.3617 0C 50.2346 0 64.7234 14.4888 64.7234 32.3617Z"/>
<path id="path7_stroke_2x" d="M 63.7234 32.3617C 63.7234 49.6823 49.6823 63.7234 32.3617 63.7234L 32.3617 65.7234C 50.7869 65.7234 65.7234 50.7869 65.7234 32.3617L 63.7234 32.3617ZM 32.3617 63.7234C 15.0411 63.7234 1 49.6823 1 32.3617L -1 32.3617C -1 50.7869 13.9365 65.7234 32.3617 65.7234L 32.3617 63.7234ZM 1 32.3617C 1 15.0411 15.0411 1 32.3617 1L 32.3617 -1C 13.9365 -1 -1 13.9365 -1 32.3617L 1 32.3617ZM 32.3617 1C 49.6823 1 63.7234 15.0411 63.7234 32.3617L 65.7234 32.3617C 65.7234 13.9365 50.7869 -1 32.3617 -1L 32.3617 1Z"/>
<path id="path8_fill" d="M 58.0851 29.0426C 58.0851 45.0823 45.0823 58.0851 29.0426 58.0851C 13.0028 58.0851 0 45.0823 0 29.0426C 0 13.0028 13.0028 0 29.0426 0C 45.0823 0 58.0851 13.0028 58.0851 29.0426Z"/>
<path id="path9_stroke_2x" d="M 57.0851 29.0426C 57.0851 44.53 44.53 57.0851 29.0426 57.0851L 29.0426 59.0851C 45.6346 59.0851 59.0851 45.6346 59.0851 29.0426L 57.0851 29.0426ZM 29.0426 57.0851C 13.5551 57.0851 1 44.53 1 29.0426L -1 29.0426C -1 45.6346 12.4505 59.0851 29.0426 59.0851L 29.0426 57.0851ZM 1 29.0426C 1 13.5551 13.5551 1 29.0426 1L 29.0426 -1C 12.4505 -1 -1 12.4505 -1 29.0426L 1 29.0426ZM 29.0426 1C 44.53 1 57.0851 13.5551 57.0851 29.0426L 59.0851 29.0426C 59.0851 12.4505 45.6346 -1 29.0426 -1L 29.0426 1Z"/>
<path id="path10_fill" d="M 0 112.921L 75.5582 0L 122.493 0L 48.5399 112.921L 0 112.921Z"/>
<path id="path11_fill" d="M 0 112.156L 74.4245 0L 167.618 0L 94.798 112.156L 0 112.156Z"/>
<path id="path12_fill" d="M 0 192.268L 129.642 0L 276.677 0L 150.211 192.268L 0 192.268Z"/>
<path id="path13_fill" d="M 0 140.539L 93.8595 0L 141.533 0L 48.6188 140.539L 0 140.539Z"/>
<path id="path14_fill" d="M 0 245.371L 166.758 0L 417.661 0L 254.521 245.371L 0 245.371Z"/>
<path id="path15_fill" d="M 0 73.7028L 49.889 0L 79.65 0L 30.7784 73.7028L 0 73.7028Z"/>
<path id="path16_fill" d="M 0 173.041L 115.032 0L 159.371 0L 44.9178 173.041L 0 173.041Z"/>
<path id="path17_fill" d="M 0 303.051L 201.968 0L 231.729 0L 30.7784 303.051L 0 303.051Z"/>
<path id="path18_fill" d="M 0 39.6494L 26.6394 0L 56.4004 0L 30.7784 39.6494L 0 39.6494Z"/>
<path id="path19_fill" d="M 0 66.9956L 44.3668 0L 74.1277 0L 30.7784 66.9956L 0 66.9956Z"/>
</defs>
</svg>
