<svg width="1280" height="543" viewBox="0 0 1280 543" version="1.1" xmlns="http://www.w3.org/2000/svg" xmlns:xlink="http://www.w3.org/1999/xlink">
<title>02 Our_life_bg</title>
<desc>Created using Figma</desc>
<g id="Canvas" transform="translate(-894 -187)">
<g id="02 Our_life_bg">
<g id="Rectangle">
<use xlink:href="#path0_fill" transform="matrix(-1 0 0 1 2174 187)" fill="#334267"/>
</g>
<g id="Vector" opacity="0.2">
<use xlink:href="#path1_fill" transform="translate(894 495)" fill="#43678A"/>
</g>
<g id="Vector" opacity="0.15">
<use xlink:href="#path2_fill" transform="translate(1139.95 352.023)" fill="#5A92C9"/>
</g>
<g id="Vector" opacity="0.2">
<use xlink:href="#path3_fill" transform="translate(1972.27 237.85)" fill="#5A92C9"/>
</g>
<g id="Vector" opacity="0.3">
<use xlink:href="#path4_fill" transform="translate(1067.07 187)" fill="#4B82B0"/>
</g>
</g>
</g>
<defs>
<path id="path0_fill" d="M 0 0L 1280 0L 1280 542L 0 542L 0 0Z"/>
<path id="path1_fill" d="M 0 234.102L 161.522 0L 363.599 0L 208.986 234.102L 0 234.102Z"/>
<path id="path2_fill" d="M 0 230.265L 152.952 0L 269.931 0L 118.045 230.265L 0 230.265Z"/>
<path id="path3_fill" d="M 0 85.3898L 56.508 0L 99.7259 0L 43.6115 85.3898L 0 85.3898Z"/>
<path id="path4_fill" d="M 0 102.18L 67.6027 0L 98.7601 0L 32.2227 102.18L 0 102.18Z"/>
</defs>
</svg>
