<svg width="1280" height="517" viewBox="0 0 1280 517" version="1.1" xmlns="http://www.w3.org/2000/svg" xmlns:xlink="http://www.w3.org/1999/xlink">
<title>05 Roadmap_bg</title>
<desc>Created using Figma</desc>
<g id="Canvas" transform="translate(-894 -4276)">
<g id="05 Roadmap_bg">
<g id="Rectangle">
<use xlink:href="#path0_fill" transform="matrix(-1 0 0 1 2174 4276)" fill="#334267"/>
</g>
<g id="bg 05">
<g id="Vector" opacity="0.2">
<use xlink:href="#path1_fill" transform="translate(922 4538)" fill="#43678A"/>
</g>
<g id="Vector" opacity="0.15">
<use xlink:href="#path2_fill" transform="translate(1279.22 4378.99)" fill="#5A92C9"/>
</g>
<g id="Vector" opacity="0.2">
<use xlink:href="#path3_fill" transform="translate(1970 4330)" fill="#5A92C9"/>
</g>
<g id="Vector" opacity="0.3">
<use xlink:href="#path4_fill" transform="translate(1035 4368)" fill="#4B82B0"/>
</g>
</g>
</g>
</g>
<defs>
<path id="path0_fill" d="M 0 0L 1280 0L 1280 517L 0 517L 0 0Z"/>
<path id="path1_fill" d="M 0 208.605L 143.971 0L 324.091 0L 186.278 208.605L 0 208.605Z"/>
<path id="path2_fill" d="M 0 205.185L 136.332 0L 240.601 0L 105.218 205.185L 0 205.185Z"/>
<path id="path3_fill" d="M 0 76.0896L 50.3679 0L 88.8898 0L 38.8727 76.0896L 0 76.0896Z"/>
<path id="path4_fill" d="M 0 91.051L 60.257 0L 88.029 0L 28.7214 91.051L 0 91.051Z"/>
</defs>
</svg>
