<svg width="119" height="119" viewBox="0 0 119 119" version="1.1" xmlns="http://www.w3.org/2000/svg" xmlns:xlink="http://www.w3.org/1999/xlink">
<title>diagram (curves)</title>
<desc>Created using Figma</desc>
<g id="Canvas" transform="translate(-1534 -3691)">
<g id="diagram (curves)">
<g id="Group 14">
<g id="Subtract">
<use xlink:href="#path0_fill" transform="matrix(0.967205 0.253995 -0.253995 0.967205 1558.75 3691)" fill="#4A66AC"/>
</g>
<g id="Mask Group">
<mask id="mask0_alpha" mask-type="alpha">
<g id="Subtract">
<use xlink:href="#path0_fill" transform="matrix(0.967205 0.253995 -0.253995 0.967205 1558.75 3691)" fill="#C4C4C4"/>
</g>
</mask>
<g id="Vector 3" mask="url(#mask0_alpha)">
<use xlink:href="#path1_fill" transform="matrix(0.967205 0.253995 -0.253995 0.967205 1607.25 3698.14)" fill="#8B70D4"/>
</g>
</g>
<g id="Mask Group">
<mask id="mask1_alpha" mask-type="alpha">
<g id="Subtract">
<use xlink:href="#path0_fill" transform="matrix(0.967205 0.253995 -0.253995 0.967205 1558.75 3691)" fill="#C4C4C4"/>
</g>
</mask>
<g id="Vector 3" mask="url(#mask1_alpha)">
<use xlink:href="#path2_fill" transform="matrix(0.967205 0.253995 -0.253995 0.967205 1606.84 3699.71)" fill="#67FAD6"/>
</g>
</g>
<g id="Mask Group">
<mask id="mask2_alpha" mask-type="alpha">
<g id="Subtract">
<use xlink:href="#path0_fill" transform="matrix(0.967205 0.253995 -0.253995 0.967205 1558.75 3691)" fill="#C4C4C4"/>
</g>
</mask>
<g id="Vector 3" mask="url(#mask2_alpha)">
<use xlink:href="#path3_fill" transform="matrix(0.967205 0.253995 -0.253995 0.967205 1604.91 3707.04)" fill="#6EBD6B"/>
</g>
</g>
<g id="Mask Group">
<mask id="mask3_alpha" mask-type="alpha">
<g id="Subtract">
<use xlink:href="#path0_fill" transform="matrix(0.967205 0.253995 -0.253995 0.967205 1558.75 3691)" fill="#C4C4C4"/>
</g>
</mask>
<g id="Vector 3" mask="url(#mask3_alpha)">
<use xlink:href="#path4_fill" transform="matrix(0.967205 0.253995 -0.253995 0.967205 1600.93 3722.22)" fill="#FAB04B"/>
</g>
</g>
<g id="Mask Group">
<mask id="mask4_alpha" mask-type="alpha">
<g id="Subtract">
<use xlink:href="#path5_fill" transform="translate(1544.78 3701.78)" fill="#C4C4C4"/>
</g>
</mask>
<g id="Ellipse 2.15" mask="url(#mask4_alpha)">
<use xlink:href="#path6_fill" transform="translate(1556.67 3713.67)" fill="#161C31"/>
</g>
<g id="Vector 3" mask="url(#mask4_alpha)">
<use xlink:href="#path7_fill" transform="matrix(0.967205 0.253995 -0.253995 0.967205 1593 3682.08)" fill="#D4707C"/>
</g>
</g>
</g>
<g id="Ellipse 2.15">
<use xlink:href="#path6_fill" transform="translate(1556.67 3713.67)" fill="#161C31"/>
</g>
<g id="100%">
<use xlink:href="#path8_fill" transform="translate(1571.93 3744.61)" fill="#FFFFFF"/>
<use xlink:href="#path9_fill" transform="translate(1571.93 3744.61)" fill="#FFFFFF"/>
<use xlink:href="#path10_fill" transform="translate(1571.93 3744.61)" fill="#FFFFFF"/>
<use xlink:href="#path11_fill" transform="translate(1571.93 3744.61)" fill="#FFFFFF"/>
</g>
</g>
</g>
<defs>
<path id="path0_fill" fill-rule="evenodd" d="M 48.7225 97.4451C 75.6312 97.4451 97.4451 75.6312 97.4451 48.7225C 97.4451 21.8139 75.6312 0 48.7225 0C 21.8138 0 0 21.8139 0 48.7225C 0 75.6312 21.8138 97.4451 48.7225 97.4451ZM 48.7225 74.7079C 63.0738 74.7079 74.7079 63.0739 74.7079 48.7225C 74.7079 34.3712 63.0738 22.7372 48.7225 22.7372C 34.3712 22.7372 22.7372 34.3712 22.7372 48.7225C 22.7372 63.0739 34.3712 74.7079 48.7225 74.7079Z"/>
<path id="path1_fill" d="M 0 56.3016L 0 0L 19.489 1.62408L 0 56.3016Z"/>
<path id="path2_fill" d="M 0 54.6775L 36.8126 7.57906L 19.489 0L 0 54.6775Z"/>
<path id="path3_fill" d="M 0 47.0984L 36.8126 0L 49.2639 15.6995L 0 47.0984Z"/>
<path id="path4_fill" d="M 0 31.399L 55.7602 17.3236L 49.2639 0L 0 31.399Z"/>
<path id="path5_fill" fill-rule="evenodd" d="M 48.7225 97.4451C 75.6312 97.4451 97.4451 75.6312 97.4451 48.7225C 97.4451 21.8139 75.6312 0 48.7225 0C 21.8138 0 0 21.8139 0 48.7225C 0 75.6312 21.8138 97.4451 48.7225 97.4451ZM 48.7225 74.7079C 63.0738 74.7079 74.7079 63.0739 74.7079 48.7225C 74.7079 34.3712 63.0738 22.7372 48.7225 22.7372C 34.3712 22.7372 22.7372 34.3712 22.7372 48.7225C 22.7372 63.0739 34.3712 74.7079 48.7225 74.7079Z"/>
<path id="path6_fill" d="M 73.6667 36.8333C 73.6667 57.1758 57.1758 73.6667 36.8333 73.6667C 16.4908 73.6667 0 57.1758 0 36.8333C 0 16.4908 16.4908 0 36.8333 0C 57.1758 0 73.6667 16.4908 73.6667 36.8333Z"/>
<path id="path7_fill" d="M 17.8649 68.2115L 0 10.2859L 21.1131 0L 17.8649 68.2115Z"/>
<path id="path8_fill" d="M 0 0.0640001L 4.08 0.0640001L 4.08 11.264L 2.544 11.264L 2.544 1.456L 0 1.456L 0 0.0640001Z"/>
<path id="path9_fill" d="M 11.6023 0C 13.1063 0 14.2636 0.490666 15.0743 1.472C 15.8849 2.44267 16.2902 3.84 16.2902 5.664C 16.2902 7.488 15.8849 8.89067 15.0743 9.872C 14.2636 10.8533 13.1063 11.344 11.6023 11.344C 10.0876 11.344 8.92492 10.8533 8.11425 9.872C 7.31425 8.89067 6.91425 7.488 6.91425 5.664C 6.91425 3.84 7.31425 2.44267 8.11425 1.472C 8.92492 0.490666 10.0876 0 11.6023 0ZM 11.6023 1.216C 9.53292 1.216 8.49825 2.69867 8.49825 5.664C 8.49825 7.136 8.75958 8.24533 9.28225 8.992C 9.80492 9.73867 10.5783 10.112 11.6023 10.112C 12.6263 10.112 13.3996 9.73867 13.9223 8.992C 14.4449 8.24533 14.7063 7.136 14.7063 5.664C 14.7063 2.69867 13.6716 1.216 11.6023 1.216Z"/>
<path id="path10_fill" d="M 22.9772 0C 24.4812 0 25.6386 0.490666 26.4492 1.472C 27.2599 2.44267 27.6652 3.84 27.6652 5.664C 27.6652 7.488 27.2599 8.89067 26.4492 9.872C 25.6386 10.8533 24.4812 11.344 22.9772 11.344C 21.4626 11.344 20.2999 10.8533 19.4893 9.872C 18.6893 8.89067 18.2892 7.488 18.2892 5.664C 18.2892 3.84 18.6893 2.44267 19.4893 1.472C 20.2999 0.490666 21.4626 0 22.9772 0ZM 22.9772 1.216C 20.9079 1.216 19.8732 2.69867 19.8732 5.664C 19.8732 7.136 20.1346 8.24533 20.6572 8.992C 21.1799 9.73867 21.9532 10.112 22.9772 10.112C 24.0012 10.112 24.7746 9.73867 25.2972 8.992C 25.8199 8.24533 26.0812 7.136 26.0812 5.664C 26.0812 2.69867 25.0466 1.216 22.9772 1.216Z"/>
<path id="path11_fill" d="M 32.1123 0.0319996C 33.0189 0.0319996 33.7283 0.325334 34.2402 0.912C 34.7522 1.49867 35.0082 2.31467 35.0082 3.36C 35.0082 4.40533 34.7522 5.22667 34.2402 5.824C 33.7283 6.41067 33.0189 6.704 32.1123 6.704C 31.2056 6.704 30.4962 6.41067 29.9842 5.824C 29.4722 5.22667 29.2162 4.40533 29.2162 3.36C 29.2162 2.31467 29.4722 1.49867 29.9842 0.912C 30.4962 0.325334 31.2056 0.0319996 32.1123 0.0319996ZM 32.1123 0.927999C 31.5149 0.927999 31.0509 1.14133 30.7202 1.568C 30.4002 1.984 30.2402 2.58133 30.2402 3.36C 30.2402 4.13867 30.4002 4.74133 30.7202 5.168C 31.0509 5.584 31.5149 5.792 32.1123 5.792C 32.7096 5.792 33.1683 5.584 33.4883 5.168C 33.8189 4.74133 33.9842 4.13867 33.9842 3.36C 33.9842 2.58133 33.8189 1.984 33.4883 1.568C 33.1683 1.14133 32.7096 0.927999 32.1123 0.927999ZM 39.6642 0.0640001L 40.8802 0.0640001L 32.5762 11.264L 31.3442 11.264L 39.6642 0.0640001ZM 40.2882 4.64C 41.1949 4.64 41.9042 4.93333 42.4162 5.52C 42.9282 6.10667 43.1842 6.92267 43.1842 7.968C 43.1842 9.01333 42.9282 9.83467 42.4162 10.432C 41.9042 11.0187 41.1949 11.312 40.2882 11.312C 39.3816 11.312 38.6722 11.0187 38.1602 10.432C 37.6482 9.83467 37.3923 9.01333 37.3923 7.968C 37.3923 6.92267 37.6482 6.10667 38.1602 5.52C 38.6722 4.93333 39.3816 4.64 40.2882 4.64ZM 40.2882 5.536C 39.6909 5.536 39.2269 5.74933 38.8962 6.176C 38.5762 6.592 38.4162 7.18933 38.4162 7.968C 38.4162 8.74667 38.5762 9.34933 38.8962 9.776C 39.2269 10.192 39.6909 10.4 40.2882 10.4C 40.8856 10.4 41.3442 10.192 41.6642 9.776C 41.9949 9.34933 42.1602 8.74667 42.1602 7.968C 42.1602 7.18933 41.9949 6.592 41.6642 6.176C 41.3442 5.74933 40.8856 5.536 40.2882 5.536Z"/>
</defs>
</svg>
