<svg width="87" height="95" viewBox="0 0 87 95" version="1.1" xmlns="http://www.w3.org/2000/svg" xmlns:xlink="http://www.w3.org/1999/xlink">
<title>Footer_logo</title>
<desc>Created using Figma</desc>
<g id="Canvas" transform="translate(-2047 -6674)">
<g id="Footer_logo">
<g id="Group">
<g id="Vector">
<use xlink:href="#path0_fill" transform="translate(2047 6674)" fill="#3B527B"/>
</g>
</g>
</g>
</g>
<defs>
<path id="path0_fill" d="M 69.5782 22.6076C 69.182 23.3291 69.0235 24.1308 69.0235 25.0127C 69.0235 26.4557 69.5782 27.7384 70.5292 28.7004C 71.4801 29.6624 72.7481 30.2236 74.1745 30.2236C 74.9669 30.2236 75.6802 30.0633 76.3141 29.7426C 77.2651 30.7848 78.533 31.346 79.8802 31.5865C 81.4651 31.827 83.0501 31.4262 84.4765 30.384C 85.8237 29.3418 86.6954 27.8987 86.9331 26.2954C 87.1709 24.692 86.7746 23.0886 85.7444 21.6456C 83.6048 18.7595 81.1482 16.1139 78.4538 13.8692C 75.7594 11.5443 72.7481 9.62025 69.6575 8.01688C 66.4876 6.4135 63.1593 5.21097 59.7517 4.32911C 56.3441 3.52743 52.8572 3.04641 49.2912 3.04641C 49.0534 3.04641 48.8157 3.04641 48.4987 3.04641C 48.261 2.48523 47.8647 1.92405 47.4685 1.52321C 46.3591 0.561181 45.0911 0 43.6647 0C 42.2382 0 40.9703 0.561181 40.0194 1.52321C 39.3854 2.24473 38.8307 3.20675 38.6722 4.24895C 36.2948 4.81013 33.9966 5.61181 31.6985 6.49367C 26.1513 8.81857 21.1587 12.2658 16.9587 16.5148C 12.7586 20.7637 9.4303 25.8143 7.13216 31.4262C 5.54724 35.3544 4.43779 39.6034 3.96231 44.0127C 3.01136 44.2532 2.21889 44.7342 1.50568 45.3755C 0.554724 46.3376 0 47.6203 0 48.9831C 0 50.4262 0.554724 51.7089 1.50568 52.6709C 2.13965 53.3122 3.01136 53.7933 3.96231 54.0338C 4.43779 58.443 5.54724 62.6118 7.13216 66.6203C 9.4303 72.2321 12.8379 77.2827 17.0379 81.5316C 21.238 85.7806 26.2305 89.1477 31.7777 91.5527C 37.1665 93.7975 43.0307 95 49.1327 95C 52.6988 95 56.1856 94.5992 59.5932 93.7173C 63.0008 92.9156 66.4084 91.6329 69.499 90.0295C 72.2726 88.5865 74.9669 86.903 77.4236 84.8987C 78.216 85.3797 79.0878 85.7004 80.118 85.7004C 81.5444 85.7004 82.8123 85.1392 83.7633 84.1772C 84.7142 83.2152 85.269 81.9325 85.269 80.4895C 85.269 79.5274 85.0312 78.5654 84.5557 77.7637C 84.952 77.2827 85.269 76.8017 85.6652 76.3207C 86.6954 74.9578 87.0124 73.2743 86.8539 71.6709C 86.6161 70.0675 85.8237 68.6245 84.3973 67.5823C 83.0501 66.5401 81.3859 66.2194 79.801 66.3797C 78.216 66.6203 76.7896 67.4219 75.7594 68.865C 72.6688 73.1139 68.6273 76.481 64.031 78.8861C 59.4347 81.2911 54.3629 82.5738 49.1327 82.5738C 46.5175 82.5738 43.9817 82.2532 41.525 81.692C 38.9892 81.0506 36.5325 80.1688 34.3136 79.0464C 32.9664 78.4051 31.6985 77.6034 30.5098 76.8017C 30.8268 76.1603 30.9853 75.4388 30.9853 74.7173C 30.9853 73.2743 30.4306 71.9916 29.4796 71.0295C 28.5286 70.0675 27.2607 69.5063 25.8343 69.5063C 24.9626 69.5063 24.0909 69.7468 23.3776 70.1477C 23.0607 69.827 22.8229 69.4262 22.5059 69.0253C 21.9512 68.3038 21.7927 67.4219 21.872 66.5401C 22.0305 65.6582 22.4267 64.8565 23.1399 64.3755C 23.8531 63.8143 24.7248 63.654 25.5965 63.7342C 26.4682 63.8945 27.2607 64.2954 27.7362 65.0169C 29.0041 66.7004 30.3513 68.2236 32.0155 69.5865C 33.6004 70.9494 35.3438 72.0717 37.1665 73.0338C 38.9892 73.9958 40.8911 74.6371 42.9515 75.1181C 44.9326 75.5992 46.993 75.8397 49.0534 75.8397C 53.3327 75.8397 57.3743 74.8776 61.0196 73.0338C 61.4951 72.7932 61.8913 72.5527 62.3668 72.3122C 63.2385 73.0338 64.348 73.5148 65.6159 73.5148C 67.0423 73.5148 68.3103 72.9536 69.2612 71.9916C 70.2122 71.0295 70.7669 69.7468 70.7669 68.3038C 70.7669 67.3418 70.5292 66.3797 69.9744 65.5781C 70.1329 65.4177 70.2122 65.1772 70.3707 65.0169C 71.4009 63.654 71.7179 61.9705 71.5594 60.3671C 71.3216 58.7637 70.5292 57.3207 69.1027 56.2785C 67.7555 55.2363 66.0914 54.9156 64.5064 55.0759C 62.9215 55.3165 61.4951 56.1181 60.4649 57.5612C 59.8309 58.443 59.0385 59.3249 58.1667 60.0464C 57.295 60.7679 56.4233 61.4093 55.3931 61.8903C 54.4422 62.3713 53.412 62.7722 52.3025 63.0127C 51.2723 63.2532 50.1629 63.4135 48.9742 63.4135C 47.0723 63.4135 45.1704 63.0127 43.5062 62.2911C 41.7628 61.5696 40.1778 60.5274 38.9099 59.1646C 37.5627 57.8017 36.5325 56.2785 35.8193 54.5148C 35.7401 54.2743 35.5816 53.9536 35.5023 53.7131C 36.057 53.4726 36.5325 53.0717 36.9288 52.6709C 37.8797 51.7089 38.4344 50.4262 38.4344 48.9831C 38.4344 47.5401 37.8797 46.2574 36.9288 45.2954C 36.5325 44.8945 36.057 44.4937 35.5023 44.2532C 35.5816 44.0127 35.6608 43.692 35.8193 43.4515C 36.5325 41.6878 37.5627 40.0844 38.9099 38.8017C 40.2571 37.4388 41.7628 36.3966 43.5062 35.6751C 45.1704 34.9536 46.993 34.5527 48.9742 34.5527C 50.0836 34.5527 51.1931 34.7131 52.3025 34.9536C 53.412 35.1941 54.4422 35.5949 55.3931 36.0759C 56.4233 36.557 57.295 37.1983 58.1667 37.9198C 59.0385 38.6413 59.7517 39.443 60.4649 40.4051C 61.4951 41.7679 62.9215 42.6498 64.5064 42.8903C 66.0914 43.1308 67.6763 42.73 69.1027 41.6878C 70.4499 40.6456 71.3216 39.2025 71.5594 37.5992C 71.7971 35.9958 71.4009 34.3924 70.3707 32.9494C 69.1027 31.2658 67.6763 29.7426 66.1706 28.3797C 64.5857 27.0169 62.8423 25.8945 61.0196 24.9325C 57.295 23.0084 53.1742 22.1266 49.1327 22.1266C 45.0119 22.1266 40.9703 23.0886 37.1665 25.0127C 35.3438 25.9747 33.6004 27.097 32.0155 28.4599C 30.4306 29.8228 29.0041 31.346 27.7362 33.0295C 27.1815 33.7511 26.389 34.2321 25.5965 34.3122C 24.7248 34.4726 23.8531 34.2321 23.1399 33.6709C 22.4267 33.1097 21.9512 32.308 21.872 31.5063C 21.7135 30.6245 21.9512 29.7426 22.5059 29.0211C 24.0909 26.9367 25.8343 25.0127 27.8154 23.3291C 29.7966 21.6456 31.9362 20.2025 34.2344 19C 36.5325 17.8776 38.9099 16.9156 41.4458 16.3544C 43.9024 15.7932 46.4383 15.4726 49.1327 15.4726C 54.5214 15.4726 59.5139 16.6751 64.031 19C 65.9329 19.962 67.8348 21.2447 69.5782 22.6076ZM 77.6613 21.3249C 76.7104 20.3629 75.4424 19.8017 74.016 19.8017C 73.065 19.8017 72.1933 20.0422 71.4801 20.5232C 69.499 18.9198 67.4386 17.557 65.2197 16.4346C 60.3064 13.9494 54.8384 12.5865 49.0534 12.5865C 46.2006 12.5865 43.4269 12.9072 40.7326 13.5485C 37.959 14.1899 35.3438 15.1519 32.8872 16.4346C 30.3513 17.7173 28.0532 19.2405 25.9135 21.0844C 23.7739 22.9283 21.7927 25.0127 20.1285 27.2574C 19.0983 28.6203 18.7814 30.3038 18.9399 31.9072C 19.1776 33.5105 19.9701 34.9536 21.3965 35.9958C 22.7437 37.038 24.4078 37.3587 25.9928 37.1983C 27.5777 36.9578 29.0041 36.1561 30.0343 34.7131C 31.1438 33.1899 32.4117 31.827 33.8381 30.6245C 35.2646 29.4219 36.7703 28.3797 38.4344 27.5781C 41.7628 25.8945 45.4081 25.0127 49.0534 25.0127C 52.6988 25.0127 56.3441 25.8143 59.6724 27.5781C 61.3366 28.3797 62.8423 29.4219 64.2687 30.6245C 65.6951 31.827 66.9631 33.1899 68.0725 34.7131C 68.6273 35.4346 68.7857 36.3165 68.7065 37.1983C 68.548 38.0802 68.1518 38.8819 67.4386 39.3629C 66.7253 39.924 65.8536 40.0844 64.9819 40.0042C 64.1102 39.8439 63.3178 39.443 62.8423 38.7215C 62.0498 37.5992 61.0989 36.6371 60.1479 35.7553C 59.1177 34.8734 58.0083 34.1519 56.8196 33.5105C 55.6309 32.9494 54.3629 32.4684 53.095 32.1477C 51.827 31.827 50.4799 31.6667 49.1327 31.6667C 46.8345 31.6667 44.6156 32.1477 42.6345 32.9494C 40.5741 33.8312 38.6722 35.1139 37.0872 36.7173C 35.5023 38.3207 34.2344 40.1646 33.3627 42.3291C 33.2042 42.8101 32.9664 43.2911 32.8079 43.7722C 31.6985 43.9325 30.6683 44.4937 29.8758 45.2152C 28.9249 46.1772 28.3702 47.4599 28.3702 48.903C 28.3702 50.346 28.9249 51.6287 29.8758 52.5907C 30.6683 53.3924 31.6985 53.8734 32.8079 54.0338C 32.9664 54.5148 33.1249 54.9958 33.3627 55.4768C 34.2344 57.5612 35.5023 59.4852 37.0872 61.0886C 38.6722 62.692 40.4948 63.9747 42.6345 64.8565C 44.6156 65.7384 46.8345 66.1392 49.1327 66.1392C 50.4799 66.1392 51.827 65.9789 53.095 65.6582C 54.3629 65.3376 55.6309 64.8565 56.8196 64.2954C 58.0083 63.7342 59.1177 62.9325 60.1479 62.0506C 61.1781 61.1688 62.0498 60.2067 62.8423 59.0844C 63.397 58.5232 64.1895 58.1224 64.9819 57.962C 65.8536 57.8017 66.7253 58.0422 67.4386 58.6034C 68.1518 59.1646 68.6272 59.9662 68.7065 60.7679C 68.865 61.6498 68.6273 62.5316 68.0725 63.2532L 67.8348 63.5738C 67.1216 63.2532 66.4084 63.0127 65.6159 63.0127C 64.1895 63.0127 62.9215 63.5738 61.9706 64.5359C 61.0196 65.4979 60.4649 66.7806 60.4649 68.2236C 60.4649 68.7848 60.5441 69.346 60.7026 69.827C 60.3856 69.9873 60.0687 70.2279 59.6724 70.3882C 56.4233 71.9916 52.778 72.8734 48.9742 72.8734C 47.0723 72.8734 45.2496 72.6329 43.5062 72.2321C 41.6835 71.8312 40.0194 71.1899 38.3552 70.3882C 36.691 69.5063 35.1061 68.5443 33.7589 67.3418C 32.3325 66.1392 31.0645 64.7764 29.9551 63.2532C 28.9249 61.8903 27.4984 61.0084 25.9135 60.7679C 24.3286 60.5274 22.7437 60.9283 21.3172 61.9705C 19.9701 63.0127 19.0983 64.4557 18.8606 66.0591C 18.6229 67.6624 19.0191 69.2658 20.0493 70.7089C 20.3663 71.1899 20.7625 71.6709 21.1587 72.1519C 20.7625 72.8734 20.5248 73.7553 20.5248 74.6371C 20.5248 76.0802 21.0795 77.3629 22.0305 78.3249C 22.9814 79.2869 24.2494 79.8481 25.6758 79.8481C 26.706 79.8481 27.6569 79.5274 28.4494 78.9662C 29.8758 79.9283 31.3023 80.8101 32.8079 81.6118C 35.2646 82.8945 37.959 83.8565 40.6533 84.4979C 43.3477 85.1392 46.1213 85.4599 48.9742 85.4599C 54.6007 85.4599 60.1479 84.097 65.0612 81.5316C 70.0537 78.9662 74.4122 75.2785 77.8198 70.7089C 78.3745 69.9873 79.167 69.5063 79.9595 69.4262C 80.8312 69.2658 81.7029 69.5063 82.4161 70.0675C 83.1293 70.6287 83.6048 71.4304 83.684 72.2321C 83.8425 73.1139 83.6048 73.9958 83.0501 74.7173C 82.7331 75.1181 82.4161 75.519 82.0991 75.9198C 81.3859 75.5992 80.6727 75.3586 79.8802 75.3586C 78.4538 75.3586 77.1858 75.9198 76.2349 76.8819C 75.2839 77.8439 74.7292 79.1266 74.7292 80.5696C 74.7292 81.3713 74.8877 82.173 75.2047 82.8143C 72.9065 84.6582 70.5292 86.1814 67.914 87.5443C 64.9819 89.0675 61.8121 90.1899 58.563 90.9916C 55.3931 91.7932 52.0648 92.1941 48.7364 92.1941C 42.9515 92.1941 37.4835 91.0717 32.4117 88.9072C 27.1815 86.7426 22.5059 83.5359 18.6229 79.5274C 14.6606 75.519 11.4907 70.789 9.35106 65.5781C 7.84538 61.9705 6.81518 58.0422 6.41895 53.9536C 7.13216 53.7131 7.84538 53.2321 8.32086 52.7511C 9.27181 51.789 9.82653 50.5063 9.82653 49.0633C 9.82653 47.6203 9.27181 46.3376 8.32086 45.3755C 7.76613 44.8143 7.13216 44.4135 6.41895 44.173C 6.89442 40.0844 7.84538 36.2363 9.35106 32.5485C 11.8869 27.2574 15.0568 22.5274 19.0191 18.519C 22.9814 14.5105 27.6569 11.3038 32.8079 9.13924C 34.7891 8.33755 36.8495 7.61603 38.9892 7.13502C 39.2269 7.77637 39.6231 8.33755 40.0986 8.81857C 41.0496 9.78059 42.3175 10.3418 43.7439 10.3418C 45.1704 10.3418 46.4383 9.78059 47.3893 8.81857C 48.1817 8.01688 48.6572 7.05485 48.8157 5.93249L 49.2119 5.93249C 52.5403 5.93249 55.8686 6.33333 59.0385 7.13502C 62.2876 7.93671 65.3782 9.05907 68.3895 10.5823C 71.3216 12.1055 74.0952 13.9494 76.6311 16.1139C 79.167 18.2785 81.3859 20.6835 83.4463 23.4093C 84.001 24.1308 84.1595 25.0127 84.0803 25.8945C 83.9218 26.7764 83.5255 27.5781 82.8123 28.0591C 82.0991 28.6203 81.2274 28.7806 80.3557 28.7004C 79.7217 28.6203 79.0878 28.2996 78.533 27.8186C 79.0085 27.0169 79.3255 26.0549 79.3255 25.0127C 79.167 23.5696 78.6123 22.2869 77.6613 21.3249Z"/>
</defs>
</svg>
