<svg width="43" height="43" viewBox="0 0 43 43" version="1.1" xmlns="http://www.w3.org/2000/svg" xmlns:xlink="http://www.w3.org/1999/xlink">
<title>Icon_03.8</title>
<desc>Created using Figma</desc>
<g id="Canvas" transform="translate(-2996 -2275)">
<g id="Icon_03.8">
<g id="Vector">
<use xlink:href="#path0_fill" transform="translate(2996 2275)" fill="#FAB04B"/>
</g>
</g>
</g>
<defs>
<path id="path0_fill" d="M 20.9079 42.0079C 20.1079 42.0079 19.4079 41.7079 18.7079 41.0079L 13.5079 35.8078C 13.3079 35.6078 13.1079 35.4079 12.8079 35.2079C 12.7079 35.1079 12.5079 35.0079 12.4079 35.0079C 12.0079 34.9079 11.6079 34.9079 11.4079 35.2079C 11.3079 35.3079 11.3079 35.4078 11.2079 35.6078C 11.1079 35.8078 11.1079 36.1079 11.0079 36.5079C 10.8079 38.4079 9.70785 39.9078 8.20785 40.6078C 8.00785 40.8078 7.50785 40.9079 7.10785 41.0079C 6.70785 41.0079 6.30785 41.1079 5.90785 41.0079C 4.70785 40.9079 3.60785 40.4079 2.60785 39.4079L 2.50785 39.3078C 1.50785 38.3078 1.00785 37.2079 0.907852 35.9079C 0.907852 35.5079 0.907852 35.1079 1.00785 34.7079C 1.10785 34.3079 1.20785 33.9079 1.40785 33.5079C 2.10785 32.0079 3.60785 31.0079 5.40785 30.8079C 5.80785 30.7079 6.10785 30.7079 6.30785 30.6079C 6.50785 30.5079 6.60785 30.5079 6.70785 30.4079C 7.00785 30.3079 7.10785 30.0079 7.00785 29.6079C 6.90785 29.4079 6.90785 29.3079 6.70785 29.1079C 6.50785 28.9079 6.30785 28.7079 6.10785 28.4079L 1.00785 23.3079C 0.00785232 22.3079 -0.292148 21.0079 0.307852 19.8079C 0.407852 19.7079 0.407852 19.6079 0.507852 19.5079C 0.607852 19.3079 0.807852 19.1079 1.00785 18.9079L 6.70785 13.2079C 7.00785 12.9079 7.30785 12.7079 7.70785 12.5079C 8.50785 12.1079 9.30785 12.2079 9.90785 12.8079C 10.1079 13.0079 10.3079 13.3079 10.4079 13.7079C 10.5079 14.1079 10.6079 14.5079 10.6079 14.8079L 10.6079 14.9079C 10.7079 15.9079 11.1079 16.7079 11.6079 17.3079C 11.7079 17.4079 11.9079 17.6079 12.1079 17.7079C 12.5079 18.0079 13.0079 18.2079 13.4079 18.3079C 13.6079 18.3079 13.9079 18.4079 14.2079 18.3079C 14.5079 18.3079 14.8079 18.2079 15.0079 18.2079C 15.1079 18.2079 15.3079 18.1079 15.5079 18.0079C 16.1079 17.7079 16.6079 17.4079 17.0079 17.0079C 17.4079 16.6079 17.7079 16.1079 18.0079 15.5079C 18.1079 15.3079 18.2079 15.1079 18.2079 14.9079C 18.2079 14.7079 18.3079 14.4079 18.3079 14.1079C 18.3079 13.8079 18.3079 13.5079 18.2079 13.3079C 18.1079 12.9079 17.9079 12.4079 17.6079 12.0079C 17.5079 11.8079 17.4079 11.7079 17.2079 11.5079C 16.6079 10.9079 15.8079 10.6079 14.8079 10.5079L 14.6079 10.5079C 14.3079 10.5079 13.9079 10.4079 13.5079 10.3079C 13.2079 10.2079 12.9079 10.0079 12.6079 9.80785C 12.0079 9.20785 11.9079 8.40785 12.3079 7.60785C 12.5079 7.20785 12.7079 6.90785 13.0079 6.60785L 13.9079 5.70785C 14.3079 5.30785 14.7079 4.90785 15.1079 4.50785L 18.9079 1.00785C 19.1079 0.807852 19.3079 0.707852 19.5079 0.507852C 19.6079 0.407852 19.7079 0.407852 19.8079 0.307852C 21.0079 -0.292148 22.3079 0.00785232 23.3079 1.00785L 28.5079 6.20785C 28.7079 6.40785 28.9079 6.60785 29.2079 6.80785C 29.3079 6.90785 29.5079 7.00785 29.6079 7.00785C 30.0079 7.10785 30.4079 7.10785 30.6079 6.80785C 30.7079 6.70785 30.7079 6.60785 30.8079 6.40785C 30.9079 6.20785 30.9079 5.90785 31.0079 5.50785C 31.2079 3.60785 32.3078 2.10785 33.8078 1.40785C 34.0078 1.20785 34.5079 1.10785 34.9079 1.00785C 35.3079 1.00785 35.7078 1.00785 36.1078 1.00785C 37.3078 1.10785 38.5079 1.60785 39.4079 2.60785L 39.5079 2.70785C 40.5079 3.70785 41.0078 4.80785 41.1078 6.00785C 41.1078 6.40785 41.1079 6.80785 41.0079 7.20785C 40.9079 7.60785 40.8078 8.00785 40.6078 8.40785C 39.9078 9.90785 38.4078 10.9079 36.6078 11.1079C 36.2078 11.2079 35.9079 11.2079 35.7079 11.3079C 35.5079 11.4079 35.4078 11.4079 35.3078 11.5079C 35.1078 11.7079 35.0078 12.1079 35.1078 12.5079C 35.2078 12.7079 35.2079 12.8079 35.4079 13.0079C 35.6079 13.2079 35.8079 13.4079 36.0079 13.7079L 41.1078 18.8079C 42.1078 19.8079 42.4078 21.1079 41.8078 22.3079C 41.7078 22.4079 41.7078 22.5079 41.6078 22.6079C 41.5078 22.8079 41.3078 23.0079 41.1078 23.2079L 35.4079 28.9079C 35.1079 29.2079 34.8079 29.4079 34.4079 29.6079C 33.6079 30.0079 32.8079 29.9079 32.2079 29.3079C 32.0079 29.1079 31.8079 28.8079 31.7079 28.4079C 31.6079 28.0079 31.5079 27.6079 31.5079 27.3079L 31.5079 27.1079C 31.4079 26.1079 31.0079 25.3079 30.5079 24.7079C 30.4079 24.6079 30.2079 24.4079 30.0079 24.3079C 29.6079 24.0079 29.1079 23.8079 28.7079 23.7079C 28.5079 23.7079 28.2079 23.6079 27.9079 23.7079C 27.6079 23.7079 27.3079 23.8079 27.1079 23.8079C 27.0079 23.8079 26.8079 23.9079 26.6079 24.0079C 26.0079 24.3079 25.5079 24.6079 25.1079 25.0079C 24.7079 25.4079 24.4079 25.9079 24.1079 26.5079C 24.0079 26.7079 23.9079 26.9079 23.9079 27.1079C 23.9079 27.3079 23.8079 27.6079 23.8079 27.9079C 23.8079 28.2079 23.8079 28.5079 23.9079 28.7079C 24.0079 29.1079 24.2079 29.6079 24.5079 30.0079C 24.6079 30.2079 24.7079 30.3079 24.9079 30.5079C 25.5079 31.1079 26.3079 31.4079 27.3079 31.5079L 27.4079 31.5079C 27.7079 31.5079 28.1079 31.6079 28.5079 31.7079C 28.8079 31.8079 29.1079 32.0079 29.4079 32.2079C 30.0079 32.8079 30.1079 33.6079 29.7079 34.4079C 29.5079 34.8079 29.3079 35.1079 29.0079 35.4079L 23.1079 41.0079C 22.9079 41.2079 22.7079 41.3079 22.5079 41.5079C 22.4079 41.6079 22.3079 41.6079 22.2079 41.7079C 21.8079 41.9079 21.3079 42.0079 20.9079 42.0079ZM 12.1079 33.0079C 12.4079 33.0079 12.8079 33.1079 13.2079 33.2079C 13.5079 33.3079 13.9079 33.5079 14.2079 33.7079C 14.5079 33.9079 14.8079 34.2079 15.1079 34.5079L 20.3079 39.7079C 20.5079 39.9079 21.0079 40.2079 21.5079 40.0079C 21.5079 40.0079 21.5079 40.0079 21.6079 39.9079C 21.7079 39.8079 21.8079 39.8079 21.9079 39.7079L 27.5079 34.1078C 27.6079 34.0078 27.7079 33.8079 27.8079 33.7079C 27.6079 33.6079 27.4079 33.6078 27.2079 33.6078L 27.0079 33.6078C 25.6079 33.4078 24.4079 32.9079 23.5079 32.0079C 23.3079 31.8079 23.1079 31.5079 22.9079 31.3079C 22.4079 30.6079 22.1079 30.0079 22.0079 29.2079C 21.9079 28.7079 21.9079 28.3079 21.9079 27.9079C 21.9079 27.5079 22.0079 27.1079 22.1079 26.7079C 22.2079 26.4079 22.3079 26.1079 22.4079 25.8079C 22.8079 25.0079 23.2079 24.3079 23.8079 23.7079C 24.4079 23.1079 25.1079 22.7079 26.0079 22.3079C 26.3079 22.2079 26.6079 22.1079 26.9079 22.0079C 27.3079 21.9079 27.7079 21.9079 28.1079 21.8079C 28.6079 21.8079 29.0079 21.8079 29.4079 21.9079C 30.1079 22.1079 30.8079 22.4079 31.5079 22.8079C 31.8079 23.0079 32.0079 23.2079 32.2079 23.4079C 33.1079 24.3079 33.7078 25.5079 33.8078 26.9079L 33.8078 27.1079C 33.8078 27.3079 33.8079 27.6079 33.9079 27.7079C 34.1079 27.6079 34.2078 27.5079 34.3078 27.4079L 39.9079 21.8079C 40.0079 21.7079 40.1078 21.6079 40.1078 21.5079C 40.1078 21.4079 40.2079 21.4079 40.2079 21.4079C 40.4079 21.0079 40.3079 20.6079 39.9079 20.3079L 34.5079 15.0079C 34.2079 14.7079 34.0079 14.4079 33.7079 14.1079C 33.5079 13.8079 33.3079 13.5079 33.2079 13.1079C 32.8079 11.9079 33.1079 10.7079 34.0079 10.0079C 34.3079 9.70785 34.7079 9.50785 35.0079 9.40785C 35.4079 9.20785 35.9078 9.20785 36.3078 9.10785C 37.5078 8.90785 38.4078 8.30785 38.8078 7.50785C 38.9078 7.20785 39.0079 7.00785 39.0079 6.80785C 39.0079 6.60785 39.0079 6.40785 39.0079 6.10785C 39.0079 5.30785 38.6079 4.70785 38.0079 4.10785L 38.0079 4.00785C 37.4079 3.40785 36.7079 3.10785 36.0079 3.00785C 35.7079 3.00785 35.5078 3.00785 35.3078 3.00785C 35.1078 3.00785 34.8078 3.10785 34.6078 3.20785C 33.7078 3.60785 33.1079 4.50785 33.0079 5.70785C 32.9079 6.20785 32.9079 6.60785 32.7079 7.10785C 32.6079 7.40785 32.4079 7.80785 32.2079 8.00785C 31.4079 9.00785 30.1079 9.30785 29.0079 8.80785C 28.7079 8.70785 28.3079 8.50785 28.0079 8.30785C 27.7079 8.10785 27.4079 7.80785 27.1079 7.50785L 21.9079 2.30785C 21.7079 2.10785 21.2079 1.80785 20.7079 2.00785C 20.7079 2.00785 20.6079 2.00785 20.6079 2.10785C 20.5079 2.20785 20.4079 2.20785 20.3079 2.30785L 16.8079 5.80785C 16.4079 6.20785 16.0079 6.60785 15.6079 7.00785L 14.7079 8.00785C 14.6079 8.10785 14.5079 8.30785 14.4079 8.40785C 14.6079 8.50785 14.8079 8.50785 15.0079 8.50785L 15.2079 8.50785C 16.6079 8.70785 17.8079 9.20785 18.7079 10.1079C 18.9079 10.3079 19.1079 10.6079 19.3079 10.8079C 19.8079 11.4079 20.1079 12.1079 20.2079 12.9079C 20.3079 13.4079 20.3079 13.8079 20.3079 14.2079C 20.3079 14.6079 20.2079 15.0079 20.1079 15.4079C 20.0079 15.7079 19.9079 16.0079 19.8079 16.3079C 19.4079 17.1079 19.0079 17.8079 18.4079 18.4079C 17.8079 19.0079 17.1079 19.5079 16.2079 19.8079C 15.9079 19.9079 15.6079 20.0079 15.3079 20.1079C 14.9079 20.2079 14.5079 20.2079 14.1079 20.3079C 13.6079 20.3079 13.2079 20.3079 12.8079 20.2079C 12.1079 20.0079 11.4079 19.7079 10.7079 19.3079C 10.4079 19.1079 10.2079 18.9079 10.0079 18.7079C 9.10785 17.8079 8.50785 16.6079 8.40785 15.2079L 8.40785 15.0079C 8.40785 14.8079 8.30785 14.5079 8.30785 14.4079C 8.10785 14.5079 8.00785 14.6079 7.90785 14.7079L 2.30785 20.3079C 2.20785 20.4079 2.10785 20.5079 2.10785 20.6079C 2.10785 20.7079 2.00785 20.7079 2.00785 20.7079C 1.80785 21.1079 1.90785 21.5079 2.30785 21.8079L 7.50785 27.0079C 7.80785 27.3079 8.00785 27.6079 8.30785 27.9079C 8.50785 28.2079 8.70785 28.5079 8.80785 28.9079C 9.20785 30.1079 8.90785 31.3079 8.00785 32.0079C 7.70785 32.3079 7.30785 32.5078 7.00785 32.6078C 6.60785 32.8078 6.10785 32.8079 5.70785 32.9079C 4.50785 33.1079 3.60785 33.7079 3.20785 34.5079C 3.10785 34.8079 3.00785 35.0079 3.00785 35.2079C 3.00785 35.4079 3.00785 35.6079 3.00785 35.9079C 3.00785 36.7079 3.40785 37.3079 4.00785 37.9079L 4.10785 38.0079C 4.70785 38.6079 5.40785 38.9079 6.10785 39.0079C 6.40785 39.0079 6.60785 39.0079 6.80785 39.0079C 7.00785 39.0079 7.30785 38.9078 7.50785 38.8078C 8.40785 38.4078 9.00785 37.5078 9.10785 36.3078C 9.20785 35.8078 9.20785 35.4079 9.40785 34.9079C 9.50785 34.5079 9.70785 34.2079 9.90785 34.0079C 10.5079 33.3079 11.2079 33.0079 12.1079 33.0079Z"/>
</defs>
</svg>
