<svg width="38" height="48" viewBox="0 0 38 48" version="1.1" xmlns="http://www.w3.org/2000/svg" xmlns:xlink="http://www.w3.org/1999/xlink">
<title>Icon 13</title>
<desc>Created using Figma</desc>
<g id="Canvas" transform="translate(-1544 -2590)">
<g id="Icon 13">
<g id="Group">
<g id="Vector (Stroke)">
<use xlink:href="#path0_fill" transform="translate(1544 2590)" fill="#FAB04B"/>
</g>
</g>
</g>
</g>
<defs>
<path id="path0_fill" fill-rule="evenodd" d="M 9.35424 10C 9.94635 4.33276 13.2121 2 19 2C 25.4268 2 28.7439 6.19048 28.7439 13.3143L 28.7439 19.181L 33.0976 19.181C 34.3415 19.181 36 20.6476 36 22.1143L 36 40.9714C 36 42.2286 34.9634 43.6952 33.7195 44.1143L 30.8171 45.1619C 29.5732 45.581 27.2927 46 26.0488 46L 11.9512 46C 10.5 46 8.42683 45.7905 7.18293 45.3714L 4.28049 44.3238C 3.03659 43.9048 2 42.4381 2 41.181L 2 22.1143C 2 20.6476 3.03659 19.181 4.48781 19.181L 23.561 19.181L 23.561 12.2667C 23.561 8.70476 21.6951 6.81905 18.7927 6.81905C 15.8902 6.81905 14.0244 8.4381 14.0244 12L 9.2561 12C 9.2561 11.2918 9.28888 10.6256 9.35424 10ZM 21.561 17.181L 4.48781 17.181C 3.03742 17.181 1.87863 17.9235 1.13872 18.8473C 0.511238 19.6756 0.028777 21.0429 0 22.1143L 0 41.181C 0 42.3258 0.454449 43.4067 1.05041 44.2349C 1.64446 45.0604 2.52327 45.8355 3.6188 46.2113L 6.52409 47.2599L 6.54442 47.2668C 8.08509 47.7858 10.4061 48 11.9512 48L 26.0488 48C 27.5461 48 30.0434 47.533 31.4556 47.0572L 31.4759 47.0504L 34.3812 46.0017C 35.4768 45.626 36.3555 44.8508 36.9496 44.0253C 37.5456 43.1972 38 42.1163 38 40.9714L 38 22.1143C 38 20.6544 37.2091 19.4351 36.4038 18.6582C 35.614 17.8963 34.4171 17.181 33.0976 17.181L 30.7439 17.181L 30.7439 13.3143C 30.7439 9.47561 29.8535 6.12113 27.8116 3.69719C 25.7231 1.21787 22.6743 0 19 0C 15.532 0 12.4773 0.77151 10.3139 2.90432C 8.14575 5.04177 7.2561 8.16728 7.2561 12L 7.2561 14L 16.0244 14L 16.0244 12C 16.0244 10.5521 16.4003 9.83063 16.7517 9.47046C 17.0971 9.1164 17.7042 8.81905 18.7927 8.81905C 19.7955 8.81905 20.4038 9.13075 20.7821 9.54888C 21.1834 9.99253 21.561 10.8184 21.561 12.2667L 21.561 17.181Z"/>
</defs>
</svg>
