<svg width="87" height="93" viewBox="0 0 87 93" version="1.1" xmlns="http://www.w3.org/2000/svg" xmlns:xlink="http://www.w3.org/1999/xlink">
<title>Icon_21</title>
<desc>Created using Figma</desc>
<g id="Canvas" transform="translate(-2387 -3353)">
<g id="Icon_21">
<clipPath id="clip-0" clip-rule="evenodd">
<path d="M 2436.5 3389.5L 2436.5 3353.5L 2473.5 3353.5L 2473.5 3389.5L 2436.5 3389.5Z" fill="#FFFFFF"/>
</clipPath>
<g id="box" clip-path="url(#clip-0)">
</g>
<g id="Union">
<use xlink:href="#path0_fill" transform="matrix(4.996e-16 -1 1 4.996e-16 2387.5 3445.5)" fill="#FAB04B"/>
</g>
</g>
</g>
<defs>
<path id="path0_fill" fill-rule="evenodd" d="M 73.1772 52.1837L 60.9836 58.0189L 74.0002 64.2479L 87.0165 58.0189L 74.8241 52.1845C 74.3061 51.9386 73.6938 51.9386 73.1772 52.1837ZM 58.9999 75.0177L 58.9999 60.3956L 72.4999 66.8558L 72.4999 82.4957L 59.9665 76.4982L 59.9648 76.4975C 59.3437 76.1972 58.9958 75.6117 58.9999 75.0177ZM 75.4999 82.4879L 75.4999 66.8558L 88.9999 60.3959L 88.9999 75.0219C 88.9997 75.6156 88.6474 76.1984 88.0241 76.4948L 88.0209 76.4962L 75.4999 82.4879ZM 71.8871 49.4752C 73.2199 48.8414 74.7799 48.8414 76.1127 49.4752L 76.1159 49.4767L 89.3127 55.7919L 89.3144 55.7929C 90.9333 56.5634 91.9989 58.1698 91.9999 59.9723L 91.9999 75.0226C 91.9989 76.8251 90.9333 78.4323 89.3146 79.203L 89.3127 79.204L 76.1164 85.5189C 74.7773 86.16 73.2065 86.16 71.8676 85.5192L 58.6674 79.2023L 58.6635 79.2003C 57.0465 78.4208 55.9892 76.8063 55.9999 75.0018L 55.9999 59.9733C 56.0009 58.1705 57.0668 56.5634 58.6855 55.7929L 58.6872 55.7919L 71.8839 49.4767L 71.8871 49.4752ZM 84.4247 70.4135C 83.6635 70.2018 83.3439 68.8783 83.7111 67.4574C 84.0783 66.0365 84.9928 65.056 85.7541 65.2675C 86.5153 65.4791 86.8349 66.8024 86.4677 68.2235C 86.1005 69.6444 85.1859 70.6249 84.4247 70.4135ZM 74.3749 59.1666C 75.8839 59.1666 77.1283 58.5438 77.1544 57.7755C 77.1806 57.0072 75.9784 56.3844 74.4694 56.3844C 72.9606 56.3844 71.716 57.0072 71.6898 57.7755C 71.6637 58.5438 72.8659 59.1666 74.3749 59.1666ZM 60.9167 62.8156C 61.6879 62.6412 62.6295 63.6471 63.0202 65.0621C 63.4108 66.4772 63.1022 67.7658 62.331 67.9401C 61.56 68.1144 60.6181 67.1085 60.2274 65.6935C 59.8371 64.2785 60.1457 62.9899 60.9167 62.8156ZM 71.1017 77.2545C 70.7111 75.8395 69.7694 74.8336 68.9982 75.0079C 68.2272 75.1823 67.9186 76.4708 68.309 77.8859C 68.6996 79.3009 69.6415 80.3068 70.4125 80.1325C 71.1837 79.9581 71.4923 78.6696 71.1017 77.2545ZM 68.9982 66.8156C 69.7694 66.6412 70.7111 67.6471 71.1017 69.0621C 71.4923 70.4772 71.1837 71.7658 70.4125 71.9401C 69.6415 72.1144 68.6996 71.1085 68.309 69.6935C 67.9186 68.2785 68.2272 66.9899 68.9982 66.8156ZM 62.7929 73.0621C 62.4023 71.6471 61.4606 70.6412 60.6894 70.8156C 59.9184 70.9899 59.6098 72.2785 60.0002 73.6935C 60.3908 75.1085 61.3327 76.1144 62.1037 75.9401C 62.8749 75.7658 63.1835 74.4772 62.7929 73.0621ZM 80.4294 76.9247C 79.6681 76.713 79.3485 75.3895 79.7157 73.9686C 80.0829 72.5477 80.9975 71.5673 81.7587 71.7787C 82.5199 71.9904 82.8395 73.3136 82.4723 74.7348C 82.1051 76.1557 81.1906 77.1361 80.4294 76.9247ZM 46.8144 5.21229L 57.589 27.2103C 58.1369 28.337 58.1369 29.663 57.5883 30.7909L 46.8144 52.7875L 46.8129 52.7909C 46.7675 52.8842 46.7189 52.975 46.6671 53.0634L 34.881 29.0001L 46.6671 4.93666C 46.7189 5.02504 46.7675 5.11586 46.8129 5.20912L 46.8144 5.21229ZM 44.2235 3.1056C 43.9367 3.03651 43.64 3.00014 43.339 3.00014L 17.6833 3.00014C 16.2226 2.98964 14.8637 3.82558 14.1901 5.18886L 3.41666 27.1847C 3.36588 27.2882 3.31998 27.3934 3.27847 27.4999L 32.2753 27.4999L 44.2235 3.1056ZM 3.41641 30.7872C 3.37003 30.6928 3.32755 30.5968 3.28897 30.4999L 32.2751 30.4999L 44.2235 54.8944C 43.9367 54.9635 43.64 54.9999 43.3388 54.9999L 17.6679 54.9999C 16.2091 54.9992 14.8578 54.1552 14.1938 52.7909L 3.41641 30.7872ZM 60.2858 32.1039C 61.2379 30.1478 61.2379 27.8522 60.2858 25.8959L 60.2841 25.8927L 49.5102 3.89613L 49.5094 3.89442C 48.3537 1.52162 45.9691 0.00135643 43.3395 0.000135728L 17.6989 0.000135728C 15.0661 -0.0164658 12.6696 1.4911 11.4999 3.86122L 11.498 3.86513L 0.722321 25.8651C -0.240814 27.8307 -0.240814 30.1422 0.722565 32.1078L 11.4962 54.1039C 12.6523 56.4782 15.037 57.9984 17.6669 57.9999L 43.3405 57.9999C 45.9701 57.9984 48.3537 56.4784 49.5094 54.1056L 49.5102 54.1039L 60.2841 32.1073L 60.2858 32.1039ZM 30.5724 45.1852C 28.1483 44.5734 25.8908 45.1058 25.5299 46.3744C 25.1691 47.6432 26.8415 49.1676 29.2655 49.7797C 31.6896 50.3915 33.9472 49.859 34.308 48.5905C 34.6689 47.3217 32.9962 45.7973 30.5724 45.1852ZM 47.0883 34.2575C 45.7775 34.214 44.715 32.14 44.715 29.6249C 44.715 27.11 45.7775 25.1066 47.0883 25.15C 48.3988 25.1935 49.4613 27.2677 49.4613 29.7826C 49.4613 32.2975 48.3988 34.3012 47.0883 34.2575ZM 33.9367 10.7003C 36.3507 10.0492 38.0666 8.47963 37.769 7.19447C 37.4716 5.90932 35.2736 5.39491 32.8595 6.04579C 30.4457 6.69691 28.7299 8.26649 29.0273 9.55165C 29.3246 10.837 31.5226 11.3512 33.9367 10.7003ZM 27.7304 13.9291C 28.028 15.2142 26.3122 16.7838 23.8981 17.435C 21.484 18.0858 19.286 17.5717 18.9887 16.2863C 18.6913 15.0011 20.4071 13.4315 22.821 12.7804C 25.235 12.1295 27.433 12.6439 27.7304 13.9291ZM 13.8598 24.1698C 16.2738 23.5187 17.9897 21.9491 17.692 20.664C 17.3947 19.3788 15.1967 18.8644 12.7826 19.5153C 10.3688 20.1664 8.65298 21.736 8.95035 23.0211C 9.24771 24.3065 11.4457 24.8207 13.8598 24.1698ZM 14.4225 39.7155C 14.7834 38.4469 17.0409 37.9144 19.465 38.5263C 21.8888 39.1383 23.5614 40.6627 23.2006 41.9315C 22.8398 43.2001 20.5822 43.7326 18.1581 43.1207C 15.734 42.5087 14.0617 40.9843 14.4225 39.7155Z"/>
</defs>
</svg>
