<svg width="42" height="41" viewBox="0 0 42 41" version="1.1" xmlns="http://www.w3.org/2000/svg" xmlns:xlink="http://www.w3.org/1999/xlink">
<title>Icon_03.7</title>
<desc>Created using Figma</desc>
<g id="Canvas" transform="translate(-2995 -2185)">
<g id="Icon_03.7">
<g id="Shape (Stroke)">
<use xlink:href="#path0_fill" transform="translate(2995 2185)" fill="#67FAD6"/>
</g>
<g id="Shape (Stroke)">
<use xlink:href="#path1_fill" transform="translate(3008.33 2186.92)" fill="#67FAD6"/>
</g>
</g>
</g>
<defs>
<path id="path0_fill" fill-rule="evenodd" d="M 27.393 3.56345C 20.0923 0.310418 11.5214 2.24689 6.32841 8.32272C 1.13539 14.3986 0.55724 23.1664 4.9075 29.8715C 9.25775 36.5766 17.5001 39.6217 25.1648 37.3555C 32.8295 35.0893 38.0907 28.0516 38.0952 20.0589L 38.0952 18.2881C 38.0952 17.7358 38.543 17.2881 39.0952 17.2881C 39.6475 17.2881 40.0952 17.7358 40.0952 18.2881L 40.0952 20.0595C 40.0902 28.9379 34.246 36.7561 25.7319 39.2735C 17.2178 41.7908 8.06203 38.4082 3.22969 30.9601C -1.60266 23.5119 -0.960439 13.7724 4.80807 7.02328C 10.5766 0.274131 20.0972 -1.87693 28.207 1.73659C 28.7115 1.96137 28.9382 2.55255 28.7135 3.05702C 28.4887 3.56149 27.8975 3.78823 27.393 3.56345Z"/>
<path id="path1_fill" fill-rule="evenodd" d="M 28.3737 0.292893C 28.7642 0.683417 28.7642 1.31658 28.3737 1.70711L 7.42138 22.6594C 7.23384 22.847 6.97949 22.9523 6.71427 22.9523C 6.44905 22.9523 6.1947 22.847 6.00716 22.6594L 0.292893 16.9452C -0.0976311 16.5546 -0.0976311 15.9215 0.292893 15.5309C 0.683418 15.1404 1.31658 15.1404 1.70711 15.5309L 6.71427 20.5381L 26.9595 0.292893C 27.35 -0.0976311 27.9832 -0.0976311 28.3737 0.292893Z"/>
</defs>
</svg>
