<svg width="38" height="40" viewBox="0 0 38 40" version="1.1" xmlns="http://www.w3.org/2000/svg" xmlns:xlink="http://www.w3.org/1999/xlink">
<title>Icon 10</title>
<desc>Created using Figma</desc>
<g id="Canvas" transform="translate(-1544 -2321)">
<g id="Icon 10">
<g id="Shape (Stroke)">
<use xlink:href="#path0_fill" transform="translate(1544 2321)" fill="#6EBD6B"/>
</g>
<g id="Shape (Stroke)">
<use xlink:href="#path1_fill" transform="translate(1544.58 2329.68)" fill="#6EBD6B"/>
</g>
<g id="Shape (Stroke)">
<use xlink:href="#path2_fill" transform="translate(1562 2338.22)" fill="#6EBD6B"/>
</g>
</g>
</g>
<defs>
<path id="path0_fill" fill-rule="evenodd" d="M 17.837 2.26728C 17.8367 2.26743 17.8364 2.26758 17.8361 2.26774L 3.43829 9.32646L 3.43609 9.32753C 2.54952 9.7595 2.00081 10.6385 2.00009 11.5878L 2.00009 28.3972C 1.99334 29.3479 2.53677 30.2321 3.42182 30.6699C 3.42222 30.6701 3.42263 30.6703 3.42303 30.6705L 17.8203 37.7289C 18.5565 38.0902 19.4253 38.0903 20.1615 37.7291L 34.564 30.6681C 35.4507 30.236 35.9995 29.3567 36 28.4072L 36 11.5884C 35.9995 10.6389 35.4507 9.75958 34.564 9.32753L 20.164 2.26774C 20.1637 2.26758 20.1634 2.26743 20.1631 2.26728C 19.4309 1.91091 18.5691 1.91091 17.837 2.26728ZM 16.96 0.469797C 18.2456 -0.156599 19.7544 -0.156599 21.0401 0.469797L 21.0422 0.470867L 35.44 7.52959C 35.4405 7.52982 35.4409 7.53004 35.4414 7.53026C 37.0006 8.29061 37.9991 9.85827 38 11.5873L 38 28.4078C 37.9991 30.1369 37.0005 31.7051 35.4412 32.4654C 35.4408 32.4656 35.4404 32.4658 35.44 32.466L 21.0425 39.5246C 21.0424 39.5246 21.0426 39.5245 21.0425 39.5246C 19.7508 40.1583 18.2316 40.1584 16.9398 39.5247C 16.9397 39.5247 16.9399 39.5248 16.9398 39.5247L 2.53988 32.4649L 2.53714 32.4636C 0.979613 31.6941 -0.0107486 30.118 8.80384e-05 28.3868L 8.80384e-05 11.5878C 0.00102377 9.85872 0.999569 8.29045 2.55894 7.53014C 2.55932 7.52996 2.55969 7.52978 2.56007 7.52959L 16.9578 0.47087L 16.96 0.469797Z"/>
<path id="path1_fill" fill-rule="evenodd" d="M 0.102329 0.560018C 0.345448 0.0641236 0.944537 -0.140791 1.44043 0.102329L 18.4242 8.42886L 35.4079 0.102329C 35.9038 -0.140791 36.5029 0.0641236 36.746 0.560018C 36.9892 1.05591 36.7842 1.655 36.2883 1.89812L 18.8644 10.4405C 18.5867 10.5766 18.2617 10.5766 17.984 10.4405L 0.560018 1.89812C 0.0641236 1.655 -0.140791 1.05591 0.102329 0.560018Z"/>
<path id="path2_fill" fill-rule="evenodd" d="M 1 0C 1.55228 0 2 0.447715 2 1L 2 21.7558C 2 22.3081 1.55228 22.7558 1 22.7558C 0.447715 22.7558 0 22.3081 0 21.7558L 0 1C 0 0.447715 0.447715 0 1 0Z"/>
</defs>
</svg>
