<svg width="94" height="117" viewBox="0 0 94 117" version="1.1" xmlns="http://www.w3.org/2000/svg" xmlns:xlink="http://www.w3.org/1999/xlink">
<title>Icon_19</title>
<desc>Created using Figma</desc>
<g id="Canvas" transform="translate(-2385 -2860)">
<g id="Icon_19">
<use xlink:href="#path0_fill" transform="translate(2385.5 2860.5)" fill="#8B70D4"/>
</g>
</g>
<defs>
<path id="path0_fill" fill-rule="evenodd" d="M 3 46.5C 3 22.4756 22.4756 3 46.5 3C 70.5244 3 90 22.4756 90 46.5L 90 55L 76.5 55C 70.1487 55 65 60.1487 65 66.5L 65 81.5C 65 87.8513 70.1487 93 76.5 93L 81.5 93C 87.8513 93 93 87.8513 93 81.5L 93 76.5L 93 56.5L 93 46.5C 93 20.8188 72.1812 0 46.5 0C 20.8188 0 0 20.8188 0 46.5L 0 56.5L 0 76.5L 0 81.5C 0 82.0266 0.0354004 82.5447 0.104004 83.0525L 0.000976562 83.0564C 0.178223 87.7546 2.02295 94.719 6.98364 100.536C 11.9927 106.409 20.0857 111 32.5 111L 32.5 109.5C 32.5 113.366 35.634 116.5 39.5 116.5C 43.366 116.5 46.5 113.366 46.5 109.5C 46.5 105.634 43.366 102.5 39.5 102.5C 35.634 102.5 32.5 105.634 32.5 109.5L 32.5 108C 20.9143 108 13.6738 103.757 9.26611 98.5891C 7.14404 96.1008 5.65698 93.3718 4.66479 90.7493C 6.57568 92.1636 8.94019 93 11.5 93L 16.5 93C 22.8513 93 28 87.8513 28 81.5L 28 66.5C 28 60.1487 22.8513 55 16.5 55L 3 55L 3 46.5ZM 3 58L 3 76.5L 3 81.5C 3 86.1943 6.80566 90 11.5 90L 16.5 90C 21.1943 90 25 86.1943 25 81.5L 25 66.5C 25 61.8057 21.1943 58 16.5 58L 3 58ZM 90 58L 76.5 58C 71.8057 58 68 61.8057 68 66.5L 68 81.5C 68 86.1943 71.8057 90 76.5 90L 81.5 90C 86.1943 90 90 86.1943 90 81.5L 90 76.5L 90 58ZM 43.5 109.5C 43.5 111.709 41.7092 113.5 39.5 113.5C 37.2908 113.5 35.5 111.709 35.5 109.5C 35.5 107.291 37.2908 105.5 39.5 105.5C 41.7092 105.5 43.5 107.291 43.5 109.5Z"/>
</defs>
</svg>
