<svg width="97" height="103" viewBox="0 0 97 103" version="1.1" xmlns="http://www.w3.org/2000/svg" xmlns:xlink="http://www.w3.org/1999/xlink">
<title>Icon_27</title>
<desc>Created using Figma</desc>
<g id="Canvas" transform="translate(-3811 -3372)">
<g id="Icon_27">
<g id="Union">
<use xlink:href="#path0_fill" transform="translate(3811.5 3372.66)" fill="#FAB04B"/>
</g>
</g>
</g>
<defs>
<path id="path0_fill" fill-rule="evenodd" d="M 0.829346 23.25L 47.3293 0L 48.0002 1.34155L 48.6711 0L 95.1711 23.25C 95.6792 23.5042 96.0002 24.0234 96.0002 24.5916C 96.0002 25.1599 95.6792 25.6792 95.1711 25.9333L 48.6711 49.1833C 48.2488 49.3945 47.7517 49.3945 47.3293 49.1833L 0.829346 25.9333C 0.321289 25.6792 0.000244141 25.1599 0.000244141 24.5916C 0.000244141 24.0234 0.321289 23.5042 0.829346 23.25ZM 48.0002 3.0188L 4.85425 24.5916L 48.0002 46.1646L 91.1462 24.5916L 48.0002 3.0188ZM 0.158691 50.4209C 0.529053 49.6799 1.43018 49.3794 2.17114 49.75L 48.0002 72.6646L 93.8296 49.75C 94.5706 49.3794 95.4714 49.6799 95.842 50.4209C 96.2124 51.1619 95.9121 52.0627 95.1711 52.4333L 48.6711 75.6833C 48.2488 75.8945 47.7517 75.8945 47.3296 75.6833L 0.82959 52.4333C 0.088623 52.0627 -0.211914 51.1619 0.158691 50.4209ZM 2.17114 36.5C 1.43018 36.1294 0.529053 36.4299 0.158691 37.1709C -0.211914 37.9119 0.088623 38.8127 0.82959 39.1833L 47.3296 62.4333C 47.7517 62.6445 48.2488 62.6445 48.6711 62.4333L 95.1711 39.1833C 95.9121 38.8127 96.2124 37.9119 95.842 37.1709C 95.4714 36.4299 94.5706 36.1294 93.8296 36.5L 48.0002 59.4146L 2.17114 36.5ZM 0.158691 76.4209C 0.529053 75.6799 1.43018 75.3794 2.17114 75.75L 48.0002 98.6646L 93.8296 75.75C 94.5706 75.3794 95.4714 75.6799 95.842 76.4209C 96.2124 77.1619 95.9121 78.0627 95.1711 78.4333L 48.6711 101.683C 48.2488 101.895 47.7517 101.895 47.3296 101.683L 0.82959 78.4333C 0.088623 78.0627 -0.211914 77.1619 0.158691 76.4209ZM 2.17114 62.5C 1.43018 62.1294 0.529053 62.4299 0.158691 63.1709C -0.211914 63.9119 0.088623 64.8127 0.82959 65.1833L 47.3296 88.4333C 47.7517 88.6445 48.2488 88.6445 48.6711 88.4333L 95.1711 65.1833C 95.9121 64.8127 96.2124 63.9119 95.842 63.1709C 95.4714 62.4299 94.5706 62.1294 93.8296 62.5L 48.0002 85.4146L 2.17114 62.5Z"/>
</defs>
</svg>
