<svg width="97" height="97" viewBox="0 0 97 97" version="1.1" xmlns="http://www.w3.org/2000/svg" xmlns:xlink="http://www.w3.org/1999/xlink">
<title>Icon_26</title>
<desc>Created using Figma</desc>
<g id="Canvas" transform="translate(-3811 -2873)">
<g id="Icon_26">
<use xlink:href="#path0_fill" transform="translate(3811.5 2873.5)" fill="#8B70D4"/>
</g>
</g>
<defs>
<path id="path0_fill" fill-rule="evenodd" d="M 35.3181 0C 36.1465 0 36.8181 0.671631 36.8181 1.5L 36.8181 12.6819L 59.1819 12.6819L 59.1819 1.5C 59.1819 0.671631 59.8535 0 60.6819 0C 61.5103 0 62.1819 0.671631 62.1819 1.5L 62.1819 12.6819L 76.8184 12.6819C 80.4082 12.6819 83.3184 15.592 83.3184 19.1819L 83.3184 33.8181L 94.5 33.8181C 95.3284 33.8181 96 34.4897 96 35.3181C 96 36.1465 95.3284 36.8181 94.5 36.8181L 83.3184 36.8181L 83.3184 54.9546L 94.5 54.9546C 95.3284 54.9546 96 55.6262 96 56.4546C 96 57.283 95.3284 57.9546 94.5 57.9546L 83.3184 57.9546L 83.3184 76.8184C 83.3184 80.4082 80.4082 83.3184 76.8184 83.3184L 62.1819 83.3184L 62.1819 94.5C 62.1819 95.3284 61.5103 96 60.6819 96C 59.8535 96 59.1819 95.3284 59.1819 94.5L 59.1819 83.3184L 36.8181 83.3184L 36.8181 94.5C 36.8181 95.3284 36.1465 96 35.3181 96C 34.4897 96 33.8181 95.3284 33.8181 94.5L 33.8181 83.3184L 19.1819 83.3184C 15.592 83.3184 12.6819 80.4082 12.6819 76.8184L 12.6819 57.9546L 1.5 57.9546C 0.671631 57.9546 0 57.283 0 56.4546C 0 55.6262 0.671631 54.9546 1.5 54.9546L 12.6819 54.9546L 12.6819 36.8181L 1.5 36.8181C 0.671631 36.8181 0 36.1465 0 35.3181C 0 34.4897 0.671631 33.8181 1.5 33.8181L 12.6819 33.8181L 12.6819 19.1819C 12.6819 15.592 15.592 12.6819 19.1819 12.6819L 33.8181 12.6819L 33.8181 1.5C 33.8181 0.671631 34.4897 0 35.3181 0ZM 15.6819 56.4546L 15.6819 76.8184C 15.6819 78.7512 17.2488 80.3184 19.1819 80.3184L 35.2908 80.3184L 35.3181 80.3181L 35.3455 80.3184L 60.6545 80.3184L 60.6819 80.3181L 60.7092 80.3184L 76.8184 80.3184C 78.7512 80.3184 80.3184 78.7512 80.3184 76.8184L 80.3184 56.4819L 80.3181 56.4546L 80.3184 56.4272L 80.3184 35.3455L 80.3181 35.3181L 80.3184 35.2908L 80.3184 19.1819C 80.3184 17.2488 78.7512 15.6819 76.8184 15.6819L 60.6819 15.6819L 35.3181 15.6819L 19.1819 15.6819C 17.2488 15.6819 15.6819 17.2488 15.6819 19.1819L 15.6819 35.3181L 15.6819 56.4546ZM 40.3181 33.8181C 36.7283 33.8181 33.8181 36.7283 33.8181 40.3181L 33.8181 55.6816C 33.8181 59.2715 36.7283 62.1816 40.3181 62.1816L 55.6816 62.1816C 59.2715 62.1816 62.1816 59.2715 62.1816 55.6816L 62.1816 40.3181C 62.1816 36.7283 59.2715 33.8181 55.6816 33.8181L 40.3181 33.8181ZM 36.8181 40.3181C 36.8181 38.385 38.385 36.8181 40.3181 36.8181L 55.6816 36.8181C 57.6147 36.8181 59.1816 38.385 59.1816 40.3181L 59.1816 55.6816C 59.1816 57.6147 57.6147 59.1816 55.6816 59.1816L 40.3181 59.1816C 38.385 59.1816 36.8181 57.6147 36.8181 55.6816L 36.8181 40.3181Z"/>
</defs>
</svg>
