<svg width="42" height="42" viewBox="0 0 42 42" version="1.1" xmlns="http://www.w3.org/2000/svg" xmlns:xlink="http://www.w3.org/1999/xlink">
<title>Icon_03.10</title>
<desc>Created using Figma</desc>
<g id="Canvas" transform="translate(-2994 -2460)">
<g id="Icon_03.10">
<g id="Vector (Stroke)">
<use xlink:href="#path0_fill" transform="translate(2994 2460)" fill="#8B70D4"/>
</g>
<g id="Vector (Stroke)">
<use xlink:href="#path1_fill" transform="translate(3013.8 2465.4)" fill="#8B70D4"/>
</g>
<g id="Vector (Stroke)">
<use xlink:href="#path2_fill" transform="translate(3013.8 2488)" fill="#8B70D4"/>
</g>
<g id="Vector (Stroke)">
<use xlink:href="#path3_fill" transform="translate(3008.8 2472.1)" fill="#8B70D4"/>
</g>
</g>
</g>
<defs>
<path id="path0_fill" fill-rule="evenodd" d="M 21 2C 10.5066 2 2 10.5066 2 21C 2 31.4934 10.5066 40 21 40C 31.4934 40 40 31.4934 40 21C 40 10.5066 31.4934 2 21 2ZM 0 21C 0 9.40202 9.40202 0 21 0C 32.598 0 42 9.40202 42 21C 42 32.598 32.598 42 21 42C 9.40202 42 0 32.598 0 21Z"/>
<path id="path1_fill" fill-rule="evenodd" d="M 1 0C 1.55228 0 2 0.447715 2 1L 2 7.4C 2 7.95228 1.55228 8.4 1 8.4C 0.447715 8.4 0 7.95228 0 7.4L 0 1C 0 0.447715 0.447715 0 1 0Z"/>
<path id="path2_fill" fill-rule="evenodd" d="M 1 0C 1.55228 0 2 0.447715 2 1L 2 7.6C 2 8.15229 1.55228 8.6 1 8.6C 0.447715 8.6 0 8.15229 0 7.6L 0 1C 0 0.447715 0.447715 0 1 0Z"/>
<path id="path3_fill" fill-rule="evenodd" d="M 8.13039 2.02721C 6.45192 1.95205 4.64371 2.0194 3.5591 2.43655C 2.65802 2.78312 2.33653 3.42853 2.39636 4.11658C 2.46139 4.86439 3.00697 5.85031 4.283 6.62662C 6.66628 7.81828 6.7177 7.8473 8.90586 9.23973C 10.6313 10.1729 11.664 11.6859 11.7965 13.2434C 11.9336 14.8538 11.0819 16.3739 9.3591 17.0366C 7.84371 17.6194 5.65193 17.6521 3.98039 17.5772C 3.11997 17.5384 2.33213 17.467 1.77656 17.4067C 1.49571 17.3762 1.26392 17.3476 1.10789 17.3272C 1.02845 17.3169 0.964649 17.3081 0.923008 17.3023L 0.873116 17.2953L 0.859456 17.2933L 0.854301 17.2925C 0.854139 17.2925 0.853568 17.2924 1.00012 16.3032L 0.854301 17.2925C 0.307979 17.2116 -0.0700232 16.703 0.0109133 16.1567C 0.0918408 15.6104 0.600231 15.2332 1.14648 15.314L 1.14863 15.3143L 1.15826 15.3157L 1.19978 15.3216C 1.23851 15.327 1.29327 15.3345 1.36657 15.344C 1.516 15.3635 1.7264 15.3896 1.99243 15.4184C 2.53061 15.4769 3.25527 15.543 4.06985 15.5792C 5.74831 15.6544 7.55652 15.587 8.64114 15.1699C 9.5183 14.8325 9.86667 14.1527 9.80372 13.413C 9.73717 12.6311 9.18292 11.654 7.92953 10.9856L 7.86324 10.9469C 6.79401 10.2665 6.25887 9.92536 5.70761 9.61267C 5.14 9.2907 4.5553 8.99884 3.3529 8.39764L 3.28562 8.3607C 1.58426 7.33989 0.538315 5.83588 0.403877 4.28984C 0.263707 2.67788 1.14221 1.2233 2.84114 0.569864C 4.35652 -0.0129763 6.54831 -0.0456348 8.21985 0.02921C 9.08027 0.0679999 9.86811 0.139395 10.4237 0.199676C 10.7045 0.230195 10.9363 0.25884 11.0923 0.279186C 11.1718 0.289553 11.2356 0.298273 11.2772 0.30409L 11.3271 0.31116L 11.3408 0.31314L 11.3459 0.313897C 11.3461 0.313921 11.3467 0.314005 11.2001 1.30321L 11.3459 0.313897C 11.8923 0.394833 12.2703 0.903435 12.1893 1.44976C 12.1084 1.99602 11.6 2.37326 11.0537 2.29244C 11.0537 2.29243 11.0538 2.29245 11.0537 2.29244L 11.0516 2.29212L 11.042 2.29073L 11.0004 2.28485C 10.9617 2.27943 10.907 2.27194 10.8337 2.26239C 10.6842 2.24289 10.4738 2.21685 10.2078 2.18799C 9.66963 2.12952 8.94496 2.06342 8.13039 2.02721Z"/>
</defs>
</svg>
