<svg width="42" height="42" viewBox="0 0 42 42" version="1.1" xmlns="http://www.w3.org/2000/svg" xmlns:xlink="http://www.w3.org/1999/xlink">
<title>Icon_03.12</title>
<desc>Created using Figma</desc>
<g id="Canvas" transform="translate(-4422 -2184)">
<g id="Icon_03.12">
<g id="Vector (Stroke)">
<use xlink:href="#path0_fill" transform="translate(4422 2184)" fill="#D4707C"/>
</g>
<g id="Subtract (Stroke)">
<use xlink:href="#path1_fill" transform="translate(4427 2187.56)" fill="#D4707C"/>
</g>
</g>
</g>
<defs>
<path id="path0_fill" fill-rule="evenodd" d="M 0.292893 0.292893C 0.683417 -0.0976311 1.31658 -0.0976311 1.70711 0.292893L 41.7071 40.2929C 42.0976 40.6834 42.0976 41.3166 41.7071 41.7071C 41.3166 42.0976 40.6834 42.0976 40.2929 41.7071L 0.292893 1.70711C -0.0976311 1.31658 -0.0976311 0.683417 0.292893 0.292893Z"/>
<path id="path1_fill" fill-rule="evenodd" d="M 27.3137 27.3137C 27.1756 27.4518 27.035 27.5874 26.892 27.7204C 26.5457 28.0423 26.1851 28.3491 25.8113 28.6397C 23.1019 30.7458 19.6974 32 16 32C 7.16333 32 0 24.8365 0 16C 0 12.3025 1.2541 8.89802 3.36025 6.18868C 3.65083 5.81487 3.95763 5.4543 4.2796 5.10802C 4.41244 4.96514 4.54787 4.8247 4.6858 4.68676C 4.68596 4.6866 4.68564 4.68692 4.6858 4.68676L 27.3137 27.3137ZM 4.78706 7.61548C 3.03558 9.95327 2 12.8544 2 16C 2 23.732 8.26791 30 16 30C 19.1455 30 22.0466 28.9644 24.3845 27.2129L 4.78706 7.61548ZM 5.73022 3.73022C 5.8807 3.60414 6.03353 3.48078 6.18863 3.3602C 6.56584 3.06698 6.95652 2.79028 7.3596 2.53117C 9.85161 0.929233 12.8173 0 16 0C 24.8367 0 32 7.16345 32 16C 32 19.1826 31.0708 22.1483 29.4688 24.6404C 29.2097 25.0435 28.933 25.4341 28.6398 25.8114C 28.5192 25.9665 28.3959 26.1193 28.2698 26.2698L 5.73022 3.73022ZM 8.79034 3.96191L 28.0381 23.2096C 29.3409 21.1108 30.0268 18.7365 30 16C 30 8.26801 23.7321 2 16 2C 13.2634 1.97317 10.8891 2.65911 8.79034 3.96191Z"/>
</defs>
</svg>
