<svg width="89" height="88" viewBox="0 0 89 88" version="1.1" xmlns="http://www.w3.org/2000/svg" xmlns:xlink="http://www.w3.org/1999/xlink">
<title>Icon_25</title>
<desc>Created using Figma</desc>
<g id="Canvas" transform="translate(-2994 -3354)">
<g id="Icon_25">
<g id="Union">
<use xlink:href="#path0_fill" transform="translate(2994.97 3354.12)" fill="#8B70D4"/>
</g>
</g>
</g>
<defs>
<path id="path0_fill" fill-rule="evenodd" d="M 75.8903 18.4235C 72.8957 23.0641 66.7062 24.3986 62.0656 21.4039C 57.4252 18.4095 56.0907 12.2201 59.0851 7.57947C 62.0795 2.93885 68.2689 1.60462 72.9096 4.599C 77.5502 7.59339 78.8847 13.7828 75.8903 18.4235ZM 77.9142 20.7667C 73.8649 26.215 66.2257 27.6586 60.4391 23.9247C 54.6525 20.1906 52.8202 12.6351 56.1161 6.70081C 41.7213 3.63782 26.2934 9.5221 17.8415 22.62C 16.4604 24.7562 15.3564 26.9271 14.4784 29.1906C 16.4044 29.4093 18.3112 30.0636 20.0502 31.1859C 26.0829 35.0787 27.8175 43.1249 23.925 49.1576C 21.6859 52.6276 18.0727 54.6757 14.2587 55.0487C 16.8891 62.2836 21.7194 68.5907 28.7206 73.0795C 35.6955 77.6093 43.4328 79.4117 51.1085 78.8273C 49.8769 75.1986 50.2541 71.0624 52.4933 67.5924C 56.3861 61.5597 64.4325 59.8248 70.4652 63.7177C 72.2045 64.84 73.5863 66.3073 74.5793 67.9723C 76.278 66.2416 77.8026 64.3395 79.1798 62.2003C 87.6317 49.1024 86.6364 32.621 77.9142 20.7667ZM 75.8703 70.9113C 78.0214 68.837 80.0146 66.4349 81.7006 63.827C 91.1046 49.2535 89.6991 30.8163 79.5209 17.9269C 81.8544 12.244 79.8842 5.52918 74.5363 2.07825C 69.1884 -1.37268 62.2577 -0.400998 58.0414 4.06678C 42.1029 0.103884 24.7248 6.42005 15.3207 20.9935C 13.6391 23.6051 12.2692 26.4142 11.2677 29.2252C 7.63125 29.7164 4.22378 31.7357 2.07827 35.0607C -1.81455 41.0934 -0.0796848 49.1395 5.95303 53.0324C 7.55264 54.0646 9.29385 54.7011 11.0617 54.9667C 13.8092 63.0931 19.3446 70.5695 27.0939 75.6002C 34.871 80.588 43.9635 82.5512 52.5004 81.7062C 53.4709 83.2074 54.7685 84.5319 56.3681 85.5641C 62.4008 89.4569 70.4472 87.7223 74.34 81.6893C 76.4855 78.3641 76.9213 74.4271 75.8703 70.9113ZM 7.57949 50.5116C 12.2201 53.5062 18.4096 52.1718 21.4042 47.5311C 24.3986 42.8905 23.0641 36.7011 18.4235 33.7067C 13.7829 30.7123 7.59341 32.0465 4.59903 36.6871C 1.60464 41.3278 2.93911 47.5172 7.57949 50.5116ZM 71.8192 80.0629C 68.8246 84.7035 62.6352 86.038 57.9945 83.0433C 53.3542 80.049 52.0197 73.8595 55.0141 69.2189C 58.0084 64.5782 64.1979 63.244 68.8385 66.2384C 73.4792 69.2328 74.8136 75.4222 71.8192 80.0629Z"/>
</defs>
</svg>
