<svg width="50" height="50" viewBox="0 0 50 50" version="1.1" xmlns="http://www.w3.org/2000/svg" xmlns:xlink="http://www.w3.org/1999/xlink">
<title>Icon 08</title>
<desc>Created using Figma</desc>
<g id="Canvas" transform="translate(-1544 -1133)">
<g id="Icon 08">
<g id="Union">
<use xlink:href="#path0_fill" transform="translate(1544 1133)" fill="#67FAD6"/>
</g>
</g>
</g>
<defs>
<path id="path0_fill" fill-rule="evenodd" d="M 2 6C 2 8.20911 3.79089 10 6 10C 8.20911 10 10 8.20911 10 6C 10 3.79089 8.20911 2 6 2C 3.79089 2 2 3.79089 2 6ZM 6 0C 2.68628 0 0 2.68628 0 6C 0 9.31372 2.68628 12 6 12C 8.97302 12 11.4409 9.83777 11.917 7L 19.083 7C 19.5045 9.51257 21.4874 11.4955 24 11.917L 24 19.083C 21.1622 19.5591 19 22.027 19 25C 19 27.973 21.1622 30.4409 24 30.917L 24 38.083C 21.1622 38.5591 19 41.027 19 44C 19 47.3137 21.6863 50 25 50C 28.3137 50 31 47.3137 31 44C 31 41.027 28.8378 38.5591 26 38.083L 26 30.917C 28.5126 30.4955 30.4955 28.5126 30.917 26L 38.083 26C 38.5591 28.8378 41.027 31 44 31C 47.3137 31 50 28.3137 50 25C 50 21.6863 47.3137 19 44 19C 41.027 19 38.5591 21.1622 38.083 24L 30.917 24C 30.4955 21.4874 28.5126 19.5045 26 19.083L 26 11.917C 28.8378 11.4409 31 8.97302 31 6C 31 2.68628 28.3137 0 25 0C 22.027 0 19.5591 2.16223 19.083 5L 11.917 5C 11.4409 2.16223 8.97302 0 6 0ZM 21 6C 21 8.20911 22.7909 10 25 10C 27.2091 10 29 8.20911 29 6C 29 3.79089 27.2091 2 25 2C 22.7909 2 21 3.79089 21 6ZM 25 29C 22.7909 29 21 27.2091 21 25C 21 22.7909 22.7909 21 25 21C 27.2091 21 29 22.7909 29 25C 29 27.2091 27.2091 29 25 29ZM 25 48C 22.7909 48 21 46.2091 21 44C 21 41.7909 22.7909 40 25 40C 27.2091 40 29 41.7909 29 44C 29 46.2091 27.2091 48 25 48ZM 44 29C 41.7909 29 40 27.2091 40 25C 40 22.7909 41.7909 21 44 21C 46.2091 21 48 22.7909 48 25C 48 27.2091 46.2091 29 44 29Z"/>
</defs>
</svg>
