<svg width="42" height="42" viewBox="0 0 42 42" version="1.1" xmlns="http://www.w3.org/2000/svg" xmlns:xlink="http://www.w3.org/1999/xlink">
<title>Icon_03.6</title>
<desc>Created using Figma</desc>
<g id="Canvas" transform="translate(-2995 -2090)">
<g id="Icon_03.6">
<g id="Oval (Stroke)">
<use xlink:href="#path0_fill" transform="translate(3009.55 2104.55)" fill="#D4707C"/>
</g>
<g id="Shape (Stroke)">
<use xlink:href="#path1_fill" transform="translate(2995 2090)" fill="#D4707C"/>
</g>
</g>
</g>
<defs>
<path id="path0_fill" fill-rule="evenodd" d="M 0 6.45455C 0 2.8898 2.8898 0 6.45455 0C 10.0193 0 12.9091 2.8898 12.9091 6.45455C 12.9091 10.0193 10.0193 12.9091 6.45455 12.9091C 2.8898 12.9091 0 10.0193 0 6.45455ZM 6.45455 2C 3.99437 2 2 3.99437 2 6.45455C 2 8.91472 3.99437 10.9091 6.45455 10.9091C 8.91472 10.9091 10.9091 8.91472 10.9091 6.45455C 10.9091 3.99437 8.91472 2 6.45455 2Z"/>
<path id="path1_fill" fill-rule="evenodd" d="M 21 2C 19.544 2 18.3636 3.18034 18.3636 4.63636L 18.3636 4.94545L 18.3636 4.94944C 18.3573 6.54373 17.4048 7.982 15.9394 8.61005C 15.8314 8.65635 15.7161 8.68319 15.5991 8.68947C 14.1507 9.23562 12.5076 8.89742 11.3916 7.80577L 11.3838 7.79806L 11.2747 7.68892C 10.7802 7.19388 10.1088 6.91532 9.40909 6.91532C 8.70938 6.91532 8.03836 7.19348 7.54386 7.68853L 7.54308 7.68932C 7.04803 8.18382 6.76987 8.85483 6.76987 9.55455C 6.76987 10.2543 7.04803 10.9253 7.54308 11.4198L 7.66036 11.5371C 8.79642 12.6985 9.11643 14.4307 8.47297 15.9203C 7.8984 17.4454 6.45486 18.4707 4.82338 18.5088L 4.8 18.5091L 4.63636 18.5091C 3.18034 18.5091 2 19.6894 2 21.1455C 2 22.6015 3.18034 23.7818 4.63636 23.7818L 4.94944 23.7818C 6.54193 23.7882 7.97877 24.7385 8.60793 26.2011C 9.26531 27.696 8.94796 29.4407 7.80577 30.6084L 7.79806 30.6162L 7.68893 30.7253C 7.19388 31.2198 6.91532 31.8912 6.91532 32.5909C 6.91532 33.2906 7.19348 33.9616 7.68853 34.4561L 7.68932 34.4569C 8.18382 34.952 8.85483 35.2301 9.55455 35.2301C 10.2543 35.2301 10.9253 34.952 11.4198 34.4569L 11.5371 34.3396C 12.6985 33.2036 14.4308 32.8836 15.9203 33.5271C 17.4455 34.1016 18.4707 35.5452 18.5088 37.1766L 18.5091 37.2L 18.5091 37.3636C 18.5091 38.8197 19.6894 40 21.1455 40C 22.6015 40 23.7818 38.8197 23.7818 37.3636L 23.7818 37.0545L 23.7818 37.0506C 23.7882 35.4581 24.7385 34.0213 26.201 33.3921C 27.6959 32.7347 29.4407 33.052 30.6084 34.1942L 30.6162 34.2019L 30.7253 34.3111C 31.2198 34.8061 31.8912 35.0847 32.5909 35.0847C 33.2906 35.0847 33.9616 34.8065 34.4561 34.3115L 34.4569 34.3107C 34.952 33.8162 35.2301 33.1452 35.2301 32.4455C 35.2301 31.7457 34.952 31.0747 34.4569 30.5802L 34.3396 30.4629C 33.1974 29.2953 32.8801 27.5505 33.5376 26.0556C 34.1668 24.593 35.6036 23.6427 37.196 23.6364L 37.2 23.6364L 37.3636 23.6364C 38.8197 23.6364 40 22.456 40 21C 40 19.544 38.8197 18.3636 37.3636 18.3636L 37.0545 18.3636L 37.0506 18.3636C 35.4563 18.3573 34.018 17.4048 33.3899 15.9394C 33.3437 15.8314 33.3168 15.7162 33.3105 15.5991C 32.7644 14.1507 33.1026 12.5077 34.1942 11.3916L 34.2019 11.3838L 34.3111 11.2747C 34.8061 10.7802 35.0847 10.1088 35.0847 9.40909C 35.0847 8.70938 34.8065 8.03836 34.3115 7.54386L 34.3107 7.54308C 33.8162 7.04803 33.1452 6.76987 32.4455 6.76987C 31.7457 6.76987 31.0747 7.04803 30.5802 7.54308L 30.4629 7.66036C 29.2953 8.80255 27.5506 9.11986 26.0557 8.46247C 24.5931 7.83331 23.6427 6.39648 23.6364 4.80399L 23.6364 4.8L 23.6364 4.63636C 23.6364 3.18034 22.456 2 21 2ZM 16.3636 4.63636C 16.3636 2.07577 18.4394 0 21 0C 23.5606 0 25.6364 2.07577 25.6364 4.63636L 25.6364 4.79774C 25.6402 5.59419 26.1163 6.31252 26.8485 6.62631L 26.8583 6.63054C 27.6048 6.95999 28.4764 6.80295 29.0608 6.23405L 29.1652 6.12965C 29.1654 6.12952 29.1651 6.12978 29.1652 6.12965C 30.0348 5.2593 31.2151 4.76987 32.4455 4.76987C 33.676 4.76987 34.856 5.25905 35.7257 6.12965C 36.5958 6.99921 37.0847 8.17893 37.0847 9.40909C 37.0847 10.6394 36.5956 11.8193 35.7253 12.6889C 35.7252 12.6891 35.7254 12.6888 35.7253 12.6889L 35.6204 12.7938C 35.0516 13.3782 34.8945 14.2498 35.224 14.9962C 35.2681 15.0962 35.2954 15.2026 35.3051 15.3111C 35.6497 15.9521 36.3197 16.36 37.0566 16.3636L 37.3636 16.3636C 39.9242 16.3636 42 18.4394 42 21C 42 23.5606 39.9242 25.6364 37.3636 25.6364L 37.2023 25.6364C 36.4058 25.6402 35.6875 26.1163 35.3737 26.8485L 35.3695 26.8583C 35.04 27.6048 35.197 28.4763 35.7659 29.0608L 35.8703 29.1652C 35.8705 29.1654 35.8702 29.1651 35.8703 29.1652C 36.7407 30.0348 37.2301 31.2151 37.2301 32.4455C 37.2301 33.6758 36.7411 34.8557 35.8707 35.7253C 35.0011 36.5956 33.8213 37.0847 32.5909 37.0847C 31.3606 37.0847 30.1807 36.5956 29.3111 35.7253C 29.3109 35.7252 29.3112 35.7254 29.3111 35.7253L 29.2061 35.6204C 28.6217 35.0516 27.7502 34.8945 27.0038 35.224L 26.994 35.2283C 26.2618 35.5421 25.7857 36.2603 25.7818 37.0568L 25.7818 37.3636C 25.7818 39.9242 23.706 42 21.1455 42C 18.5849 42 16.5091 39.9242 16.5091 37.3636L 16.5091 37.2129C 16.4857 36.3962 15.9677 35.6753 15.2003 35.3931C 15.1805 35.3858 15.161 35.3779 15.1417 35.3694C 14.3952 35.04 13.5237 35.197 12.9392 35.7659L 12.8348 35.8703C 12.8346 35.8705 12.8349 35.8702 12.8348 35.8703C 11.9652 36.7407 10.7849 37.2301 9.55455 37.2301C 8.32438 37.2301 7.14466 36.7413 6.2751 35.8711C 5.4045 35.0015 4.91532 33.8214 4.91532 32.5909C 4.91532 31.3606 5.40435 30.1807 6.27471 29.3111C 6.27484 29.3109 6.27458 29.3112 6.27471 29.3111L 6.3795 29.2063C 6.9484 28.6218 7.1055 27.7502 6.77605 27.0038L 6.77172 26.994C 6.45792 26.2618 5.73965 25.7857 4.94319 25.7818L 4.63636 25.7818C 2.07577 25.7818 0 23.706 0 21.1455C 0 18.5849 2.07577 16.5091 4.63636 16.5091L 4.78714 16.5091C 5.60382 16.4857 6.32466 15.9677 6.60692 15.2003C 6.61419 15.1805 6.62209 15.161 6.63059 15.1417C 6.96004 14.3952 6.80295 13.5236 6.23407 12.9392L 6.12965 12.8348C 6.12952 12.8346 6.12978 12.8349 6.12965 12.8348C 5.25929 11.9652 4.76987 10.7849 4.76987 9.55455C 4.76987 8.3242 5.2589 7.14431 6.12926 6.27471C 6.99885 5.40436 8.17874 4.91532 9.40909 4.91532C 10.6394 4.91532 11.8193 5.40436 12.6889 6.27471C 12.6891 6.27484 12.6888 6.27458 12.6889 6.27471L 12.7937 6.37952C 13.3782 6.9484 14.2498 7.10549 14.9962 6.77605C 15.0962 6.73191 15.2026 6.70455 15.3111 6.69487C 15.9521 6.35032 16.36 5.68031 16.3636 4.94339L 16.3636 4.63636Z"/>
</defs>
</svg>
