<svg width="49" height="50" viewBox="0 0 49 50" version="1.1" xmlns="http://www.w3.org/2000/svg" xmlns:xlink="http://www.w3.org/1999/xlink">
<title>Icon 07</title>
<desc>Created using Figma</desc>
<g id="Canvas" transform="translate(-1544 -1043)">
<g id="Icon 07">
<g id="Vector 7 (Stroke)">
<use xlink:href="#path0_fill" transform="translate(1544 1043)" fill="#FAB04B"/>
</g>
</g>
</g>
<defs>
<path id="path0_fill" fill-rule="evenodd" d="M 33.3416 10.6183L 28.8871 10.6183L 28.8871 21.1021L 24.7025 25.2688L 20.1129 21.1021L 20.1129 10.6183L 15.6584 10.6183L 24.7025 0L 33.3416 10.6183ZM 29.136 8.61828L 24.6673 3.12575L 19.989 8.61828L 22.1129 8.61828L 22.1129 20.2166L 24.6389 22.5098L 26.8871 20.2712L 26.8871 8.61828L 29.136 8.61828ZM 37.5262 20.1613C 24.1564 26.2125 21.1415 37.821 20.2619 48C 20.2037 48.6736 20.1548 49.3409 20.1129 50L 29.157 50C 29.1233 49.518 29.1148 48.8346 29.155 48C 29.2754 45.4987 29.8324 41.6388 31.4518 37.7688C 33.1542 33.7006 36.6456 30.7013 39.1499 29.0868C 39.8228 28.653 40.4244 28.3191 40.9008 28.0914L 42.6556 32.2581L 49 20.1613L 35.7714 16.129L 37.5262 20.1613ZM 39.3352 19.3062L 40.1466 21.1706L 38.3508 21.9834C 26.063 27.5448 23.1463 38.1071 22.2695 48L 27.1531 48C 27.274 45.2828 27.8698 41.1477 29.6068 36.9968C 32.0301 31.2058 37.5554 27.4736 40.0384 26.2869L 41.9302 25.3827L 42.8534 27.5749L 46.1075 21.3705L 39.3352 19.3062ZM 8.09917 28.0914C 8.53053 28.2601 9.16971 28.5591 9.90619 28.9787C 11.3207 29.7844 13.0942 31.0349 14.4435 32.6613C 15.3686 33.7764 16.109 34.9333 16.6719 35.9622C 17.3576 37.2152 17.7802 38.2782 17.9532 38.8441C 18.1113 38.1629 18.4191 37.0054 18.8253 35.7634C 19.2206 34.5546 19.7091 33.2657 20.2435 32.2581C 21.3269 30.2151 22.1377 28.8082 22.4077 28.3602C 21.4628 27.3298 19.114 24.9194 17.2782 23.5215C 15.4424 22.1237 12.8237 20.6989 11.7438 20.1613L 13.2287 16.129L 0 20.1613L 6.61433 32.2581L 8.09917 28.0914ZM 6.22832 27.3833L 2.93374 21.3579L 9.9606 19.216L 9.24746 21.1526L 10.8524 21.9517C 11.9 22.4728 14.3556 23.8026 16.0666 25.1127C 17.3213 26.0631 18.841 27.5351 19.9308 28.6541C 19.5432 29.3437 19.0449 30.2497 18.4766 31.321C 18.1377 31.9671 17.8154 32.7139 17.5205 33.4827C 17.0718 32.79 16.5598 32.0798 15.9828 31.3843C 13.645 28.5664 10.2827 26.798 8.82776 26.2288L 6.90742 25.4776L 6.22832 27.3833Z"/>
</defs>
</svg>
