<svg width="94" height="70" viewBox="0 0 94 70" version="1.1" xmlns="http://www.w3.org/2000/svg" xmlns:xlink="http://www.w3.org/1999/xlink">
<title>Icon_24</title>
<desc>Created using Figma</desc>
<g id="Canvas" transform="translate(-2995 -3121)">
<g id="Icon_24">
<use xlink:href="#path0_fill" transform="translate(2995.5 3121.5)" fill="#67FAD6"/>
</g>
</g>
<defs>
<path id="path0_fill" fill-rule="evenodd" d="M 18.9662 5.39831C 21.7617 2.09844 25.9393 0 30.6072 0C 38.9461 0 45.7217 6.69289 45.8552 15L 48.2164 15C 48.3499 6.69289 55.1254 0 63.4644 0C 69.3248 0 74.4103 3.3052 76.9633 8.14873L 76.9868 8.14301L 89.1612 34.4954C 91.5268 38.0176 92.981 42.465 93 47.0356C 93 59.4029 82.9744 69.4285 70.6072 69.4285C 58.8654 69.4285 49.2345 60.3914 48.2902 48.8928L 44.7098 48.8928C 43.7655 60.3914 34.1346 69.4285 22.3928 69.4285C 10.0256 69.4285 0 59.4029 0 47.0356C 0.0150857 42.9447 1.18089 38.9291 3.10882 35.6469L 16.4005 9.69622C 16.7681 8.76324 17.255 7.81583 17.7896 6.9844L 18.6699 5.26639L 18.9662 5.39831ZM 30.6072 3C 26.5033 3 22.8707 5.01649 20.6452 8.11936L 20.4131 8.44285L 20.3889 8.49024L 20.3454 8.55662C 19.8604 9.29459 19.489 10.0164 19.1699 10.8515L 19.1413 10.9258L 5.73725 37.0959L 5.71298 37.1367C 3.94199 40.0906 2.98485 43.3518 3 47.0356C 3 57.746 11.6824 66.4285 22.3928 66.4285C 32.9923 66.4285 41.6059 57.9246 41.7829 47.3677L 41.8077 45.8928L 51.1923 45.8928L 51.2171 47.3677C 51.3941 57.9246 60.0077 66.4285 70.6072 66.4285C 81.3176 66.4285 90 57.746 90 47.0356C 90.0192 42.8958 88.8091 39.259 86.6133 36.0829L 86.5417 35.9786L 75.2989 11.6426L 75.2487 11.6549L 74.7514 10.4798C 72.8901 6.08131 68.5354 3 63.4644 3C 56.6988 3 51.2144 8.48443 51.2144 15.25C 51.214 15.6372 51.23 15.9868 51.2645 16.3653L 51.4118 18L 42.6597 18L 42.8071 16.3653C 42.8416 15.9868 42.8576 15.6372 42.8572 15.25C 42.8572 8.48443 37.3727 3 30.6072 3ZM 22.2144 34.4285C 14.7586 34.4285 8.71436 40.4727 8.71436 47.9285C 8.71436 55.3842 14.7586 61.4285 22.2144 61.4285C 29.6701 61.4285 35.7144 55.3842 35.7144 47.9285C 35.7144 40.4727 29.6701 34.4285 22.2144 34.4285ZM 5.71436 47.9285C 5.71436 38.8159 13.1017 31.4285 22.2144 31.4285C 31.327 31.4285 38.7144 38.8159 38.7144 47.9285C 38.7144 57.0411 31.327 64.4285 22.2144 64.4285C 13.1017 64.4285 5.71436 57.0411 5.71436 47.9285ZM 54.6428 47.9285C 54.6428 38.8159 62.0302 31.4285 71.1428 31.4285C 80.2554 31.4285 87.6428 38.8159 87.6428 47.9285C 87.6428 57.0411 80.2554 64.4285 71.1428 64.4285C 62.0302 64.4285 54.6428 57.0411 54.6428 47.9285ZM 71.1428 34.4285C 63.6871 34.4285 57.6428 40.4727 57.6428 47.9285C 57.6428 55.3842 63.6871 61.4285 71.1428 61.4285C 78.5986 61.4285 84.6428 55.3842 84.6428 47.9285C 84.6428 40.4727 78.5986 34.4285 71.1428 34.4285Z"/>
</defs>
</svg>
