<svg width="88" height="85" viewBox="0 0 88 85" version="1.1" xmlns="http://www.w3.org/2000/svg" xmlns:xlink="http://www.w3.org/1999/xlink">
<title>Icon_23</title>
<desc>Created using Figma</desc>
<g id="Canvas" transform="translate(-2995 -2860)">
<g id="Icon_23">
<use xlink:href="#path0_fill" transform="translate(2995.5 2860.5)" fill="#6EBD6B"/>
</g>
</g>
<defs>
<path id="path0_fill" fill-rule="evenodd" d="M 66 5.5C 66 2.4624 68.4624 0 71.5 0L 81.5 0C 84.5376 0 87 2.4624 87 5.5L 87 78.5C 87 81.5376 84.5376 84 81.5 84L 71.5 84C 68.4624 84 66 81.5376 66 78.5L 66 5.5ZM 71.5 3C 70.1194 3 69 4.11938 69 5.5L 69 78.5C 69 79.8806 70.1194 81 71.5 81L 81.5 81C 82.8806 81 84 79.8806 84 78.5L 84 5.5C 84 4.11938 82.8806 3 81.5 3L 71.5 3ZM 33 28C 33 24.9624 35.4624 22.5 38.5 22.5L 48.5 22.5C 51.5376 22.5 54 24.9624 54 28L 54 78.5C 54 81.5376 51.5376 84 48.5 84L 38.5 84C 35.4624 84 33 81.5376 33 78.5L 33 28ZM 38.5 25.5C 37.1194 25.5 36 26.6194 36 28L 36 78.5C 36 79.8806 37.1194 81 38.5 81L 48.5 81C 49.8806 81 51 79.8806 51 78.5L 51 28C 51 26.6194 49.8806 25.5 48.5 25.5L 38.5 25.5ZM 5.5 45C 2.4624 45 0 47.4624 0 50.5L 0 78.5C 0 81.5376 2.4624 84 5.5 84L 15.5 84C 18.5376 84 21 81.5376 21 78.5L 21 50.5C 21 47.4624 18.5376 45 15.5 45L 5.5 45ZM 3 50.5C 3 49.1194 4.11938 48 5.5 48L 15.5 48C 16.8806 48 18 49.1194 18 50.5L 18 78.5C 18 79.8806 16.8806 81 15.5 81L 5.5 81C 4.11938 81 3 79.8806 3 78.5L 3 50.5Z"/>
</defs>
</svg>
