<svg width="94" height="94" viewBox="0 0 94 94" version="1.1" xmlns="http://www.w3.org/2000/svg" xmlns:xlink="http://www.w3.org/1999/xlink">
<title>Icon 16</title>
<desc>Created using Figma</desc>
<g id="Canvas" transform="translate(-934 -3349)">
<g id="Icon 16">
<g id="Group">
<g id="Vector (Stroke)">
<use xlink:href="#path0_fill" transform="translate(934.5 3349.5)" fill="#8B70D4"/>
</g>
<g id="Vector (Stroke)">
<use xlink:href="#path1_fill" transform="translate(943.552 3358.55)" fill="#8B70D4"/>
</g>
<g id="Vector (Stroke)">
<use xlink:href="#path2_fill" transform="translate(979.5 3375.88)" fill="#8B70D4"/>
</g>
<g id="Vector (Stroke)">
<use xlink:href="#path3_fill" transform="translate(979.5 3404.84)" fill="#8B70D4"/>
</g>
<g id="Vector (Stroke)">
<use xlink:href="#path4_fill" transform="translate(973.034 3384.28)" fill="#8B70D4"/>
</g>
</g>
</g>
</g>
<defs>
<path id="path0_fill" fill-rule="evenodd" d="M 46.5 3C 22.4756 3 3 22.4756 3 46.5C 3 70.5244 22.4756 90 46.5 90C 70.5244 90 90 70.5244 90 46.5C 90 22.4756 70.5244 3 46.5 3ZM 0 46.5C 0 20.8188 20.8188 0 46.5 0C 72.1812 0 93 20.8188 93 46.5C 93 72.1812 72.1812 93 46.5 93C 20.8188 93 0 72.1812 0 46.5Z"/>
<path id="path1_fill" fill-rule="evenodd" d="M 37.4483 3C 18.423 3 3 18.423 3 37.4483C 3 56.4735 18.423 71.8966 37.4483 71.8966C 56.4735 71.8966 71.8966 56.4735 71.8966 37.4483C 71.8966 18.423 56.4735 3 37.4483 3ZM 0 37.4483C 0 16.7662 16.7662 0 37.4483 0C 58.1304 0 74.8966 16.7662 74.8966 37.4483C 74.8966 58.1304 58.1304 74.8966 37.4483 74.8966C 16.7662 74.8966 0 58.1304 0 37.4483Z"/>
<path id="path2_fill" fill-rule="evenodd" d="M 1.5 0C 2.32843 0 3 0.671573 3 1.5L 3 9.77586C 3 10.6043 2.32843 11.2759 1.5 11.2759C 0.671573 11.2759 0 10.6043 0 9.77586L 0 1.5C 0 0.671573 0.671573 0 1.5 0Z"/>
<path id="path3_fill" fill-rule="evenodd" d="M 1.5 0C 2.32843 0 3 0.671573 3 1.5L 3 10.2931C 3 11.1215 2.32843 11.7931 1.5 11.7931C 0.671573 11.7931 0 11.1215 0 10.2931L 0 1.5C 0 0.671573 0.671573 0 1.5 0Z"/>
<path id="path4_fill" fill-rule="evenodd" d="M 10.7111 3.03503C 8.53998 2.93781 6.24145 3.02848 4.8835 3.55077C 3.80085 3.96718 3.44275 4.71805 3.5118 5.51219C 3.58871 6.39659 4.24224 7.61679 5.84556 8.59466C 8.92379 10.1338 9.00074 10.1773 11.8281 11.9764C 14.1061 13.2108 15.4891 15.2216 15.6672 17.3145C 15.8521 19.4869 14.6988 21.5396 12.3835 22.4301C 10.3794 23.2009 7.5055 23.2395 5.34474 23.1428C 4.22739 23.0924 3.2021 22.9995 2.48188 22.9214C 2.11719 22.8817 1.81525 22.8444 1.6128 22.818C 1.50944 22.8045 1.42601 22.7931 1.37186 22.7856L 1.30648 22.7763L 1.2884 22.7737L 1.28143 22.7726C 1.28119 22.7726 1.28038 22.7725 1.5002 21.2887L 1.28038 22.7725C 0.460895 22.6511 -0.105009 21.8883 0.0163955 21.0689C 0.137784 20.2495 0.900334 19.6836 1.71969 19.8048L 1.72215 19.8052L 1.73419 19.8069L 1.78702 19.8144C 1.8368 19.8214 1.90667 19.8309 2.00082 19.8432C 2.19337 19.8683 2.46322 19.9017 2.8057 19.9389C 3.49982 20.0143 4.43034 20.0992 5.47894 20.1458C 7.65008 20.243 9.94861 20.1523 11.3066 19.63C 12.3533 19.2274 12.7518 18.4353 12.678 17.5689C 12.5989 16.6392 11.933 15.4322 10.3633 14.595C 10.3294 14.5769 10.2962 14.5575 10.2639 14.5369C 8.88436 13.6591 8.1954 13.2198 7.48566 12.8172C 6.75478 12.4026 6.00186 12.0269 4.45007 11.251C 4.41573 11.2338 4.38207 11.2154 4.34915 11.1956C 2.10746 9.8506 0.70405 7.85321 0.523081 5.77208C 0.333515 3.59208 1.52713 1.62744 3.80656 0.750738C 5.81067 -0.0200745 8.68456 -0.0587173 10.8453 0.0380327C 11.9627 0.088459 12.988 0.181328 13.7082 0.259465C 14.0729 0.299101 14.3748 0.336411 14.5773 0.362809C 14.6806 0.376297 14.764 0.387701 14.8182 0.395265L 14.8836 0.404529L 14.9017 0.407151L 14.9086 0.408174C 14.9089 0.408209 14.9097 0.408329 14.6916 1.88052L 14.9097 0.408329C 15.7292 0.529734 16.2951 1.29247 16.1737 2.11196C 16.0523 2.93135 15.2897 3.49721 14.4703 3.37598L 14.4679 3.37563L 14.4559 3.37388L 14.403 3.3664C 14.3533 3.35944 14.2834 3.34988 14.1892 3.33761C 13.9967 3.31249 13.7268 3.27908 13.3844 3.24194C 12.6902 3.16652 11.7597 3.08159 10.7111 3.03503Z"/>
</defs>
</svg>
