<svg width="40" height="53" viewBox="0 0 40 53" version="1.1" xmlns="http://www.w3.org/2000/svg" xmlns:xlink="http://www.w3.org/1999/xlink">
<title>Icon_03.13</title>
<desc>Created using Figma</desc>
<g id="Canvas" transform="translate(-4423 -2268)">
<g id="Icon_03.13">
<g id="Ellipse (Stroke)">
<use xlink:href="#path0_fill" transform="translate(4429.68 2286.14)" fill="#FAB04B"/>
</g>
<g id="Vector (Stroke)">
<use xlink:href="#path1_fill" transform="translate(4442.3 2268)" fill="#FAB04B"/>
</g>
<g id="Vector (Stroke)">
<use xlink:href="#path2_fill" transform="matrix(0.71035 -0.703849 0.71035 0.703849 4423.58 2275.48)" fill="#FAB04B"/>
</g>
<g id="Vector (Stroke)">
<use xlink:href="#path2_fill" transform="matrix(-0.71035 -0.703849 -0.71035 0.703849 4462.42 2275.48)" fill="#FAB04B"/>
</g>
<g id="Ellipse (Stroke)">
<use xlink:href="#path3_fill" transform="translate(4429.68 2300.39)" fill="#FAB04B"/>
</g>
<g id="Ellipse (Stroke)">
<use xlink:href="#path3_fill" transform="translate(4429.68 2306.86)" fill="#FAB04B"/>
</g>
<g id="Ellipse (Stroke)">
<use xlink:href="#path3_fill" transform="translate(4429.68 2313.34)" fill="#FAB04B"/>
</g>
</g>
</g>
<defs>
<path id="path0_fill" fill-rule="evenodd" d="M 5.27327 3.79321C 3.01016 4.91441 2 6.27629 2 7.47727C 2 8.67825 3.01016 10.0401 5.27327 11.1613C 7.52797 12.2865 10.5728 12.9605 14.0742 12.9545C 17.5756 12.9605 20.6204 12.2865 22.8751 11.1613C 25.1382 10.0401 26.1484 8.67825 26.1484 7.47727C 26.1484 6.27629 25.1382 4.91441 22.8751 3.79321C 20.6204 2.66804 17.5756 1.99405 14.0742 2C 10.5728 1.99405 7.52797 2.66804 5.27327 3.79321ZM 4.38541 2.00109C 6.86264 0.781948 10.3549 0.00594962 14.0742 0C 17.7935 0.00594962 21.2857 0.781948 23.763 2.00109C 26.2318 3.2242 28.1484 5.10095 28.1484 7.47727C 28.1484 9.85359 26.2318 11.7303 23.763 12.9535C 21.2857 14.1726 17.7935 14.9486 14.0742 14.9545C 10.3549 14.9486 6.86264 14.1726 4.38541 12.9535C 1.9166 11.7303 0 9.85359 0 7.47727C 0 5.10095 1.9166 3.2242 4.38541 2.00109Z"/>
<path id="path1_fill" fill-rule="evenodd" d="M 1 0C 1.55228 0 2 0.447715 2 1L 2 7.47727C 2 8.02956 1.55228 8.47727 1 8.47727C 0.447715 8.47727 0 8.02956 0 7.47727L 0 1C 0 0.447715 0.447715 0 1 0Z"/>
<path id="path2_fill" fill-rule="evenodd" d="M 1 0C 1.55228 0 2 0.447715 2 1L 2 7.50725C 2 8.05954 1.55228 8.50725 1 8.50725C 0.447715 8.50725 0 8.05954 0 7.50725L 0 1C 0 0.447715 0.447715 0 1 0Z"/>
<path id="path3_fill" fill-rule="evenodd" d="M 1 0C 1.55228 0 2 0.447715 2 1C 2 1.25492 2.14734 1.65538 2.70364 2.16598C 3.28507 2.70699 4.09218 3.18158 5.20921 3.63746C 7.48379 4.57661 10.5615 5.1866 14.0742 5.18182C 17.5869 5.1866 20.6646 4.57661 22.9392 3.63746C 24.0562 3.18158 24.8633 2.70699 25.4448 2.16598C 26.001 1.65538 26.1484 1.25492 26.1484 1C 26.1484 0.447715 26.5961 0 27.1484 0C 27.7007 0 28.1484 0.447715 28.1484 1C 28.1484 2.04053 27.564 2.93553 26.7972 3.63942C 26.0554 4.3129 24.9479 4.97183 23.6989 5.48754C 21.2416 6.49157 17.7822 7.17704 14.0742 7.18182C 10.3662 7.17704 6.90682 6.49157 4.44947 5.48754C 3.20054 4.97183 2.09298 4.3129 1.35123 3.63942C 0.584349 2.93553 0 2.04053 0 1C 0 0.447715 0.447715 0 1 0Z"/>
</defs>
</svg>
