<svg width="90" height="68" viewBox="0 0 90 68" version="1.1" xmlns="http://www.w3.org/2000/svg" xmlns:xlink="http://www.w3.org/1999/xlink">
<title>Icon_22</title>
<desc>Created using Figma</desc>
<g id="Canvas" transform="translate(-2387 -3541)">
<g id="Icon_22">
<g id="Union">
<use xlink:href="#path0_fill" transform="translate(2387 3541)" fill="#6EBD6B"/>
</g>
</g>
</g>
<defs>
<path id="path0_fill" fill-rule="evenodd" d="M 4 3L 86 3C 86.5522 3 87 3.44775 87 4L 87 51C 87 51.5522 86.5522 52 86 52L 4 52C 3.44775 52 3 51.5522 3 51L 3 4C 3 3.44775 3.44775 3 4 3ZM 0 4C 0 1.79077 1.79077 0 4 0L 86 0C 88.2092 0 90 1.79077 90 4L 90 51C 90 53.2092 88.2092 55 86 55L 47.5 55L 47.5 65L 63.5 65C 64.3284 65 65 65.6716 65 66.5C 65 67.3284 64.3284 68 63.5 68L 28 68C 27.1716 68 26.5 67.3284 26.5 66.5C 26.5 65.6716 27.1716 65 28 65L 44.5 65L 44.5 55L 4 55C 1.79077 55 0 53.2092 0 51L 0 4ZM 54 27.5L 41.25 34.8611L 41.25 20.1387L 54 27.5ZM 55.5 24.9019C 57.5 26.0566 57.5 28.9434 55.5 30.0981L 42.75 37.4592C 40.75 38.614 38.25 37.1707 38.25 34.8611L 38.25 20.1387C 38.25 17.8293 40.75 16.386 42.75 17.5408L 55.5 24.9019Z"/>
</defs>
</svg>
