<svg width="90" height="91" viewBox="0 0 90 91" version="1.1" xmlns="http://www.w3.org/2000/svg" xmlns:xlink="http://www.w3.org/1999/xlink">
<title>Icon 17</title>
<desc>Created using Figma</desc>
<g id="Canvas" transform="translate(-1544 -2875)">
<g id="Icon 17">
<g id="Vector (Stroke)">
<use xlink:href="#path0_fill" transform="translate(1544 2875)" fill="#D4707C"/>
</g>
</g>
</g>
<defs>
<path id="path0_fill" fill-rule="evenodd" d="M 46.3954 59.7907C 47.191 59.7907 47.9541 60.1068 48.5167 60.6694L 54.7957 66.9484C 55.521 67.6737 55.8255 68.7193 55.603 69.7206C 55.0885 72.0357 55.6405 74.4211 57.2376 76.0182L 66.6562 85.4368C 69.3808 88.1615 73.3264 88.009 75.5709 85.5401C 75.6029 85.5049 75.6357 85.4705 75.6694 85.4368C 77.9203 83.1859 78.0699 79.1191 75.6145 76.3688L 66.2508 67.005C 64.6537 65.408 62.2683 64.8559 59.9531 65.3704C 58.9518 65.5929 57.9063 65.2885 57.181 64.5632L 50.9019 58.2841C 50.3393 57.7215 50.0233 56.9584 50.0233 56.1628C 50.0233 55.3671 50.3393 54.6041 50.9019 54.0415L 55.088 49.8554C 55.826 49.1174 56.8945 48.816 57.9094 49.0596C 65.7525 50.9419 74.4088 49.0229 80.2043 43.2275C 84.2475 39.1843 86.6766 33.964 87 28.8621L 87 28.2558C 87 27.8196 86.599 27.4186 86.1628 27.4186C 85.9653 27.4186 85.7912 27.4526 85.6619 27.4996C 85.5385 27.5445 85.4932 27.5868 85.4931 27.5867L 80.6097 32.4702C 77.6116 35.4682 73.7117 37.186 69.0698 37.186C 64.6786 37.186 60.4538 35.0452 57.8787 32.4702C 55.0313 29.6227 52.814 25.7606 52.814 20.9302C 52.814 16.6792 54.5025 12.4177 57.5298 9.39031L 62.4133 4.50687C 62.4132 4.50682 62.4555 4.46154 62.5004 4.33815C 62.5474 4.20883 62.5814 4.03471 62.5814 3.83721C 62.5814 3.40103 62.1804 3 61.7442 3L 61.4863 3C 56.2903 3.32554 51.1421 5.46869 47.1984 9.71577L 47.175 9.74067C 41.2315 15.9969 39.1204 24.337 41.261 31.9818C 41.5532 33.0255 41.2598 34.1456 40.4934 34.912L 36.3074 39.0981C 35.741 39.6644 34.9718 39.9808 34.1709 39.9767C 33.37 39.9727 32.604 39.6485 32.0434 39.0765L 14.9504 21.6347C 14.4008 21.0739 14.093 20.32 14.093 19.5349L 14.093 17.2283L 6.19332 13.3982L 3.65028 15.9412L 7.4355 23.5116L 10.4651 23.5116C 11.2608 23.5116 12.0238 23.8277 12.5864 24.3903L 29.6795 41.4833C 30.851 42.6549 30.851 44.5544 29.6795 45.726L 6.01968 69.3858C 3.90058 71.7815 2.93541 73.916 3 77.093C 3 82.7617 7.58709 87.3488 13.2558 87.3488C 15.9815 87.3488 18.6967 86.2467 20.5531 84.3903L 44.274 60.6694C 44.8366 60.1068 45.5997 59.7907 46.3954 59.7907ZM 3.83721 67.3256L 27.5581 43.6047L 10.4651 26.5116L 5.5814 26.5116L 0 15.3488L 5.5814 9.76744L 17.093 15.3488L 17.093 19.5349L 34.1859 36.9766L 38.3721 32.7907C 35.9302 24.0698 38.3721 14.6512 45 7.67442C 49.5349 2.7907 55.4651 0.348837 61.3954 0L 61.7442 0C 63.8372 0 65.5814 1.74419 65.5814 3.83721C 65.5814 4.88372 65.2326 5.93023 64.5349 6.62791L 59.6512 11.5116C 57.2093 13.9535 55.814 17.4419 55.814 20.9302C 55.814 24.7674 57.5581 27.907 60 30.3488C 62.093 32.4419 65.5814 34.186 69.0698 34.186C 72.907 34.186 76.0465 32.7907 78.4884 30.3488L 83.3721 25.4651C 84.0698 24.7674 85.1163 24.4186 86.1628 24.4186C 88.2558 24.4186 90 26.1628 90 28.2558L 90 28.9535C 89.6512 34.8837 86.8605 40.814 82.3256 45.3488C 75.6977 51.9767 65.9302 54.0698 57.2093 51.9767L 53.0233 56.1628L 59.3023 62.4419C 62.4419 61.7442 65.9302 62.4419 68.3721 64.8837L 77.7907 74.3023C 81.2791 78.1395 81.2791 84.0698 77.7907 87.5581C 74.3023 91.3953 68.3721 91.3953 64.5349 87.5581L 55.1163 78.1395C 52.6744 75.6977 51.9767 72.2093 52.6744 69.0698L 46.3954 62.7907L 22.6744 86.5116C 20.2326 88.9535 16.7442 90.3488 13.2558 90.3488C 5.93023 90.3488 0 84.4186 0 77.093C 0 73.2558 1.39535 70.1163 3.83721 67.3256ZM 6.41861 76.0465C 6.41861 71.9478 9.85477 68.5116 13.9535 68.5116C 17.9808 68.5116 21.3684 71.8291 21.4853 75.8329C 22.0036 80.3856 18.0607 83.5814 13.9535 83.5814C 9.85478 83.5814 6.41861 80.1452 6.41861 76.0465ZM 18.4884 76.0465C 18.4884 73.6047 16.3953 71.5116 13.9535 71.5116C 11.5116 71.5116 9.4186 73.6047 9.4186 76.0465C 9.4186 78.4884 11.5116 80.5814 13.9535 80.5814C 16.7442 80.5814 18.8372 78.4884 18.4884 76.0465Z"/>
</defs>
</svg>
