<svg width="91" height="75" viewBox="0 0 91 75" version="1.1" xmlns="http://www.w3.org/2000/svg" xmlns:xlink="http://www.w3.org/1999/xlink">
<title>Icon_28</title>
<desc>Created using Figma</desc>
<g id="Canvas" transform="translate(-4421 -2872)">
<g id="Icon_28">
<g id="Union">
<use xlink:href="#path0_fill" transform="translate(4421.5 2872.5)" fill="#67FAD6"/>
</g>
</g>
</g>
<defs>
<path id="path0_fill" fill-rule="evenodd" d="M 32.8042 0C 32.8091 0 32.8145 0 32.8193 0L 56.1851 0C 56.27 0 56.3535 0.00708008 56.4346 0.020752C 56.7437 -0.0310059 57.0669 0.0141602 57.3569 0.160156L 73.7627 8.41602C 73.9946 8.53271 74.1924 8.70776 74.3364 8.92383L 89.748 32.04C 89.853 32.1973 89.9238 32.3674 89.9629 32.5415C 90.082 33.0693 89.9077 33.6206 89.5063 33.9839L 89.479 34.0085L 45.7949 73.5776C 45.624 73.7437 45.4106 73.8713 45.1655 73.9417C 45.1108 73.9573 45.0557 73.9692 45.001 73.9785C 44.7812 74.0161 44.5508 74.0054 44.3232 73.9377C 44.125 73.8787 43.9478 73.7822 43.7974 73.6582C 43.769 73.6348 43.7417 73.6104 43.7153 73.5852L 0.504883 33.9951L 0.486328 33.978C 0.0991211 33.6226 -0.0693359 33.0923 0.0258789 32.5913C 0.0620117 32.3999 0.136719 32.2124 0.251465 32.04L 15.6631 8.92383C 15.8037 8.71289 15.9951 8.54126 16.2202 8.42432L 32.0903 0.188721C 32.1763 0.140869 32.2676 0.101807 32.3628 0.0712891C 32.5063 0.0253906 32.6558 0.00146484 32.8042 0ZM 55.3389 3L 34.1934 3L 32.4688 22.5659L 57.4941 22.5659L 55.3389 3ZM 72.8682 12.1296L 84.9409 30.2375L 61.9399 23.3318L 72.8682 12.1296ZM 58.4761 4.08179L 70.584 10.1748L 60.3076 20.709L 58.4761 4.08179ZM 17.1313 12.1296L 28.0591 23.3318L 5.05859 30.2375L 17.1313 12.1296ZM 31.0854 4.08984L 29.627 20.6428L 19.3965 10.1558L 31.0854 4.08984ZM 57.1572 25.5659L 44.7764 67.157L 32.8232 25.5659L 57.1572 25.5659ZM 4.45947 33.5496L 29.8091 25.939L 41.8389 67.7976L 4.45947 33.5496ZM 47.7188 67.7878L 85.5229 33.5447L 60.1768 25.9351L 47.7188 67.7878Z"/>
</defs>
</svg>
