<svg width="34" height="42" viewBox="0 0 34 42" version="1.1" xmlns="http://www.w3.org/2000/svg" xmlns:xlink="http://www.w3.org/1999/xlink">
<title>Icon 11</title>
<desc>Created using Figma</desc>
<g id="Canvas" transform="translate(-1544 -2409)">
<g id="Icon 11">
<g id="Vector (Stroke)">
<use xlink:href="#path0_fill" transform="translate(1544 2409)" fill="#67FAD6"/>
</g>
<g id="Group 13">
<g id="Vector 4 (Stroke)">
<use xlink:href="#path1_fill" transform="translate(1555 2426.31)" fill="#67FAD6"/>
</g>
<g id="Vector 5 (Stroke)">
<use xlink:href="#path2_fill" transform="translate(1558.18 2424)" fill="#67FAD6"/>
</g>
<g id="Vector 5.1 (Stroke)">
<use xlink:href="#path2_fill" transform="translate(1558.18 2440.52)" fill="#67FAD6"/>
</g>
</g>
</g>
</g>
<defs>
<path id="path0_fill" fill-rule="evenodd" d="M 13.0845 11.2543L 11.0921 12.0639C 5.65805 14.272 2 19.5278 2 25.4312C 2 33.5304 8.6157 40 16.9006 40C 25.3998 40 32 33.5154 32 25.4312C 32 19.5524 28.3591 14.4406 23.0356 12.0334L 21.1846 11.1963L 25.5173 2L 8.51677 2L 13.0845 11.2543ZM 5.96491 1.34862C 5.96491 0.385321 6.5614 0 7.55556 0L 26.6433 0C 27.4386 0 28.0351 0.385321 28.0351 1.34862L 23.8596 10.211C 24.0319 10.2889 24.2026 10.3693 24.3718 10.4523C 30.0622 13.2428 34 18.8828 34 25.4312C 34 34.6789 26.4444 42 16.9006 42C 7.55556 42 0 34.6789 0 25.4312C 0 19.3692 3.37451 13.93 8.53446 11.0734C 9.11425 10.7524 9.71657 10.464 10.3392 10.211L 5.96491 1.34862Z"/>
<path id="path1_fill" fill-rule="evenodd" d="M 8.37266 0.38601C 9.33945 0.665246 10.3231 1.12202 10.8622 1.77517C 11.2137 2.20113 11.1534 2.83141 10.7274 3.18295C 10.3015 3.53449 9.67119 3.47416 9.31965 3.04821C 9.17688 2.87521 8.68329 2.55748 7.81769 2.30747C 6.97528 2.06115 6.05745 1.93974 5.10757 2.01486C 4.17737 2.08339 3.39486 2.3408 2.86377 2.77745C 2.37085 3.1827 2 3.81717 2 4.88985C 1.98673 5.31742 2.04173 5.47696 2.23159 5.71119C 2.39891 5.9574 2.58668 6.07776 2.9724 6.24635C 3.72127 6.58288 4.74467 6.74252 5.97585 6.93458C 6.03493 6.9438 6.09449 6.95309 6.15452 6.96248C 7.36969 7.15253 8.79609 7.38588 9.90995 7.98295C 11.1313 8.63764 12 9.74326 12 11.4985C 12 12.9369 11.4088 14.0716 10.4549 14.8534C 9.53227 15.6096 8.32849 15.9923 7.11795 16.1081C 4.73648 16.3359 1.90033 15.5625 0.272562 13.8369C -0.106399 13.4351 -0.0879224 12.8022 0.313832 12.4232C 0.715586 12.0443 1.34848 12.0628 1.72744 12.4645C 2.82695 13.6301 4.9908 14.3024 6.92751 14.1172C 7.87606 14.0264 8.66091 13.7379 9.18713 13.3066C 9.68207 12.9009 10 12.3318 10 11.4985C 10 10.569 9.61871 10.0961 8.96506 9.74567C 8.20391 9.33767 7.13032 9.13941 5.84548 8.93846C 5.75483 8.92428 5.66288 8.91007 5.56986 8.89569C 4.44281 8.72149 3.15969 8.52318 2.15261 8.07061C 1.60083 7.8179 1.00734 7.39391 0.627791 6.90611C 0.270779 6.40634 0.0132771 5.64221 2.67287e-06 4.88985C 2.67287e-06 3.27775 0.595059 2.05352 1.59362 1.23254C 2.55401 0.442958 3.78855 0.106619 4.96062 0.0202684C 6.11301 -0.0594897 7.38268 0.103085 8.37266 0.38601Z"/>
<path id="path2_fill" fill-rule="evenodd" d="M 1 0C 1.55228 0 2 0.447715 2 1L 2 3.47826C 2 4.03055 1.55228 4.47826 1 4.47826C 0.447715 4.47826 0 4.03055 0 3.47826L 0 1C 0 0.447715 0.447715 0 1 0ZM 4.63636 0C 5.18865 0 5.63636 0.447715 5.63636 1L 5.63636 3.47826C 5.63636 4.03055 5.18865 4.47826 4.63636 4.47826C 4.08408 4.47826 3.63636 4.03055 3.63636 3.47826L 3.63636 1C 3.63636 0.447715 4.08408 0 4.63636 0Z"/>
</defs>
</svg>
