<svg width="46" height="42" viewBox="0 0 46 42" version="1.1" xmlns="http://www.w3.org/2000/svg" xmlns:xlink="http://www.w3.org/1999/xlink">
<title>Icon_03.14</title>
<desc>Created using Figma</desc>
<g id="Canvas" transform="translate(-4423 -2369)">
<g id="Icon_03.14">
<g id="Rectangle-path (Stroke)">
<use xlink:href="#path0_fill" transform="matrix(6.12323e-17 1 -1 6.12323e-17 4460.65 2369)" fill="#8B70D4"/>
</g>
<g id="Subtract (Stroke)">
<use xlink:href="#path1_fill" transform="translate(4423 2377.5)" fill="#8B70D4"/>
</g>
<g id="Subtract (Stroke)">
<use xlink:href="#path2_fill" transform="matrix(-1 0 0 1 4468.42 2377.47)" fill="#8B70D4"/>
</g>
<g id="Ellipse">
<use xlink:href="#path3_fill" transform="translate(4443.65 2394)" fill="#8B70D4"/>
</g>
<g id="Shape (Stroke)">
<use xlink:href="#path4_fill" transform="translate(4440.65 2383)" fill="#8B70D4"/>
</g>
</g>
</g>
<defs>
<path id="path0_fill" fill-rule="evenodd" d="M 0 3C 0 1.34315 1.34315 0 3 0L 39 0C 40.6569 0 42 1.34315 42 3L 42 27C 42 28.6569 40.6569 30 39 30L 3 30C 1.34315 30 0 28.6569 0 27L 0 3ZM 3 2C 2.44772 2 2 2.44772 2 3L 2 27C 2 27.5523 2.44772 28 3 28L 39 28C 39.5523 28 40 27.5523 40 27L 40 3C 40 2.44772 39.5523 2 39 2L 3 2Z"/>
<path id="path1_fill" fill-rule="evenodd" d="M 7.65367 2.60643L 2.74173 3.92254C 2.74169 3.92256 2.74177 3.92253 2.74173 3.92254C 2.2089 4.06542 1.89195 4.61392 2.03475 5.14718C 2.03476 5.14721 2.03474 5.14715 2.03475 5.14718L 7.65367 26.1182L 7.65367 2.60643ZM 2.22399 1.99072C 0.624376 2.41943 -0.325819 4.06445 0.102892 5.66479L 6.91246 31.0796C 7.0495 31.5901 7.31021 32.0344 7.65367 32.3888C 8.17666 32.9286 8.89151 33.26 9.65367 33.2998L 9.65367 0L 2.22399 1.99072Z"/>
<path id="path2_fill" fill-rule="evenodd" d="M 9.76988 0L 2.22399 2.02197C 0.624376 2.45068 -0.325819 4.0957 0.102892 5.69604L 6.91246 31.1108C 7.06465 31.6775 7.36906 32.1626 7.76988 32.5338C 8.30783 33.0321 9.01946 33.3252 9.76988 33.335L 9.76988 0ZM 7.76988 2.60647L 2.74173 3.95379C 2.7417 3.9538 2.74176 3.95379 2.74173 3.95379C 2.20888 4.09666 1.89195 4.64517 2.03475 5.17843C 2.03476 5.17846 2.03474 5.1784 2.03475 5.17843L 7.76988 26.5832L 7.76988 2.60647Z"/>
<path id="path3_fill" d="M 3 1.5C 3 2.32843 2.32843 3 1.5 3C 0.671573 3 0 2.32843 0 1.5C 0 0.671573 0.671573 0 1.5 0C 2.32843 0 3 0.671573 3 1.5Z"/>
<path id="path4_fill" fill-rule="evenodd" d="M 4.8429 2.03696C 3.56928 1.82486 2.35284 2.53941 1.94046 3.67756C 1.75233 4.19681 1.17887 4.46523 0.659621 4.2771C 0.140369 4.08896 -0.128054 3.51551 0.0600824 2.99626C 0.813419 0.917062 2.98278 -0.300355 5.17144 0.0641335C 7.36392 0.429257 9.00319 2.28772 9.00027 4.50322C 8.99998 6.21351 7.69554 7.34827 6.74261 7.96506C 6.23995 8.28819 5.71528 8.54469 5.35723 8.69947C 5.17136 8.77949 5.00595 8.84387 4.89989 8.88314C 4.84366 8.90391 4.79466 8.92123 4.76498 8.93148L 4.7254 8.94494L 4.71315 8.949L 4.70897 8.95037L 4.70738 8.95089L 4.70671 8.95111C 4.70641 8.9512 4.70612 8.9513 4.39821 7.99988L 4.70612 8.9513C 4.18067 9.12135 3.61685 8.83324 3.4468 8.30779C 3.27693 7.78291 3.56422 7.21975 4.08858 7.04902C 4.08891 7.04892 4.08923 7.04881 4.08955 7.04871L 4.08937 7.04877L 4.09169 7.04799L 4.11235 7.04096C 4.13543 7.033 4.16383 7.02299 4.20609 7.00733C 4.29701 6.97374 4.41301 6.92884 4.56484 6.86314C 4.88217 6.72648 5.25802 6.54583 5.65587 6.28608C 6.50387 5.7372 7.00027 5.12352 7.00027 4.50265L 7.00027 4.50112C 7.0021 3.30643 6.11238 2.24838 4.8429 2.03696ZM 4.08955 7.04871L 4.0898 7.04863C 4.0898 7.04863 4.0898 7.04863 4.0898 7.04863C 4.08972 7.04865 4.08964 7.04868 4.08955 7.04871ZM 9.00027 4.50322C 9.00027 4.50354 9.00027 4.50386 9.00027 4.50419L 8.00027 4.50265L 9.00027 4.50265C 9.00027 4.50284 9.00027 4.50303 9.00027 4.50322Z"/>
</defs>
</svg>
