<svg width="43" height="41" viewBox="0 0 43 41" version="1.1" xmlns="http://www.w3.org/2000/svg" xmlns:xlink="http://www.w3.org/1999/xlink">
<title>Icon 02</title>
<desc>Created using Figma</desc>
<g id="Canvas" transform="translate(-1548 -494)">
<g id="Icon 02">
<g id="home">
<g id="Shape (Stroke)">
<use xlink:href="#path0_fill" transform="translate(1554 501)" fill="#67FAD6"/>
</g>
<g id="Shape (Stroke)">
<use xlink:href="#path1_fill" transform="translate(1563.33 517)" fill="#67FAD6"/>
</g>
</g>
<g id="Vector (Stroke)">
<use xlink:href="#path2_fill" transform="translate(1548 494)" fill="#67FAD6"/>
</g>
</g>
</g>
<defs>
<path id="path0_fill" fill-rule="evenodd" d="M 14.3753 0.219131C 14.7405 -0.0730437 15.2595 -0.0730437 15.6247 0.219131L 29.6247 11.4191C 29.8619 11.6089 30 11.8962 30 12.2L 30 29.8C 30 32.0929 28.1858 34 25.8889 34L 4.11111 34C 1.81424 34 0 32.0929 0 29.8L 0 12.2C 0 11.8962 0.13809 11.6089 0.375305 11.4191L 14.3753 0.219131ZM 2 12.6806L 2 29.8C 2 31.0418 2.97155 32 4.11111 32L 25.8889 32C 27.0285 32 28 31.0418 28 29.8L 28 12.6806L 15 2.28062L 2 12.6806Z"/>
<path id="path1_fill" fill-rule="evenodd" d="M 0 1C 0 0.447715 0.447715 0 1 0L 10.3333 0C 10.8856 0 11.3333 0.447715 11.3333 1L 11.3333 17C 11.3333 17.5523 10.8856 18 10.3333 18C 9.78105 18 9.33333 17.5523 9.33333 17L 9.33333 2L 2 2L 2 17C 2 17.5523 1.55228 18 1 18C 0.447715 18 0 17.5523 0 17L 0 1Z"/>
<path id="path2_fill" fill-rule="evenodd" d="M 20.3524 0.238061C 20.7223 -0.0763771 21.2646 -0.0796744 21.6384 0.230242L 42.1384 17.2302C 42.5635 17.5828 42.6223 18.2132 42.2698 18.6383C 41.9172 19.0635 41.2868 19.1223 40.8617 18.7698L 21.008 2.30569L 1.64767 18.7619C 1.22686 19.1196 0.595767 19.0685 0.238081 18.6476C -0.119606 18.2268 -0.0684358 17.5957 0.352372 17.2381L 20.3524 0.238061Z"/>
</defs>
</svg>
