<svg width="90" height="91" viewBox="0 0 90 91" version="1.1" xmlns="http://www.w3.org/2000/svg" xmlns:xlink="http://www.w3.org/1999/xlink">
<title>Icon_20</title>
<desc>Created using Figma</desc>
<g id="Canvas" transform="translate(-2387 -3119)">
<g id="Icon_20">
<g id="Vector">
<mask id="mask0_outline_ins">
<use xlink:href="#path0_fill" fill="white" transform="translate(2387 3119)"/>
</mask>
<g mask="url(#mask0_outline_ins)">
<use xlink:href="#path1_stroke_2x" transform="translate(2387 3119)" fill="#D4707C"/>
</g>
</g>
</g>
</g>
<defs>
<path id="path0_fill" fill-rule="evenodd" d="M 0 77.093C 0 84.4186 5.93023 90.3488 13.2558 90.3488C 16.7442 90.3488 20.2326 88.9535 22.6744 86.5116L 46.3954 62.7907L 52.6744 69.0698C 51.9767 72.2093 52.6744 75.6977 55.1163 78.1395L 64.5349 87.5581C 68.3721 91.3953 74.3023 91.3953 77.7907 87.5581C 81.2791 84.0698 81.2791 78.1395 77.7907 74.3023L 68.3721 64.8837C 65.9302 62.4419 62.4419 61.7442 59.3023 62.4419L 53.0233 56.1628L 57.2093 51.9767C 65.9302 54.0698 75.6977 51.9767 82.3256 45.3488C 86.8605 40.814 89.6512 34.8837 90 28.9535L 90 28.2558C 90 26.1628 88.2558 24.4186 86.1628 24.4186C 85.1163 24.4186 84.0698 24.7674 83.3721 25.4651L 82.3256 26.5116L 78.4884 30.3488C 76.0465 32.7907 72.907 34.186 69.0698 34.186C 65.5814 34.186 62.093 32.4419 60 30.3488C 57.5581 27.907 55.814 24.7674 55.814 20.9302C 55.814 17.4419 57.2093 13.9535 59.6512 11.5116L 63.4884 7.67442L 64.5349 6.62791C 65.2326 5.93023 65.5814 4.88372 65.5814 3.83721C 65.5814 1.74419 63.8372 -5.19808e-09 61.7442 -5.19808e-09L 61.3954 -5.19808e-09C 55.4651 0.348837 49.5349 2.7907 45 7.67442C 38.3721 14.6512 35.9302 24.0698 38.3721 32.7907L 34.186 36.9767L 17.093 19.5349L 17.093 15.3488L 5.5814 9.76744L 0 15.3488L 5.5814 26.5116L 10.4651 26.5116L 27.5581 43.6047L 3.83721 67.3256C 1.39535 70.1163 0 73.2558 0 77.093ZM 9.41861 76.0465C 9.41861 73.6047 11.5116 71.5116 13.9535 71.5116C 16.3953 71.5116 18.4884 73.6047 18.4884 76.0465C 18.8372 78.4884 16.7442 80.5814 13.9535 80.5814C 11.5116 80.5814 9.41861 78.4884 9.41861 76.0465Z"/>
<path id="path1_stroke_2x" d="M 22.6744 86.5116L 24.7957 88.633L 24.7957 88.633L 22.6744 86.5116ZM 46.3954 62.7907L 48.5167 60.6694C 47.9541 60.1068 47.191 59.7907 46.3954 59.7907C 45.5997 59.7907 44.8366 60.1068 44.274 60.6694L 46.3954 62.7907ZM 52.6744 69.0698L 55.603 69.7206C 55.8255 68.7193 55.521 67.6737 54.7957 66.9485L 52.6744 69.0698ZM 55.1163 78.1395L 57.2376 76.0182L 57.2376 76.0182L 55.1163 78.1395ZM 64.5349 87.5581L 62.4136 89.6795L 62.4136 89.6795L 64.5349 87.5581ZM 77.7907 87.5581L 75.6694 85.4368C 75.6357 85.4705 75.6029 85.5049 75.5709 85.5401L 77.7907 87.5581ZM 77.7907 74.3023L 80.0105 72.2843C 79.9785 72.2491 79.9457 72.2147 79.912 72.181L 77.7907 74.3023ZM 68.3721 64.8837L 70.4934 62.7624L 70.4934 62.7624L 68.3721 64.8837ZM 59.3023 62.4419L 57.181 64.5632C 57.9063 65.2885 58.9518 65.5929 59.9531 65.3704L 59.3023 62.4419ZM 53.0233 56.1628L 50.9019 54.0415C 50.3393 54.6041 50.0233 55.3671 50.0233 56.1628C 50.0233 56.9584 50.3393 57.7215 50.9019 58.2841L 53.0233 56.1628ZM 57.2093 51.9767L 57.9094 49.0596C 56.8945 48.816 55.826 49.1174 55.088 49.8554L 57.2093 51.9767ZM 82.3256 45.3488L 84.4469 47.4702L 82.3256 45.3488ZM 90 28.9535L 92.9948 29.1297C 92.9983 29.071 93 29.0122 93 28.9535L 90 28.9535ZM 83.3721 25.4651L 81.2508 23.3438L 81.2508 23.3438L 83.3721 25.4651ZM 82.3256 26.5116L 84.4469 28.6329L 84.4469 28.6329L 82.3256 26.5116ZM 78.4884 30.3488L 80.6097 32.4702L 80.6097 32.4702L 78.4884 30.3488ZM 60 30.3488L 62.1213 28.2275L 60 30.3488ZM 59.6512 11.5116L 57.5298 9.39031L 57.5298 9.39031L 59.6512 11.5116ZM 63.4884 7.67442L 65.6097 9.79574L 65.6097 9.79574L 63.4884 7.67442ZM 64.5349 6.62791L 62.4136 4.50659L 62.4136 4.50659L 64.5349 6.62791ZM 61.3954 -5.19808e-09L 61.3954 -3C 61.3366 -3 61.2778 -2.99827 61.2192 -2.99482L 61.3954 -5.19808e-09ZM 45 7.67442L 47.175 9.74067C 47.1828 9.73241 47.1906 9.72411 47.1984 9.71577L 45 7.67442ZM 38.3721 32.7907L 40.4934 34.912C 41.2598 34.1456 41.5532 33.0255 41.261 31.9818L 38.3721 32.7907ZM 34.186 36.9767L 32.0434 39.0765C 32.604 39.6485 33.37 39.9727 34.1709 39.9767C 34.9718 39.9808 35.741 39.6644 36.3074 39.0981L 34.186 36.9767ZM 17.093 19.5349L 14.093 19.5349C 14.093 20.32 14.4008 21.0739 14.9504 21.6347L 17.093 19.5349ZM 17.093 15.3488L 20.093 15.3488C 20.093 14.1993 19.4362 13.1509 18.4018 12.6494L 17.093 15.3488ZM 5.5814 9.76744L 6.89022 7.068C 5.7404 6.51051 4.36364 6.74255 3.46008 7.64612L 5.5814 9.76744ZM 0 15.3488L -2.12132 13.2275C -3.0344 14.1406 -3.26076 15.5355 -2.68328 16.6905L 0 15.3488ZM 5.5814 26.5116L 2.89811 27.8533C 3.40629 28.8696 4.44508 29.5116 5.5814 29.5116L 5.5814 26.5116ZM 10.4651 26.5116L 12.5864 24.3903C 12.0238 23.8277 11.2608 23.5116 10.4651 23.5116L 10.4651 26.5116ZM 27.5581 43.6047L 29.6795 45.726C 30.851 44.5544 30.851 42.6549 29.6795 41.4833L 27.5581 43.6047ZM 3.83721 67.3256L 1.71589 65.2043C 1.66881 65.2513 1.62332 65.3 1.57948 65.3501L 3.83721 67.3256ZM 18.4884 76.0465L 15.4884 76.0465C 15.4884 76.1885 15.4984 76.3302 15.5185 76.4708L 18.4884 76.0465ZM -3 77.093C -3 86.0755 4.27338 93.3488 13.2558 93.3488L 13.2558 87.3488C 7.58709 87.3488 3 82.7617 3 77.093L -3 77.093ZM 13.2558 93.3488C 17.5069 93.3488 21.7684 91.6603 24.7957 88.633L 20.5531 84.3903C 18.6967 86.2467 15.9815 87.3488 13.2558 87.3488L 13.2558 93.3488ZM 24.7957 88.633L 48.5167 64.912L 44.274 60.6694L 20.5531 84.3903L 24.7957 88.633ZM 44.274 64.912L 50.5531 71.1911L 54.7957 66.9485L 48.5167 60.6694L 44.274 64.912ZM 49.7459 68.419C 48.865 72.3829 49.7083 76.9742 52.995 80.2609L 57.2376 76.0182C 55.6405 74.4211 55.0885 72.0357 55.603 69.7206L 49.7459 68.419ZM 52.995 80.2609L 62.4136 89.6795L 66.6562 85.4368L 57.2376 76.0182L 52.995 80.2609ZM 62.4136 89.6795C 67.3634 94.6292 75.2782 94.7817 80.0105 89.5762L 75.5709 85.5401C 73.3264 88.009 69.3808 88.1615 66.6562 85.4368L 62.4136 89.6795ZM 79.912 89.6795C 84.6245 84.9669 84.4865 77.2079 80.0105 72.2843L 75.5709 76.3203C 78.0716 79.0711 77.9336 83.1726 75.6694 85.4368L 79.912 89.6795ZM 79.912 72.181L 70.4934 62.7624L 66.2508 67.005L 75.6694 76.4236L 79.912 72.181ZM 70.4934 62.7624C 67.2068 59.4758 62.6154 58.6324 58.6515 59.5133L 59.9531 65.3704C 62.2683 64.8559 64.6537 65.408 66.2508 67.005L 70.4934 62.7624ZM 61.4236 60.3205L 55.1446 54.0415L 50.9019 58.2841L 57.181 64.5632L 61.4236 60.3205ZM 55.1446 58.2841L 59.3306 54.0981L 55.088 49.8554L 50.9019 54.0415L 55.1446 58.2841ZM 56.5092 54.8939C 66.1079 57.1976 76.9865 54.9305 84.4469 47.4702L 80.2043 43.2275C 74.4088 49.0229 65.7525 50.9419 57.9094 49.0596L 56.5092 54.8939ZM 84.4469 47.4702C 89.4511 42.466 92.5988 35.8613 92.9948 29.1297L 87.0052 28.7773C 86.7035 33.9061 84.2699 39.1619 80.2043 43.2275L 84.4469 47.4702ZM 93 28.9535L 93 28.2558L 87 28.2558L 87 28.9535L 93 28.9535ZM 93 28.2558C 93 24.5059 89.9127 21.4186 86.1628 21.4186L 86.1628 27.4186C 86.599 27.4186 87 27.8196 87 28.2558L 93 28.2558ZM 86.1628 21.4186C 84.5209 21.4186 82.6384 21.9562 81.2508 23.3438L 85.4934 27.5864C 85.4891 27.5907 85.5327 27.5466 85.6619 27.4996C 85.7912 27.4526 85.9653 27.4186 86.1628 27.4186L 86.1628 21.4186ZM 81.2508 23.3438L 80.2043 24.3903L 84.4469 28.6329L 85.4934 27.5864L 81.2508 23.3438ZM 80.2043 24.3903L 76.3671 28.2275L 80.6097 32.4702L 84.4469 28.6329L 80.2043 24.3903ZM 76.3671 28.2275C 74.4814 30.1132 72.1023 31.186 69.0698 31.186L 69.0698 37.186C 73.7117 37.186 77.6116 35.4682 80.6097 32.4702L 76.3671 28.2275ZM 69.0698 31.186C 66.4841 31.186 63.7323 29.8385 62.1213 28.2275L 57.8787 32.4702C 60.4538 35.0452 64.6786 37.186 69.0698 37.186L 69.0698 31.186ZM 62.1213 28.2275C 60.085 26.1912 58.814 23.7743 58.814 20.9302L 52.814 20.9302C 52.814 25.7606 55.0313 29.6227 57.8787 32.4702L 62.1213 28.2275ZM 58.814 20.9302C 58.814 18.2046 59.9161 15.4893 61.7725 13.6329L 57.5298 9.39031C 54.5025 12.4177 52.814 16.6792 52.814 20.9302L 58.814 20.9302ZM 61.7725 13.6329L 65.6097 9.79574L 61.3671 5.5531L 57.5298 9.39031L 61.7725 13.6329ZM 65.6097 9.79574L 66.6562 8.74923L 62.4136 4.50659L 61.3671 5.5531L 65.6097 9.79574ZM 66.6562 8.74923C 68.0438 7.36163 68.5814 5.47915 68.5814 3.83721L 62.5814 3.83721C 62.5814 4.03471 62.5474 4.20883 62.5004 4.33815C 62.4534 4.4673 62.4093 4.51087 62.4136 4.50659L 66.6562 8.74923ZM 68.5814 3.83721C 68.5814 0.0873371 65.4941 -3 61.7442 -3L 61.7442 3C 62.1804 3 62.5814 3.40103 62.5814 3.83721L 68.5814 3.83721ZM 61.7442 -3L 61.3954 -3L 61.3954 3L 61.7442 3L 61.7442 -3ZM 61.2192 -2.99482C 54.5836 -2.60449 47.9061 0.135926 42.8016 5.63306L 47.1984 9.71577C 51.1637 5.44547 56.3467 3.30217 61.5715 2.99482L 61.2192 -2.99482ZM 42.825 5.60817C 35.5126 13.3054 32.74 23.8026 35.4832 33.5996L 41.261 31.9818C 39.1204 24.337 41.2315 15.9969 47.175 9.74067L 42.825 5.60817ZM 36.2508 30.6694L 32.0647 34.8554L 36.3074 39.0981L 40.4934 34.912L 36.2508 30.6694ZM 36.3287 34.877L 19.2357 17.4351L 14.9504 21.6347L 32.0434 39.0765L 36.3287 34.877ZM 20.093 19.5349L 20.093 15.3488L 14.093 15.3488L 14.093 19.5349L 20.093 19.5349ZM 18.4018 12.6494L 6.89022 7.068L 4.27258 12.4669L 15.7842 18.0483L 18.4018 12.6494ZM 3.46008 7.64612L -2.12132 13.2275L 2.12132 17.4702L 7.70272 11.8888L 3.46008 7.64612ZM -2.68328 16.6905L 2.89811 27.8533L 8.26468 25.17L 2.68328 14.0072L -2.68328 16.6905ZM 5.5814 29.5116L 10.4651 29.5116L 10.4651 23.5116L 5.5814 23.5116L 5.5814 29.5116ZM 8.3438 28.6329L 25.4368 45.726L 29.6795 41.4833L 12.5864 24.3903L 8.3438 28.6329ZM 25.4368 41.4833L 1.71589 65.2043L 5.95853 69.4469L 29.6795 45.726L 25.4368 41.4833ZM 1.57948 65.3501C -1.13274 68.5011 -2.93465 72.633 -3 77.093L 3 77.093C 2.93465 73.8786 3.92343 71.7315 6.09494 69.3011L 1.57948 65.3501ZM 12.4186 76.0465C 12.4186 75.2615 13.1685 74.5116 13.9535 74.5116L 13.9535 68.5116C 9.85477 68.5116 6.41861 71.9478 6.41861 76.0465L 12.4186 76.0465ZM 13.9535 74.5116C 14.7385 74.5116 15.4884 75.2615 15.4884 76.0465L 21.4884 76.0465C 21.4884 71.9478 18.0522 68.5116 13.9535 68.5116L 13.9535 74.5116ZM 15.5185 76.4708C 15.5482 76.6784 15.4959 76.8894 15.2769 77.1083C 15.043 77.3422 14.5996 77.5814 13.9535 77.5814L 13.9535 83.5814C 18.1237 83.5814 22.1246 80.2867 21.4582 75.6223L 15.5185 76.4708ZM 13.9535 77.5814C 13.1685 77.5814 12.4186 76.8315 12.4186 76.0465L 6.41861 76.0465C 6.41861 80.1452 9.85478 83.5814 13.9535 83.5814L 13.9535 77.5814Z"/>
</defs>
</svg>
