<svg width="94" height="85" viewBox="0 0 94 85" version="1.1" xmlns="http://www.w3.org/2000/svg" xmlns:xlink="http://www.w3.org/1999/xlink">
<title>Icon 15</title>
<desc>Created using Figma</desc>
<g id="Canvas" transform="translate(-934 -3134)">
<g id="Icon 15">
<g id="Group">
<g id="Group">
<g id="Group">
<g id="Group">
<g id="Vector (Stroke)">
<use xlink:href="#path0_fill" transform="translate(1004.02 3154.2)" fill="#FAB04B"/>
</g>
<g id="Vector (Stroke)">
<use xlink:href="#path1_fill" transform="translate(1003.69 3154.16)" fill="#FAB04B"/>
</g>
</g>
<g id="Group">
<g id="Vector (Stroke)">
<use xlink:href="#path2_fill" transform="translate(979.5 3134.5)" fill="#FAB04B"/>
</g>
<g id="Vector (Stroke)">
<use xlink:href="#path3_fill" transform="translate(952.795 3205.28)" fill="#FAB04B"/>
</g>
<g id="Vector (Stroke)">
<use xlink:href="#path4_fill" transform="translate(934.5 3134.5)" fill="#FAB04B"/>
</g>
</g>
<g id="Group">
<g id="Vector (Stroke)">
<use xlink:href="#path5_fill" transform="translate(940.483 3154.2)" fill="#FAB04B"/>
</g>
<g id="Vector (Stroke)">
<use xlink:href="#path6_fill" transform="translate(940.483 3154.16)" fill="#FAB04B"/>
</g>
</g>
</g>
<g id="Vector (Stroke)">
<use xlink:href="#path7_fill" transform="translate(948.806 3158.09)" fill="#FAB04B"/>
</g>
</g>
<g id="Vector (Stroke)">
<use xlink:href="#path8_fill" transform="translate(953.228 3169.36)" fill="#FAB04B"/>
</g>
</g>
</g>
</g>
<defs>
<path id="path0_fill" fill-rule="evenodd" d="M 7.95694 0.296496C 8.61322 -0.069643 9.39007 -0.0948059 10.0872 0.210625C 14.22 2.02117 17.235 6.1708 17.235 10.8955C 17.235 17.5294 11.8424 22.6188 5.33035 22.6188C 4.00343 22.6147 2.64552 22.4022 1.44053 21.8955C 0.795226 21.6168 0.285545 21.0877 0.0867973 20.3805C -0.104378 19.7001 0.0389943 19.0282 0.333987 18.4939C 3.62717 12.5404 5.68461 6.53505 6.75271 1.93395C 6.90821 1.26535 7.3182 0.652845 7.95694 0.296496ZM 5.33035 19.6188C 10.2634 19.6188 14.235 15.7957 14.235 10.8955C 14.235 7.69884 12.3144 4.76519 9.51808 3.267C 8.4036 7.79163 6.35117 13.6504 3.26729 19.3802C 3.88118 19.5645 4.51004 19.6219 5.33035 19.6188Z"/>
<path id="path1_fill" fill-rule="evenodd" d="M 7.3529 1.04983C 7.60175 0.259658 8.44404 -0.179172 9.23421 0.0696739C 13.9749 1.56264 17.5669 6.04149 17.5669 11.1994C 17.5669 17.5463 12.1995 22.9227 5.66225 22.9227C 3.95264 22.9153 2.37056 22.5975 0.939588 22.0275C 0.171238 21.7178 -0.200549 20.8439 0.109178 20.0755C 0.418905 19.3072 1.29286 18.9354 2.06121 19.2451C 3.23139 19.7237 4.25047 19.9301 5.66225 19.9227C 10.5701 19.9227 14.5669 15.8622 14.5669 11.1994C 14.5669 7.44475 11.9161 4.05952 8.33306 2.93113C 7.54289 2.68228 7.10406 1.84 7.3529 1.04983Z"/>
<path id="path2_fill" fill-rule="evenodd" d="M 3.4572e-05 1.5C 3.4572e-05 0.671573 0.671607 0 1.50003 0L 35.0954 0C 35.7218 0 36.4075 0.211505 36.9079 0.770129C 37.4116 1.33238 37.5462 2.04371 37.4663 2.67749C 37.2549 4.3544 36.7343 8.08214 35.748 13.0729C 42.9568 15.7271 48 22.5271 48 30.5971C 48 40.8806 39.5067 49.3981 28.8122 49.3981C 26.5094 49.3915 24.2689 48.98 22.176 48.2098C 17.7305 55.7795 11.5521 63.1647 4.02538 69.4933L 2.4647 70.804C 1.83031 71.3368 0.884138 71.2544 0.35137 70.62C -0.181397 69.9856 -0.099016 69.0394 0.535374 68.5067L 2.09607 67.196C 9.53861 60.9535 15.4553 53.8409 19.7786 46.3661C 20.4138 45.2694 21.7983 44.8421 22.9197 45.2836C 24.854 46.0517 26.6663 46.405 28.8122 46.3981C 37.8864 46.3981 45 39.1874 45 30.5971C 45 23.7158 40.6407 17.9335 34.4069 15.7795C 33.2639 15.3846 32.4745 14.1458 32.7277 12.88C 33.627 8.38729 34.1426 4.92465 34.3993 3L 1.50003 3C 0.671607 3 3.4572e-05 2.32843 3.4572e-05 1.5Z"/>
<path id="path3_fill" fill-rule="evenodd" d="M 9.62094 2.71922C 14.5119 1.03281 21.1064 0.00447142 28.2049 0C 35.2919 0.00497556 41.8755 1.08813 46.7598 2.80121C 49.2274 3.67294 51.4152 4.77359 52.9989 5.95194C 54.6153 7.16211 55.867 8.63094 56.3185 10.3537C 56.4928 11.0187 56.4382 11.844 55.8379 12.4886C 55.2918 13.0751 54.5547 13.2233 53.9968 13.2233L 2.413 13.2233C 1.84481 13.2233 1.11822 13.0664 0.577704 12.4893C -0.0105526 11.8612 -0.0886339 11.0518 0.0745256 10.379C 0.505809 8.60048 1.74646 7.09712 3.37036 5.8672C 4.95475 4.67532 7.14928 3.57796 9.62094 2.71922ZM 53.0214 10.2233C 52.6587 9.63676 52.0704 9.00444 51.2009 8.35344C 49.8374 7.3252 48.0545 6.43416 45.7637 5.63102C 41.1313 3.99435 35.0478 2.99502 28.2049 3C 21.3379 2.99553 15.2361 3.94407 10.6021 5.55423C 8.31133 6.34376 6.53626 7.22461 5.18164 8.25869C 4.28992 8.93408 3.69582 9.59766 3.34064 10.2233L 53.0214 10.2233Z"/>
<path id="path4_fill" fill-rule="evenodd" d="M 11.1066 0.752884C 11.5952 0.230129 12.2593 0 12.9046 0L 46.5 0C 47.3284 0 48 0.671573 48 1.5C 48 2.32843 47.3284 3 46.5 3L 13.5399 3C 13.7391 4.89736 14.1979 8.33049 15.2289 12.8147C 15.5227 14.095 14.735 15.3827 13.5666 15.7887C 7.34694 17.95 3 23.7256 3 30.5971C 3 39.1874 10.1136 46.3981 19.1879 46.3981C 21.3452 46.4051 23.1664 46.048 25.111 45.2715C 26.2003 44.8403 27.5474 45.2235 28.2051 46.2744C 32.7763 53.5816 38.4725 60.9663 45.904 67.196L 47.4647 68.5067C 48.0991 69.0394 48.1814 69.9856 47.6487 70.62C 47.1159 71.2544 46.1697 71.3368 45.5353 70.804L 43.9747 69.4933C 36.4209 63.1386 30.4911 55.5236 25.8679 48.1934C 23.7615 48.9742 21.5067 49.3914 19.1879 49.3981C 8.49332 49.3981 0 40.8806 0 30.5971C 0 22.5412 5.02565 15.7508 12.2144 13.0868C 11.0881 8.07626 10.6446 4.31618 10.4889 2.63174C 10.4277 1.96877 10.6139 1.28011 11.1066 0.752884Z"/>
<path id="path5_fill" fill-rule="evenodd" d="M 7.71689 3.267C 4.92056 4.76519 3 7.69884 3 10.8955C 3 15.7957 6.97156 19.6188 11.9046 19.6188C 12.6979 19.6211 13.3815 19.5693 13.9832 19.4088C 10.8905 13.6693 8.83318 7.79897 7.71689 3.267ZM 14.3292 20.0436C 14.3291 20.0435 14.3283 20.0419 14.327 20.0387C 14.3286 20.042 14.3293 20.0436 14.3292 20.0436ZM 14.6793 19.155C 14.6822 19.1536 14.6845 19.1525 14.6863 19.1517C 14.684 19.1528 14.6817 19.1539 14.6793 19.155ZM 11.9046 22.6188C 5.3926 22.6188 0 17.5294 0 10.8955C 0 6.1708 3.01502 2.02117 7.14773 0.210625C 7.8449 -0.094806 8.62175 -0.0696429 9.27803 0.296497C 9.91677 0.652846 10.3268 1.26536 10.4823 1.93395C 11.5553 6.55644 13.627 12.5965 16.9465 18.5762C 17.1951 19.0249 17.4033 19.6603 17.2352 20.3603C 17.0535 21.1167 16.5154 21.6143 15.9328 21.8805C 14.7528 22.4012 13.2195 22.6156 11.9046 22.6188Z"/>
<path id="path6_fill" fill-rule="evenodd" d="M 10.214 1.04983C 10.4628 1.84 10.024 2.68228 9.23381 2.93113C 5.65078 4.05952 3 7.44475 3 11.1994C 3 15.8622 6.99682 19.9227 11.9046 19.9227C 13.3164 19.9301 14.3355 19.7237 15.5057 19.2451C 16.274 18.9354 17.148 19.3072 17.4577 20.0755C 17.7674 20.8439 17.3956 21.7178 16.6273 22.0275C 15.1963 22.5975 13.6142 22.9153 11.9046 22.9227C 5.36734 22.9227 0 17.5463 0 11.1994C 0 6.04149 3.59199 1.56264 8.33266 0.0696739C 9.12283 -0.179172 9.96512 0.259658 10.214 1.04983Z"/>
<path id="path7_fill" fill-rule="evenodd" d="M 0 1.5C 0 0.671573 0.671573 0 1.5 0L 62.6272 0C 63.4556 0 64.1272 0.671573 64.1272 1.5C 64.1272 2.32843 63.4556 3 62.6272 3L 1.5 3C 0.671573 3 0 2.32843 0 1.5Z"/>
<path id="path8_fill" fill-rule="evenodd" d="M 5.26744e-06 1.49607C 0.00217738 0.667643 0.675509 -0.00216673 1.50393 5.26744e-06L 53.2756 0.135747C 54.104 0.13792 54.7738 0.811251 54.7717 1.63968C 54.7695 2.4681 54.0962 3.13791 53.2677 3.13574L 1.49607 2.99999C 0.667643 2.99782 -0.00216673 2.32449 5.26744e-06 1.49607Z"/>
</defs>
</svg>
