<svg width="39" height="37" viewBox="0 0 39 37" version="1.1" xmlns="http://www.w3.org/2000/svg" xmlns:xlink="http://www.w3.org/1999/xlink">
<title>Icon 04</title>
<desc>Created using Figma</desc>
<g id="Canvas" transform="translate(-1854 -406)">
<g id="Icon 04">
<g id="Shape (Stroke)">
<use xlink:href="#path0_fill" transform="translate(1854 406.555)" fill="#8B70D4"/>
</g>
</g>
</g>
<defs>
<path id="path0_fill" fill-rule="evenodd" d="M 19.5 2.69413L 14.6793 12.4085C 14.5333 12.7026 14.2523 12.9063 13.9274 12.9536L 3.15658 14.5195L 10.9459 22.066C 11.1832 22.2959 11.2916 22.6284 11.2355 22.9541L 9.39627 33.6206L 19.0365 28.5779C 19.3269 28.426 19.6732 28.426 19.9635 28.5779L 29.6038 33.6206L 27.7646 22.9541C 27.7084 22.6284 27.8168 22.2959 28.0542 22.066L 35.8435 14.5195L 25.0727 12.9536C 24.7477 12.9063 24.4667 12.7026 24.3208 12.4085L 19.5 2.69413ZM 19.5 0.444523L 18.6043 0L 13.1208 11.0498L 0.856154 12.8329C 0.478941 12.8878 0.165714 13.1523 0.0484905 13.515C -0.0687325 13.8777 0.0304394 14.2755 0.304207 14.5408L 9.17481 23.1348L 7.08157 35.2746C 7.01693 35.6495 7.17061 36.0286 7.47805 36.2527C 7.78549 36.4767 8.19344 36.5069 8.53054 36.3306L 19.5 30.5925L 30.4695 36.3306C 30.8066 36.5069 31.2146 36.4767 31.522 36.2527C 31.8295 36.0286 31.9831 35.6495 31.9185 35.2746L 29.8252 23.1348L 38.6959 14.5408C 38.9696 14.2755 39.0688 13.8777 38.9516 13.515C 38.8343 13.1523 38.5211 12.8878 38.1439 12.8329L 25.8792 11.0498L 20.3958 0L 19.5 0.444523Z"/>
</defs>
</svg>
