<svg width="42" height="42" viewBox="0 0 42 42" version="1.1" xmlns="http://www.w3.org/2000/svg" xmlns:xlink="http://www.w3.org/1999/xlink">
<title>Icon 09</title>
<desc>Created using Figma</desc>
<g id="Canvas" transform="translate(-1544 -2223)">
<g id="Icon 09">
<use xlink:href="#path0_fill" transform="translate(1544 2223)" fill="#D4707C"/>
</g>
</g>
<defs>
<path id="path0_fill" fill-rule="evenodd" d="M 21.2593 1C 21.2593 0.447754 20.8115 0 20.2593 0C 19.707 0 19.2593 0.447754 19.2593 1L 19.2593 2.96289L 9.40735 2.96289L 9.40735 1C 9.40735 0.447754 8.95959 0 8.40735 0C 7.8551 0 7.40735 0.447754 7.40735 1L 7.40735 2.96289L 3 2.96289C 1.34314 2.96289 0 4.30615 0 5.96289L 0 12.8518L 0 28.6296C 0 30.2864 1.34314 31.6296 3 31.6296L 19.3026 31.6296C 19.809 37.4412 24.6869 42 30.6296 42C 36.9093 42 42 36.9094 42 30.6296C 42 24.3499 36.9093 19.2593 30.6296 19.2593C 29.9602 19.2593 29.3043 19.3169 28.6666 19.428L 28.6666 12.8518L 28.6666 5.96289C 28.6666 4.30615 27.3235 2.96289 25.6666 2.96289L 21.2593 2.96289L 21.2593 1ZM 26.6666 11.8518L 26.6666 5.96289C 26.6666 5.41064 26.219 4.96289 25.6666 4.96289L 21.2593 4.96289L 21.2593 6.92603C 21.2593 7.47827 20.8115 7.92603 20.2593 7.92603C 19.707 7.92603 19.2593 7.47827 19.2593 6.92603L 19.2593 4.96289L 9.40735 4.96289L 9.40735 6.92603C 9.40735 7.47827 8.95959 7.92603 8.40735 7.92603C 7.8551 7.92603 7.40735 7.47827 7.40735 6.92603L 7.40735 4.96289L 3 4.96289C 2.44775 4.96289 2 5.41064 2 5.96289L 2 11.8518L 26.6666 11.8518ZM 2 13.8518L 26.6666 13.8518L 26.6666 19.969C 22.6393 21.4668 19.6902 25.1812 19.3026 29.6296L 3 29.6296C 2.44775 29.6296 2 29.1819 2 28.6296L 2 13.8518ZM 30.6296 40C 25.4546 40 21.2593 35.8047 21.2593 30.6296C 21.2593 25.4546 25.4546 21.2593 30.6296 21.2593C 35.8048 21.2593 40 25.4546 40 30.6296C 40 35.8047 35.8048 40 30.6296 40ZM 31.6296 24.4075C 31.6296 23.8552 31.1819 23.4075 30.6296 23.4075C 30.0774 23.4075 29.6296 23.8552 29.6296 24.4075L 29.6296 30.6296C 29.6296 30.895 29.735 31.1492 29.9225 31.3369L 33.0337 34.448C 33.4242 34.8384 34.0574 34.8384 34.4479 34.448C 34.8384 34.0574 34.8384 33.4243 34.4479 33.0337L 31.6296 30.2156L 31.6296 24.4075Z"/>
</defs>
</svg>
