<svg width="35" height="35" viewBox="0 0 35 35" version="1.1" xmlns="http://www.w3.org/2000/svg" xmlns:xlink="http://www.w3.org/1999/xlink">
<title>Icon 03</title>
<desc>Created using Figma</desc>
<g id="Canvas" transform="translate(-1553 -583)">
<g id="Icon 03">
<g id="Group">
<g id="Group">
<g id="Vector (Stroke)">
<use xlink:href="#path0_fill" transform="translate(1553 588.355)" fill="#D4707C"/>
</g>
<g id="Vector (Stroke)">
<use xlink:href="#path1_fill" transform="translate(1569.24 583.006)" fill="#D4707C"/>
</g>
</g>
</g>
</g>
</g>
<defs>
<path id="path0_fill" fill-rule="evenodd" d="M 17.2376 2.10648C 18.942 1.19811 24.2932 -1.2707 29.7923 0.815159L 29.8006 0.818344L 29.809 0.82168C 32.8854 2.05223 35.1742 6.21873 34.2235 11.8176L 34.2222 11.8249L 34.2209 11.8322C 33.7042 14.6065 32.1224 19.1402 30.0301 22.7976C 28.9767 24.6316 27.7203 26.3489 26.417 27.504C 25.0841 28.6771 23.4846 29.466 21.7488 29.1322L 21.7476 29.1319C 19.403 28.6781 18.0252 27.9814 17.2135 27.2884C 16.3885 28.0287 14.9979 28.6779 12.7337 29.1307L 12.721 29.1333L 12.7081 29.1355C 10.9786 29.4348 9.38667 28.6361 8.05656 27.4603C 6.75449 26.3016 5.49911 24.5888 4.44585 22.7614C 2.35391 19.1175 0.771872 14.6092 0.25462 11.8339C -0.807254 6.20264 1.60447 2.04637 4.6662 0.82168L 4.67454 0.818344L 4.68294 0.815159C 10.182 -1.2707 15.5332 1.19811 17.2376 2.10648ZM 5.40102 2.68183C 3.46503 3.46216 1.2842 6.50366 2.22026 11.4647L 2.22088 11.4681C 2.70395 14.0929 4.1717 18.2836 6.17934 21.7639C 7.17608 23.499 8.2332 24.955 9.38113 25.9618C 10.496 26.9473 11.4875 27.3122 12.3552 27.1668C 15.253 26.5852 15.9881 25.7713 16.1694 25.454L 16.2358 25.3377L 16.3305 25.243C 16.4895 25.084 16.7788 24.8752 17.1876 24.8752C 17.5964 24.8752 17.8857 25.084 18.0447 25.243L 18.1147 25.3131L 18.1696 25.3955C 18.3664 25.6905 19.1734 26.5964 22.1268 27.1682C 22.9909 27.3342 23.9788 26.9856 25.0957 26.0026C 26.2424 25.0014 27.2984 23.5438 28.2951 21.8027C 30.3008 18.3135 31.7681 14.1021 32.2529 11.4759C 33.0979 6.48569 30.9948 3.45609 29.0742 2.68183C 23.7633 0.672914 18.4618 3.70233 17.7355 4.11741L 17.2376 4.40191L 16.7397 4.11741C 16.0133 3.70233 10.7119 0.672908 5.40102 2.68183Z"/>
<path id="path1_fill" fill-rule="evenodd" d="M 1 0C 1.55228 0 2 0.447715 2 1L 2 8.6C 2 9.15228 1.55228 9.6 1 9.6C 0.447715 9.6 0 9.15228 0 8.6L 0 1C 0 0.447715 0.447715 0 1 0Z"/>
</defs>
</svg>
