<svg width="51" height="49" viewBox="0 0 51 49" version="1.1" xmlns="http://www.w3.org/2000/svg" xmlns:xlink="http://www.w3.org/1999/xlink">
<title>Icon 09</title>
<desc>Created using Figma</desc>
<g id="Canvas" transform="translate(-1544 -1224)">
<g id="Icon 09">
<g id="thumbs-up">
<g id="Shape (Stroke)">
<use xlink:href="#path0_fill" transform="translate(1577 1235)" fill="#8B70D4"/>
</g>
</g>
<g id="thumbs-up">
<g id="Shape (Stroke)">
<use xlink:href="#path1_fill" transform="translate(1544 1246)" fill="#8B70D4"/>
</g>
</g>
<g id="thumbs-up">
<g id="Shape (Stroke)">
<use xlink:href="#path2_fill" transform="translate(1556 1224)" fill="#8B70D4"/>
</g>
</g>
</g>
</g>
<defs>
<path id="path0_fill" fill-rule="evenodd" d="M 7.4048 0.588413C 7.56656 0.230222 7.92314 0 8.31617 0C 10.2002 0 11.7549 1.5072 11.7549 3.39998L 11.7549 5.59996L 15.3509 5.59996C 16.1132 5.59325 16.8445 5.91514 17.3505 6.48783C 17.8586 7.06292 18.0872 7.83249 17.97 8.59238L 17.9697 8.5939L 16.8482 15.7922C 16.8481 15.7926 16.8481 15.7929 16.848 15.7933C 16.6487 17.0831 15.5226 18.0112 14.2293 17.9999L 5.06458 17.9999C 5.06364 17.9999 5.06271 17.9999 5.06178 17.9999L 2.6258 17.9999C 1.19075 17.9999 0 16.8509 0 15.3999L 0 9.79994C 0 8.34898 1.19075 7.19995 2.6258 7.19995L 4.41894 7.19995L 7.4048 0.588413ZM 6.06458 8.41529L 8.90654 2.12238C 9.41194 2.34379 9.75486 2.84017 9.75486 3.39998L 9.75486 6.59996C 9.75486 7.15225 10.2026 7.59996 10.7549 7.59996L 15.3559 7.59996L 15.367 7.5999C 15.5565 7.59779 15.7331 7.67789 15.8517 7.81211C 15.9694 7.94532 16.0192 8.11875 15.9934 8.28689C 15.9935 8.28667 15.9934 8.2871 15.9934 8.28689L 14.8715 15.4876C 14.8276 15.7728 14.5702 16.0036 14.2452 16L 6.06458 15.9999L 6.06458 8.41529ZM 4.06449 9.19995L 2.6258 9.19995C 2.26503 9.19995 2 9.4836 2 9.79994L 2 15.3999C 2 15.7162 2.26503 15.9999 2.6258 15.9999L 4.06449 15.9999L 4.06449 9.19995Z"/>
<path id="path1_fill" fill-rule="evenodd" d="M 11.5202 0.588416C 11.6819 0.230223 12.0385 0 12.4315 0C 15.0731 0 17.242 2.11162 17.242 4.74998L 17.242 8.74994L 23.4259 8.74994C 24.4564 8.74019 25.4439 9.17519 26.126 9.94719C 26.8102 10.7215 27.117 11.7564 26.9596 12.7774L 26.9593 12.7789L 25.2068 24.0271C 25.2068 24.0275 25.2069 24.0268 25.2068 24.0271C 24.9392 25.761 23.4225 27.0164 21.673 26.9998L 7.36305 26.9998C 7.35894 26.9999 7.35484 26.9999 7.35072 26.9999L 3.54029 26.9999C 1.60018 26.9999 0 25.4479 0 23.4999L 0 14.75C 0 12.802 1.60018 11.25 3.54029 11.25L 6.70528 11.25L 11.5202 0.588416ZM 8.35095 24.9998L 21.6893 24.9998C 22.4703 25.0085 23.1178 24.4515 23.2301 23.7226L 24.983 12.4725C 24.983 12.4724 24.9829 12.4726 24.983 12.4725C 25.0491 12.0432 24.9211 11.604 24.6273 11.2715C 24.3326 10.938 23.8999 10.7448 23.4421 10.7499L 23.431 10.75L 16.242 10.7499C 15.6897 10.7499 15.242 10.3022 15.242 9.74994L 15.242 4.74998C 15.242 3.4496 14.3124 2.34181 13.0474 2.06594L 8.35095 12.4653L 8.35095 24.9998ZM 6.35072 13.25L 3.54029 13.25C 2.67447 13.25 2 13.9366 2 14.75L 2 23.4999C 2 24.3133 2.67447 24.9999 3.54029 24.9999L 6.35072 24.9999L 6.35072 13.25Z"/>
<path id="path2_fill" fill-rule="evenodd" d="M 6.4901 0.588408C 6.65186 0.23022 7.00844 0 7.40146 0C 9.1171 0 10.5354 1.37287 10.5354 3.09999L 10.5354 4.89997L 13.5565 4.89997C 14.259 4.89395 14.9334 5.1907 15.4003 5.71908C 15.8693 6.24989 16.0805 6.96051 15.9722 7.66239L 14.9906 13.9622C 14.9906 13.9626 14.9905 13.963 14.9905 13.9633C 14.8063 15.1546 13.7669 16.0101 12.5749 15.9999L 4.55627 15.9999C 4.55356 15.9999 4.55085 15.9999 4.54814 15.9999L 2.42259 15.9999C 1.09979 15.9999 0 14.9404 0 13.5999L 0 8.69992C 0 7.3594 1.09979 6.29993 2.42259 6.29993L 3.91066 6.29993L 6.4901 0.588408ZM 3.55627 8.29993L 2.42259 8.29993C 2.17404 8.29993 2 8.49405 2 8.69992L 2 13.5999C 2 13.8058 2.17404 13.9999 2.42259 13.9999L 3.55627 13.9999L 3.55627 8.29993ZM 5.55649 13.9999L 5.55649 7.51483L 7.97833 2.15227C 8.31552 2.34625 8.53535 2.70416 8.53535 3.09999L 8.53535 5.89997C 8.53535 6.45225 8.98307 6.89997 9.53536 6.89997L 13.5613 6.89997L 13.5724 6.89991C 13.7023 6.89846 13.8221 6.95343 13.9015 7.04337C 13.9801 7.13232 14.0125 7.24683 13.9957 7.35697C 13.9957 7.35679 13.9956 7.35716 13.9957 7.35697L 13.014 13.6576C 12.9852 13.8442 12.8146 14.0025 12.5908 14L 5.55649 13.9999Z"/>
</defs>
</svg>
