<svg width="42" height="45" viewBox="0 0 42 45" version="1.1" xmlns="http://www.w3.org/2000/svg" xmlns:xlink="http://www.w3.org/1999/xlink">
<title>Icon 12</title>
<desc>Created using Figma</desc>
<g id="Canvas" transform="translate(-1544 -2502)">
<g id="Icon 12">
<g id="Ellipse 4 (Stroke)">
<use xlink:href="#path0_fill" transform="translate(1557 2514)" fill="#8B70D4"/>
</g>
<g id="Ellipse 4.1 (Stroke)">
<use xlink:href="#path1_fill" transform="translate(1577 2502)" fill="#8B70D4"/>
</g>
<g id="Ellipse 4.2 (Stroke)">
<use xlink:href="#path1_fill" transform="translate(1544 2511)" fill="#8B70D4"/>
</g>
<g id="Ellipse 4.3 (Stroke)">
<use xlink:href="#path1_fill" transform="translate(1567 2538)" fill="#8B70D4"/>
</g>
</g>
</g>
<defs>
<path id="path0_fill" fill-rule="evenodd" d="M 9 16C 12.866 16 16 12.866 16 9C 16 5.13401 12.866 2 9 2C 5.13401 2 2 5.13401 2 9C 2 12.866 5.13401 16 9 16ZM 9 18C 13.9706 18 18 13.9706 18 9C 18 4.02944 13.9706 0 9 0C 4.02944 0 0 4.02944 0 9C 0 13.9706 4.02944 18 9 18Z"/>
<path id="path1_fill" fill-rule="evenodd" d="M 8.78087 5.89106L 6.87865 5.27337C 6.97972 4.98055 7.00664 4.82268 7 4.5C 7.00664 4.17732 6.97972 4.01945 6.87865 3.72663L 8.78087 3.10894C 8.92312 3.54699 9 4.01452 9 4.5C 9 4.98548 8.92312 5.45301 8.78087 5.89106ZM 5.89106 0.219126L 5.27337 2.12135C 4.98055 2.02027 4.82268 1.99336 4.5 2C 4.17732 1.99336 4.01945 2.02027 3.72663 2.12135L 3.10894 0.219126C 3.54699 0.0768788 4.01452 0 4.5 0C 4.98548 0 5.45301 0.0768789 5.89106 0.219126ZM 0.219126 3.10894C 0.0768789 3.54699 0 4.01452 0 4.5C 0 4.98548 0.0768788 5.453 0.219126 5.89106L 2.12135 5.27337C 2.02027 4.98055 1.99336 4.82268 2 4.5C 1.99336 4.17732 2.02027 4.01945 2.12135 3.72663L 0.219126 3.10894ZM 3.10894 8.78087L 3.72663 6.87865C 4.01945 6.97972 4.17732 7.00664 4.5 7C 4.82268 7.00664 4.98055 6.97972 5.27337 6.87865L 5.89106 8.78087C 5.45301 8.92312 4.98548 9 4.5 9C 4.01452 9 3.54699 8.92312 3.10894 8.78087Z"/>
</defs>
</svg>
