<svg width="25" height="25" viewBox="0 0 25 25" version="1.1" xmlns="http://www.w3.org/2000/svg" xmlns:xlink="http://www.w3.org/1999/xlink">
<title>icon bitcoin</title>
<desc>Created using Figma</desc>
<g id="Canvas" transform="translate(-2007 490)">
<g id="icon bitcoin">
<g id="Vector">
<use xlink:href="#path0_fill" transform="translate(2007.9 -489.558)" fill="#FFB629"/>
</g>
</g>
</g>
<defs>
<path id="path0_fill" d="M 11.95 10.9538L 10.7181 10.9538L 10.7181 8.18462L 11.95 8.18462C 12.6892 8.18462 13.182 8.24615 13.4284 8.30769C 13.7364 8.36923 13.9212 8.55385 14.0444 8.73846C 14.1676 8.92308 14.2908 9.23077 14.2908 9.47692C 14.2908 9.78462 14.2292 10.0308 14.0444 10.2154C 13.8596 10.4615 13.6748 10.5846 13.3668 10.7077C 13.0588 10.8923 12.566 10.9538 11.95 10.9538ZM 14.2908 13.2923C 14.414 13.5385 14.5372 13.7846 14.5372 14.1538C 14.5372 14.5231 14.414 14.8923 14.2292 15.1385C 13.9828 15.4462 13.7364 15.6308 13.4284 15.6923C 13.1204 15.7538 12.6892 15.8154 12.258 15.8154L 11.4573 15.8154C 11.2109 15.8154 11.0261 15.8154 10.9645 15.7538C 10.9029 15.6923 10.8413 15.6923 10.8413 15.5692C 10.8413 15.5077 10.7797 15.3231 10.7797 14.9538L 10.7797 12.4923L 12.258 12.4923C 12.874 12.4923 13.3668 12.5538 13.6748 12.6769C 13.9212 12.8615 14.106 13.0462 14.2908 13.2923ZM 12.0116 0C 5.35904 0 0 5.35385 0 12C 0 18.6462 5.35904 24 12.0116 24C 18.6642 24 24.0233 18.6462 24.0233 12C 24.0233 5.35385 18.6642 0 12.0116 0ZM 16.8779 16.0615C 16.5699 16.5538 16.0155 16.9846 15.3995 17.2308C 15.1531 17.3538 14.9068 17.4154 14.5372 17.4769L 14.5372 19.5077L 12.6276 19.5077L 12.6276 17.6615C 12.566 17.6615 12.566 17.6615 12.5044 17.6615L 11.3957 17.6615L 11.3957 19.5077L 9.48612 19.5077L 9.48612 17.6615L 6.591 17.6615L 6.591 16.1231L 7.02219 16.1231C 7.33018 16.1231 7.51498 16.1231 7.63817 16.0615C 7.76137 16 7.82297 15.9385 7.88456 15.8154C 7.94616 15.6923 7.94616 15.5077 7.94616 15.2L 7.94616 8.86154C 7.94616 8.55385 7.94616 8.30769 7.88456 8.24615C 7.82297 8.18462 7.76137 8.06154 7.63817 8C 7.51498 7.93846 7.33018 7.93846 7.02219 7.93846L 6.591 7.93846L 6.591 6.4L 9.48612 6.4L 9.48612 4.55385L 11.3957 4.55385L 11.3957 6.4L 12.6276 6.4L 12.6276 4.55385L 14.5372 4.55385L 14.5372 6.52308C 14.8452 6.58462 15.0915 6.64615 15.2763 6.70769C 15.8307 6.95385 16.2619 7.26154 16.5699 7.69231C 16.8779 8.12308 17.0011 8.61538 17.0011 9.10769C 17.0011 9.47692 16.9395 9.84615 16.7547 10.1538C 16.5699 10.4615 16.3851 10.7692 16.0771 11.0154C 15.7691 11.2615 15.3995 11.5077 14.9068 11.6308C 15.4611 11.7538 15.8307 11.9385 16.1387 12.0615C 16.5699 12.3077 16.8779 12.6154 17.1243 12.9846C 17.3707 13.4154 17.4939 13.8462 17.4939 14.3385C 17.4323 15.0154 17.2475 15.5692 16.8779 16.0615Z"/>
</defs>
</svg>
