<svg width="41" height="45" viewBox="0 0 41 45" version="1.1" xmlns="http://www.w3.org/2000/svg" xmlns:xlink="http://www.w3.org/1999/xlink">
<title>icon 01</title>
<desc>Created using Figma</desc>
<g id="Canvas" transform="translate(-1549 -404)">
<g id="icon 01">
<g id="users">
<g id="Shape (Stroke)">
<use xlink:href="#path0_fill" transform="translate(1557.36 438.429)" fill="#FAB04B"/>
</g>
<g id="Oval (Stroke)">
<use xlink:href="#path1_fill" transform="translate(1561.65 417)" fill="#FAB04B"/>
</g>
<g id="Shape (Stroke)">
<use xlink:href="#path2_fill" transform="translate(1583.82 438.614)" fill="#FAB04B"/>
</g>
<g id="Shape (Stroke)">
<use xlink:href="#path3_fill" transform="translate(1578.25 422.348)" fill="#FAB04B"/>
</g>
<g id="Shape (Stroke)">
<use xlink:href="#path2_fill" transform="matrix(-1 0 0 1 1555.18 438.614)" fill="#FAB04B"/>
</g>
<g id="Shape (Stroke)">
<use xlink:href="#path4_fill" transform="matrix(-1 0 0 1 1560.75 422.357)" fill="#FAB04B"/>
</g>
</g>
<g id="Ellipse 2.12">
<use xlink:href="#path5_fill" transform="translate(1568 404)" fill="#FAB04B"/>
</g>
<g id="Ellipse 2.13">
<use xlink:href="#path5_fill" transform="translate(1574 404)" fill="#FAB04B"/>
</g>
<g id="Ellipse 2.14">
<use xlink:href="#path6_fill" transform="translate(1562 404)" fill="#FAB04B"/>
</g>
</g>
</g>
<defs>
<path id="path0_fill" fill-rule="evenodd" d="M 0 6.71428C 0 3.0301 2.91841 0 6.57143 0L 17.7143 0C 21.3673 0 24.2857 3.0301 24.2857 6.71428L 24.2857 9.57143C 24.2857 10.1237 23.838 10.5714 23.2857 10.5714C 22.7334 10.5714 22.2857 10.1237 22.2857 9.57143L 22.2857 6.71428C 22.2857 4.08664 20.2153 2 17.7143 2L 6.57143 2C 4.07041 2 2 4.08664 2 6.71428L 2 9.57143C 2 10.1237 1.55228 10.5714 1 10.5714C 0.447715 10.5714 0 10.1237 0 9.57143L 0 6.71428Z"/>
<path id="path1_fill" fill-rule="evenodd" d="M 0 7.96429C 0 3.58121 3.49982 0 7.85135 0C 12.2029 0 15.7027 3.58121 15.7027 7.96429C 15.7027 12.3474 12.2029 15.9286 7.85135 15.9286C 3.49982 15.9286 0 12.3474 0 7.96429ZM 7.85135 2C 4.63509 2 2 4.65483 2 7.96429C 2 11.2737 4.63509 13.9286 7.85135 13.9286C 11.0676 13.9286 13.7027 11.2737 13.7027 7.96429C 13.7027 4.65483 11.0676 2 7.85135 2Z"/>
<path id="path2_fill" fill-rule="evenodd" d="M 0.0335682 0.744252C 0.17495 0.21037 0.722359 -0.107814 1.25624 0.0335682C 4.16767 0.804571 6.17661 3.48597 6.17882 6.52809L 6.17882 6.52882L 6.17882 9.38596C 6.17882 9.93824 5.7311 10.386 5.17882 10.386C 4.62653 10.386 4.17882 9.93824 4.17882 9.38596L 4.17882 6.52954C 4.17882 6.52944 4.17882 6.52933 4.17882 6.52923C 4.1771 4.36325 2.7495 2.49795 0.744252 1.96692C 0.21037 1.82554 -0.107814 1.27813 0.0335682 0.744252Z"/>
<path id="path3_fill" fill-rule="evenodd" d="M 2.03674 0.411029C 2.36205 -0.0352743 2.98758 -0.133352 3.43388 0.191966C 5.12917 1.42769 6.18974 3.44552 6.18974 5.65918C 6.18974 8.70816 4.17385 11.3954 1.25424 12.1621C 0.720066 12.3024 0.173316 11.9831 0.0330391 11.4489C -0.107238 10.9147 0.212078 10.368 0.746251 10.2277C 2.75712 9.69962 4.18974 7.83022 4.18974 5.65918C 4.18974 4.08774 3.43713 2.66927 2.2558 1.80817C 1.8095 1.48285 1.71142 0.857332 2.03674 0.411029Z"/>
<path id="path4_fill" fill-rule="evenodd" d="M 2.05083 0.408788C 2.37738 -0.0366115 3.00317 -0.132954 3.44857 0.193601C 5.13528 1.43025 6.18974 3.44279 6.18974 5.65007C 6.18974 8.69905 4.17385 11.3863 1.25424 12.153C 0.720065 12.2933 0.173316 11.974 0.0330391 11.4398C -0.107238 10.9056 0.212078 10.3589 0.746251 10.2186C 2.75712 9.69051 4.18974 7.82112 4.18974 5.65007C 4.18974 4.08319 3.44148 2.66836 2.26601 1.80653C 1.82061 1.47998 1.72427 0.854187 2.05083 0.408788Z"/>
<path id="path5_fill" d="M 3 1.5C 3 2.32843 2.32842 3 1.5 3C 0.671572 3 0 2.32843 0 1.5C 0 0.671573 0.671572 0 1.5 0C 2.32842 0 3 0.671573 3 1.5Z"/>
<path id="path6_fill" d="M 3 1.5C 3 2.32843 2.32842 3 1.5 3C 0.671572 3 0 2.32843 0 1.5C 0 0.671573 0.671572 0 1.5 0C 2.32842 0 3 0.671573 3 1.5Z"/>
</defs>
</svg>
