<svg width="46" height="50" viewBox="0 0 46 50" version="1.1" xmlns="http://www.w3.org/2000/svg" xmlns:xlink="http://www.w3.org/1999/xlink">
<title>Icon 06</title>
<desc>Created using Figma</desc>
<g id="Canvas" transform="translate(-1544 -954)">
<g id="Icon 06">
<g id="Ellipse 3 (Stroke)">
<use xlink:href="#path0_fill" transform="translate(1553.41 962.333)" fill="#D4707C"/>
</g>
<g id="Ellipse 3.1 (Stroke)">
<use xlink:href="#path0_fill" transform="translate(1573.27 962.333)" fill="#D4707C"/>
</g>
<g id="Ellipse 3.2 (Stroke)">
<use xlink:href="#path1_fill" transform="translate(1563.86 954)" fill="#D4707C"/>
</g>
<g id="Group">
<g id="Group">
<g id="Vector (Stroke)">
<use xlink:href="#path2_fill" transform="translate(1562.02 971.708)" fill="#D4707C"/>
</g>
<g id="Vector (Stroke)">
<use xlink:href="#path3_fill" transform="translate(1560.06 983.538)" fill="#D4707C"/>
</g>
</g>
</g>
<g id="Group">
<g id="Group">
<g id="Vector (Stroke)">
<use xlink:href="#path4_fill" transform="translate(1579.32 976.917)" fill="#D4707C"/>
</g>
<g id="Vector (Stroke)">
<use xlink:href="#path5_fill" transform="translate(1577.7 986.838)" fill="#D4707C"/>
</g>
</g>
</g>
<g id="Group">
<g id="Group">
<g id="Vector (Stroke)">
<use xlink:href="#path4_fill" transform="translate(1545.87 976.917)" fill="#D4707C"/>
</g>
<g id="Vector (Stroke)">
<use xlink:href="#path5_fill" transform="translate(1544.24 986.838)" fill="#D4707C"/>
</g>
</g>
</g>
</g>
</g>
<defs>
<path id="path0_fill" fill-rule="evenodd" d="M 4.18182 6.33333C 5.39365 6.33333 6.36364 5.35645 6.36364 4.16667C 6.36364 2.97689 5.39365 2 4.18182 2C 2.96998 2 2 2.97689 2 4.16667C 2 5.35645 2.96998 6.33333 4.18182 6.33333ZM 4.18182 8.33333C 6.49137 8.33333 8.36364 6.46785 8.36364 4.16667C 8.36364 1.86548 6.49137 0 4.18182 0C 1.87226 0 0 1.86548 0 4.16667C 0 6.46785 1.87226 8.33333 4.18182 8.33333Z"/>
<path id="path1_fill" fill-rule="evenodd" d="M 3.13636 4.25C 3.77081 4.25 4.27273 3.73948 4.27273 3.125C 4.27273 2.51052 3.77081 2 3.13636 2C 2.50192 2 2 2.51052 2 3.125C 2 3.73948 2.50192 4.25 3.13636 4.25ZM 3.13636 6.25C 4.86853 6.25 6.27273 4.85089 6.27273 3.125C 6.27273 1.39911 4.86853 0 3.13636 0C 1.4042 0 0 1.39911 0 3.125C 0 4.85089 1.4042 6.25 3.13636 6.25Z"/>
<path id="path2_fill" fill-rule="evenodd" d="M 5.50532 8.87046C 7.46549 8.87046 9.01064 7.30837 9.01064 5.43523C 9.01064 3.56209 7.46549 2 5.50532 2C 3.54515 2 2 3.56209 2 5.43523C 2 7.30837 3.54515 8.87046 5.50532 8.87046ZM 11.0106 5.43523C 11.0106 8.43703 8.54582 10.8705 5.50532 10.8705C 2.46481 10.8705 0 8.43703 0 5.43523C 0 2.43344 2.46481 0 5.50532 0C 8.54582 0 11.0106 2.43344 11.0106 5.43523Z"/>
<path id="path3_fill" fill-rule="evenodd" d="M 2.00777 3.82382L 2.64728 8.55113L 4.24275 9.54487C 5.41527 10.2752 6.128 11.5588 6.128 12.9401L 6.128 17.288C 6.13292 17.309 6.14519 17.357 6.17309 17.4336C 6.23976 17.6247 6.30185 17.7514 6.42864 17.9556C 6.53643 18.1329 6.64065 18.2664 6.71785 18.3479C 6.9973 18.4336 7.19663 18.4712 7.46456 18.462C 7.73248 18.4712 7.93182 18.4336 8.21127 18.3479C 8.28847 18.2664 8.39269 18.1329 8.50048 17.9556C 8.62726 17.7514 8.68935 17.6247 8.75603 17.4336C 8.78392 17.357 8.7962 17.309 8.80112 17.288L 8.80112 12.9401C 8.80112 11.5588 9.51385 10.2752 10.6864 9.54487L 12.2818 8.55113L 12.9213 3.82382C 13.0037 3.21515 12.4771 2.56138 12.0226 2.4816C 10.5631 2.225 8.90294 1.99545 7.46456 2C 6.02617 1.99545 4.36602 2.225 2.9065 2.4816C 2.45204 2.56138 1.92543 3.21515 2.00777 3.82382ZM 8.14802 18.4075C 8.14799 18.4072 8.15195 18.4038 8.15998 18.398C 8.15206 18.4049 8.14804 18.4078 8.14802 18.4075ZM 8.3698 18.2972C 8.37428 18.2957 8.37883 18.2942 8.38345 18.2927C 8.37887 18.2942 8.37432 18.2957 8.3698 18.2972ZM 6.54567 18.2927C 6.55029 18.2942 6.55484 18.2957 6.55932 18.2972C 6.55479 18.2957 6.55024 18.2942 6.54567 18.2927ZM 6.76913 18.398C 6.77716 18.4038 6.78113 18.4072 6.7811 18.4075C 6.78107 18.4078 6.77705 18.4049 6.76913 18.398ZM 0.0258254 4.09194C -0.19014 2.4955 0.973977 0.790277 2.56069 0.511727C 4.05855 0.248774 5.89136 0 7.46456 0C 9.03775 0 10.8706 0.248774 12.3684 0.511727C 13.9551 0.790277 15.1193 2.4955 14.9033 4.09194L 14.2638 8.81925C 14.1839 9.40969 13.8449 9.93377 13.3392 10.2488L 11.7437 11.2425C 11.1575 11.6077 10.8011 12.2495 10.8011 12.9401L 10.8011 17.343C 10.8011 18.2108 9.82383 19.9293 8.99803 20.196C 8.52231 20.3496 7.99343 20.462 7.46456 20.462C 6.93568 20.462 6.40681 20.3496 5.93108 20.196C 5.10528 19.9293 4.128 18.2108 4.128 17.343L 4.128 12.9401C 4.128 12.2495 3.77164 11.6077 3.18537 11.2425L 1.58991 10.2488C 1.08417 9.93377 0.745211 9.40969 0.665337 8.81925L 0.0258254 4.09194Z"/>
<path id="path4_fill" fill-rule="evenodd" d="M 4.40425 7.11716C 5.66772 7.11716 6.80851 6.03713 6.80851 4.55858C 6.80851 3.08003 5.66772 2 4.40425 2C 3.14079 2 2 3.08003 2 4.55858C 2 6.03713 3.14079 7.11716 4.40425 7.11716ZM 8.80851 4.55858C 8.80851 7.07622 6.83666 9.11716 4.40425 9.11716C 1.97185 9.11716 0 7.07622 0 4.55858C 0 2.04095 1.97185 0 4.40425 0C 6.83666 0 8.80851 2.04095 8.80851 4.55858Z"/>
<path id="path5_fill" fill-rule="evenodd" d="M 2.00075 2.68343L 2.5588 7.00818L 3.54948 7.65508C 4.6806 8.39369 5.36249 9.65335 5.36249 11.0043L 5.36249 14.1934C 5.36491 14.2058 5.37497 14.2628 5.41073 14.3662C 5.46254 14.516 5.54386 14.6914 5.64508 14.8583C 5.72602 14.9918 5.80195 15.0906 5.85948 15.1546C 5.91341 15.1633 5.96039 15.1647 6.03174 15.1617C 6.10308 15.1647 6.15006 15.1633 6.20399 15.1546C 6.26153 15.0906 6.33746 14.9918 6.41839 14.8583C 6.51961 14.6914 6.60093 14.516 6.65274 14.3662C 6.6885 14.2628 6.69856 14.2058 6.70098 14.1934L 6.70098 11.0043C 6.70098 9.65335 7.38287 8.3937 8.514 7.65508L 9.50468 7.00818L 10.0627 2.68343C 10.062 2.67916 10.0607 2.67264 10.0582 2.66385C 10.0489 2.63007 10.029 2.58411 9.99679 2.53769C 9.96951 2.4984 9.94318 2.47284 9.9262 2.45914C 8.71247 2.2232 7.26414 1.99409 6.03174 2C 4.79933 1.99409 3.351 2.2232 2.13727 2.45914C 2.12029 2.47284 2.09396 2.4984 2.06668 2.53769C 2.03444 2.58411 2.01456 2.63007 2.00524 2.66384C 2.00281 2.67264 2.00147 2.67916 2.00075 2.68343ZM 6.1301 15.2265C 6.13008 15.2262 6.1338 15.223 6.14132 15.2176C 6.13389 15.2241 6.13012 15.2268 6.1301 15.2265ZM 6.37734 15.1145C 6.38523 15.1123 6.3933 15.1102 6.40158 15.1081C 6.39322 15.1103 6.38515 15.1124 6.37734 15.1145ZM 5.6619 15.1081C 5.67017 15.1102 5.67825 15.1123 5.68613 15.1145C 5.67832 15.1124 5.67025 15.1103 5.6619 15.1081ZM 5.92215 15.2176C 5.92968 15.223 5.93339 15.2262 5.93337 15.2265C 5.93335 15.2268 5.92958 15.2241 5.92215 15.2176ZM 0.0149595 2.92209C -0.120006 1.87614 0.675372 0.706656 1.71048 0.50469C 2.97037 0.258864 4.62989 0 6.03174 0C 7.43358 0 9.0931 0.258864 10.353 0.50469C 11.3881 0.706656 12.1835 1.87614 12.0485 2.92209L 11.4882 7.26413C 11.4133 7.84444 11.0881 8.36286 10.5982 8.68278L 9.60749 9.32968C 9.04192 9.69899 8.70098 10.3288 8.70098 11.0043L 8.70098 14.2232C 8.70098 15.14 7.77819 16.8243 6.88901 17.0478C 6.61241 17.1173 6.32207 17.1617 6.03174 17.1617C 5.7414 17.1617 5.45106 17.1173 5.17446 17.0478C 4.28528 16.8244 3.36249 15.14 3.36249 14.2232L 3.36249 11.0043C 3.36249 10.3288 3.02155 9.69899 2.45598 9.32968L 1.4653 8.68278C 0.975378 8.36286 0.650122 7.84444 0.575241 7.26413L 0.0149595 2.92209Z"/>
</defs>
</svg>
