<svg width="40" height="30" viewBox="0 0 40 30" version="1.1" xmlns="http://www.w3.org/2000/svg" xmlns:xlink="http://www.w3.org/1999/xlink">
<title>Icon 05</title>
<desc>Created using Figma</desc>
<g id="Canvas" transform="translate(-1854 -500)">
<g id="Icon 05">
<g id="Shape (Stroke)">
<use xlink:href="#path0_fill" transform="translate(1854 500.139)" fill="#6EBD6B"/>
</g>
<g id="Shape (Stroke)">
<use xlink:href="#path1_fill" transform="translate(1879.73 500)" fill="#6EBD6B"/>
</g>
</g>
</g>
<defs>
<path id="path0_fill" fill-rule="evenodd" d="M 18.5259 0.0943794C 18.8773 0.258939 19.1018 0.611958 19.1018 1.00001L 19.1018 28.7228C 19.1018 29.1108 18.8773 29.4639 18.5259 29.6284C 18.1744 29.793 17.7595 29.7394 17.4615 29.4909L 8.23863 21.802L 1 21.802C 0.447715 21.802 0 21.3543 0 20.802L 0 8.9208C 0 8.36852 0.447715 7.9208 1 7.9208L 8.23864 7.9208L 17.4615 0.231922C 17.7595 -0.0165656 18.1744 -0.0701801 18.5259 0.0943794ZM 17.1018 3.13562L 9.24114 9.68889C 9.0614 9.83874 8.83481 9.9208 8.6008 9.9208L 2 9.9208L 2 19.802L 8.6008 19.802C 8.83481 19.802 9.0614 19.8841 9.24114 20.0339L 17.1018 26.5872L 17.1018 3.13562Z"/>
<path id="path1_fill" fill-rule="evenodd" d="M 7.01537 0.278366C 7.41392 -0.103966 8.04695 -0.0908202 8.42928 0.307728C 16.2185 8.42729 16.2185 21.5727 8.42928 29.6923C 8.04695 30.0908 7.41392 30.104 7.01537 29.7216C 6.61682 29.3393 6.60368 28.7063 6.98601 28.3077C 14.0329 20.962 14.0329 9.03805 6.98601 1.69227C 6.60368 1.29373 6.61682 0.660698 7.01537 0.278366ZM 0.307728 7.26854C 0.706277 6.88621 1.33931 6.89935 1.72164 7.2979C 5.80181 11.5511 5.80181 18.4292 1.72164 22.6824C 1.33931 23.081 0.706277 23.0941 0.307728 22.7118C -0.0908202 22.3295 -0.103966 21.6965 0.278366 21.2979C 3.61623 17.8185 3.61623 12.1619 0.278366 8.68245C -0.103966 8.2839 -0.0908202 7.65087 0.307728 7.26854Z"/>
</defs>
</svg>
