<svg width="115" height="115" viewBox="0 0 115 115" version="1.1" xmlns="http://www.w3.org/2000/svg" xmlns:xlink="http://www.w3.org/1999/xlink">
<title>LYC icon</title>
<desc>Created using Figma</desc>
<g id="Canvas" transform="translate(-924 -3696)">
<g id="LYC icon">
<g id="Group" filter="url(#filter0_d)">
<g id="Subtract">
<use xlink:href="#path0_fill" transform="translate(945 3712)" fill="url(#paint0_angular)"/>
</g>
</g>
<g id="Ellipse 3 (Stroke)" filter="url(#filter1_d)">
<use xlink:href="#path1_fill" transform="translate(934 3701)" fill="url(#paint1_angular)"/>
</g>
</g>
</g>
<defs>
<filter id="filter0_d" filterUnits="userSpaceOnUse" x="935" y="3707" width="85" height="91" color-interpolation-filters="sRGB">
<feFlood flood-opacity="0" result="BackgroundImageFix"/>
<feColorMatrix in="SourceAlpha" type="matrix" values="0 0 0 0 0 0 0 0 0 0 0 0 0 0 0 0 0 0 255 0"/>
<feOffset dx="0" dy="5"/>
<feGaussianBlur stdDeviation="5"/>
<feColorMatrix type="matrix" values="0 0 0 0 0 0 0 0 0 0 0 0 0 0 0 0 0 0 0.25 0"/>
<feBlend mode="normal" in2="BackgroundImageFix" result="effect1_dropShadow"/>
<feBlend mode="normal" in="SourceGraphic" in2="effect1_dropShadow" result="shape"/>
</filter>
<filter id="filter1_d" filterUnits="userSpaceOnUse" x="924" y="3696" width="115" height="115" color-interpolation-filters="sRGB">
<feFlood flood-opacity="0" result="BackgroundImageFix"/>
<feColorMatrix in="SourceAlpha" type="matrix" values="0 0 0 0 0 0 0 0 0 0 0 0 0 0 0 0 0 0 255 0"/>
<feOffset dx="0" dy="5"/>
<feGaussianBlur stdDeviation="5"/>
<feColorMatrix type="matrix" values="0 0 0 0 0 0 0 0 0 0 0 0 0 0 0 0 0 0 0.25 0"/>
<feBlend mode="normal" in2="BackgroundImageFix" result="effect1_dropShadow"/>
<feBlend mode="normal" in="SourceGraphic" in2="effect1_dropShadow" result="shape"/>
</filter>
<radialGradient id="paint0_angular" cx="0.5" cy="0.5" r="0.5" gradientUnits="userSpaceOnUse" gradientTransform="matrix(-6.57266 68.6779 -62.8741 -6.01722 70.5097 5.3307)">
<stop offset="0" stop-color="#FFD778"/>
<stop offset="0.375161" stop-color="#FCBE69"/>
<stop offset="0.540328" stop-color="#FBE368"/>
<stop offset="0.891206" stop-color="#FBBD68"/>
<stop offset="1" stop-color="#FFD778"/>
</radialGradient>
<radialGradient id="paint1_angular" cx="0.5" cy="0.5" r="0.5" gradientUnits="userSpaceOnUse" gradientTransform="matrix(5.81707e-15 95 -95 5.81707e-15 95 0)">
<stop offset="0" stop-color="#FDD678"/>
<stop offset="0.20442" stop-color="#FCCE73"/>
<stop offset="0.41989" stop-color="#FABC67"/>
<stop offset="0.552486" stop-color="#FAE267"/>
<stop offset="0.790055" stop-color="#FABC67"/>
<stop offset="0.900553" stop-color="#FABC67"/>
<stop offset="0.977901" stop-color="#FABC67"/>
</radialGradient>
<path id="path0_fill" fill-rule="evenodd" d="M 51.5693 18.6936C 51.5693 18.0347 51.6877 17.4355 51.9837 16.8962C 50.6812 15.8777 49.2602 14.9189 47.8392 14.2C 44.4644 12.4624 40.7344 11.5637 36.7083 11.5637C 34.6953 11.5637 32.8007 11.8035 30.9653 12.2229C 29.0706 12.6421 27.2944 13.3611 25.5774 14.2C 23.8604 15.0986 22.2618 16.1772 20.7816 17.4355C 19.3015 18.6936 17.9989 20.1316 16.8148 21.6895C 16.4003 22.2288 16.2227 22.8877 16.3411 23.5469C 16.4003 24.146 16.7556 24.7451 17.2885 25.1646C 17.8213 25.584 18.4726 25.7637 19.1238 25.6438C 19.7159 25.584 20.308 25.2244 20.7224 24.6853C 21.6697 23.427 22.7355 22.2886 23.9196 21.27C 25.1038 20.2515 26.4063 19.4126 27.7681 18.6936C 30.61 17.2556 33.6296 16.5366 36.7083 16.5366C 39.7279 16.5366 42.8066 17.1958 45.5894 18.6338C 46.9511 19.3528 48.2537 20.1917 49.4378 21.2102C 50.5627 22.2288 51.6285 23.3672 52.5758 24.6252C 53.3455 25.7039 53.6415 26.9021 53.4639 28.1003C 53.2863 29.2988 52.635 30.3772 51.6285 31.156C 50.5627 31.9351 49.3786 32.2346 48.1945 32.0549C 47.0103 31.875 45.9446 31.2161 45.1749 30.1975C 44.642 29.4785 44.1092 28.8794 43.4579 28.3401C 42.8066 27.8008 42.1553 27.3215 41.3857 26.9619C 40.6752 26.6025 39.9055 26.303 39.0766 26.1233C 38.2477 25.9434 37.4188 25.8237 36.5899 25.8237C 35.1097 25.8237 33.748 26.1233 32.5046 26.6624C 31.2021 27.2017 30.0771 27.9807 29.0706 28.9993C 28.0641 29.9578 27.2944 31.156 26.7615 32.4744C 26.6658 32.6196 26.6088 32.804 26.5592 32.9644L 26.5543 32.9802L 26.5247 33.0735C 26.9391 33.2532 27.2944 33.5527 27.5905 33.8523C 28.3009 34.5713 28.7154 35.53 28.7154 36.6084C 28.7154 37.687 28.3009 38.6455 27.5905 39.3645C 27.2944 39.6641 26.9391 39.9636 26.5247 40.1436C 26.5543 40.2334 26.5988 40.3384 26.6431 40.4431C 26.6875 40.5479 26.7319 40.6528 26.7615 40.7427C 27.2944 42.0608 28.0641 43.1992 29.0706 44.2178C 30.0179 45.2363 31.2021 46.0151 32.5046 46.5544C 33.748 47.0938 35.1689 47.3933 36.5899 47.3933C 37.478 47.3933 38.3069 47.2734 39.0766 47.0938C 39.9055 46.9138 40.6752 46.6143 41.3857 46.2549C 42.1553 45.8953 42.8066 45.416 43.4579 44.8767C 44.1092 44.3376 44.7012 43.6785 45.1749 43.0195C 45.9446 41.9409 47.0103 41.3418 48.1945 41.1621C 49.3786 41.0422 50.6219 41.2817 51.6285 42.0608C 52.6942 42.8396 53.2863 43.9182 53.4639 45.1165C 53.5823 46.3147 53.3455 47.573 52.5758 48.5916C 52.5166 48.6514 52.4722 48.7263 52.4278 48.8013C 52.3834 48.8762 52.339 48.9512 52.2798 49.011C 52.6942 49.6101 52.8718 50.3291 52.8718 51.0481C 52.8718 52.1265 52.4574 53.0852 51.7469 53.8042C 51.0364 54.5232 50.0891 54.9426 49.0234 54.9426C 48.076 54.9426 47.2471 54.583 46.5959 54.0439C 46.4183 54.1338 46.2554 54.2236 46.0927 54.3135C 45.9298 54.4033 45.767 54.4932 45.5894 54.583C 42.8658 55.9612 39.8463 56.6802 36.6491 56.6802C 35.1097 56.6802 33.5704 56.5005 32.0901 56.1409C 30.5508 55.7815 29.1298 55.302 27.7681 54.583C 26.4063 53.864 25.1038 53.0254 23.9196 52.0068C 22.6763 50.9883 21.6697 49.8499 20.7224 48.5916C 20.3672 48.0522 19.7751 47.7527 19.1238 47.6328C 18.4726 47.573 17.8213 47.6929 17.2885 48.1123C 16.7556 48.4717 16.4595 49.0708 16.3411 49.73C 16.2819 50.3889 16.4003 51.0481 16.8148 51.5874C 16.9002 51.6953 16.978 51.8035 17.0535 51.9087L 17.0576 51.9143C 17.1901 52.0989 17.3162 52.2747 17.4661 52.4263C 17.9989 52.1265 18.6502 51.9468 19.3015 51.9468C 20.3672 51.9468 21.3145 52.3662 22.025 53.0852C 22.7355 53.8042 23.1499 54.7629 23.1499 55.8413C 23.1499 56.3806 23.0315 56.9199 22.7947 57.3992C 23.6828 57.9983 24.6301 58.5974 25.6366 59.0769C 27.2944 59.9155 29.1298 60.5747 31.0245 61.054C 32.8599 61.4734 34.7545 61.7131 36.7083 61.7131C 40.616 61.7131 44.4052 60.7544 47.8392 58.957C 51.2733 57.1594 54.2928 54.6431 56.6019 51.4675C 57.3715 50.3889 58.4373 49.7898 59.6214 49.6101C 60.8055 49.4902 62.0489 49.73 63.0554 50.5088C 64.1212 51.2878 64.7132 52.3662 64.8909 53.5645C 65.0093 54.7629 64.7724 56.021 64.0027 57.0396C 63.8565 57.217 63.7247 57.3948 63.593 57.5725L 63.5883 57.5789L 63.5851 57.5833L 63.5835 57.5854C 63.4519 57.7629 63.3201 57.9407 63.1738 58.1182C 63.5291 58.7173 63.7067 59.4363 63.7067 60.1553C 63.7067 61.2336 63.2922 62.1924 62.5818 62.9114C 61.8713 63.6304 60.924 64.0498 59.8582 64.0498C 59.0886 64.0498 58.4373 63.8101 57.8452 63.4507C 56.0098 64.9485 53.9968 66.2068 51.9245 67.2852C 49.6154 68.4836 47.0695 69.4421 44.5236 70.0413C 41.9777 70.7004 39.3726 71 36.7083 71C 32.1494 71 27.7681 70.1013 23.742 68.4236C 19.5975 66.6262 15.8675 64.1096 12.7295 60.9341C 9.59155 57.7585 7.04565 53.9839 5.32861 49.7898C 4.14447 46.7942 3.31561 43.6785 2.96033 40.3831C 2.24988 40.2034 1.59857 39.844 1.12494 39.3645C 0.414429 38.6455 0 37.687 0 36.6084C 0 35.5898 0.414429 34.6311 1.12494 33.9124C 1.65778 33.4329 2.24988 33.0735 2.96033 32.8936C 3.31561 29.5984 4.14447 26.4229 5.32861 23.4868C 7.04565 19.2927 9.53235 15.5181 12.6703 12.3425C 15.8083 9.16699 19.5383 6.59082 23.6828 4.85327C 25.3998 4.19409 27.1168 3.59497 28.893 3.17554C 29.0114 2.39673 29.4258 1.67773 29.8995 1.13843C 30.61 0.419434 31.5573 0 32.623 0C 33.6888 0 34.636 0.419434 35.465 1.13843C 35.761 1.43799 36.0571 1.85742 36.2347 2.27686L 36.8267 2.27686C 39.491 2.27686 42.0961 2.63623 44.642 3.23535C 47.1879 3.89453 49.6746 4.79321 52.0429 5.99146C 54.352 7.18994 56.6019 8.62793 58.6149 10.3655C 60.6279 12.043 62.4633 14.0203 64.062 16.1772C 64.8316 17.2556 65.1277 18.4541 64.95 19.6523C 64.7724 20.8506 64.1212 21.9292 63.1146 22.708C 62.0489 23.4868 60.8647 23.7866 59.6806 23.6067C 58.6741 23.427 57.7268 23.0076 57.0163 22.2288C 56.5427 22.4683 56.0098 22.5881 55.4177 22.5881C 54.352 22.5881 53.4047 22.1687 52.6942 21.4497C 51.9837 20.7307 51.5693 19.7722 51.5693 18.6936ZM 55.2993 14.7991C 56.3651 14.7991 57.3123 15.2185 58.0228 15.9375C 58.7333 16.6565 59.1478 17.6152 59.2662 18.6936C 59.2662 19.4727 59.0294 20.1917 58.6741 20.7908C 59.0886 21.1501 59.5622 21.3899 60.0359 21.4497C 60.6871 21.5098 61.3384 21.3899 61.8713 20.9705C 62.4041 20.6111 62.7002 20.0117 62.8186 19.3528C 62.8778 18.6936 62.7594 18.0347 62.3449 17.4954C 60.8055 15.4583 59.1478 13.6606 57.2531 12.043C 55.3585 10.4253 53.2863 9.04736 51.0956 7.90894C 48.8458 6.77051 46.5367 5.93164 44.1092 5.33252C 41.7409 4.7334 39.2542 4.43384 36.7675 4.43384L 36.4715 4.43384C 36.3531 5.27246 35.9979 5.99146 35.4058 6.59082C 34.6953 7.30981 33.748 7.729 32.6823 7.729C 31.6165 7.729 30.6692 7.30981 29.9587 6.59082C 29.6035 6.2312 29.3074 5.81177 29.1298 5.33252C 27.5312 5.69189 25.9919 6.2312 24.5117 6.83032C 20.6632 8.448 17.17 10.8447 14.2097 13.8406C 11.2493 16.8362 8.88104 20.3713 6.98645 24.3257C 5.86151 27.0818 5.151 29.9578 4.79578 33.0134C 5.32861 33.1934 5.80231 33.4929 6.21674 33.9124C 6.92719 34.6311 7.34167 35.5898 7.34167 36.6685C 7.34167 37.7468 6.92719 38.7056 6.21674 39.4246C 5.86151 39.7839 5.32861 40.1436 4.79578 40.3232C 5.0918 43.3789 5.86151 46.3147 6.98645 49.011C 8.58502 52.9055 10.9533 56.4404 13.9136 59.4363C 16.8148 62.4321 20.308 64.8286 24.2156 66.4465C 28.0049 68.0642 32.0901 68.9028 36.4123 68.9028C 38.899 68.9028 41.3857 68.6033 43.754 68.0042C 46.1815 67.405 48.5497 66.5662 50.7404 65.4277C 52.6942 64.4092 54.4704 63.271 56.1874 61.8928C 55.9506 61.4136 55.8322 60.8145 55.8322 60.2151C 55.8322 59.1367 56.2466 58.178 56.9571 57.459C 57.6676 56.74 58.6149 56.3206 59.6806 56.3206C 60.2727 56.3206 60.8055 56.5005 61.3384 56.74L 62.0489 55.8413C 62.4634 55.302 62.641 54.6431 62.5226 53.9839C 62.4634 53.3848 62.1081 52.7856 61.5753 52.3662C 61.0424 51.9468 60.3911 51.7671 59.7398 51.887C 59.1478 51.9468 58.5557 52.3064 58.1412 52.8455C 55.5953 56.2607 52.3389 59.0168 48.6089 60.9341C 44.9381 62.8516 40.7936 63.8701 36.5899 63.8701C 34.4584 63.8701 32.3862 63.6304 30.3732 63.1511C 28.3601 62.6716 26.3471 61.9526 24.5117 60.9941C 23.3868 60.395 22.321 59.7358 21.2553 59.0168C 20.6632 59.4363 19.9528 59.676 19.183 59.676C 18.1173 59.676 17.17 59.2566 16.4595 58.5376C 15.749 57.8186 15.3346 56.8599 15.3346 55.7815C 15.3346 55.1223 15.5122 54.4634 15.8083 53.9241L 15.8062 53.9216L 15.8038 53.9187C 15.5092 53.5608 15.215 53.2034 14.9794 52.8455C 14.2097 51.7671 13.9136 50.5688 14.0912 49.3704C 14.2689 48.1721 14.9202 47.0938 15.9267 46.3147C 16.9924 45.5359 18.1765 45.2363 19.3607 45.416C 20.5448 45.5957 21.6105 46.2549 22.3802 47.2734C 23.2091 48.4119 24.1564 49.4304 25.2222 50.3291C 26.2287 51.2278 27.4128 51.9468 28.6562 52.606C 29.8995 53.2051 31.1429 53.6843 32.5046 53.9839C 33.8072 54.2834 35.1689 54.4634 36.5899 54.4634C 39.4318 54.4634 42.1553 53.8042 44.5828 52.606C 44.762 52.5337 44.9194 52.439 45.0682 52.3494L 45.0711 52.3477L 45.0734 52.3462L 45.0757 52.3447C 45.1702 52.2876 45.2614 52.2327 45.3525 52.1865C 45.2341 51.8269 45.1749 51.4077 45.1749 50.9883C 45.1749 49.9097 45.5894 48.9512 46.2999 48.2322C 47.0103 47.5132 47.9576 47.0938 49.0234 47.0938C 49.6154 47.0938 50.1483 47.2734 50.6812 47.5132L 50.8588 47.2734C 51.2733 46.7341 51.4509 46.0752 51.3325 45.416C 51.2733 44.8169 50.918 44.2178 50.3851 43.7983C 49.8523 43.3789 49.201 43.1992 48.5497 43.3191C 47.9576 43.4387 47.3656 43.7383 46.9511 44.1577C 46.3591 44.9966 45.7078 45.7156 44.9381 46.3748C 44.1684 47.0337 43.3395 47.6328 42.4514 48.0522C 41.5633 48.4717 40.616 48.8313 39.6686 49.0708C 38.7214 49.3105 37.7148 49.4304 36.7083 49.4304C 34.9913 49.4304 33.3335 49.1309 31.8533 48.4717C 30.2548 47.8127 28.893 46.854 27.7089 45.6558C 26.5247 44.4573 25.5774 43.0193 24.9261 41.4617C 24.7485 41.1021 24.6301 40.7427 24.5117 40.3831C 23.6828 40.2632 22.9131 39.9038 22.321 39.3047C 21.6105 38.5857 21.1961 37.627 21.1961 36.5486C 21.1961 35.47 21.6105 34.5115 22.321 33.7925C 22.9131 33.2532 23.6828 32.8337 24.5117 32.7139C 24.5704 32.5354 24.6439 32.3572 24.7173 32.1787L 24.7188 32.175C 24.7928 31.9951 24.8669 31.8152 24.9261 31.6355C 25.5774 30.0178 26.5247 28.6396 27.7089 27.4414C 28.893 26.2429 30.314 25.2844 31.8533 24.6252C 33.3335 24.0261 34.9913 23.6667 36.7083 23.6667C 37.7148 23.6667 38.7214 23.7864 39.6686 24.0261C 40.616 24.2659 41.5633 24.6252 42.4514 25.0447C 43.3395 25.5242 44.1684 26.0632 44.9381 26.7224C 45.6486 27.3813 46.3591 28.1003 46.9511 28.9392C 47.3063 29.4785 47.8984 29.7781 48.5497 29.8979C 49.201 29.9578 49.8523 29.8379 50.3851 29.4185C 50.918 29.0591 51.2141 28.46 51.3325 27.8008C 51.3917 27.1418 51.2733 26.4827 50.8588 25.9434C 50.0299 24.8052 49.0826 23.7864 48.0168 22.8877C 46.9511 21.989 45.8262 21.2102 44.5828 20.6111C 42.0961 19.2927 39.3726 18.6936 36.6491 18.6936C 33.9256 18.6936 31.2021 19.3528 28.7154 20.6111C 27.472 21.2102 26.3471 21.989 25.2814 22.8877C 24.2156 23.7864 23.2683 24.8052 22.4395 25.9434C 21.6697 27.022 20.604 27.6211 19.4199 27.8008C 18.2357 27.9207 16.9924 27.6809 15.9859 26.9021C 14.9202 26.1233 14.3281 25.0447 14.1505 23.8464C 14.032 22.6482 14.2689 21.3899 15.0386 20.3713C 16.2819 18.6936 17.7621 17.136 19.3607 15.7578C 20.9593 14.3796 22.6763 13.2415 24.5709 12.2827C 26.4063 11.324 28.3601 10.605 30.4324 10.1257C 32.4454 9.64648 34.5176 9.40674 36.6491 9.40674C 40.9712 9.40674 45.0565 10.4253 48.7274 12.2827C 50.3851 13.1216 51.9245 14.1401 53.4047 15.3384C 53.9376 14.979 54.5888 14.7991 55.2993 14.7991ZM 32.7775 5.76221C 33.882 5.76221 34.7775 4.8667 34.7775 3.76221C 34.7775 2.65771 33.882 1.76221 32.7775 1.76221C 31.6729 1.76221 30.7775 2.65771 30.7775 3.76221C 30.7775 4.8667 31.6729 5.76221 32.7775 5.76221ZM 57.4083 18.7834C 57.4083 19.8879 56.5128 20.7834 55.4083 20.7834C 54.3037 20.7834 53.4083 19.8879 53.4083 18.7834C 53.4083 17.679 54.3037 16.7834 55.4083 16.7834C 56.5128 16.7834 57.4083 17.679 57.4083 18.7834ZM 24.9696 38.5C 26.0742 38.5 26.9696 37.6045 26.9696 36.5C 26.9696 35.3955 26.0742 34.5 24.9696 34.5C 23.8651 34.5 22.9696 35.3955 22.9696 36.5C 22.9696 37.6045 23.8651 38.5 24.9696 38.5ZM 51.0321 51.0266C 51.0321 52.1311 50.1367 53.0266 49.0321 53.0266C 47.9276 53.0266 47.0321 52.1311 47.0321 51.0266C 47.0321 49.9221 47.9276 49.0266 49.0321 49.0266C 50.1367 49.0266 51.0321 49.9221 51.0321 51.0266ZM 59.7428 62.2434C 60.8474 62.2434 61.7428 61.3479 61.7428 60.2434C 61.7428 59.1389 60.8474 58.2434 59.7428 58.2434C 58.6382 58.2434 57.7428 59.1389 57.7428 60.2434C 57.7428 61.3479 58.6382 62.2434 59.7428 62.2434ZM 5.59576 36.6611C 5.59576 37.7656 4.70032 38.6611 3.59576 38.6611C 2.49121 38.6611 1.59576 37.7656 1.59576 36.6611C 1.59576 35.5566 2.49121 34.6611 3.59576 34.6611C 4.70032 34.6611 5.59576 35.5566 5.59576 36.6611ZM 19.1885 57.8757C 20.293 57.8757 21.1885 56.9802 21.1885 55.8757C 21.1885 54.7712 20.293 53.8757 19.1885 53.8757C 18.0839 53.8757 17.1885 54.7712 17.1885 55.8757C 17.1885 56.9802 18.0839 57.8757 19.1885 57.8757Z"/>
<path id="path1_fill" fill-rule="evenodd" d="M 47.5 90C 70.9721 90 90 70.9721 90 47.5C 90 24.0279 70.9721 5 47.5 5C 24.0279 5 5 24.0279 5 47.5C 5 70.9721 24.0279 90 47.5 90ZM 47.5 95C 73.7335 95 95 73.7335 95 47.5C 95 21.2665 73.7335 0 47.5 0C 21.2665 0 0 21.2665 0 47.5C 0 73.7335 21.2665 95 47.5 95Z"/>
</defs>
</svg>
