<svg width="488" height="249" viewBox="0 0 488 249" version="1.1" xmlns="http://www.w3.org/2000/svg" xmlns:xlink="http://www.w3.org/1999/xlink">
<title>Graph MarketSize (curves)</title>
<desc>Created using Figma</desc>
<g id="Canvas" transform="translate(-934 -2290)">
<g id="Graph MarketSize (curves)">
<g id="Group 2">
<g id="2014">
<use xlink:href="#path0_fill" transform="translate(940.854 2529.55)" fill="#FFFFFF"/>
<use xlink:href="#path1_fill" transform="translate(940.854 2529.55)" fill="#FFFFFF"/>
<use xlink:href="#path2_fill" transform="translate(940.854 2529.55)" fill="#FFFFFF"/>
<use xlink:href="#path3_fill" transform="translate(940.854 2529.55)" fill="#FFFFFF"/>
</g>
<g id="Group 2">
<g id="Rectangle 2">
<use xlink:href="#path4_fill" transform="translate(934 2429.83)" fill="#D4707C"/>
</g>
<g id="34.81">
<use xlink:href="#path5_fill" transform="matrix(6.12323e-17 -1 1 6.12323e-17 947.688 2484.52)" fill="#FFFFFF"/>
<use xlink:href="#path6_fill" transform="matrix(6.12323e-17 -1 1 6.12323e-17 947.688 2484.52)" fill="#FFFFFF"/>
<use xlink:href="#path7_fill" transform="matrix(6.12323e-17 -1 1 6.12323e-17 947.688 2484.52)" fill="#FFFFFF"/>
<use xlink:href="#path8_fill" transform="matrix(6.12323e-17 -1 1 6.12323e-17 947.688 2484.52)" fill="#FFFFFF"/>
<use xlink:href="#path9_fill" transform="matrix(6.12323e-17 -1 1 6.12323e-17 947.688 2484.52)" fill="#FFFFFF"/>
</g>
</g>
</g>
<g id="Group 2">
<g id="2015">
<use xlink:href="#path10_fill" transform="translate(1015.71 2529.55)" fill="#FFFFFF"/>
<use xlink:href="#path11_fill" transform="translate(1015.71 2529.55)" fill="#FFFFFF"/>
<use xlink:href="#path12_fill" transform="translate(1015.71 2529.55)" fill="#FFFFFF"/>
<use xlink:href="#path13_fill" transform="translate(1015.71 2529.55)" fill="#FFFFFF"/>
</g>
<g id="Rectangle 2.2">
<use xlink:href="#path14_fill" transform="translate(1009 2406.07)" fill="#D4707C"/>
</g>
<g id="37.91">
<use xlink:href="#path15_fill" transform="matrix(6.12323e-17 -1 1 6.12323e-17 1023.69 2458.06)" fill="#FFFFFF"/>
<use xlink:href="#path16_fill" transform="matrix(6.12323e-17 -1 1 6.12323e-17 1023.69 2458.06)" fill="#FFFFFF"/>
<use xlink:href="#path17_fill" transform="matrix(6.12323e-17 -1 1 6.12323e-17 1023.69 2458.06)" fill="#FFFFFF"/>
<use xlink:href="#path18_fill" transform="matrix(6.12323e-17 -1 1 6.12323e-17 1023.69 2458.06)" fill="#FFFFFF"/>
<use xlink:href="#path19_fill" transform="matrix(6.12323e-17 -1 1 6.12323e-17 1023.69 2458.06)" fill="#FFFFFF"/>
</g>
</g>
<g id="Group 2">
<g id="2016">
<use xlink:href="#path20_fill" transform="translate(1089.58 2529.55)" fill="#FFFFFF"/>
<use xlink:href="#path21_fill" transform="translate(1089.58 2529.55)" fill="#FFFFFF"/>
<use xlink:href="#path22_fill" transform="translate(1089.58 2529.55)" fill="#FFFFFF"/>
<use xlink:href="#path23_fill" transform="translate(1089.58 2529.55)" fill="#FFFFFF"/>
</g>
<g id="Rectangle 2.3">
<use xlink:href="#path24_fill" transform="translate(1083 2385.05)" fill="#D4707C"/>
</g>
<g id="41.77">
<use xlink:href="#path25_fill" transform="matrix(6.12323e-17 -1 1 6.12323e-17 1097.8 2438.09)" fill="#FFFFFF"/>
<use xlink:href="#path26_fill" transform="matrix(6.12323e-17 -1 1 6.12323e-17 1097.8 2438.09)" fill="#FFFFFF"/>
<use xlink:href="#path27_fill" transform="matrix(6.12323e-17 -1 1 6.12323e-17 1097.8 2438.09)" fill="#FFFFFF"/>
<use xlink:href="#path28_fill" transform="matrix(6.12323e-17 -1 1 6.12323e-17 1097.8 2438.09)" fill="#FFFFFF"/>
<use xlink:href="#path29_fill" transform="matrix(6.12323e-17 -1 1 6.12323e-17 1097.8 2438.09)" fill="#FFFFFF"/>
</g>
</g>
<g id="Group 2">
<g id="2017">
<use xlink:href="#path30_fill" transform="translate(1164.99 2529.55)" fill="#FFFFFF"/>
<use xlink:href="#path31_fill" transform="translate(1164.99 2529.55)" fill="#FFFFFF"/>
<use xlink:href="#path32_fill" transform="translate(1164.99 2529.55)" fill="#FFFFFF"/>
<use xlink:href="#path33_fill" transform="translate(1164.99 2529.55)" fill="#FFFFFF"/>
</g>
<g id="Rectangle 2.4">
<use xlink:href="#path34_fill" transform="translate(1158 2365.86)" fill="#D4707C"/>
</g>
<g id="47.11">
<use xlink:href="#path35_fill" transform="matrix(6.12323e-17 -1 1 6.12323e-17 1172.8 2412.3)" fill="#FFFFFF"/>
<use xlink:href="#path36_fill" transform="matrix(6.12323e-17 -1 1 6.12323e-17 1172.8 2412.3)" fill="#FFFFFF"/>
<use xlink:href="#path37_fill" transform="matrix(6.12323e-17 -1 1 6.12323e-17 1172.8 2412.3)" fill="#FFFFFF"/>
<use xlink:href="#path38_fill" transform="matrix(6.12323e-17 -1 1 6.12323e-17 1172.8 2412.3)" fill="#FFFFFF"/>
<use xlink:href="#path39_fill" transform="matrix(6.12323e-17 -1 1 6.12323e-17 1172.8 2412.3)" fill="#FFFFFF"/>
</g>
</g>
<g id="Group 2">
<g id="2018">
<use xlink:href="#path40_fill" transform="translate(1239.58 2529.55)" fill="#FFFFFF"/>
<use xlink:href="#path41_fill" transform="translate(1239.58 2529.55)" fill="#FFFFFF"/>
<use xlink:href="#path42_fill" transform="translate(1239.58 2529.55)" fill="#FFFFFF"/>
<use xlink:href="#path43_fill" transform="translate(1239.58 2529.55)" fill="#FFFFFF"/>
</g>
<g id="Rectangle 2.5">
<use xlink:href="#path44_fill" transform="translate(1233 2342.09)" fill="#D4707C"/>
</g>
<g id="51.96">
<use xlink:href="#path45_fill" transform="matrix(6.12323e-17 -1 1 6.12323e-17 1248.69 2394.04)" fill="#FFFFFF"/>
<use xlink:href="#path46_fill" transform="matrix(6.12323e-17 -1 1 6.12323e-17 1248.69 2394.04)" fill="#FFFFFF"/>
<use xlink:href="#path47_fill" transform="matrix(6.12323e-17 -1 1 6.12323e-17 1248.69 2394.04)" fill="#FFFFFF"/>
<use xlink:href="#path48_fill" transform="matrix(6.12323e-17 -1 1 6.12323e-17 1248.69 2394.04)" fill="#FFFFFF"/>
<use xlink:href="#path49_fill" transform="matrix(6.12323e-17 -1 1 6.12323e-17 1248.69 2394.04)" fill="#FFFFFF"/>
</g>
</g>
<g id="Group 2">
<g id="2019">
<use xlink:href="#path50_fill" transform="translate(1313.6 2529.55)" fill="#FFFFFF"/>
<use xlink:href="#path51_fill" transform="translate(1313.6 2529.55)" fill="#FFFFFF"/>
<use xlink:href="#path52_fill" transform="translate(1313.6 2529.55)" fill="#FFFFFF"/>
<use xlink:href="#path53_fill" transform="translate(1313.6 2529.55)" fill="#FFFFFF"/>
</g>
<g id="Rectangle 2.6">
<use xlink:href="#path54_fill" transform="translate(1307 2315.59)" fill="#D4707C"/>
</g>
<g id="55.19">
<use xlink:href="#path55_fill" transform="matrix(6.12323e-17 -1 1 6.12323e-17 1321.69 2368.97)" fill="#FFFFFF"/>
<use xlink:href="#path56_fill" transform="matrix(6.12323e-17 -1 1 6.12323e-17 1321.69 2368.97)" fill="#FFFFFF"/>
<use xlink:href="#path57_fill" transform="matrix(6.12323e-17 -1 1 6.12323e-17 1321.69 2368.97)" fill="#FFFFFF"/>
<use xlink:href="#path58_fill" transform="matrix(6.12323e-17 -1 1 6.12323e-17 1321.69 2368.97)" fill="#FFFFFF"/>
<use xlink:href="#path59_fill" transform="matrix(6.12323e-17 -1 1 6.12323e-17 1321.69 2368.97)" fill="#FFFFFF"/>
</g>
</g>
<g id="Group 2">
<g id="2020">
<use xlink:href="#path60_fill" transform="translate(1386.88 2529.55)" fill="#FFFFFF"/>
<use xlink:href="#path61_fill" transform="translate(1386.88 2529.55)" fill="#FFFFFF"/>
<use xlink:href="#path62_fill" transform="translate(1386.88 2529.55)" fill="#FFFFFF"/>
<use xlink:href="#path63_fill" transform="translate(1386.88 2529.55)" fill="#FFFFFF"/>
</g>
<g id="Rectangle 2.7">
<use xlink:href="#path64_fill" transform="translate(1382 2290)" fill="#D4707C"/>
</g>
<g id="59.79">
<use xlink:href="#path65_fill" transform="matrix(6.12323e-17 -1 1 6.12323e-17 1396.69 2347.54)" fill="#FFFFFF"/>
<use xlink:href="#path66_fill" transform="matrix(6.12323e-17 -1 1 6.12323e-17 1396.69 2347.54)" fill="#FFFFFF"/>
<use xlink:href="#path67_fill" transform="matrix(6.12323e-17 -1 1 6.12323e-17 1396.69 2347.54)" fill="#FFFFFF"/>
<use xlink:href="#path68_fill" transform="matrix(6.12323e-17 -1 1 6.12323e-17 1396.69 2347.54)" fill="#FFFFFF"/>
<use xlink:href="#path69_fill" transform="matrix(6.12323e-17 -1 1 6.12323e-17 1396.69 2347.54)" fill="#FFFFFF"/>
</g>
</g>
</g>
</g>
<defs>
<path id="path0_fill" d="M 6.18 7.404L 6.18 8.448L 0.108 8.448L 0.108 7.56L 3.36 4.188C 3.712 3.836 3.992 3.488 4.2 3.144C 4.408 2.792 4.512 2.488 4.512 2.232C 4.512 1.856 4.364 1.56 4.068 1.344C 3.78 1.128 3.38 1.02 2.868 1.02C 2.476 1.02 2.068 1.112 1.644 1.296C 1.22 1.472 0.836 1.72 0.492 2.04L 0 1.164C 0.456 0.796 0.94 0.512 1.452 0.312C 1.972 0.104 2.492 0 3.012 0C 3.828 0 4.48 0.188 4.968 0.564C 5.464 0.94 5.712 1.444 5.712 2.076C 5.712 2.82 5.192 3.732 4.152 4.812L 1.62 7.404L 6.18 7.404Z"/>
<path id="path1_fill" d="M 10.9335 0C 12.0615 0 12.9295 0.368 13.5375 1.104C 14.1455 1.832 14.4495 2.88 14.4495 4.248C 14.4495 5.616 14.1455 6.668 13.5375 7.404C 12.9295 8.14 12.0615 8.508 10.9335 8.508C 9.7975 8.508 8.9255 8.14 8.3175 7.404C 7.7175 6.668 7.4175 5.616 7.4175 4.248C 7.4175 2.88 7.7175 1.832 8.3175 1.104C 8.9255 0.368 9.7975 0 10.9335 0ZM 10.9335 0.912C 9.3815 0.912 8.6055 2.024 8.6055 4.248C 8.6055 5.352 8.8015 6.184 9.1935 6.744C 9.5855 7.304 10.1655 7.584 10.9335 7.584C 11.7015 7.584 12.2815 7.304 12.6735 6.744C 13.0655 6.184 13.2615 5.352 13.2615 4.248C 13.2615 2.024 12.4855 0.912 10.9335 0.912Z"/>
<path id="path2_fill" d="M 15.1928 0.0480001L 18.2528 0.0480001L 18.2528 8.448L 17.1007 8.448L 17.1007 1.092L 15.1928 1.092L 15.1928 0.0480001Z"/>
<path id="path3_fill" d="M 26.2824 5.256L 26.2824 6.288L 24.9864 6.288L 24.9864 8.448L 23.9064 8.448L 23.9064 6.288L 19.7424 6.288L 19.7424 5.4L 22.7424 0.0480001L 23.8704 0.0480001L 20.9904 5.256L 23.9064 5.256L 23.9064 3.108L 24.9864 3.108L 24.9864 5.256L 26.2824 5.256Z"/>
<path id="path4_fill" d="M 0 0L 40 0L 40 83.168L 0 83.168L 0 0Z"/>
<path id="path5_fill" d="M 5.568 4.736C 6.54933 4.864 7.328 5.19467 7.904 5.728C 8.49067 6.26133 8.784 6.95467 8.784 7.808C 8.784 8.512 8.59733 9.14133 8.224 9.696C 7.86133 10.24 7.33867 10.6667 6.656 10.976C 5.984 11.2747 5.19467 11.424 4.288 11.424C 3.50933 11.424 2.73067 11.3067 1.952 11.072C 1.184 10.8267 0.533333 10.5067 0 10.112L 0.976 8.24C 1.43467 8.624 1.93067 8.91733 2.464 9.12C 2.99733 9.32267 3.54133 9.424 4.096 9.424C 4.8 9.424 5.344 9.28533 5.728 9.008C 6.112 8.72 6.304 8.32533 6.304 7.824C 6.304 7.32267 6.112 6.944 5.728 6.688C 5.344 6.42133 4.79467 6.288 4.08 6.288L 2.272 6.288L 2.272 4.848L 5.072 2.144L 0.576 2.144L 0.56 0.0960007L 8.224 0.0960007L 8.224 1.616L 4.992 4.656L 5.568 4.736Z"/>
<path id="path6_fill" d="M 18.5385 6.752L 18.5385 8.784L 17.0025 8.784L 17.0025 11.312L 14.6825 11.312L 14.6825 8.784L 9.4665 8.784L 9.4665 7.008L 12.8905 0.112L 15.2905 0.112L 12.0745 6.752L 14.6825 6.752L 14.6825 4.272L 17.0025 4.272L 17.0025 6.752L 18.5385 6.752Z"/>
<path id="path7_fill" d="M 20.9151 8.912C 21.2778 8.912 21.5711 9.02933 21.7951 9.264C 22.0298 9.49867 22.1471 9.80267 22.1471 10.176C 22.1471 10.5493 22.0298 10.8587 21.7951 11.104C 21.5711 11.3387 21.2778 11.456 20.9151 11.456C 20.5631 11.456 20.2698 11.3333 20.0351 11.088C 19.8005 10.8427 19.6831 10.5387 19.6831 10.176C 19.6831 9.80267 19.8005 9.49867 20.0351 9.264C 20.2698 9.02933 20.5631 8.912 20.9151 8.912Z"/>
<path id="path8_fill" d="M 27.7367 0C 28.9314 0 29.8754 0.272 30.5688 0.816C 31.2621 1.34933 31.6087 2.07467 31.6087 2.992C 31.6087 3.48267 31.4754 3.936 31.2087 4.352C 30.9528 4.75733 30.6007 5.08267 30.1528 5.328C 30.7821 5.57333 31.2781 5.94667 31.6408 6.448C 32.0034 6.94933 32.1847 7.52 32.1847 8.16C 32.1847 8.82133 32.0034 9.39733 31.6408 9.888C 31.2781 10.3787 30.7608 10.7573 30.0888 11.024C 29.4274 11.2907 28.6488 11.424 27.7528 11.424C 26.8674 11.424 26.0887 11.296 25.4167 11.04C 24.7554 10.7733 24.2434 10.4 23.8808 9.92C 23.5181 9.42933 23.3368 8.85867 23.3368 8.208C 23.3368 7.568 23.5288 6.992 23.9128 6.48C 24.2968 5.95733 24.8194 5.57333 25.4808 5.328C 24.9901 5.06133 24.6007 4.71467 24.3127 4.288C 24.0354 3.86133 23.8967 3.39733 23.8967 2.896C 23.8967 2.01067 24.2434 1.30667 24.9368 0.784C 25.6301 0.261333 26.5634 0 27.7367 0ZM 27.7528 1.744C 27.1981 1.744 26.7661 1.86667 26.4568 2.112C 26.1581 2.34667 26.0088 2.68267 26.0088 3.12C 26.0088 3.54667 26.1581 3.88267 26.4568 4.128C 26.7661 4.36267 27.1981 4.48 27.7528 4.48C 28.3074 4.48 28.7341 4.36267 29.0327 4.128C 29.3421 3.89333 29.4967 3.55733 29.4967 3.12C 29.4967 2.68267 29.3421 2.34667 29.0327 2.112C 28.7341 1.86667 28.3074 1.744 27.7528 1.744ZM 27.7528 6.384C 27.1021 6.384 26.5954 6.51733 26.2327 6.784C 25.8807 7.05067 25.7048 7.43467 25.7048 7.936C 25.7048 8.43733 25.8807 8.82667 26.2327 9.104C 26.5954 9.38133 27.1021 9.52 27.7528 9.52C 28.4034 9.52 28.9101 9.38667 29.2728 9.12C 29.6354 8.84267 29.8167 8.45333 29.8167 7.952C 29.8167 7.45067 29.6354 7.06667 29.2728 6.8C 28.9101 6.52267 28.4034 6.384 27.7528 6.384Z"/>
<path id="path9_fill" d="M 32.8061 0.112L 37.5901 0.112L 37.5901 11.312L 35.0621 11.312L 35.0621 2.256L 32.8061 2.256L 32.8061 0.112Z"/>
<path id="path10_fill" d="M 6.18 7.404L 6.18 8.448L 0.108 8.448L 0.108 7.56L 3.36 4.188C 3.712 3.836 3.992 3.488 4.2 3.144C 4.408 2.792 4.512 2.488 4.512 2.232C 4.512 1.856 4.364 1.56 4.068 1.344C 3.78 1.128 3.38 1.02 2.868 1.02C 2.476 1.02 2.068 1.112 1.644 1.296C 1.22 1.472 0.836 1.72 0.492 2.04L 0 1.164C 0.456 0.796 0.94 0.512 1.452 0.312C 1.972 0.104 2.492 0 3.012 0C 3.828 0 4.48 0.188 4.968 0.564C 5.464 0.94 5.712 1.444 5.712 2.076C 5.712 2.82 5.192 3.732 4.152 4.812L 1.62 7.404L 6.18 7.404Z"/>
<path id="path11_fill" d="M 10.9335 0C 12.0615 0 12.9295 0.368 13.5375 1.104C 14.1455 1.832 14.4495 2.88 14.4495 4.248C 14.4495 5.616 14.1455 6.668 13.5375 7.404C 12.9295 8.14 12.0615 8.508 10.9335 8.508C 9.7975 8.508 8.9255 8.14 8.3175 7.404C 7.7175 6.668 7.4175 5.616 7.4175 4.248C 7.4175 2.88 7.7175 1.832 8.3175 1.104C 8.9255 0.368 9.7975 0 10.9335 0ZM 10.9335 0.912C 9.3815 0.912 8.6055 2.024 8.6055 4.248C 8.6055 5.352 8.8015 6.184 9.1935 6.744C 9.5855 7.304 10.1655 7.584 10.9335 7.584C 11.7015 7.584 12.2815 7.304 12.6735 6.744C 13.0655 6.184 13.2615 5.352 13.2615 4.248C 13.2615 2.024 12.4855 0.912 10.9335 0.912Z"/>
<path id="path12_fill" d="M 15.1928 0.0480001L 18.2528 0.0480001L 18.2528 8.448L 17.1007 8.448L 17.1007 1.092L 15.1928 1.092L 15.1928 0.0480001Z"/>
<path id="path13_fill" d="M 23.3544 3.18C 23.9704 3.18 24.5104 3.288 24.9744 3.504C 25.4464 3.72 25.8064 4.02 26.0544 4.404C 26.3104 4.788 26.4384 5.22 26.4384 5.7C 26.4384 6.26 26.3064 6.752 26.0424 7.176C 25.7864 7.6 25.4184 7.928 24.9384 8.16C 24.4584 8.392 23.9024 8.508 23.2704 8.508C 22.7744 8.508 22.2504 8.424 21.6984 8.256C 21.1544 8.08 20.6664 7.848 20.2344 7.56L 20.7024 6.636C 21.0624 6.908 21.4584 7.116 21.8904 7.26C 22.3224 7.404 22.7464 7.476 23.1624 7.476C 23.7944 7.476 24.2944 7.324 24.6624 7.02C 25.0304 6.716 25.2144 6.304 25.2144 5.784C 25.2144 5.296 25.0304 4.916 24.6624 4.644C 24.2944 4.364 23.7704 4.224 23.0904 4.224C 22.8424 4.224 22.4824 4.24 22.0104 4.272C 21.5384 4.304 21.1584 4.344 20.8704 4.392L 20.8704 0.0480001L 26.0904 0.0480001L 26.0904 1.092L 21.9504 1.092L 21.9504 3.228C 22.3264 3.196 22.7944 3.18 23.3544 3.18Z"/>
<path id="path14_fill" d="M 0 0L 40 0L 40 106.93L 0 106.93L 0 0Z"/>
<path id="path15_fill" d="M 5.568 4.736C 6.54933 4.864 7.328 5.19467 7.904 5.728C 8.49067 6.26133 8.784 6.95467 8.784 7.808C 8.784 8.512 8.59733 9.14133 8.224 9.696C 7.86133 10.24 7.33867 10.6667 6.656 10.976C 5.984 11.2747 5.19467 11.424 4.288 11.424C 3.50933 11.424 2.73067 11.3067 1.952 11.072C 1.184 10.8267 0.533333 10.5067 0 10.112L 0.976 8.24C 1.43467 8.624 1.93067 8.91733 2.464 9.12C 2.99733 9.32267 3.54133 9.424 4.096 9.424C 4.8 9.424 5.344 9.28533 5.728 9.008C 6.112 8.72 6.304 8.32533 6.304 7.824C 6.304 7.32267 6.112 6.944 5.728 6.688C 5.344 6.42133 4.79467 6.288 4.08 6.288L 2.272 6.288L 2.272 4.848L 5.072 2.144L 0.576 2.144L 0.56 0.0960007L 8.224 0.0960007L 8.224 1.616L 4.992 4.656L 5.568 4.736Z"/>
<path id="path16_fill" d="M 9.5785 0.112L 18.3625 0.112L 18.3625 1.92L 13.9465 11.312L 11.2745 11.312L 15.5305 2.224L 11.8345 2.224L 11.8185 3.792L 9.5785 3.792L 9.5785 0.112Z"/>
<path id="path17_fill" d="M 20.0245 8.912C 20.3872 8.912 20.6805 9.02933 20.9045 9.264C 21.1392 9.49867 21.2565 9.80267 21.2565 10.176C 21.2565 10.5493 21.1392 10.8587 20.9045 11.104C 20.6805 11.3387 20.3872 11.456 20.0245 11.456C 19.6725 11.456 19.3792 11.3333 19.1445 11.088C 18.9098 10.8427 18.7925 10.5387 18.7925 10.176C 18.7925 9.80267 18.9098 9.49867 19.1445 9.264C 19.3792 9.02933 19.6725 8.912 20.0245 8.912Z"/>
<path id="path18_fill" d="M 23.6621 8.72C 23.9928 8.95467 24.3608 9.136 24.7661 9.264C 25.1821 9.38133 25.6035 9.44 26.0301 9.44C 26.9581 9.44 27.6568 9.14667 28.1261 8.56C 28.5955 7.96267 28.8195 7.136 28.7981 6.08C 28.2115 6.98667 27.2835 7.44 26.0141 7.44C 24.9261 7.44 24.0621 7.10933 23.4221 6.448C 22.7821 5.78667 22.4621 4.90667 22.4621 3.808C 22.4621 3.04 22.6275 2.368 22.9581 1.792C 23.2888 1.216 23.7581 0.773334 24.3661 0.464001C 24.9741 0.154667 25.6835 0 26.4941 0C 27.4541 0 28.2861 0.224 28.9901 0.672C 29.6941 1.10933 30.2328 1.744 30.6061 2.576C 30.9795 3.39733 31.1661 4.37333 31.1661 5.504C 31.1661 6.688 30.9635 7.728 30.5581 8.624C 30.1528 9.52 29.5715 10.2133 28.8141 10.704C 28.0568 11.184 27.1768 11.424 26.1741 11.424C 25.5875 11.424 24.9795 11.344 24.3501 11.184C 23.7208 11.0133 23.1768 10.7893 22.7181 10.512L 23.6621 8.72ZM 26.6061 2.048C 26.0301 2.048 25.5768 2.20267 25.2461 2.512C 24.9155 2.82133 24.7501 3.25867 24.7501 3.824C 24.7501 4.35733 24.9101 4.77867 25.2301 5.088C 25.5501 5.39733 25.9875 5.552 26.5421 5.552C 27.1501 5.552 27.6248 5.38667 27.9661 5.056C 28.3181 4.71467 28.4941 4.288 28.4941 3.776C 28.4941 3.296 28.3341 2.89067 28.0141 2.56C 27.6941 2.21867 27.2248 2.048 26.6061 2.048Z"/>
<path id="path19_fill" d="M 31.8843 0.112L 36.6683 0.112L 36.6683 11.312L 34.1403 11.312L 34.1403 2.256L 31.8843 2.256L 31.8843 0.112Z"/>
<path id="path20_fill" d="M 6.18 7.404L 6.18 8.448L 0.108 8.448L 0.108 7.56L 3.36 4.188C 3.712 3.836 3.992 3.488 4.2 3.144C 4.408 2.792 4.512 2.488 4.512 2.232C 4.512 1.856 4.364 1.56 4.068 1.344C 3.78 1.128 3.38 1.02 2.868 1.02C 2.476 1.02 2.068 1.112 1.644 1.296C 1.22 1.472 0.836 1.72 0.492 2.04L 0 1.164C 0.456 0.796 0.94 0.512 1.452 0.312C 1.972 0.104 2.492 0 3.012 0C 3.828 0 4.48 0.188 4.968 0.564C 5.464 0.94 5.712 1.444 5.712 2.076C 5.712 2.82 5.192 3.732 4.152 4.812L 1.62 7.404L 6.18 7.404Z"/>
<path id="path21_fill" d="M 10.9335 0C 12.0615 0 12.9295 0.368 13.5375 1.104C 14.1455 1.832 14.4495 2.88 14.4495 4.248C 14.4495 5.616 14.1455 6.668 13.5375 7.404C 12.9295 8.14 12.0615 8.508 10.9335 8.508C 9.7975 8.508 8.9255 8.14 8.3175 7.404C 7.7175 6.668 7.4175 5.616 7.4175 4.248C 7.4175 2.88 7.7175 1.832 8.3175 1.104C 8.9255 0.368 9.7975 0 10.9335 0ZM 10.9335 0.912C 9.3815 0.912 8.6055 2.024 8.6055 4.248C 8.6055 5.352 8.8015 6.184 9.1935 6.744C 9.5855 7.304 10.1655 7.584 10.9335 7.584C 11.7015 7.584 12.2815 7.304 12.6735 6.744C 13.0655 6.184 13.2615 5.352 13.2615 4.248C 13.2615 2.024 12.4855 0.912 10.9335 0.912Z"/>
<path id="path22_fill" d="M 15.1928 0.0480001L 18.2528 0.0480001L 18.2528 8.448L 17.1007 8.448L 17.1007 1.092L 15.1928 1.092L 15.1928 0.0480001Z"/>
<path id="path23_fill" d="M 25.8264 1.488C 25.5624 1.32 25.2584 1.192 24.9144 1.104C 24.5784 1.008 24.2464 0.96 23.9184 0.96C 23.1104 0.96 22.4904 1.24 22.0584 1.8C 21.6264 2.36 21.4104 3.128 21.4104 4.104C 21.4104 4.256 21.4144 4.372 21.4224 4.452C 21.6304 3.996 21.9424 3.648 22.3584 3.408C 22.7744 3.168 23.2744 3.048 23.8584 3.048C 24.6984 3.048 25.3584 3.288 25.8384 3.768C 26.3264 4.248 26.5704 4.896 26.5704 5.712C 26.5704 6.28 26.4504 6.776 26.2104 7.2C 25.9704 7.616 25.6304 7.94 25.1904 8.172C 24.7504 8.396 24.2384 8.508 23.6544 8.508C 22.9584 8.508 22.3544 8.348 21.8424 8.028C 21.3384 7.708 20.9504 7.244 20.6784 6.636C 20.4144 6.02 20.2824 5.284 20.2824 4.428C 20.2824 3.54 20.4264 2.764 20.7144 2.1C 21.0104 1.428 21.4224 0.912 21.9504 0.552C 22.4864 0.184 23.1144 0 23.8344 0C 24.2344 0 24.6544 0.0560002 25.0944 0.168C 25.5424 0.28 25.9384 0.428 26.2824 0.612L 25.8264 1.488ZM 23.6544 3.972C 23.2464 3.972 22.8904 4.056 22.5864 4.224C 22.2824 4.384 22.0464 4.6 21.8784 4.872C 21.7184 5.144 21.6424 5.44 21.6504 5.76C 21.6424 6.04 21.7104 6.312 21.8544 6.576C 21.9984 6.84 22.2144 7.06 22.5024 7.236C 22.7984 7.412 23.1584 7.5 23.5824 7.5C 24.1584 7.5 24.6184 7.34 24.9624 7.02C 25.3144 6.7 25.4904 6.26 25.4904 5.7C 25.4904 5.172 25.3224 4.752 24.9864 4.44C 24.6584 4.128 24.2144 3.972 23.6544 3.972Z"/>
<path id="path24_fill" d="M 0 0L 40 0L 40 127.951L 0 127.951L 0 0Z"/>
<path id="path25_fill" d="M 9.072 6.64L 9.072 8.672L 7.536 8.672L 7.536 11.2L 5.216 11.2L 5.216 8.672L 0 8.672L 0 6.896L 3.424 0L 5.824 0L 2.608 6.64L 5.216 6.64L 5.216 4.16L 7.536 4.16L 7.536 6.64L 9.072 6.64Z"/>
<path id="path26_fill" d="M 9.46462 0L 14.2486 0L 14.2486 11.2L 11.7206 11.2L 11.7206 2.144L 9.46462 2.144L 9.46462 0Z"/>
<path id="path27_fill" d="M 17.7299 8.8C 18.0925 8.8 18.3859 8.91733 18.6099 9.152C 18.8445 9.38667 18.9619 9.69067 18.9619 10.064C 18.9619 10.4373 18.8445 10.7467 18.6099 10.992C 18.3859 11.2267 18.0925 11.344 17.7299 11.344C 17.3779 11.344 17.0845 11.2213 16.8499 10.976C 16.6152 10.7307 16.4979 10.4267 16.4979 10.064C 16.4979 9.69067 16.6152 9.38667 16.8499 9.152C 17.0845 8.91733 17.3779 8.8 17.7299 8.8Z"/>
<path id="path28_fill" d="M 19.7995 0L 28.5835 0L 28.5835 1.808L 24.1675 11.2L 21.4955 11.2L 25.7515 2.112L 22.0555 2.112L 22.0395 3.68L 19.7995 3.68L 19.7995 0Z"/>
<path id="path29_fill" d="M 29.112 0L 37.896 0L 37.896 1.808L 33.48 11.2L 30.808 11.2L 35.064 2.112L 31.368 2.112L 31.352 3.68L 29.112 3.68L 29.112 0Z"/>
<path id="path30_fill" d="M 6.18 7.404L 6.18 8.448L 0.108 8.448L 0.108 7.56L 3.36 4.188C 3.712 3.836 3.992 3.488 4.2 3.144C 4.408 2.792 4.512 2.488 4.512 2.232C 4.512 1.856 4.364 1.56 4.068 1.344C 3.78 1.128 3.38 1.02 2.868 1.02C 2.476 1.02 2.068 1.112 1.644 1.296C 1.22 1.472 0.836 1.72 0.492 2.04L 0 1.164C 0.456 0.796 0.94 0.512 1.452 0.312C 1.972 0.104 2.492 0 3.012 0C 3.828 0 4.48 0.188 4.968 0.564C 5.464 0.94 5.712 1.444 5.712 2.076C 5.712 2.82 5.192 3.732 4.152 4.812L 1.62 7.404L 6.18 7.404Z"/>
<path id="path31_fill" d="M 10.9335 0C 12.0615 0 12.9295 0.368 13.5375 1.104C 14.1455 1.832 14.4495 2.88 14.4495 4.248C 14.4495 5.616 14.1455 6.668 13.5375 7.404C 12.9295 8.14 12.0615 8.508 10.9335 8.508C 9.7975 8.508 8.9255 8.14 8.3175 7.404C 7.7175 6.668 7.4175 5.616 7.4175 4.248C 7.4175 2.88 7.7175 1.832 8.3175 1.104C 8.9255 0.368 9.7975 0 10.9335 0ZM 10.9335 0.912C 9.3815 0.912 8.6055 2.024 8.6055 4.248C 8.6055 5.352 8.8015 6.184 9.1935 6.744C 9.5855 7.304 10.1655 7.584 10.9335 7.584C 11.7015 7.584 12.2815 7.304 12.6735 6.744C 13.0655 6.184 13.2615 5.352 13.2615 4.248C 13.2615 2.024 12.4855 0.912 10.9335 0.912Z"/>
<path id="path32_fill" d="M 15.1928 0.0480001L 18.2528 0.0480001L 18.2528 8.448L 17.1007 8.448L 17.1007 1.092L 15.1928 1.092L 15.1928 0.0480001Z"/>
<path id="path33_fill" d="M 19.7184 0.0480001L 26.0064 0.0480001L 26.0064 0.948L 22.3464 8.448L 21.1224 8.448L 24.7104 1.092L 20.7624 1.092L 20.7504 2.304L 19.7184 2.304L 19.7184 0.0480001Z"/>
<path id="path34_fill" d="M 0 0L 40 0L 40 147.143L 0 147.143L 0 0Z"/>
<path id="path35_fill" d="M 9.072 6.64L 9.072 8.672L 7.536 8.672L 7.536 11.2L 5.216 11.2L 5.216 8.672L 0 8.672L 0 6.896L 3.424 0L 5.824 0L 2.608 6.64L 5.216 6.64L 5.216 4.16L 7.536 4.16L 7.536 6.64L 9.072 6.64Z"/>
<path id="path36_fill" d="M 9.75262 0L 18.5366 0L 18.5366 1.808L 14.1206 11.2L 11.4486 11.2L 15.7046 2.112L 12.0086 2.112L 11.9926 3.68L 9.75262 3.68L 9.75262 0Z"/>
<path id="path37_fill" d="M 20.1986 8.8C 20.5613 8.8 20.8546 8.91733 21.0786 9.152C 21.3133 9.38667 21.4306 9.69067 21.4306 10.064C 21.4306 10.4373 21.3133 10.7467 21.0786 10.992C 20.8546 11.2267 20.5613 11.344 20.1986 11.344C 19.8466 11.344 19.5533 11.2213 19.3186 10.976C 19.084 10.7307 18.9666 10.4267 18.9666 10.064C 18.9666 9.69067 19.084 9.38667 19.3186 9.152C 19.5533 8.91733 19.8466 8.8 20.1986 8.8Z"/>
<path id="path38_fill" d="M 21.9803 0L 26.7643 0L 26.7643 11.2L 24.2363 11.2L 24.2363 2.144L 21.9803 2.144L 21.9803 0Z"/>
<path id="path39_fill" d="M 28.2615 0L 33.0455 0L 33.0455 11.2L 30.5175 11.2L 30.5175 2.144L 28.2615 2.144L 28.2615 0Z"/>
<path id="path40_fill" d="M 6.18 7.404L 6.18 8.448L 0.108 8.448L 0.108 7.56L 3.36 4.188C 3.712 3.836 3.992 3.488 4.2 3.144C 4.408 2.792 4.512 2.488 4.512 2.232C 4.512 1.856 4.364 1.56 4.068 1.344C 3.78 1.128 3.38 1.02 2.868 1.02C 2.476 1.02 2.068 1.112 1.644 1.296C 1.22 1.472 0.836 1.72 0.492 2.04L 0 1.164C 0.456 0.796 0.94 0.512 1.452 0.312C 1.972 0.104 2.492 0 3.012 0C 3.828 0 4.48 0.188 4.968 0.564C 5.464 0.94 5.712 1.444 5.712 2.076C 5.712 2.82 5.192 3.732 4.152 4.812L 1.62 7.404L 6.18 7.404Z"/>
<path id="path41_fill" d="M 10.9335 0C 12.0615 0 12.9295 0.368 13.5375 1.104C 14.1455 1.832 14.4495 2.88 14.4495 4.248C 14.4495 5.616 14.1455 6.668 13.5375 7.404C 12.9295 8.14 12.0615 8.508 10.9335 8.508C 9.7975 8.508 8.9255 8.14 8.3175 7.404C 7.7175 6.668 7.4175 5.616 7.4175 4.248C 7.4175 2.88 7.7175 1.832 8.3175 1.104C 8.9255 0.368 9.7975 0 10.9335 0ZM 10.9335 0.912C 9.3815 0.912 8.6055 2.024 8.6055 4.248C 8.6055 5.352 8.8015 6.184 9.1935 6.744C 9.5855 7.304 10.1655 7.584 10.9335 7.584C 11.7015 7.584 12.2815 7.304 12.6735 6.744C 13.0655 6.184 13.2615 5.352 13.2615 4.248C 13.2615 2.024 12.4855 0.912 10.9335 0.912Z"/>
<path id="path42_fill" d="M 15.1928 0.0480001L 18.2528 0.0480001L 18.2528 8.448L 17.1007 8.448L 17.1007 1.092L 15.1928 1.092L 15.1928 0.0480001Z"/>
<path id="path43_fill" d="M 23.3784 0C 24.2264 0 24.8944 0.192 25.3824 0.576C 25.8704 0.952 26.1144 1.472 26.1144 2.136C 26.1144 2.552 25.9984 2.92 25.7664 3.24C 25.5424 3.552 25.2264 3.792 24.8184 3.96C 25.3544 4.128 25.7744 4.4 26.0784 4.776C 26.3824 5.144 26.5344 5.584 26.5344 6.096C 26.5344 6.84 26.2504 7.428 25.6824 7.86C 25.1224 8.292 24.3584 8.508 23.3904 8.508C 22.4224 8.508 21.6544 8.296 21.0864 7.872C 20.5264 7.44 20.2464 6.856 20.2464 6.12C 20.2464 5.6 20.4024 5.152 20.7144 4.776C 21.0264 4.4 21.4584 4.128 22.0104 3.96C 21.5784 3.776 21.2424 3.528 21.0024 3.216C 20.7704 2.896 20.6544 2.524 20.6544 2.1C 20.6544 1.452 20.8984 0.94 21.3864 0.564C 21.8744 0.188 22.5384 0 23.3784 0ZM 23.3904 0.84C 22.8384 0.84 22.4064 0.96 22.0944 1.2C 21.7904 1.44 21.6384 1.772 21.6384 2.196C 21.6384 2.628 21.7904 2.964 22.0944 3.204C 22.4064 3.444 22.8384 3.564 23.3904 3.564C 23.9424 3.564 24.3704 3.444 24.6744 3.204C 24.9784 2.964 25.1304 2.628 25.1304 2.196C 25.1304 1.772 24.9784 1.44 24.6744 1.2C 24.3704 0.96 23.9424 0.84 23.3904 0.84ZM 23.3784 4.476C 22.7384 4.476 22.2384 4.612 21.8784 4.884C 21.5184 5.148 21.3384 5.516 21.3384 5.988C 21.3384 6.492 21.5184 6.884 21.8784 7.164C 22.2384 7.444 22.7424 7.584 23.3904 7.584C 24.0304 7.584 24.5304 7.444 24.8904 7.164C 25.2584 6.884 25.4424 6.496 25.4424 6C 25.4424 5.528 25.2584 5.156 24.8904 4.884C 24.5304 4.612 24.0264 4.476 23.3784 4.476Z"/>
<path id="path44_fill" d="M 0 0L 40 0L 40 170.906L 0 170.906L 0 0Z"/>
<path id="path45_fill" d="M 4.528 4.192C 5.38133 4.192 6.13333 4.336 6.784 4.624C 7.43467 4.912 7.936 5.312 8.288 5.824C 8.64 6.336 8.816 6.92267 8.816 7.584C 8.816 8.352 8.62933 9.02933 8.256 9.616C 7.89333 10.192 7.37067 10.64 6.688 10.96C 6.016 11.2693 5.232 11.424 4.336 11.424C 3.61067 11.424 2.85333 11.3013 2.064 11.056C 1.28533 10.8 0.597333 10.4693 0 10.064L 0.976 8.176C 1.44533 8.56 1.94667 8.85867 2.48 9.072C 3.01333 9.28533 3.54133 9.392 4.064 9.392C 4.69333 9.392 5.18933 9.248 5.552 8.96C 5.91467 8.66133 6.096 8.26133 6.096 7.76C 6.096 7.26933 5.91467 6.896 5.552 6.64C 5.2 6.37333 4.672 6.24 3.968 6.24C 3.57333 6.24 3.05067 6.25067 2.4 6.272C 1.76 6.28267 1.27467 6.304 0.944 6.336L 0.944 0.112L 8.304 0.112L 8.304 2.224L 3.28 2.224L 3.28 4.192L 4.528 4.192Z"/>
<path id="path46_fill" d="M 9.29675 0.112L 14.0808 0.112L 14.0808 11.312L 11.5528 11.312L 11.5528 2.256L 9.29675 2.256L 9.29675 0.112Z"/>
<path id="path47_fill" d="M 17.562 8.912C 17.9247 8.912 18.218 9.02933 18.442 9.264C 18.6767 9.49867 18.794 9.80267 18.794 10.176C 18.794 10.5493 18.6767 10.8587 18.442 11.104C 18.218 11.3387 17.9247 11.456 17.562 11.456C 17.21 11.456 16.9167 11.3333 16.682 11.088C 16.4473 10.8427 16.33 10.5387 16.33 10.176C 16.33 9.80267 16.4473 9.49867 16.682 9.264C 16.9167 9.02933 17.21 8.912 17.562 8.912Z"/>
<path id="path48_fill" d="M 21.1996 8.72C 21.5303 8.95467 21.8983 9.136 22.3036 9.264C 22.7196 9.38133 23.141 9.44 23.5676 9.44C 24.4956 9.44 25.1943 9.14667 25.6636 8.56C 26.133 7.96267 26.357 7.136 26.3356 6.08C 25.749 6.98667 24.821 7.44 23.5516 7.44C 22.4636 7.44 21.5996 7.10933 20.9596 6.448C 20.3196 5.78667 19.9996 4.90667 19.9996 3.808C 19.9996 3.04 20.165 2.368 20.4956 1.792C 20.8263 1.216 21.2956 0.773334 21.9036 0.464001C 22.5116 0.154667 23.221 0 24.0316 0C 24.9916 0 25.8236 0.224 26.5276 0.672C 27.2316 1.10933 27.7703 1.744 28.1436 2.576C 28.517 3.39733 28.7036 4.37333 28.7036 5.504C 28.7036 6.688 28.501 7.728 28.0956 8.624C 27.6903 9.52 27.109 10.2133 26.3516 10.704C 25.5943 11.184 24.7143 11.424 23.7116 11.424C 23.125 11.424 22.517 11.344 21.8876 11.184C 21.2583 11.0133 20.7143 10.7893 20.2556 10.512L 21.1996 8.72ZM 24.1436 2.048C 23.5676 2.048 23.1143 2.20267 22.7836 2.512C 22.453 2.82133 22.2876 3.25867 22.2876 3.824C 22.2876 4.35733 22.4476 4.77867 22.7676 5.088C 23.0876 5.39733 23.525 5.552 24.0796 5.552C 24.6876 5.552 25.1623 5.38667 25.5036 5.056C 25.8556 4.71467 26.0316 4.288 26.0316 3.776C 26.0316 3.296 25.8716 2.89067 25.5516 2.56C 25.2316 2.21867 24.7623 2.048 24.1436 2.048Z"/>
<path id="path49_fill" d="M 37.6457 2.688C 37.3151 2.464 36.9417 2.29333 36.5257 2.176C 36.1204 2.048 35.7044 1.984 35.2777 1.984C 34.3391 1.984 33.6351 2.28267 33.1657 2.88C 32.6964 3.46667 32.4724 4.28267 32.4937 5.328C 32.7817 4.89067 33.1604 4.56 33.6297 4.336C 34.0991 4.10133 34.6484 3.984 35.2777 3.984C 36.3764 3.984 37.2457 4.31467 37.8857 4.976C 38.5364 5.62667 38.8617 6.50133 38.8617 7.6C 38.8617 8.37867 38.6911 9.056 38.3498 9.632C 38.0191 10.208 37.5497 10.6507 36.9417 10.96C 36.3337 11.2693 35.6244 11.424 34.8137 11.424C 33.8431 11.424 33.0058 11.2053 32.3018 10.768C 31.5978 10.32 31.0591 9.68533 30.6858 8.864C 30.3124 8.032 30.1257 7.04533 30.1257 5.904C 30.1257 4.72 30.3284 3.68533 30.7338 2.8C 31.1498 1.904 31.7311 1.216 32.4777 0.736C 33.2351 0.245334 34.1151 0 35.1177 0C 35.7151 0 36.3284 0.0799999 36.9577 0.240001C 37.5977 0.400001 38.1471 0.618667 38.6057 0.896L 37.6457 2.688ZM 34.7657 5.856C 34.1577 5.856 33.6777 6.02667 33.3257 6.368C 32.9737 6.69867 32.8031 7.12 32.8137 7.632C 32.8031 8.112 32.9577 8.52267 33.2777 8.864C 33.6084 9.19467 34.0831 9.36 34.7017 9.36C 35.2777 9.36 35.7311 9.20533 36.0617 8.896C 36.4031 8.58667 36.5737 8.14933 36.5737 7.584C 36.5737 7.05067 36.4138 6.62933 36.0938 6.32C 35.7737 6.01067 35.3311 5.856 34.7657 5.856Z"/>
<path id="path50_fill" d="M 6.18 7.404L 6.18 8.448L 0.108 8.448L 0.108 7.56L 3.36 4.188C 3.712 3.836 3.992 3.488 4.2 3.144C 4.408 2.792 4.512 2.488 4.512 2.232C 4.512 1.856 4.364 1.56 4.068 1.344C 3.78 1.128 3.38 1.02 2.868 1.02C 2.476 1.02 2.068 1.112 1.644 1.296C 1.22 1.472 0.836 1.72 0.492 2.04L 0 1.164C 0.456 0.796 0.94 0.512 1.452 0.312C 1.972 0.104 2.492 0 3.012 0C 3.828 0 4.48 0.188 4.968 0.564C 5.464 0.94 5.712 1.444 5.712 2.076C 5.712 2.82 5.192 3.732 4.152 4.812L 1.62 7.404L 6.18 7.404Z"/>
<path id="path51_fill" d="M 10.9335 0C 12.0615 0 12.9295 0.368 13.5375 1.104C 14.1455 1.832 14.4495 2.88 14.4495 4.248C 14.4495 5.616 14.1455 6.668 13.5375 7.404C 12.9295 8.14 12.0615 8.508 10.9335 8.508C 9.7975 8.508 8.9255 8.14 8.3175 7.404C 7.7175 6.668 7.4175 5.616 7.4175 4.248C 7.4175 2.88 7.7175 1.832 8.3175 1.104C 8.9255 0.368 9.7975 0 10.9335 0ZM 10.9335 0.912C 9.3815 0.912 8.6055 2.024 8.6055 4.248C 8.6055 5.352 8.8015 6.184 9.1935 6.744C 9.5855 7.304 10.1655 7.584 10.9335 7.584C 11.7015 7.584 12.2815 7.304 12.6735 6.744C 13.0655 6.184 13.2615 5.352 13.2615 4.248C 13.2615 2.024 12.4855 0.912 10.9335 0.912Z"/>
<path id="path52_fill" d="M 15.1928 0.0480001L 18.2528 0.0480001L 18.2528 8.448L 17.1007 8.448L 17.1007 1.092L 15.1928 1.092L 15.1928 0.0480001Z"/>
<path id="path53_fill" d="M 20.9784 7.008C 21.2504 7.176 21.5504 7.308 21.8784 7.404C 22.2144 7.492 22.5464 7.536 22.8744 7.536C 23.6744 7.536 24.2864 7.256 24.7104 6.696C 25.1424 6.128 25.3584 5.356 25.3584 4.38C 25.3584 4.228 25.3544 4.112 25.3464 4.032C 25.1464 4.496 24.8384 4.848 24.4224 5.088C 24.0144 5.328 23.5184 5.448 22.9344 5.448C 22.1024 5.448 21.4464 5.208 20.9664 4.728C 20.4864 4.248 20.2464 3.6 20.2464 2.784C 20.2464 2.216 20.3664 1.724 20.6064 1.308C 20.8464 0.884 21.1824 0.56 21.6144 0.336C 22.0544 0.112 22.5624 0 23.1384 0C 23.8264 0 24.4224 0.16 24.9264 0.48C 25.4304 0.8 25.8144 1.264 26.0784 1.872C 26.3504 2.48 26.4864 3.208 26.4864 4.056C 26.4864 4.944 26.3424 5.724 26.0544 6.396C 25.7664 7.068 25.3544 7.588 24.8184 7.956C 24.2824 8.324 23.6584 8.508 22.9464 8.508C 22.5544 8.508 22.1384 8.452 21.6984 8.34C 21.2584 8.22 20.8664 8.068 20.5224 7.884L 20.9784 7.008ZM 23.2104 0.996C 22.6424 0.996 22.1864 1.156 21.8424 1.476C 21.4984 1.796 21.3264 2.236 21.3264 2.796C 21.3264 3.324 21.4904 3.744 21.8184 4.056C 22.1464 4.368 22.5864 4.524 23.1384 4.524C 23.5464 4.524 23.8984 4.444 24.1944 4.284C 24.4984 4.116 24.7304 3.896 24.8904 3.624C 25.0504 3.344 25.1304 3.044 25.1304 2.724C 25.1304 2.452 25.0584 2.184 24.9144 1.92C 24.7784 1.648 24.5664 1.428 24.2784 1.26C 23.9904 1.084 23.6344 0.996 23.2104 0.996Z"/>
<path id="path54_fill" d="M 0 0L 40 0L 40 197.41L 0 197.41L 0 0Z"/>
<path id="path55_fill" d="M 4.528 4.192C 5.38133 4.192 6.13333 4.336 6.784 4.624C 7.43467 4.912 7.936 5.312 8.288 5.824C 8.64 6.336 8.816 6.92267 8.816 7.584C 8.816 8.352 8.62933 9.02933 8.256 9.616C 7.89333 10.192 7.37067 10.64 6.688 10.96C 6.016 11.2693 5.232 11.424 4.336 11.424C 3.61067 11.424 2.85333 11.3013 2.064 11.056C 1.28533 10.8 0.597333 10.4693 0 10.064L 0.976 8.176C 1.44533 8.56 1.94667 8.85867 2.48 9.072C 3.01333 9.28533 3.54133 9.392 4.064 9.392C 4.69333 9.392 5.18933 9.248 5.552 8.96C 5.91467 8.66133 6.096 8.26133 6.096 7.76C 6.096 7.26933 5.91467 6.896 5.552 6.64C 5.2 6.37333 4.672 6.24 3.968 6.24C 3.57333 6.24 3.05067 6.25067 2.4 6.272C 1.76 6.28267 1.27467 6.304 0.944 6.336L 0.944 0.112L 8.304 0.112L 8.304 2.224L 3.28 2.224L 3.28 4.192L 4.528 4.192Z"/>
<path id="path56_fill" d="M 14.4967 4.192C 15.3501 4.192 16.1021 4.336 16.7528 4.624C 17.4034 4.912 17.9048 5.312 18.2568 5.824C 18.6088 6.336 18.7847 6.92267 18.7847 7.584C 18.7847 8.352 18.5981 9.02933 18.2248 9.616C 17.8621 10.192 17.3394 10.64 16.6568 10.96C 15.9848 11.2693 15.2008 11.424 14.3048 11.424C 13.5794 11.424 12.8221 11.3013 12.0328 11.056C 11.2541 10.8 10.5661 10.4693 9.96875 10.064L 10.9447 8.176C 11.4141 8.56 11.9154 8.85867 12.4488 9.072C 12.9821 9.28533 13.5101 9.392 14.0328 9.392C 14.6621 9.392 15.1581 9.248 15.5208 8.96C 15.8834 8.66133 16.0648 8.26133 16.0648 7.76C 16.0648 7.26933 15.8834 6.896 15.5208 6.64C 15.1688 6.37333 14.6408 6.24 13.9368 6.24C 13.5421 6.24 13.0194 6.25067 12.3687 6.272C 11.7287 6.28267 11.2434 6.304 10.9128 6.336L 10.9128 0.112L 18.2728 0.112L 18.2728 2.224L 13.2488 2.224L 13.2488 4.192L 14.4967 4.192Z"/>
<path id="path57_fill" d="M 21.2495 8.912C 21.6122 8.912 21.9055 9.02933 22.1295 9.264C 22.3642 9.49867 22.4815 9.80267 22.4815 10.176C 22.4815 10.5493 22.3642 10.8587 22.1295 11.104C 21.9055 11.3387 21.6122 11.456 21.2495 11.456C 20.8975 11.456 20.6042 11.3333 20.3695 11.088C 20.1348 10.8427 20.0175 10.5387 20.0175 10.176C 20.0175 9.80267 20.1348 9.49867 20.3695 9.264C 20.6042 9.02933 20.8975 8.912 21.2495 8.912Z"/>
<path id="path58_fill" d="M 23.0311 0.112L 27.8151 0.112L 27.8151 11.312L 25.2871 11.312L 25.2871 2.256L 23.0311 2.256L 23.0311 0.112Z"/>
<path id="path59_fill" d="M 31.1684 8.72C 31.499 8.95467 31.867 9.136 32.2724 9.264C 32.6884 9.38133 33.1097 9.44 33.5364 9.44C 34.4644 9.44 35.163 9.14667 35.6324 8.56C 36.1017 7.96267 36.3257 7.136 36.3044 6.08C 35.7177 6.98667 34.7897 7.44 33.5204 7.44C 32.4324 7.44 31.5684 7.10933 30.9284 6.448C 30.2884 5.78667 29.9684 4.90667 29.9684 3.808C 29.9684 3.04 30.1337 2.368 30.4644 1.792C 30.795 1.216 31.2644 0.773334 31.8724 0.464001C 32.4804 0.154667 33.1897 0 34.0004 0C 34.9604 0 35.7924 0.224 36.4964 0.672C 37.2004 1.10933 37.739 1.744 38.1124 2.576C 38.4857 3.39733 38.6724 4.37333 38.6724 5.504C 38.6724 6.688 38.4697 7.728 38.0644 8.624C 37.659 9.52 37.0777 10.2133 36.3204 10.704C 35.563 11.184 34.683 11.424 33.6804 11.424C 33.0937 11.424 32.4857 11.344 31.8564 11.184C 31.227 11.0133 30.683 10.7893 30.2244 10.512L 31.1684 8.72ZM 34.1124 2.048C 33.5364 2.048 33.083 2.20267 32.7524 2.512C 32.4217 2.82133 32.2564 3.25867 32.2564 3.824C 32.2564 4.35733 32.4164 4.77867 32.7364 5.088C 33.0564 5.39733 33.4937 5.552 34.0484 5.552C 34.6564 5.552 35.131 5.38667 35.4724 5.056C 35.8244 4.71467 36.0004 4.288 36.0004 3.776C 36.0004 3.296 35.8404 2.89067 35.5204 2.56C 35.2004 2.21867 34.731 2.048 34.1124 2.048Z"/>
<path id="path60_fill" d="M 6.18 7.404L 6.18 8.448L 0.108 8.448L 0.108 7.56L 3.36 4.188C 3.712 3.836 3.992 3.488 4.2 3.144C 4.408 2.792 4.512 2.488 4.512 2.232C 4.512 1.856 4.364 1.56 4.068 1.344C 3.78 1.128 3.38 1.02 2.868 1.02C 2.476 1.02 2.068 1.112 1.644 1.296C 1.22 1.472 0.836 1.72 0.492 2.04L 0 1.164C 0.456 0.796 0.94 0.512 1.452 0.312C 1.972 0.104 2.492 0 3.012 0C 3.828 0 4.48 0.188 4.968 0.564C 5.464 0.94 5.712 1.444 5.712 2.076C 5.712 2.82 5.192 3.732 4.152 4.812L 1.62 7.404L 6.18 7.404Z"/>
<path id="path61_fill" d="M 10.9335 0C 12.0615 0 12.9295 0.368 13.5375 1.104C 14.1455 1.832 14.4495 2.88 14.4495 4.248C 14.4495 5.616 14.1455 6.668 13.5375 7.404C 12.9295 8.14 12.0615 8.508 10.9335 8.508C 9.7975 8.508 8.9255 8.14 8.3175 7.404C 7.7175 6.668 7.4175 5.616 7.4175 4.248C 7.4175 2.88 7.7175 1.832 8.3175 1.104C 8.9255 0.368 9.7975 0 10.9335 0ZM 10.9335 0.912C 9.3815 0.912 8.6055 2.024 8.6055 4.248C 8.6055 5.352 8.8015 6.184 9.1935 6.744C 9.5855 7.304 10.1655 7.584 10.9335 7.584C 11.7015 7.584 12.2815 7.304 12.6735 6.744C 13.0655 6.184 13.2615 5.352 13.2615 4.248C 13.2615 2.024 12.4855 0.912 10.9335 0.912Z"/>
<path id="path62_fill" d="M 21.6488 7.404L 21.6488 8.448L 15.5767 8.448L 15.5767 7.56L 18.8288 4.188C 19.1808 3.836 19.4608 3.488 19.6688 3.144C 19.8768 2.792 19.9808 2.488 19.9808 2.232C 19.9808 1.856 19.8328 1.56 19.5368 1.344C 19.2488 1.128 18.8488 1.02 18.3368 1.02C 17.9448 1.02 17.5368 1.112 17.1128 1.296C 16.6888 1.472 16.3048 1.72 15.9608 2.04L 15.4688 1.164C 15.9248 0.796 16.4087 0.512 16.9207 0.312C 17.4407 0.104 17.9608 0 18.4808 0C 19.2968 0 19.9488 0.188 20.4368 0.564C 20.9328 0.94 21.1807 1.444 21.1807 2.076C 21.1807 2.82 20.6608 3.732 19.6208 4.812L 17.0888 7.404L 21.6488 7.404Z"/>
<path id="path63_fill" d="M 26.4023 0C 27.5303 0 28.3982 0.368 29.0062 1.104C 29.6142 1.832 29.9183 2.88 29.9183 4.248C 29.9183 5.616 29.6142 6.668 29.0062 7.404C 28.3982 8.14 27.5303 8.508 26.4023 8.508C 25.2663 8.508 24.3943 8.14 23.7863 7.404C 23.1863 6.668 22.8862 5.616 22.8862 4.248C 22.8862 2.88 23.1863 1.832 23.7863 1.104C 24.3943 0.368 25.2663 0 26.4023 0ZM 26.4023 0.912C 24.8503 0.912 24.0743 2.024 24.0743 4.248C 24.0743 5.352 24.2703 6.184 24.6623 6.744C 25.0543 7.304 25.6343 7.584 26.4023 7.584C 27.1703 7.584 27.7502 7.304 28.1423 6.744C 28.5342 6.184 28.7303 5.352 28.7303 4.248C 28.7303 2.024 27.9543 0.912 26.4023 0.912Z"/>
<path id="path64_fill" d="M 0 0L 40 0L 40 223L 0 223L 0 0Z"/>
<path id="path65_fill" d="M 4.528 4.192C 5.38133 4.192 6.13333 4.336 6.784 4.624C 7.43467 4.912 7.936 5.312 8.288 5.824C 8.64 6.336 8.816 6.92267 8.816 7.584C 8.816 8.352 8.62933 9.02933 8.256 9.616C 7.89333 10.192 7.37067 10.64 6.688 10.96C 6.016 11.2693 5.232 11.424 4.336 11.424C 3.61067 11.424 2.85333 11.3013 2.064 11.056C 1.28533 10.8 0.597333 10.4693 0 10.064L 0.976 8.176C 1.44533 8.56 1.94667 8.85867 2.48 9.072C 3.01333 9.28533 3.54133 9.392 4.064 9.392C 4.69333 9.392 5.18933 9.248 5.552 8.96C 5.91467 8.66133 6.096 8.26133 6.096 7.76C 6.096 7.26933 5.91467 6.896 5.552 6.64C 5.2 6.37333 4.672 6.24 3.968 6.24C 3.57333 6.24 3.05067 6.25067 2.4 6.272C 1.76 6.28267 1.27467 6.304 0.944 6.336L 0.944 0.112L 8.304 0.112L 8.304 2.224L 3.28 2.224L 3.28 4.192L 4.528 4.192Z"/>
<path id="path66_fill" d="M 11.1528 8.72C 11.4834 8.95467 11.8514 9.136 12.2568 9.264C 12.6727 9.38133 13.0941 9.44 13.5208 9.44C 14.4488 9.44 15.1474 9.14667 15.6168 8.56C 16.0861 7.96267 16.3101 7.136 16.2888 6.08C 15.7021 6.98667 14.7741 7.44 13.5048 7.44C 12.4168 7.44 11.5528 7.10933 10.9128 6.448C 10.2728 5.78667 9.95275 4.90667 9.95275 3.808C 9.95275 3.04 10.1181 2.368 10.4487 1.792C 10.7794 1.216 11.2488 0.773334 11.8568 0.464001C 12.4648 0.154667 13.1741 0 13.9848 0C 14.9448 0 15.7768 0.224 16.4808 0.672C 17.1848 1.10933 17.7234 1.744 18.0968 2.576C 18.4701 3.39733 18.6568 4.37333 18.6568 5.504C 18.6568 6.688 18.4541 7.728 18.0487 8.624C 17.6434 9.52 17.0621 10.2133 16.3048 10.704C 15.5474 11.184 14.6674 11.424 13.6648 11.424C 13.0781 11.424 12.4701 11.344 11.8407 11.184C 11.2114 11.0133 10.6674 10.7893 10.2087 10.512L 11.1528 8.72ZM 14.0968 2.048C 13.5208 2.048 13.0674 2.20267 12.7367 2.512C 12.4061 2.82133 12.2407 3.25867 12.2407 3.824C 12.2407 4.35733 12.4008 4.77867 12.7208 5.088C 13.0408 5.39733 13.4781 5.552 14.0328 5.552C 14.6408 5.552 15.1154 5.38667 15.4568 5.056C 15.8088 4.71467 15.9848 4.288 15.9848 3.776C 15.9848 3.296 15.8248 2.89067 15.5048 2.56C 15.1848 2.21867 14.7154 2.048 14.0968 2.048Z"/>
<path id="path67_fill" d="M 21.3589 8.912C 21.7215 8.912 22.0149 9.02933 22.2389 9.264C 22.4735 9.49867 22.5909 9.80267 22.5909 10.176C 22.5909 10.5493 22.4735 10.8587 22.2389 11.104C 22.0149 11.3387 21.7215 11.456 21.3589 11.456C 21.0069 11.456 20.7135 11.3333 20.4789 11.088C 20.2442 10.8427 20.1269 10.5387 20.1269 10.176C 20.1269 9.80267 20.2442 9.49867 20.4789 9.264C 20.7135 9.02933 21.0069 8.912 21.3589 8.912Z"/>
<path id="path68_fill" d="M 23.4285 0.112L 32.2125 0.112L 32.2125 1.92L 27.7965 11.312L 25.1245 11.312L 29.3805 2.224L 25.6845 2.224L 25.6685 3.792L 23.4285 3.792L 23.4285 0.112Z"/>
<path id="path69_fill" d="M 34.309 8.72C 34.6397 8.95467 35.0077 9.136 35.413 9.264C 35.829 9.38133 36.2503 9.44 36.677 9.44C 37.605 9.44 38.3037 9.14667 38.773 8.56C 39.2423 7.96267 39.4663 7.136 39.445 6.08C 38.8583 6.98667 37.9303 7.44 36.661 7.44C 35.573 7.44 34.709 7.10933 34.069 6.448C 33.429 5.78667 33.109 4.90667 33.109 3.808C 33.109 3.04 33.2743 2.368 33.605 1.792C 33.9357 1.216 34.405 0.773334 35.013 0.464001C 35.621 0.154667 36.3303 0 37.141 0C 38.101 0 38.933 0.224 39.637 0.672C 40.341 1.10933 40.8797 1.744 41.253 2.576C 41.6263 3.39733 41.813 4.37333 41.813 5.504C 41.813 6.688 41.6103 7.728 41.205 8.624C 40.7997 9.52 40.2183 10.2133 39.461 10.704C 38.7037 11.184 37.8237 11.424 36.821 11.424C 36.2343 11.424 35.6263 11.344 34.997 11.184C 34.3677 11.0133 33.8237 10.7893 33.365 10.512L 34.309 8.72ZM 37.253 2.048C 36.677 2.048 36.2237 2.20267 35.893 2.512C 35.5623 2.82133 35.397 3.25867 35.397 3.824C 35.397 4.35733 35.557 4.77867 35.877 5.088C 36.197 5.39733 36.6343 5.552 37.189 5.552C 37.797 5.552 38.2717 5.38667 38.613 5.056C 38.965 4.71467 39.141 4.288 39.141 3.776C 39.141 3.296 38.981 2.89067 38.661 2.56C 38.341 2.21867 37.8717 2.048 37.253 2.048Z"/>
</defs>
</svg>
