<?xml version="1.0" encoding="utf-8"?>
<!-- Generator: Adobe Illustrator 19.2.1, SVG Export Plug-In . SVG Version: 6.00 Build 0)  -->
<svg version="1.1" id="Слой_1" xmlns="http://www.w3.org/2000/svg" xmlns:xlink="http://www.w3.org/1999/xlink" x="0px" y="0px"
	 viewBox="0 0 35.9 37.3" style="enable-background:new 0 0 35.9 37.3;" xml:space="preserve">
<style type="text/css">
	.st0{fill:#D3145A;}
</style>
<g>
	<path class="st0" d="M18.1,36.1c-9.8,0-17.8-8-17.8-17.8c0-9.8,8-17.8,17.8-17.8s17.8,8,17.8,17.8C35.9,28.1,27.9,36.1,18.1,36.1z
		 M18.1,1.5C8.8,1.5,1.3,9,1.3,18.3s7.6,16.8,16.8,16.8c9.3,0,16.8-7.6,16.8-16.8S27.4,1.5,18.1,1.5z"/>
	<rect x="-2.2" y="30.7" transform="matrix(0.6762 -0.7367 0.7367 0.6762 -21.1007 14.2949)" class="st0" width="15.8" height="1"/>
	<rect x="21.8" y="5.7" transform="matrix(0.6767 -0.7363 0.7363 0.6767 5.077 23.8636)" class="st0" width="15.8" height="1"/>
</g>
</svg>
