<?xml version="1.0" encoding="utf-8"?>
<!-- Generator: Adobe Illustrator 19.2.1, SVG Export Plug-In . SVG Version: 6.00 Build 0)  -->
<svg version="1.1" id="Слой_1" xmlns="http://www.w3.org/2000/svg" xmlns:xlink="http://www.w3.org/1999/xlink" x="0px" y="0px"
	 viewBox="0 0 39 38" style="enable-background:new 0 0 39 38;" xml:space="preserve">
<style type="text/css">
	.st0{fill:#FFFFFF;}
</style>
<g>
	<path class="st0" d="M36.4,9.7c-1.7-3-4.1-5.4-7.1-7.1C26.3,0.9,23,0,19.5,0C16,0,12.7,0.9,9.7,2.6c-3,1.7-5.4,4.1-7.1,7.1
		C0.9,12.7,0,16,0,19.5c0,4.2,1.2,8.1,3.7,11.5c2.5,3.4,5.7,5.7,9.6,7c0.5,0.1,0.8,0,1-0.2c0.2-0.2,0.3-0.5,0.3-0.8
		c0-0.1,0-0.5,0-1.4c0-0.9,0-1.6,0-2.3l-0.6,0.1c-0.4,0.1-0.8,0.1-1.4,0.1c-0.6,0-1.2-0.1-1.8-0.2c-0.6-0.1-1.2-0.4-1.7-0.8
		c-0.5-0.4-0.9-0.9-1.1-1.6l-0.3-0.6c-0.2-0.4-0.4-0.8-0.8-1.3c-0.4-0.5-0.7-0.8-1.1-1l-0.2-0.1c-0.1-0.1-0.2-0.2-0.3-0.3
		c-0.1-0.1-0.2-0.2-0.2-0.4c-0.1-0.1,0-0.2,0.1-0.3c0.1-0.1,0.4-0.1,0.7-0.1l0.5,0.1c0.3,0.1,0.8,0.3,1.3,0.6
		c0.5,0.3,0.9,0.8,1.2,1.3c0.4,0.7,0.9,1.2,1.4,1.6c0.6,0.4,1.1,0.5,1.7,0.5c0.6,0,1,0,1.4-0.1c0.4-0.1,0.8-0.2,1.1-0.4
		c0.2-1.1,0.6-2,1.2-2.6c-1-0.1-1.8-0.3-2.6-0.5c-0.8-0.2-1.6-0.5-2.4-1c-0.8-0.5-1.5-1-2-1.7c-0.5-0.7-1-1.6-1.3-2.7
		c-0.3-1.1-0.5-2.4-0.5-3.8c0-2,0.7-3.8,2-5.2C8.4,11.7,8.5,10,9.2,8.1c0.5-0.2,1.2,0,2.2,0.3c1,0.4,1.7,0.7,2.1,1
		c0.4,0.3,0.8,0.5,1.1,0.7c1.6-0.4,3.2-0.7,4.9-0.7c1.7,0,3.3,0.2,4.9,0.7l1-0.6c0.7-0.4,1.4-0.8,2.3-1.1c0.9-0.3,1.6-0.4,2.1-0.3
		c0.8,1.9,0.8,3.6,0.2,5.2c1.3,1.4,2,3.2,2,5.2c0,1.4-0.2,2.7-0.5,3.8c-0.3,1.1-0.8,2-1.3,2.7c-0.6,0.7-1.2,1.2-2.1,1.7
		c-0.8,0.5-1.6,0.8-2.4,1C24.9,27.9,24,28,23,28.1c0.9,0.8,1.3,2,1.3,3.6v5.4c0,0.3,0.1,0.6,0.3,0.8c0.2,0.2,0.5,0.3,1,0.2
		c3.9-1.3,7.1-3.7,9.6-7c2.5-3.4,3.7-7.2,3.7-11.5C39,16,38.1,12.7,36.4,9.7L36.4,9.7z M36.4,9.7"/>
</g>
</svg>
