<?xml version="1.0" encoding="utf-8"?>
<!-- Generator: Adobe Illustrator 19.2.1, SVG Export Plug-In . SVG Version: 6.00 Build 0)  -->
<svg version="1.1" id="Слой_1" xmlns="http://www.w3.org/2000/svg" xmlns:xlink="http://www.w3.org/1999/xlink" x="0px" y="0px"
	 viewBox="0 0 39 39" style="enable-background:new 0 0 39 39;" xml:space="preserve">
<style type="text/css">
	.st0{fill:#FFFFFF;}
</style>
<path class="st0" d="M19.4,17.8h-2v-4.5h2c1.2,0,2,0.1,2.4,0.2c0.5,0.1,0.8,0.4,1,0.7c0.2,0.3,0.4,0.8,0.4,1.2
	c0,0.5-0.1,0.9-0.4,1.2c-0.3,0.4-0.6,0.6-1.1,0.8C21.2,17.7,20.4,17.8,19.4,17.8L19.4,17.8z M23.2,21.6c0.2,0.4,0.4,0.8,0.4,1.4
	c0,0.6-0.2,1.2-0.5,1.6c-0.4,0.5-0.8,0.8-1.3,0.9c-0.5,0.1-1.2,0.2-1.9,0.2h-1.3c-0.4,0-0.7,0-0.8-0.1c-0.1-0.1-0.2-0.1-0.2-0.3
	c0-0.1-0.1-0.4-0.1-1v-4h2.4c1,0,1.8,0.1,2.3,0.3C22.6,20.9,22.9,21.2,23.2,21.6L23.2,21.6z M19.5,0C8.7,0,0,8.7,0,19.5
	C0,30.3,8.7,39,19.5,39C30.3,39,39,30.3,39,19.5C39,8.7,30.3,0,19.5,0L19.5,0z M27.4,26.1C26.9,26.9,26,27.6,25,28
	c-0.4,0.2-0.8,0.3-1.4,0.4v3.3h-3.1v-3c-0.1,0-0.1,0-0.2,0h-1.8v3h-3.1v-3h-4.7v-2.5h0.7c0.5,0,0.8,0,1-0.1c0.2-0.1,0.3-0.2,0.4-0.4
	c0.1-0.2,0.1-0.5,0.1-1V14.4c0-0.5,0-0.9-0.1-1c-0.1-0.1-0.2-0.3-0.4-0.4c-0.2-0.1-0.5-0.1-1-0.1h-0.7v-2.5h4.7v-3h3.1v3h2v-3h3.1
	v3.2c0.5,0.1,0.9,0.2,1.2,0.3c0.9,0.4,1.6,0.9,2.1,1.6c0.5,0.7,0.7,1.5,0.7,2.3c0,0.6-0.1,1.2-0.4,1.7c-0.3,0.5-0.6,1-1.1,1.4
	c-0.5,0.4-1.1,0.8-1.9,1c0.9,0.2,1.5,0.5,2,0.7c0.7,0.4,1.2,0.9,1.6,1.5c0.4,0.7,0.6,1.4,0.6,2.2C28.3,24.4,28,25.3,27.4,26.1
	L27.4,26.1z"/>
</svg>
