<?xml version="1.0" encoding="utf-8"?>
<!-- Generator: Adobe Illustrator 19.2.1, SVG Export Plug-In . SVG Version: 6.00 Build 0)  -->
<svg version="1.1" id="Слой_1" xmlns="http://www.w3.org/2000/svg" xmlns:xlink="http://www.w3.org/1999/xlink" x="0px" y="0px"
	 viewBox="0 0 39 39" style="enable-background:new 0 0 39 39;" xml:space="preserve">
<style type="text/css">
	.st0{fill:#FFFFFF;}
</style>
<g>
	<path class="st0" d="M19.5,0C8.7,0,0,8.7,0,19.5C0,30.3,8.7,39,19.5,39C30.3,39,39,30.3,39,19.5C39,8.7,30.3,0,19.5,0L19.5,0z
		 M24.3,20.2h-3.2v11.3h-4.7V20.2h-2.2v-4h2.2v-2.6c0-1.8,0.9-4.7,4.7-4.7l3.5,0v3.9h-2.5c-0.4,0-1,0.2-1,1.1v2.4h3.6L24.3,20.2z
		 M24.3,20.2"/>
</g>
</svg>
