<?xml version="1.0" encoding="utf-8"?>
<!-- Generator: Adobe Illustrator 19.2.1, SVG Export Plug-In . SVG Version: 6.00 Build 0)  -->
<svg version="1.1" id="Слой_1" xmlns="http://www.w3.org/2000/svg" xmlns:xlink="http://www.w3.org/1999/xlink" x="0px" y="0px"
	 viewBox="0 0 167.5 53.4" style="enable-background:new 0 0 167.5 53.4;" xml:space="preserve">
<style type="text/css">
	.st0{fill:#00A89C;}
	.st1{fill:#FFFFFF;}
</style>
<g>
	<path class="st0" d="M39.5,12.7c-0.2,0.4-0.3,0.9-0.3,1.3c0,0.8,0.3,1.5,0.9,2.1l0,0c0.5,0.5,1.3,0.9,2.1,0.9
		c0.4,0,0.8-0.1,1.2-0.3c0.5,0.6,1.3,0.9,2,1c0.9,0.1,1.8-0.1,2.6-0.7c0.8-0.6,1.2-1.4,1.4-2.3c0.1-0.9-0.1-1.8-0.7-2.6
		c-1.2-1.6-2.6-3.1-4.1-4.4c-1.5-1.3-3.2-2.4-5-3.3c-1.8-0.9-3.7-1.6-5.6-2.1c-1.9-0.5-3.9-0.7-6-0.7c-0.1,0-0.3,0-0.4,0
		c-0.1-0.3-0.3-0.6-0.6-0.9l0,0C26.4,0.3,25.6,0,24.8,0c-0.8,0-1.5,0.3-2.1,0.9c-0.4,0.4-0.7,0.9-0.8,1.5c-1.4,0.3-2.7,0.7-3.9,1.3
		C14.9,5,12,6.9,9.6,9.3c-2.4,2.4-4.3,5.2-5.6,8.4c-0.9,2.2-1.5,4.6-1.8,7.1c-0.5,0.1-1,0.4-1.4,0.8C0.3,26,0,26.7,0,27.5
		c0,0.8,0.3,1.5,0.9,2.1l0,0c0.4,0.4,0.8,0.6,1.4,0.8c0.3,2.5,0.9,4.8,1.8,7.1c1.3,3.2,3.2,6,5.6,8.4c2.4,2.4,5.2,4.3,8.4,5.6
		c3,1.3,6.4,2,9.9,2c2,0,4-0.2,6-0.7c2-0.5,3.9-1.2,5.6-2.1c1.6-0.8,3.1-1.8,4.5-2.9c0.4,0.3,1,0.4,1.5,0.4c0.8,0,1.5-0.3,2.1-0.9
		l0,0l0,0c0.5-0.5,0.9-1.3,0.9-2.1c0-0.6-0.2-1.1-0.4-1.5c0.2-0.3,0.4-0.5,0.6-0.8c0.6-0.8,0.8-1.7,0.7-2.6
		c-0.1-0.9-0.6-1.7-1.4-2.3c-0.8-0.6-1.7-0.8-2.6-0.7c-0.9,0.1-1.7,0.6-2.3,1.4c-1.8,2.4-4.1,4.3-6.7,5.6c-2.6,1.3-5.5,2-8.4,2
		c-1.5,0-3-0.2-4.3-0.5c-1.4-0.3-2.8-0.9-4.1-1.5c-0.7-0.4-1.5-0.8-2.2-1.3c0.2-0.4,0.3-0.8,0.3-1.2c0-0.8-0.3-1.5-0.9-2.1l0,0
		c-0.5-0.5-1.3-0.9-2.1-0.9c-0.5,0-1,0.1-1.4,0.4c-0.2-0.2-0.3-0.4-0.5-0.6c-0.3-0.4-0.4-0.9-0.3-1.4c0.1-0.5,0.3-0.9,0.7-1.2
		c0.4-0.3,0.9-0.4,1.4-0.3c0.5,0.1,0.9,0.3,1.2,0.7c0.7,0.9,1.5,1.8,2.4,2.6c0.9,0.8,1.9,1.4,2.9,1.9c1,0.5,2.1,0.9,3.3,1.2
		c1.1,0.3,2.3,0.4,3.5,0.4c2.4,0,4.7-0.6,6.8-1.6c0.3-0.1,0.5-0.3,0.8-0.4c0.5,0.4,1.1,0.7,1.8,0.7c0.8,0,1.5-0.3,2.1-0.9l0,0l0,0
		c0.5-0.5,0.9-1.3,0.9-2.1c0-0.6-0.2-1.1-0.4-1.5c0.1-0.1,0.2-0.2,0.2-0.3c0.6-0.8,0.8-1.7,0.7-2.6c-0.1-0.9-0.6-1.7-1.4-2.3
		c-0.8-0.6-1.7-0.8-2.6-0.7c-0.9,0.1-1.7,0.6-2.3,1.4c-0.4,0.5-0.8,1-1.3,1.4c-0.5,0.4-1,0.8-1.6,1c-0.5,0.3-1.1,0.5-1.7,0.6
		c-0.6,0.1-1.2,0.2-1.9,0.2c-1.1,0-2.1-0.2-3.1-0.6c-1-0.4-1.9-1-2.6-1.8c-0.7-0.7-1.3-1.6-1.8-2.6c-0.1-0.2-0.1-0.3-0.2-0.5
		c0.3-0.1,0.6-0.3,0.8-0.6l0,0l0,0c0.5-0.5,0.9-1.3,0.9-2.1c0-0.8-0.3-1.5-0.9-2.1l0,0c-0.2-0.2-0.5-0.4-0.8-0.6
		c0.1-0.2,0.1-0.3,0.2-0.5c0.4-1,1-1.9,1.8-2.6c0.7-0.7,1.6-1.3,2.6-1.8c0.9-0.4,2-0.6,3.1-0.6c0.6,0,1.3,0.1,1.9,0.2
		c0.6,0.1,1.2,0.4,1.8,0.6c0.6,0.3,1.1,0.6,1.6,1c0.5,0.4,0.9,0.9,1.3,1.4c0.6,0.8,1.4,1.3,2.3,1.4c0.9,0.1,1.8-0.1,2.6-0.7
		c0.8-0.6,1.3-1.4,1.4-2.3c0.1-0.9-0.1-1.8-0.7-2.6c-0.7-1-1.5-1.8-2.4-2.6h0c-0.9-0.8-1.9-1.4-2.9-1.9c-2.1-1.1-4.4-1.6-6.8-1.6
		c-2.3,0-4.7,0.5-6.8,1.6c-1.1,0.5-2,1.2-2.9,1.9c-0.9,0.8-1.7,1.6-2.4,2.6c-0.3,0.4-0.8,0.7-1.2,0.7c-0.5,0.1-1,0-1.4-0.3
		c-0.4-0.3-0.7-0.8-0.7-1.2c-0.1-0.5,0-1,0.3-1.4c0.9-1.2,1.9-2.3,3-3.2c1.1-0.9,2.3-1.7,3.7-2.4c1.3-0.7,2.7-1.2,4.1-1.5
		c1.4-0.3,2.9-0.5,4.3-0.5c3,0,5.9,0.7,8.5,2C37.5,11.2,38.5,11.9,39.5,12.7L39.5,12.7z M44.2,12c-0.5-0.5-1.3-0.9-2.1-0.9
		c-0.5,0-1,0.1-1.4,0.4c-1.1-0.9-2.3-1.7-3.6-2.3c-2.8-1.4-5.9-2.2-9.2-2.2c-1.6,0-3.2,0.2-4.7,0.6c-1.6,0.4-3.1,0.9-4.5,1.6
		c-1.4,0.7-2.8,1.6-4,2.6c-1.2,1-2.3,2.2-3.3,3.5c-0.6,0.8-0.8,1.7-0.7,2.6c0.1,0.9,0.6,1.7,1.4,2.3c0.8,0.6,1.7,0.8,2.6,0.7
		c0.9-0.1,1.7-0.6,2.3-1.4c0.6-0.8,1.3-1.6,2.1-2.3c0.8-0.7,1.7-1.2,2.6-1.7c1.9-1,4-1.4,6.1-1.4c2.1,0,4.1,0.5,6,1.4
		c0.9,0.5,1.8,1,2.6,1.7l0,0c0.8,0.7,1.5,1.4,2.2,2.3c0.3,0.4,0.4,0.9,0.3,1.4c-0.1,0.5-0.3,0.9-0.7,1.2c-0.4,0.3-0.9,0.4-1.4,0.3
		c-0.5-0.1-0.9-0.3-1.2-0.7c-0.5-0.6-1-1.2-1.6-1.6c-0.6-0.5-1.2-0.9-1.9-1.2c-0.7-0.3-1.4-0.6-2.1-0.8c-0.7-0.2-1.5-0.3-2.2-0.3
		c-1.3,0-2.6,0.3-3.7,0.7c-1.2,0.5-2.3,1.2-3.1,2.1c-0.9,0.9-1.6,2-2.1,3.1c-0.1,0.3-0.2,0.5-0.3,0.8c-0.6,0.1-1.2,0.4-1.7,0.8
		c-0.5,0.5-0.9,1.3-0.9,2.1c0,0.8,0.3,1.5,0.9,2.1l0,0c0.4,0.4,1,0.7,1.7,0.8c0.1,0.3,0.2,0.6,0.3,0.8c0.5,1.2,1.2,2.3,2.1,3.1
		c0.9,0.9,2,1.6,3.2,2.1c1.1,0.5,2.4,0.7,3.7,0.7c0.8,0,1.5-0.1,2.2-0.3c0.7-0.2,1.4-0.4,2.1-0.8c0.7-0.3,1.3-0.8,1.9-1.2
		c0.6-0.5,1.1-1,1.6-1.6c0.3-0.4,0.8-0.7,1.2-0.7c0.5-0.1,1,0,1.4,0.3c0.4,0.3,0.7,0.8,0.7,1.2c0.1,0.5,0,1-0.3,1.4l-0.1,0.2
		c-0.4-0.2-0.8-0.3-1.3-0.3c-0.8,0-1.5,0.3-2.1,0.9c-0.5,0.5-0.9,1.3-0.9,2.1c0,0.3,0.1,0.6,0.1,0.9c-0.2,0.1-0.4,0.2-0.6,0.3
		c-1.8,0.9-3.9,1.4-6.1,1.4c-1.1,0-2.1-0.1-3.1-0.4c-1-0.2-2-0.6-2.9-1.1c-0.9-0.5-1.8-1.1-2.6-1.7c-0.8-0.7-1.5-1.4-2.1-2.3
		c-0.6-0.8-1.4-1.3-2.3-1.4c-0.9-0.1-1.8,0.1-2.6,0.7c-0.8,0.6-1.3,1.4-1.4,2.3c-0.1,0.9,0.1,1.8,0.7,2.6c0.2,0.3,0.4,0.5,0.6,0.8
		c-0.2,0.4-0.4,0.9-0.4,1.4c0,0.8,0.3,1.5,0.9,2.1l0,0c0.5,0.5,1.3,0.9,2.1,0.9c0.6,0,1.1-0.2,1.6-0.5c0.8,0.5,1.6,1,2.5,1.5
		c1.4,0.7,2.9,1.3,4.5,1.6c1.5,0.4,3.1,0.6,4.7,0.6c3.2,0,6.4-0.8,9.2-2.2c2.8-1.4,5.3-3.5,7.2-6.1c0.3-0.4,0.8-0.7,1.2-0.7
		c0.5-0.1,1,0,1.4,0.3c0.4,0.3,0.7,0.8,0.7,1.2c0.1,0.5,0,1-0.3,1.4c-0.2,0.2-0.3,0.5-0.5,0.7c-0.4-0.2-0.8-0.3-1.3-0.3
		c-0.8,0-1.5,0.3-2.1,0.9c-0.5,0.5-0.9,1.3-0.9,2.1c0,0.5,0.1,0.9,0.3,1.3c-1.3,1-2.7,1.9-4.1,2.6c-1.7,0.8-3.5,1.5-5.3,1.9
		c-1.8,0.4-3.7,0.7-5.6,0.7c-3.3,0-6.4-0.7-9.3-1.8c-3-1.2-5.6-3-7.9-5.3c-2.2-2.2-4-4.9-5.3-7.9c-0.8-2-1.4-4.2-1.7-6.5
		c0.4-0.1,0.8-0.4,1.1-0.7l0,0l0,0c0.5-0.5,0.9-1.3,0.9-2.1c0-0.8-0.3-1.5-0.9-2.1l0,0c-0.3-0.3-0.7-0.5-1.1-0.7
		c0.3-2.3,0.8-4.5,1.7-6.5c1.2-3,3-5.6,5.3-7.9c2.2-2.2,4.9-4,7.9-5.3C19.8,4.7,21,4.3,22.2,4c0.1,0.4,0.4,0.7,0.6,0.9l0,0
		c0.5,0.5,1.3,0.9,2.1,0.9c0.8,0,1.5-0.3,2.1-0.9l0,0l0,0c0.4-0.4,0.7-1,0.8-1.6l0.2,0c1.9,0,3.8,0.2,5.6,0.7
		c1.8,0.4,3.6,1.1,5.3,1.9c1.7,0.8,3.3,1.9,4.7,3.1c1.4,1.2,2.7,2.6,3.9,4.1c0.3,0.4,0.4,0.9,0.3,1.4c-0.1,0.5-0.3,0.9-0.7,1.2
		c-0.4,0.3-0.9,0.4-1.4,0.3c-0.4-0.1-0.7-0.2-1-0.5c0.3-0.5,0.5-1,0.5-1.6C45,13.2,44.7,12.5,44.2,12L44.2,12L44.2,12L44.2,12z"/>
	<g>
		<path class="st1" d="M58.7,36.7V11.9h2.4v22.4h5.7v2.3H58.7z"/>
		<path class="st1" d="M77.8,17.1v19.6h-2.3v-1.5c-0.2,0.6-0.5,1-1,1.3c-0.4,0.3-1,0.5-1.8,0.5c-1,0-1.7-0.2-2.3-0.6
			c-0.6-0.4-1-0.9-1.2-1.5c-0.3-0.6-0.5-1.3-0.5-2.2c-0.1-0.8-0.1-1.7-0.1-2.5V17.1h2.3v13.2c0,0.7,0,1.2,0,1.8c0,0.5,0.1,1,0.3,1.4
			s0.4,0.7,0.7,0.9c0.3,0.2,0.7,0.3,1.3,0.3c0.5,0,0.9-0.1,1.2-0.3c0.3-0.2,0.5-0.4,0.7-0.7c0.2-0.3,0.3-0.7,0.3-1.2s0.1-1,0.1-1.6
			V17.1H77.8z"/>
		<path class="st1" d="M87.7,30.3H90v0.5c0,0.7,0,1.5-0.1,2.2c-0.1,0.7-0.3,1.4-0.6,2c-0.3,0.6-0.8,1.1-1.4,1.4S86.4,37,85.4,37
			c-0.7,0-1.3-0.1-1.8-0.2c-0.5-0.2-0.9-0.4-1.3-0.7s-0.6-0.7-0.8-1.1s-0.4-0.9-0.5-1.4c-0.1-0.5-0.2-1-0.2-1.6c0-0.6,0-1.1,0-1.7
			v-6c0-0.3,0-0.6,0-1c0-0.3,0-0.7,0-1c0-0.8,0.1-1.6,0.2-2.3s0.4-1.3,0.7-1.7c0.3-0.5,0.8-0.8,1.4-1.1c0.6-0.3,1.3-0.4,2.3-0.4
			c1,0,1.9,0.2,2.5,0.6s1.1,0.8,1.4,1.4c0.3,0.6,0.5,1.3,0.6,2c0.1,0.7,0.1,1.5,0.1,2.2v0.5h-2.3V23c0-0.5,0-1,0-1.4
			c0-0.5-0.1-0.9-0.3-1.2c-0.1-0.4-0.4-0.6-0.7-0.9c-0.3-0.2-0.7-0.3-1.3-0.3c-0.5,0-1,0.1-1.3,0.3c-0.3,0.2-0.5,0.5-0.7,0.9
			c-0.1,0.4-0.2,0.8-0.3,1.4c0,0.5,0,1.2,0,1.9v5.7c0,0.3,0,0.6,0,0.8c0,0.3,0,0.5,0,0.8c0,0.5,0,1,0,1.5c0,0.4,0.1,0.7,0.2,1
			c0.1,0.3,0.2,0.6,0.4,0.8c0.2,0.2,0.4,0.4,0.7,0.5c0.3,0.1,0.6,0.2,1,0.2c0.5,0,1-0.1,1.3-0.3c0.3-0.2,0.5-0.5,0.7-0.8
			c0.2-0.4,0.2-0.8,0.3-1.2c0-0.5,0.1-1,0.1-1.5V30.3z"/>
		<path class="st1" d="M95,11.2v14.6h1.4l3.3-8.6h2.4l-3.8,9.8l4.3,9.8H100l-3.6-8.6H95v8.6h-2.3V11.2H95z"/>
		<path class="st1" d="M105.1,17.1l2.6,17.5h0.1l0.5-2.8l2.2-14.7h2.4c-0.4,2.2-0.7,4.4-1.1,6.6c-0.4,2.2-0.7,4.4-1.1,6.6l-1,6.5
			c-0.3,1.7-0.7,3-1.3,4.1c-0.6,1-1.3,1.8-2.2,2.3l-1-1.6c0.6-0.4,1-0.9,1.4-1.7c0.4-0.7,0.7-1.7,0.9-2.9l0-0.4h-1.5l-3.1-19.6
			H105.1z"/>
		<path class="st1" d="M123.7,29.3v1.5c0,0.8-0.1,1.6-0.2,2.3c-0.1,0.7-0.3,1.4-0.7,2c-0.3,0.6-0.8,1-1.5,1.4
			c-0.6,0.3-1.5,0.5-2.5,0.5c-1,0-1.9-0.2-2.5-0.5c-0.6-0.3-1.1-0.8-1.4-1.4c-0.3-0.6-0.6-1.3-0.7-2.1s-0.2-1.6-0.2-2.5V18.2
			c0-0.9,0.1-1.8,0.2-2.6c0.1-0.8,0.3-1.5,0.7-2.1c0.3-0.6,0.8-1.1,1.5-1.4c0.6-0.3,1.5-0.5,2.5-0.5c1,0,1.9,0.2,2.5,0.5
			c0.6,0.4,1.1,0.8,1.4,1.4c0.3,0.6,0.6,1.3,0.7,2c0.1,0.7,0.2,1.5,0.2,2.3v1.4h-2.4V18c0-0.6,0-1.1-0.1-1.6c0-0.5-0.2-0.9-0.3-1.2
			c-0.2-0.3-0.4-0.6-0.7-0.8c-0.3-0.2-0.7-0.3-1.3-0.3c-0.5,0-1,0.1-1.3,0.3s-0.6,0.4-0.7,0.8c-0.2,0.3-0.3,0.8-0.3,1.3
			c0,0.5-0.1,1.1-0.1,1.8v12.2c0,0.7,0,1.2,0.1,1.8s0.1,1,0.3,1.4c0.2,0.4,0.4,0.7,0.7,0.9c0.3,0.2,0.8,0.3,1.3,0.3
			c0.5,0,0.9-0.1,1.2-0.3c0.3-0.2,0.6-0.4,0.7-0.8s0.3-0.7,0.3-1.2c0.1-0.5,0.1-1,0.1-1.7v-1.5H123.7z"/>
		<path class="st1" d="M133.3,36.7V23.4c0-0.7,0-1.2,0-1.8c0-0.5-0.1-1-0.3-1.4s-0.4-0.7-0.7-0.9c-0.3-0.2-0.7-0.3-1.3-0.3
			c-0.5,0-0.9,0.1-1.2,0.3c-0.3,0.2-0.5,0.5-0.7,0.8c-0.2,0.4-0.3,0.8-0.3,1.4c0,0.5-0.1,1.2-0.1,1.9v13.2h-2.3V11.2h2.3v7.5
			c0.2-0.7,0.6-1.1,1-1.4s1.1-0.4,1.8-0.4c0.9,0,1.7,0.2,2.2,0.6c0.5,0.4,0.9,0.9,1.2,1.5c0.3,0.6,0.4,1.4,0.5,2.2
			c0.1,0.8,0.1,1.7,0.1,2.6v13H133.3z"/>
		<path class="st1" d="M145.4,36.7v-1.6c-0.1,0.4-0.2,0.7-0.4,0.9c-0.2,0.2-0.4,0.4-0.6,0.6c-0.2,0.1-0.5,0.2-0.8,0.3
			c-0.3,0.1-0.6,0.1-1,0.1c-0.8,0-1.5-0.2-2.1-0.5c-0.5-0.3-1-0.8-1.3-1.3c-0.3-0.5-0.5-1.2-0.6-1.9c-0.1-0.7-0.2-1.5-0.2-2.3
			c0-0.7,0-1.4,0.1-2.1s0.3-1.3,0.5-1.8c0.3-0.5,0.7-0.9,1.2-1.2c0.5-0.3,1.3-0.5,2.2-0.5c0.7,0,1.3,0.1,1.7,0.2
			c0.4,0.1,0.8,0.3,1.1,0.4v-2.7c0-0.7,0-1.3,0-1.8c0-0.5-0.1-1-0.3-1.3c-0.2-0.4-0.4-0.6-0.7-0.8c-0.3-0.2-0.7-0.3-1.3-0.3
			c-0.5,0-0.9,0.1-1.2,0.2c-0.3,0.2-0.5,0.4-0.7,0.7c-0.2,0.3-0.3,0.6-0.3,1c0,0.4-0.1,0.8-0.1,1.3v1.1h-2.3v-1.1
			c0-0.7,0-1.4,0.1-2.1c0.1-0.7,0.3-1.3,0.6-1.8s0.8-0.9,1.4-1.2c0.6-0.3,1.4-0.5,2.4-0.5c0.9,0,1.7,0.1,2.3,0.4
			c0.6,0.3,1.1,0.7,1.4,1.2c0.3,0.5,0.6,1.1,0.7,1.8c0.1,0.7,0.2,1.5,0.2,2.3v14.1H145.4z M143.1,34.7c0.5,0,0.9-0.1,1.2-0.3
			c0.3-0.2,0.5-0.4,0.7-0.8c0.2-0.3,0.3-0.7,0.3-1.2c0-0.5,0.1-1,0.1-1.6v-2.5c-0.3-0.2-0.6-0.4-0.9-0.5s-0.8-0.2-1.4-0.2
			c-0.5,0-0.9,0.1-1.3,0.3c-0.3,0.2-0.5,0.5-0.7,0.9c-0.2,0.4-0.2,0.7-0.3,1.2s-0.1,0.8-0.1,1.2c0,0.5,0,1,0.1,1.4
			c0.1,0.4,0.2,0.8,0.3,1.1c0.2,0.3,0.4,0.5,0.7,0.7C142.2,34.6,142.6,34.7,143.1,34.7z"/>
		<path class="st1" d="M150.8,12.4c0-0.4,0.1-0.7,0.3-1s0.6-0.3,1.1-0.3c0.5,0,0.9,0.1,1.1,0.3s0.3,0.6,0.3,1c0,0.4-0.1,0.7-0.3,1
			c-0.2,0.2-0.6,0.3-1.1,0.3c-0.5,0-0.8-0.1-1.1-0.3C150.9,13.1,150.8,12.8,150.8,12.4z M151.1,36.7V17.1h2.3v19.6H151.1z"/>
		<path class="st1" d="M163.7,36.7V23.4c0-0.7,0-1.2,0-1.8c0-0.5-0.1-1-0.3-1.4s-0.4-0.7-0.7-0.9c-0.3-0.2-0.7-0.3-1.3-0.3
			c-0.5,0-0.9,0.1-1.2,0.3c-0.3,0.2-0.5,0.5-0.7,0.8c-0.2,0.4-0.3,0.8-0.3,1.4c0,0.5-0.1,1.2-0.1,1.9v13.2h-2.3V17.1h2.3v1.6
			c0.4-1.2,1.3-1.8,2.9-1.8c0.9,0,1.6,0.2,2.2,0.6c0.5,0.4,0.9,0.9,1.2,1.5c0.3,0.6,0.4,1.4,0.5,2.2c0.1,0.8,0.1,1.7,0.1,2.6v13
			H163.7z"/>
	</g>
</g>
</svg>
