<?xml version="1.0" encoding="utf-8"?>
<!-- Generator: Adobe Illustrator 19.2.1, SVG Export Plug-In . SVG Version: 6.00 Build 0)  -->
<svg version="1.1" id="Слой_1" xmlns="http://www.w3.org/2000/svg" xmlns:xlink="http://www.w3.org/1999/xlink" x="0px" y="0px"
	 viewBox="0 0 138.4 138.4" style="enable-background:new 0 0 138.4 138.4;" xml:space="preserve">
<style type="text/css">
	.st0{fill:#FFFFFF;}
</style>
<g>
	<path class="st0" d="M105.1,67.3L54.4,32.7c-0.7-0.5-1.6-0.5-2.4-0.1c-0.8,0.4-1.2,1.2-1.2,2v69.2c0,0.9,0.5,1.6,1.2,2
		c0.3,0.2,0.7,0.3,1.1,0.3c0.5,0,0.9-0.1,1.3-0.4l50.7-34.6c0.6-0.4,1-1.1,1-1.9C106.1,68.4,105.7,67.7,105.1,67.3L105.1,67.3z
		 M55.4,99.4V39l44.4,30.2L55.4,99.4z M55.4,99.4"/>
	<path class="st0" d="M69.2,0C31,0,0,31,0,69.2c0,38.2,31,69.2,69.2,69.2c38.2,0,69.2-31,69.2-69.2C138.4,31,107.4,0,69.2,0L69.2,0z
		 M69.2,133.8c-35.6,0-64.6-29-64.6-64.6c0-35.6,29-64.6,64.6-64.6c35.6,0,64.6,29,64.6,64.6C133.8,104.8,104.8,133.8,69.2,133.8
		L69.2,133.8z M69.2,133.8"/>
</g>
</svg>
