<?xml version="1.0" encoding="utf-8"?>
<!-- Generator: Adobe Illustrator 19.2.1, SVG Export Plug-In . SVG Version: 6.00 Build 0)  -->
<svg version="1.1" id="Слой_1" xmlns="http://www.w3.org/2000/svg" xmlns:xlink="http://www.w3.org/1999/xlink" x="0px" y="0px"
	 viewBox="0 0 56.9 59.2" style="enable-background:new 0 0 56.9 59.2;" xml:space="preserve">
<style type="text/css">
	.st0{fill:#FFFFFF;}
</style>
<g>
	<path class="st0" d="M28.6,57.4C12.9,57.4,0.2,44.7,0.2,29S12.9,0.7,28.6,0.7S56.9,13.4,56.9,29S44.2,57.4,28.6,57.4z M28.6,2.7
		C14,2.7,2.2,14.5,2.2,29c0,14.5,11.8,26.4,26.4,26.4S54.9,43.6,54.9,29C54.9,14.5,43.1,2.7,28.6,2.7z"/>
	<rect x="-3.3" y="48.3" transform="matrix(0.6767 -0.7363 0.7363 0.6767 -33.3501 22.6989)" class="st0" width="24.9" height="2"/>
	<rect x="34.6" y="8.9" transform="matrix(0.6767 -0.7363 0.7363 0.6767 7.9607 37.836)" class="st0" width="24.9" height="2"/>
</g>
</svg>
